<svg width="135" height="46" viewBox="0 0 135 46" fill="none" xmlns="http://www.w3.org/2000/svg">
<g clip-path="url(#clip0)">
<path d="M59.1619 18.3232C59.1619 18.8253 59.7921 19.0217 62.0976 19.0217C64.6359 19.0217 64.9558 18.8543 64.9558 18.5388C64.9558 18.2041 64.7816 18.0367 61.7303 17.9385C57.6133 17.8001 56.5176 17.1113 56.5176 15.5856C56.5176 13.9601 57.9712 13.1135 61.9045 13.1135C66.0895 13.1135 67.4069 13.6446 67.4069 15.3586C67.4069 15.5067 67.4069 15.6548 67.3974 15.8222C67.1077 15.8028 66.593 15.7932 66.099 15.7932C65.586 15.7932 65.0714 15.8028 64.7816 15.8222V15.6355C64.7816 15.1333 64.4332 14.966 61.8649 14.966C59.5008 14.966 59.1524 15.114 59.1524 15.4085C59.1524 15.7031 59.3361 15.8318 62.5822 15.9992C66.4284 16.1955 67.6096 16.7669 67.6096 18.4213C67.6096 20.145 66.2637 20.9723 62.1261 20.9723C57.9015 20.9723 56.459 20.2529 56.459 18.7561C56.459 18.5791 56.4685 18.3924 56.4986 18.1944C56.8374 18.233 57.3505 18.2636 57.835 18.2636C58.329 18.2636 58.7946 18.254 59.1619 18.2347V18.3232Z" fill="white"/>
<path d="M80.32 20.7358C80.358 19.6816 80.3881 18.6581 80.3976 17.4365C80.3976 16.9344 80.4372 16.392 80.4657 15.8706L80.3976 15.8513C80.1553 16.3437 79.8845 16.8555 79.5552 17.2885L76.9979 20.7342H75.671L72.8034 16.8539C72.4835 16.421 72.2032 15.9092 71.961 15.436L71.8929 15.4553C71.9214 15.9671 71.961 16.4789 71.9705 17.0406C71.98 18.4199 72.0101 19.5706 72.0671 20.7326H69.4702C69.5288 19.6688 69.5478 18.5953 69.5478 17.0309C69.5478 15.4167 69.5288 14.3127 69.4987 13.3486H73.394C73.9276 14.1469 74.7209 15.3475 75.7185 16.8153C75.9798 17.1903 76.2616 17.6136 76.5324 18.0465H76.591C76.8522 17.6039 77.104 17.1806 77.3463 16.8153C78.2757 15.4071 79.1482 14.1276 79.6708 13.3486H83.11C83.0815 14.3143 83.0514 15.4167 83.0514 17.0309C83.0514 18.5969 83.0609 19.6704 83.129 20.7326H80.32V20.7358Z" fill="white"/>
<path d="M94.316 20.7357C94.2289 20.5184 93.9961 20.0372 93.6762 19.4353C92.6692 19.4256 91.651 19.4256 90.8767 19.4256C90.1689 19.4256 89.1333 19.4256 88.1548 19.4353C87.8254 19.9969 87.5642 20.4685 87.4375 20.7357H84.25C85.6355 18.7867 88.3195 14.6505 88.9481 13.3501H92.978C93.6367 14.6505 96.3206 18.7368 97.7631 20.7357H94.316ZM90.2766 15.901C89.9472 16.4321 89.5688 17.0533 89.2014 17.673C89.8111 17.6826 90.4223 17.6826 90.8878 17.6826C91.3913 17.6826 92.0501 17.6826 92.7088 17.673C92.3509 17.0421 91.9725 16.4128 91.6336 15.8801C91.3328 15.4182 91.1206 15.0335 90.9559 14.7277L90.2766 15.901Z" fill="white"/>
<path d="M107.141 17.7131C108.836 17.8805 109.611 18.1557 109.921 19.2791C110.095 19.9196 110.25 20.4507 110.377 20.7372H107.966C107.53 20.7372 107.452 20.639 107.21 19.6734C106.996 18.8075 106.677 18.6498 104.914 18.6498H101.446C101.465 19.4867 101.505 20.2061 101.562 20.7372H98.791C98.81 19.6637 98.829 18.6305 98.829 17.0452C98.829 15.4793 98.8195 14.4155 98.791 13.3533H105.999C108.624 13.3533 109.855 14.0518 109.855 15.5485C109.855 16.8183 109.041 17.4685 107.142 17.6761V17.7131H107.141ZM105.155 16.8071C106.715 16.8071 107.277 16.5415 107.277 15.9991C107.277 15.4374 106.724 15.2508 105.183 15.2508C104.447 15.2508 102.384 15.2604 101.405 15.291C101.405 15.7931 101.405 16.2953 101.415 16.7781C102.113 16.8071 103.595 16.8071 105.155 16.8071Z" fill="white"/>
<path d="M121.254 13.3501C121.235 13.6366 121.235 14.0695 121.235 14.4525C121.235 14.8275 121.235 15.2894 121.254 15.6049C119.908 15.5662 118.57 15.5662 117.408 15.5662C117.408 18.0383 117.417 20.174 117.446 20.7453C117.088 20.7163 116.486 20.7163 116.079 20.7163C115.672 20.7163 115.101 20.7163 114.713 20.7453C114.741 20.174 114.762 18.048 114.762 15.5662C113.599 15.5662 112.261 15.5662 110.916 15.6049C110.925 15.2894 110.925 14.8372 110.925 14.4525C110.925 14.0679 110.925 13.6446 110.916 13.3501H121.254Z" fill="white"/>
<path d="M62.6013 32.8851C58.0869 32.8851 56.2358 31.25 56.2358 28.8375C56.2358 26.3268 58.2801 24.8301 62.6013 24.8301C66.9225 24.8301 68.9667 26.3268 68.9667 28.8375C68.9667 31.25 67.1157 32.8851 62.6013 32.8851ZM66.2448 28.8488C66.2448 27.6369 65.3058 26.9674 62.6013 26.9674C59.8984 26.9674 58.9578 27.6369 58.9578 28.8488C58.9578 30.0397 59.8873 30.7495 62.6013 30.7495C65.3248 30.7479 66.2448 30.0397 66.2448 28.8488Z" fill="white"/>
<path d="M79.0595 29.5278C80.7554 29.6952 81.5297 29.9704 81.84 31.0938C82.0142 31.7343 82.1694 32.2654 82.2961 32.5519H79.8845C79.449 32.5519 79.3714 32.4537 79.1292 31.4881C78.9154 30.6222 78.5956 30.4645 76.8332 30.4645H73.3654C73.3844 31.3014 73.424 32.0208 73.481 32.5519H70.71C70.729 31.4784 70.748 30.4452 70.748 28.8599C70.748 27.294 70.7385 26.2302 70.71 25.168H77.9178C80.5432 25.168 81.7735 25.8665 81.7735 27.3632C81.7735 28.633 80.9596 29.2832 79.0611 29.4908V29.5278H79.0595ZM77.0739 28.6218C78.6336 28.6218 79.1957 28.3562 79.1957 27.8138C79.1957 27.2521 78.6431 27.0655 77.1024 27.0655C76.366 27.0655 74.3028 27.0751 73.3242 27.1057C73.3242 27.6078 73.3242 28.11 73.3337 28.5928C74.0305 28.6218 75.5142 28.6218 77.0739 28.6218Z" fill="white"/>
<path d="M92.6202 32.5504C92.5331 32.3331 92.3003 31.8519 91.9805 31.25C90.9734 31.2403 89.9552 31.2403 89.1809 31.2403C88.4731 31.2403 87.4375 31.2403 86.459 31.25C86.1296 31.8116 85.8683 32.2832 85.7417 32.5504H82.5542C83.9397 30.6014 86.6237 26.4652 87.2523 25.1648H91.2821C91.9409 26.4652 94.6248 30.5515 96.0673 32.5504H92.6202ZM88.5808 27.7157C88.2514 28.2468 87.873 28.868 87.5056 29.4877C88.1153 29.4973 88.7265 29.4973 89.192 29.4973C89.6955 29.4973 90.3543 29.4973 91.013 29.4877C90.6551 28.8568 90.2767 28.2275 89.9378 27.6948C89.6369 27.2329 89.4248 26.8482 89.2601 26.5424L88.5808 27.7157Z" fill="white"/>
<path d="M108.759 25.1647C108.73 26.0708 108.721 27.2811 108.721 28.847C108.721 30.4725 108.721 31.5653 108.74 32.5486H105.978C105.407 31.8888 102.394 29.8014 100.728 28.6201C100.321 28.324 99.9043 28.0294 99.5655 27.714C99.6035 28.3046 99.6146 28.8953 99.6336 29.4956C99.6431 31.0213 99.6526 32.0948 99.6827 32.5486H97.1919C97.1919 31.554 97.2204 30.4323 97.2204 28.8567C97.2204 27.2907 97.2204 26.169 97.1919 25.1647H100.351C100.709 25.6379 104.032 28.0407 105.514 29.0739C105.863 29.3105 106.213 29.4972 106.474 29.7531C106.436 29.2123 106.415 28.6893 106.415 28.2853C106.415 26.9173 106.387 25.6861 106.347 25.1631H108.759V25.1647Z" fill="white"/>
<path d="M116.953 32.7869C112.874 32.7869 110.5 31.596 110.5 28.8085C110.5 25.8746 112.971 24.9282 116.807 24.9282C120.47 24.9282 122.736 25.5382 122.736 27.7447C122.736 27.8139 122.736 27.8927 122.726 27.9619C122.437 27.9426 121.922 27.933 121.428 27.933C120.896 27.933 120.391 27.9426 120.091 27.9619C120.091 27.9217 120.101 27.8831 120.101 27.8445C120.101 27.1556 119.181 26.9384 116.798 26.9384C114.279 26.9384 113.234 27.4598 113.234 28.8584C113.234 30.1282 114.212 30.8074 116.953 30.8074C118.997 30.8074 119.898 30.4919 120.16 29.8224C118.814 29.8224 117.001 29.8321 115.8 29.8627C115.81 29.7146 115.81 29.3991 115.81 29.2527C115.81 28.9871 115.81 28.7506 115.8 28.5639C117.369 28.5928 118.978 28.5832 120.15 28.5832C120.867 28.5832 121.787 28.5928 122.747 28.5639C122.921 31.221 122.262 32.7869 116.953 32.7869Z" fill="white"/>
<path d="M135 25.1648C134.99 25.3821 134.981 25.7265 134.981 26.0307C134.981 26.3461 134.981 26.7002 135 26.9078C132.984 26.8981 129.342 26.8885 127.531 26.8885V28.0215C129.624 28.0215 133.276 28.0215 134.894 27.9925C134.884 28.3772 134.875 29.1642 134.884 29.5778C133.296 29.5585 129.604 29.5392 127.531 29.5392V30.6915C129.342 30.6915 133.111 30.6818 135 30.6722C134.981 30.9088 134.981 31.2821 134.981 31.6282C134.981 31.9436 134.981 32.3073 135 32.5536H124.76C124.799 31.5493 124.799 30.4372 124.799 28.8616C124.799 27.2956 124.799 26.1626 124.76 25.1696H135V25.1648Z" fill="white"/>
<path d="M12.0115 42.2502C11.4684 42.2502 10.9569 42.1875 10.4803 42.0587C8.84461 41.6177 7.7077 40.4123 7.18674 38.5679C3.03969 35.3266 0.574266 30.7462 0.244908 25.6637C-0.116118 20.1145 2.04846 14.6666 6.33643 10.3229L6.61987 10.0364L6.72596 10.4291C8.37433 16.5126 16.9218 27.0494 25.7796 33.9183L25.9918 34.0825L25.8018 34.274C20.806 39.334 15.7025 42.2502 12.0115 42.2502ZM6.39027 10.9441C2.38098 15.1414 0.366834 20.343 0.710442 25.6331C1.03347 30.603 3.45614 35.0803 7.53035 38.2396L7.59369 38.2879L7.61427 38.3651C8.08614 40.1049 9.09005 41.1928 10.6007 41.6C11.0472 41.7207 11.5286 41.7803 12.0368 41.7803C15.5442 41.7803 20.4355 38.9847 25.284 34.1292C16.6193 27.3487 8.29041 17.1129 6.39027 10.9441Z" fill="#FF3300"/>
<path d="M10.8478 42.1166C6.32549 38.6097 1.95517 33.2069 1.10645 30.0718L1.55614 29.9463C2.3827 32.9961 6.6786 38.2862 11.1313 41.74L10.8478 42.1166Z" fill="#FF3300"/>
<path d="M17.3954 40.5668C9.68243 34.5862 2.23231 25.3821 0.786621 20.0501L1.23632 19.9246C2.65826 25.1712 10.034 34.2627 17.6773 40.1902L17.3954 40.5668Z" fill="#FF3300"/>
<path d="M7.30057 38.6469C4.90007 37.6426 3.37837 35.8288 2.90334 33.4034C2.03086 28.9518 4.7053 23.0582 10.0574 17.6377L10.3867 17.9741C5.1455 23.2819 2.52014 29.0146 3.36095 33.3101C3.80432 35.5729 5.22784 37.2676 7.47792 38.2091L7.30057 38.6469Z" fill="#FF3300"/>
<path d="M6.55993 39.0122C6.43325 39.0122 6.32874 38.9704 6.25115 38.869C6.09123 38.6581 5.82362 38.3041 8.84326 34.7634C10.7766 32.4973 13.5714 29.5039 16.9236 26.1096L17.2529 26.446C9.78858 34.0038 6.89403 37.7102 6.6581 38.523C6.75627 38.494 6.94154 38.42 7.27248 38.2236L7.50683 38.634C7.16164 38.8368 6.81803 39.0122 6.55993 39.0122Z" fill="#FF3300"/>
<path d="M20.9216 43.0854C18.5132 43.0854 16.1254 42.7378 13.8626 42.0345C12.6117 42.3097 11.4716 42.3258 10.4804 42.0586C8.82251 41.6112 7.67609 40.3784 7.16464 38.4906L6.98096 37.813L7.53041 38.2395C9.44639 39.725 11.6046 40.8258 13.8943 41.5517C17.2195 40.7808 21.3682 38.0947 25.4725 33.9392L25.6166 33.7927L25.7781 33.9183C29.4992 36.8023 32.1689 38.2459 34.0532 38.9235C35.6857 37.9241 37.2137 36.7267 38.5882 35.3345L38.8716 35.0481L38.9777 35.4408C39.6633 37.9723 38.9935 39.0619 38.3095 39.5303C37.4117 40.1467 35.9628 40.1 34.1007 39.445C30.0866 41.851 25.4646 43.0854 20.9216 43.0854ZM14.7478 41.8011C20.8615 43.4717 27.7986 42.5511 33.537 39.2309C31.3518 38.3602 28.6599 36.7299 25.6593 34.4188C21.8511 38.2427 17.9907 40.8162 14.7478 41.8011ZM7.84552 39.0619C8.37914 40.3977 9.30229 41.2507 10.5991 41.5999C11.299 41.7882 12.0828 41.8269 12.9316 41.7223C11.128 41.0721 9.41472 40.1869 7.84552 39.0619ZM34.6359 39.1166C36.8337 39.7829 37.7885 39.3178 38.0514 39.1359C38.9555 38.5147 38.8954 37.1371 38.6278 35.959C37.4006 37.1612 36.0594 38.2138 34.6359 39.1166Z" fill="#FF3300"/>
<path d="M16.5734 44.9974C15.2956 44.9974 13.2577 43.9851 10.8477 42.1166L11.1311 41.74C14.5593 44.3971 16.537 44.8172 17.1894 44.3698C17.6406 44.0591 17.5456 43.2882 17.3841 42.696L17.8338 42.5704C18.198 43.9159 17.8259 44.5049 17.4506 44.7624C17.221 44.9202 16.9265 44.9974 16.5734 44.9974Z" fill="#FF3300"/>
<path d="M27.0716 45.4674C24.9371 45.4674 21.4915 43.7438 17.3936 40.5668L17.677 40.1902C22.5603 43.9771 26.7058 45.7459 28.2354 44.6949C29.0905 44.1091 28.9258 42.7137 28.636 41.6467L29.0857 41.5212C29.6827 43.726 29.0952 44.6772 28.4967 45.0876C28.1262 45.3419 27.6464 45.4674 27.0716 45.4674Z" fill="#FF3300"/>
<path d="M19.7181 45.3932C19.2367 45.3932 18.7553 45.3706 18.2771 45.3256C13.7896 44.9007 9.85478 42.4979 7.19775 38.5613L7.58253 38.2925C10.1604 42.1116 13.9749 44.4404 18.3215 44.8524C23.4582 45.3401 28.8815 43.1078 33.2043 38.7318L33.5337 39.0682C29.5133 43.1384 24.5508 45.3932 19.7181 45.3932Z" fill="#FF3300"/>
<path d="M23.4442 45.7554C23.3571 45.7554 23.27 45.7554 23.183 45.7538C17.169 45.6813 11.5003 43.1369 7.22021 38.5903L7.55749 38.262C11.7489 42.7152 17.3004 45.2066 23.1877 45.279C23.2732 45.2806 23.3587 45.2806 23.4442 45.2806C28.923 45.2806 34.0502 43.1385 37.9074 39.2324L38.2368 39.5688C34.2924 43.565 29.048 45.7554 23.4442 45.7554Z" fill="#FF3300"/>
<path d="M20.9217 43.0855C15.9782 43.0855 11.1265 41.6226 7.24863 38.6162L7.18529 38.5679L7.1647 38.4907C5.48466 32.2913 10.9982 20.2819 19.4538 11.7182L19.5979 11.5718L19.7594 11.6973C28.6869 18.6194 37.3088 29.2688 38.9793 35.4376L39.0158 35.5712L38.9192 35.6694C34.0992 40.5507 27.4297 43.0855 20.9217 43.0855ZM7.59382 38.2879C16.3661 45.0329 30.1785 43.7518 38.4932 35.4312C36.7688 29.3654 28.3734 19.0217 19.6391 12.2011C11.4052 20.6102 6.02937 32.2478 7.59382 38.2879Z" fill="#FF3300"/>
<path d="M17.3842 42.696C16.5576 39.6461 12.2617 34.356 7.80908 30.9022L8.09252 30.5256C12.6148 34.0325 16.9852 39.4353 17.8339 42.5704L17.3842 42.696Z" fill="#FF3300"/>
<path d="M28.6377 41.6466C27.2158 36.3999 19.8401 27.3084 12.1968 21.381L12.4802 21.0044C20.1932 26.9849 27.6433 36.1891 29.0874 41.5211L28.6377 41.6466Z" fill="#FF3300"/>
<path d="M12.1097 39.5112C10.3299 39.5112 8.70055 39.2327 7.30078 38.6469L7.47813 38.2091C14.241 41.0385 26.5286 36.4678 34.8702 28.02L35.1996 28.3564C28.4493 35.1899 19.1212 39.5112 12.1097 39.5112Z" fill="#FF3300"/>
<path d="M7.50681 38.6323L7.27246 38.2219C10.3127 36.421 19.6139 28.044 28.0045 19.5464L28.3339 19.8828C19.9195 28.4045 10.5755 36.8153 7.50681 38.6323Z" fill="#FF3300"/>
<path d="M7.79788 39.0426L7.24842 38.6161C3.06337 35.3715 0.575776 30.7719 0.244836 25.6636C-0.113023 20.1562 2.01513 14.747 6.24135 10.4209C5.61431 7.98429 6.27302 6.92531 6.9444 6.46502C8.95855 5.08254 13.7501 7.03796 19.7592 11.6988L19.9714 11.863L19.7814 12.0545C11.4319 20.5103 5.97375 32.3121 7.61262 38.365L7.79788 39.0426ZM8.58802 6.52939C7.78363 6.52939 7.3656 6.74666 7.20409 6.8561C6.19543 7.54815 6.38703 9.18008 6.7243 10.4274L6.76072 10.561L6.66413 10.6591C2.47433 14.9047 0.358844 20.2222 0.710369 25.633C1.01914 30.3888 3.2518 34.694 7.01566 37.8259C5.88033 31.5122 11.207 20.1627 19.2636 11.9112C13.427 7.42261 10.2174 6.52939 8.58802 6.52939Z" fill="#FF3300"/>
<path d="M7.80873 30.9023C4.38215 28.2451 2.40442 27.8235 1.75046 28.2725C1.29917 28.5831 1.39418 29.354 1.55569 29.9463L1.10599 30.0718C0.741799 28.7263 1.11391 28.1373 1.48919 27.8798C2.5501 27.1523 5.01869 28.1421 8.09216 30.5257L7.80873 30.9023Z" fill="#FF3300"/>
<path d="M12.1965 21.3811C7.31317 17.5941 3.17087 15.8254 1.6381 16.8763C0.783033 17.4622 0.947712 18.8575 1.23748 19.9246L0.787784 20.0501C0.190824 17.8468 0.778283 16.8941 1.37683 16.4837C3.12812 15.2814 7.27992 16.9713 12.48 21.0045L12.1965 21.3811Z" fill="#FF3300"/>
<path d="M7.19783 38.5613C1.21556 29.7015 3.24713 15.5098 11.7249 6.92358L12.0543 7.25995C3.72691 15.6916 1.72068 29.613 7.58103 38.2941L7.19783 38.5613Z" fill="#FF3300"/>
<path d="M7.2201 38.5919C-1.38277 29.4537 -1.47303 15.0221 7.019 6.4231L7.34836 6.75946C-0.964742 15.1766 -0.871319 29.3104 7.55737 38.2635L7.2201 38.5919Z" fill="#FF3300"/>
<path d="M25.6591 34.4205L25.4976 34.2949C16.5702 27.3729 7.94829 16.7218 6.27617 10.5546L6.23975 10.421L6.33634 10.3229C14.8189 1.73346 29.0256 0.413747 38.0069 7.37764L38.0702 7.42592L38.0908 7.50317C39.7708 13.7026 34.2589 25.712 25.8032 34.274L25.6591 34.4205ZM6.76387 10.561C8.48824 16.6269 16.8837 26.9705 25.618 33.7912C33.8503 25.3837 39.2261 13.7461 37.6617 7.70596C28.8894 0.960945 15.077 2.24203 6.76387 10.561Z" fill="#FF3300"/>
<path d="M32.7766 24.9894C25.0637 19.0088 17.6135 9.80466 16.1694 4.4727L16.6191 4.34717C18.0411 9.59383 25.4168 18.6854 33.0601 24.6128L32.7766 24.9894Z" fill="#FF3300"/>
<path d="M37.1628 15.4682C32.6404 11.9613 28.2701 6.55851 27.4214 3.42339L27.8711 3.29785C28.6976 6.34767 32.9935 11.6378 37.4462 15.0916L37.1628 15.4682Z" fill="#FF3300"/>
<path d="M10.387 17.974L10.0576 17.6376C18.5211 9.06755 31.0351 4.45178 37.9548 7.3471L37.7775 7.78486C31.0146 4.95714 18.7286 9.52623 10.387 17.974Z" fill="#FF3300"/>
<path d="M17.2527 26.4459L16.9233 26.1095C25.3378 17.5893 34.6801 9.17859 37.7488 7.36157L37.9832 7.77197C34.943 9.57128 25.6434 17.9498 17.2527 26.4459Z" fill="#FF3300"/>
<path d="M36.6785 39.9647C34.2194 39.9647 30.2371 37.9707 25.4978 34.2948L25.2856 34.1306L25.4757 33.9391C33.8252 25.4849 39.2833 13.6832 37.6429 7.6302L37.4592 6.95264L38.0086 7.37913C42.1937 10.6237 44.6797 15.2234 45.0122 20.3332C45.3701 25.8406 43.2419 31.2482 39.0173 35.5743C39.6443 38.0109 38.9856 39.0699 38.3142 39.5302C37.8867 39.8215 37.3373 39.9647 36.6785 39.9647ZM25.9919 34.0808C34.7072 40.7823 37.5637 39.469 38.0514 39.1359C39.06 38.4438 38.8684 36.8119 38.5312 35.5646L38.4948 35.431L38.5913 35.3329C42.7827 31.0889 44.8966 25.7714 44.5467 20.3622C44.2379 15.6064 42.0053 11.2996 38.2414 8.16774C39.3767 14.483 34.05 25.8309 25.9919 34.0808Z" fill="#FF3300"/>
<path d="M42.4534 29.8898C40.3189 29.8898 36.8734 28.1661 32.7754 24.9892L33.0588 24.6125C37.9422 28.3995 42.0876 30.1682 43.6173 29.1173C44.4723 28.5315 44.3076 27.1361 44.0179 26.0691L44.4676 25.9435C45.0645 28.1468 44.4771 29.0996 43.8785 29.51C43.508 29.7659 43.0282 29.8898 42.4534 29.8898Z" fill="#FF3300"/>
<path d="M42.8888 18.3487C41.6094 18.3487 39.5731 17.338 37.1631 15.4679L37.4465 15.0913C40.8731 17.7484 42.8524 18.1701 43.5048 17.7211C43.9561 17.4105 43.8611 16.6396 43.6995 16.0473L44.1492 15.9218C44.5134 17.2672 44.1413 17.8563 43.7661 18.1138C43.5365 18.2715 43.2419 18.3487 42.8888 18.3487Z" fill="#FF3300"/>
<path d="M33.532 39.0683L33.2026 38.732C41.5284 30.3003 43.5346 16.379 37.6743 7.69943L38.0591 7.43066C44.0398 16.292 42.0098 30.4838 33.532 39.0683Z" fill="#FF3300"/>
<path d="M38.2382 39.5689L37.9088 39.2326C46.222 30.8154 46.127 16.6832 37.6982 7.72847L38.0355 7.40015C46.6384 16.5416 46.7287 30.9715 38.2382 39.5689Z" fill="#FF3300"/>
<path d="M38.6356 35.9573L38.5295 35.5646C36.8811 29.4811 28.3337 18.9443 19.4759 12.0754L19.2637 11.9096L19.4537 11.7181C25.1842 5.91457 31.0556 2.93235 34.7751 3.935C36.4108 4.37598 37.5478 5.58143 38.0703 7.4258C42.2174 10.6671 44.6812 15.2475 45.0121 20.3316C45.3732 25.8808 43.2086 31.3271 38.9206 35.6692L38.6356 35.9573ZM19.9715 11.8645C28.6377 18.645 36.9651 28.8808 38.8668 35.0496C42.8745 30.8539 44.8886 25.6539 44.545 20.3638C44.222 15.394 41.7993 10.9166 37.7235 7.75573L37.6602 7.70745L37.6396 7.6302C37.1677 5.89043 36.1638 4.80247 34.6532 4.39529C31.1348 3.44414 25.5246 6.30405 19.9715 11.8645Z" fill="#FF3300"/>
<path d="M44.0195 26.0692C42.5976 20.8226 35.2219 11.731 27.5786 5.8036L27.8621 5.427C35.575 11.4076 43.0251 20.6117 44.4692 25.9437L44.0195 26.0692Z" fill="#FF3300"/>
<path d="M43.7011 16.0473C42.8745 12.9974 38.5786 7.70734 34.126 4.25355L34.4094 3.87695C38.9317 7.38385 43.3021 12.7866 44.1508 15.9217L43.7011 16.0473Z" fill="#FF3300"/>
<path d="M35.1995 28.3545L34.8701 28.0181C40.1098 22.7119 42.7367 16.9792 41.8943 12.6837C41.4509 10.4209 40.0274 8.72618 37.7773 7.78468L37.9547 7.34692C40.3552 8.35119 41.8769 10.165 42.3519 12.592C43.2244 17.0436 40.55 22.9372 35.1995 28.3545Z" fill="#FF3300"/>
<path d="M28.3338 19.8825L28.0044 19.5461C35.4672 11.9884 38.3617 8.28351 38.5977 7.47076C38.4995 7.49973 38.3142 7.57376 37.9833 7.77011L37.7489 7.35971C38.2635 7.05554 38.7718 6.81574 39.003 7.12152C39.1629 7.33396 39.4321 7.68803 36.4109 11.2287C34.4791 13.498 31.6859 16.4883 28.3338 19.8825Z" fill="#FF3300"/>
<path d="M19.6388 12.201L19.4757 12.0754C15.7562 9.18978 13.0849 7.74776 11.2022 7.0702C9.56969 8.06964 8.04167 9.26703 6.66565 10.6592L6.38221 10.9456L6.27612 10.5529C5.59049 8.02135 6.26029 6.93179 6.94434 6.46345C7.84215 5.84705 9.29101 5.89372 11.1547 6.54875C17.3001 2.86804 24.8642 1.92815 31.3928 3.95922C32.6437 3.68401 33.7854 3.66791 34.775 3.93508C36.4329 4.38249 37.5793 5.61529 38.0908 7.50313L38.2744 8.18069L37.725 7.75419C35.809 6.26871 33.6508 5.16788 31.3611 4.44204C28.0359 5.21294 23.8872 7.89904 19.7845 12.0529L19.6388 12.201ZM11.72 6.76119C13.9052 7.63188 16.597 9.26221 19.5977 11.5733C23.4043 7.75097 27.2647 5.17754 30.5076 4.19258C24.3939 2.52363 17.4584 3.4426 11.72 6.76119ZM8.58796 6.52944C7.78357 6.52944 7.36553 6.74671 7.20402 6.85614C6.29987 7.47738 6.36004 8.85503 6.62606 10.0331C7.85324 8.83249 9.196 7.77833 10.6195 6.87707C9.76604 6.61795 9.09941 6.52944 8.58796 6.52944ZM32.3223 4.27144C34.1274 4.92164 35.8407 5.80681 37.4099 6.93179C36.8763 5.59598 35.9531 4.743 34.6563 4.39376C33.9548 4.20546 33.171 4.16683 32.3223 4.27144Z" fill="#FF3300"/>
<path d="M27.5784 5.80368C22.695 2.01675 18.5495 0.248018 17.0199 1.29896C16.1649 1.88639 16.3295 3.28013 16.6193 4.34717L16.1696 4.4727C15.5727 2.26943 16.1601 1.31666 16.7587 0.906264C18.51 -0.295961 22.6602 1.39391 27.8618 5.42708L27.5784 5.80368Z" fill="#FF3300"/>
<path d="M34.1242 4.25375C30.6976 1.59663 28.7183 1.17496 28.0659 1.62399C27.6146 1.9346 27.7096 2.70551 27.8711 3.29777L27.4214 3.4233C27.0572 2.07784 27.4293 1.4888 27.8046 1.23129C28.8639 0.503843 31.3325 1.49202 34.4076 3.87715L34.1242 4.25375Z" fill="#FF3300"/>
<path d="M37.6741 7.70122C35.0947 3.8821 31.2802 1.55168 26.9336 1.13967C21.7953 0.653635 16.3736 2.88427 12.054 7.25863L11.7246 6.92227C16.144 2.44651 21.7035 0.167595 26.978 0.66651C31.4655 1.09139 35.4003 3.49423 38.0589 7.43084L37.6741 7.70122Z" fill="#FF3300"/>
<path d="M37.6979 7.73006C33.5049 3.27684 27.9549 0.785479 22.0661 0.713056C16.4797 0.648679 11.2654 2.79241 7.34791 6.75959L7.01855 6.42322C10.9629 2.42868 16.2073 0.238281 21.8095 0.238281C21.8966 0.238281 21.9837 0.238281 22.0708 0.239891C28.0847 0.312314 33.7535 2.85678 38.0335 7.40335L37.6979 7.73006Z" fill="#FF3300"/>
<path d="M22.5549 46.0014C22.1495 46.0014 21.7236 45.9821 21.4022 45.9595C20.8606 45.9209 20.1053 45.8404 19.0935 45.7117C18.4965 45.636 17.7555 45.4687 17.301 45.3496C16.5552 45.1532 15.5561 44.8442 14.8134 44.5835C14.1706 44.3566 12.7739 43.7643 11.561 43.0594C11.0005 42.7343 9.51205 41.8684 7.98561 40.539C7.21763 39.8711 6.0538 38.7961 4.80446 37.1754C4.39276 36.6411 4.07449 36.1743 4.07291 36.1711C3.75147 35.6996 3.75147 35.6996 3.26535 34.911C2.88849 34.301 2.49104 33.5011 2.32161 33.1583C2.06826 32.6465 1.80224 32.0414 1.64073 31.6069C1.52039 31.285 1.3953 30.9277 1.27654 30.5704C1.10236 30.0972 0.948765 29.6144 0.815755 29.1235C0.636826 28.4122 0.400892 27.4755 0.304302 26.7593C0.214045 26.093 0.114288 25.3318 0.0652014 24.7476C0.0462 24.5142 -0.0155544 23.7047 -0.00130341 23.0706L0.00186349 22.9708C0.0161145 22.3866 0.0335324 21.6591 0.0747021 21.1007C0.111121 20.6098 0.190294 19.9371 0.277383 19.385C0.598823 17.3218 1.11819 15.8315 1.13878 15.7703C1.29237 15.3342 1.57739 14.5214 1.81649 13.9485C1.99067 13.5316 2.27411 12.9249 2.57338 12.3294C3.01833 11.4458 3.69921 10.3257 4.27084 9.54352C5.00081 8.54408 5.93504 7.43037 6.65234 6.70936C7.737 5.61818 8.16295 5.29147 9.57539 4.20834C10.0678 3.83013 10.7614 3.40686 11.2412 3.12038C11.6782 2.85966 12.2942 2.52651 12.8088 2.27384C13.3076 2.02921 14.0154 1.7202 14.6123 1.48845C14.9512 1.35648 15.3629 1.2229 15.7619 1.09254C15.9361 1.03621 16.1024 0.981486 16.2544 0.929985C16.8133 0.740075 17.5512 0.580744 18.1988 0.445554C18.5488 0.373131 18.9716 0.308755 19.3817 0.249207C19.5543 0.223456 19.7221 0.199315 19.8725 0.175174C20.4948 0.0753912 21.3167 0.0383749 21.9627 0.0158432C22.5169 -0.00346963 23.1661 0.00135858 23.6142 0.0287185C24.2634 0.0673442 25.1628 0.154252 25.9071 0.249207C26.9632 0.384397 27.9054 0.638683 28.9029 0.907454C29.6472 1.10702 30.6352 1.46109 31.3605 1.78458C32.0318 2.08554 32.5322 2.32051 32.8901 2.5072C33.3429 2.74218 33.9462 3.08659 34.3928 3.3618C34.8567 3.64827 35.3872 4.00234 35.745 4.26306C36.2786 4.65415 36.4592 4.78451 37.2588 5.45724C37.3459 5.53127 37.8019 5.92236 38.4005 6.5114C38.8565 6.96203 39.2381 7.3837 39.4202 7.58809C39.6419 7.83433 40.1343 8.41694 40.4447 8.82734C40.9451 9.48558 41.0353 9.62077 41.5341 10.3691C41.9094 10.9324 42.5729 12.088 42.9323 12.8573C43.2078 13.4479 43.6702 14.4377 44.0486 15.6078C44.4587 16.8808 44.7422 17.9993 44.891 18.9344C45.0414 19.8807 45.2109 20.951 45.2441 22.4864C45.279 24.1698 45.1317 25.4992 45.0414 26.1413C44.948 26.7979 44.777 28.0211 44.264 29.7415C43.9552 30.7796 43.3994 32.1122 42.9877 33.0457C42.7977 33.4754 42.4953 34.0467 42.0582 34.7935C41.8682 35.1202 41.618 35.4968 41.3773 35.8605C41.2713 36.0198 41.1699 36.1743 41.0797 36.3144C40.7408 36.8422 40.223 37.486 39.8525 37.9141L39.7844 37.993C39.3394 38.5064 38.7852 39.1453 38.3007 39.5863C38.1914 39.6861 38.0727 39.7955 37.9508 39.9082C37.6198 40.2156 37.243 40.5632 36.9279 40.8239C36.4908 41.1844 35.8479 41.7026 35.3222 42.0406L34.9612 42.2756C34.5859 42.5202 34.16 42.7987 33.8085 42.9998C33.2653 43.3104 32.556 43.6806 32.0413 43.9188C30.2283 44.7621 28.6607 45.1709 28.4897 45.216C27.4224 45.488 26.0227 45.7294 25.1486 45.8549C24.6736 45.9225 24.0766 45.9483 23.5493 45.9708C23.3767 45.9788 23.2089 45.9853 23.0553 45.9933C22.9001 45.9965 22.7291 46.0014 22.5549 46.0014ZM4.7047 36.2516C4.82821 36.4238 4.99131 36.6459 5.1734 36.8825C6.39741 38.4694 7.53907 39.5235 8.29121 40.1785C9.7844 41.4789 11.2443 42.3271 11.7938 42.6474C12.9798 43.3362 14.3416 43.9156 14.967 44.1361C15.6986 44.3936 16.6835 44.6961 17.4182 44.8909C17.9977 45.0438 18.6786 45.1822 19.1505 45.2417C20.1544 45.3689 20.9002 45.4493 21.4338 45.4864C21.8804 45.5169 22.5343 45.5427 23.0315 45.5153C23.1867 45.5073 23.3545 45.5008 23.5303 45.4928C24.0465 45.4703 24.6324 45.4461 25.0837 45.3817C25.9466 45.2578 27.3258 45.0196 28.3757 44.7525C28.5435 44.709 30.0715 44.3099 31.8482 43.4843C32.3517 43.2509 33.0484 42.8888 33.5805 42.583C33.9209 42.3883 34.3405 42.1147 34.711 41.8732L35.0752 41.6367C35.5819 41.3116 36.209 40.8046 36.6365 40.4521C36.9421 40.2011 37.3126 39.8567 37.6388 39.5541C37.7623 39.4398 37.8811 39.3288 37.9919 39.229C38.4559 38.8057 39.0006 38.1797 39.4376 37.6743L39.5057 37.5954C39.8667 37.1802 40.3671 36.5558 40.6933 36.0488C40.7851 35.9072 40.8881 35.7511 40.9942 35.5901C41.2317 35.2312 41.4771 34.8611 41.6608 34.5456C42.0883 33.815 42.3828 33.2597 42.5649 32.8461C42.9719 31.9239 43.5198 30.6122 43.8206 29.5983C44.3226 27.9117 44.492 26.7127 44.5822 26.0673C44.6709 25.4396 44.815 24.1392 44.7802 22.4896C44.7485 20.988 44.5822 19.9354 44.435 19.0052C44.2909 18.0927 44.0138 16.9983 43.61 15.7494C43.2411 14.6067 42.7882 13.6346 42.5158 13.0536C42.1659 12.3036 41.5183 11.1771 41.1572 10.6347C40.66 9.88954 40.5714 9.75757 40.0789 9.10898C39.7749 8.70985 39.2951 8.14173 39.0798 7.90032C38.8993 7.69914 38.5256 7.28392 38.079 6.84294C37.4931 6.26516 37.0482 5.88534 36.9659 5.81453C36.1773 5.15145 36.0015 5.0227 35.4758 4.63805C35.1275 4.38377 34.6097 4.03775 34.1552 3.75771C33.7182 3.48733 33.126 3.15096 32.6826 2.92082C32.3327 2.73896 31.8402 2.5072 31.1768 2.20946C30.4721 1.89402 29.511 1.55122 28.7874 1.35648C27.8056 1.09254 26.8777 0.843077 25.8516 0.711106C25.1169 0.616151 24.2286 0.530853 23.5889 0.492227C23.1534 0.466477 22.5217 0.461648 21.9801 0.479352C21.3467 0.500274 20.5423 0.53729 19.9454 0.633855C19.7934 0.657996 19.6239 0.683746 19.4498 0.709497C19.0476 0.769045 18.6311 0.831811 18.2938 0.901016C17.8362 0.995971 16.9828 1.17461 16.4032 1.37096C16.2496 1.42246 16.0802 1.47718 15.906 1.53512C15.5133 1.66226 15.108 1.79424 14.7818 1.92138C14.1959 2.14991 13.5008 2.45248 13.0131 2.69228C12.5158 2.93691 11.8983 3.26845 11.4787 3.51952C11.01 3.79955 10.3307 4.21478 9.85882 4.5769C8.46539 5.64554 8.04419 5.96903 6.9817 7.03768C6.28023 7.74421 5.36342 8.83377 4.64611 9.81712C4.08874 10.58 3.42369 11.6728 2.98983 12.5354C2.69531 13.1228 2.41662 13.7167 2.24719 14.1239C2.01284 14.6856 1.73099 15.4887 1.57898 15.92C1.55839 15.9811 1.05327 17.4296 0.738167 19.4494C0.655827 19.9805 0.576655 20.6549 0.540236 21.1264C0.499066 21.6736 0.481648 22.393 0.46898 22.9724L0.465814 23.0738C0.456313 23.4858 0.480065 24.0942 0.529151 24.6993C0.581405 25.3205 0.696997 26.1751 0.766669 26.6869C0.860092 27.3757 1.09128 28.2979 1.2607 28.9723C1.26387 28.9819 1.26545 28.9916 1.26862 29.0012C1.38105 29.373 1.53622 29.8671 1.70407 30.3676C2.81248 33.3997 4.76804 36.0633 7.42348 38.1523C7.45832 38.1797 7.49315 38.207 7.52799 38.2344L7.24455 38.611C6.31507 37.8948 5.46634 37.103 4.7047 36.2516Z" fill="#FF3300"/>
</g>
<defs>
<clipPath id="clip0">
<rect width="135" height="46" fill="white"/>
</clipPath>
</defs>
</svg>
