<svg width="178" height="60" viewBox="0 0 178 60" fill="none" xmlns="http://www.w3.org/2000/svg">
<g clip-path="url(#clip0)">
<path d="M78.0068 23.8997C78.0068 24.5546 78.8377 24.8108 81.8775 24.8108C85.2243 24.8108 85.646 24.5924 85.646 24.181C85.646 23.7443 85.4164 23.526 81.3932 23.398C75.9649 23.2174 74.5201 22.319 74.5201 20.3289C74.5201 18.2087 76.4367 17.1045 81.6228 17.1045C87.1409 17.1045 88.8779 17.7972 88.8779 20.0329C88.8779 20.226 88.8779 20.4192 88.8654 20.6375C88.4834 20.6123 87.8048 20.5997 87.1534 20.5997C86.477 20.5997 85.7984 20.6123 85.4164 20.6375V20.394C85.4164 19.739 84.9571 19.5207 81.5706 19.5207C78.4535 19.5207 77.9942 19.7138 77.9942 20.098C77.9942 20.4821 78.2364 20.6501 82.5164 20.8684C87.5877 21.1245 89.1452 21.8697 89.1452 24.0277C89.1452 26.276 87.3706 27.355 81.9151 27.355C76.3449 27.355 74.4429 26.4167 74.4429 24.4644C74.4429 24.2335 74.4554 23.99 74.4951 23.7317C74.9419 23.7821 75.6183 23.822 76.2572 23.822C76.9086 23.822 77.5224 23.8094 78.0068 23.7842V23.8997Z" fill="white"/>
<path d="M105.904 27.0463C105.954 25.6713 105.994 24.3362 106.006 22.7429C106.006 22.088 106.058 21.3805 106.096 20.7004L106.006 20.6752C105.687 21.3175 105.33 21.9851 104.895 22.5498L101.524 27.0442H99.774L95.993 21.983C95.5712 21.4183 95.2017 20.7508 94.8823 20.1336L94.7925 20.1588C94.8301 20.8263 94.8822 21.4939 94.8948 22.2265C94.9073 24.0255 94.947 25.5265 95.0221 27.0421H91.5981C91.6754 25.6545 91.7004 24.2544 91.7004 22.2139C91.7004 20.1084 91.6754 18.6683 91.6357 17.4109H96.7717C97.4753 18.4521 98.5213 20.0181 99.8366 21.9326C100.181 22.4217 100.553 22.9738 100.91 23.5385H100.987C101.331 22.9612 101.663 22.4091 101.983 21.9326C103.208 20.0958 104.359 18.4269 105.048 17.4109H109.582C109.545 18.6704 109.505 20.1084 109.505 22.2139C109.505 24.2565 109.518 25.6566 109.608 27.0421H105.904V27.0463Z" fill="white"/>
<path d="M124.358 27.0464C124.243 26.763 123.936 26.1354 123.515 25.3502C122.187 25.3377 120.844 25.3377 119.823 25.3377C118.89 25.3377 117.525 25.3377 116.234 25.3502C115.8 26.0829 115.456 26.6979 115.289 27.0464H111.086C112.913 24.5043 116.452 19.1093 117.28 17.4131H122.594C123.462 19.1093 127.001 24.4392 128.903 27.0464H124.358ZM119.032 20.7404C118.598 21.4331 118.099 22.2434 117.615 23.0516C118.418 23.0642 119.224 23.0642 119.838 23.0642C120.502 23.0642 121.37 23.0642 122.239 23.0516C121.767 22.2287 121.268 21.4079 120.821 20.7131C120.425 20.1106 120.145 19.6089 119.928 19.21L119.032 20.7404Z" fill="white"/>
<path d="M141.267 23.104C143.503 23.3223 144.524 23.6813 144.933 25.1466C145.163 25.9821 145.368 26.6748 145.535 27.0485H142.355C141.781 27.0485 141.679 26.9204 141.359 25.6609C141.077 24.5315 140.656 24.3258 138.332 24.3258H133.76C133.785 25.4174 133.837 26.3557 133.912 27.0485H130.258C130.283 25.6483 130.308 24.3006 130.308 22.2329C130.308 20.1903 130.296 18.8027 130.258 17.4172H139.762C143.224 17.4172 144.846 18.3283 144.846 20.2806C144.846 21.9369 143.773 22.7849 141.269 23.0557V23.104H141.267ZM138.649 21.9222C140.706 21.9222 141.447 21.5758 141.447 20.8684C141.447 20.1357 140.718 19.8922 138.687 19.8922C137.716 19.8922 134.996 19.9048 133.705 19.9447C133.705 20.5997 133.705 21.2546 133.718 21.8844C134.639 21.9222 136.593 21.9222 138.649 21.9222Z" fill="white"/>
<path d="M159.876 17.4131C159.851 17.7867 159.851 18.3514 159.851 18.8511C159.851 19.3402 159.851 19.9427 159.876 20.3541C158.101 20.3037 156.337 20.3037 154.805 20.3037C154.805 23.5281 154.817 26.3138 154.855 27.059C154.383 27.0212 153.59 27.0212 153.053 27.0212C152.516 27.0212 151.763 27.0212 151.251 27.059C151.289 26.3138 151.316 23.5407 151.316 20.3037C149.783 20.3037 148.019 20.3037 146.245 20.3541C146.257 19.9427 146.257 19.3528 146.257 18.8511C146.257 18.3493 146.257 17.7972 146.245 17.4131H159.876Z" fill="white"/>
<path d="M82.5414 42.8936C76.5891 42.8936 74.1484 40.7608 74.1484 37.614C74.1484 34.3392 76.8438 32.387 82.5414 32.387C88.239 32.387 90.9344 34.3392 90.9344 37.614C90.9344 40.7608 88.4937 42.8936 82.5414 42.8936ZM87.3454 37.6287C87.3454 36.048 86.1074 35.1747 82.5414 35.1747C78.9775 35.1747 77.7374 36.048 77.7374 37.6287C77.7374 39.1821 78.9629 40.1079 82.5414 40.1079C86.1324 40.1058 87.3454 39.1821 87.3454 37.6287Z" fill="white"/>
<path d="M104.242 38.5144C106.478 38.7328 107.499 39.0917 107.908 40.557C108.138 41.3925 108.342 42.0852 108.509 42.4589H105.33C104.756 42.4589 104.653 42.3308 104.334 41.0713C104.052 39.9419 103.63 39.7362 101.306 39.7362H96.7342C96.7592 40.8278 96.8114 41.7661 96.8866 42.4589H93.2329C93.258 41.0587 93.283 39.711 93.283 37.6433C93.283 35.6007 93.2705 34.2131 93.2329 32.8276H102.737C106.198 32.8276 107.82 33.7387 107.82 35.691C107.82 37.3473 106.747 38.1954 104.244 38.4662V38.5144H104.242ZM101.624 37.3326C103.68 37.3326 104.421 36.9862 104.421 36.2788C104.421 35.5461 103.693 35.3026 101.661 35.3026C100.691 35.3026 97.9702 35.3152 96.6799 35.3551C96.6799 36.0101 96.6799 36.665 96.6924 37.2948C97.6111 37.3326 99.5673 37.3326 101.624 37.3326Z" fill="white"/>
<path d="M122.122 42.4568C122.007 42.1734 121.701 41.5458 121.279 40.7606C119.951 40.7481 118.608 40.7481 117.588 40.7481C116.654 40.7481 115.289 40.7481 113.999 40.7606C113.564 41.4933 113.22 42.1083 113.053 42.4568H108.85C110.677 39.9147 114.216 34.5197 115.045 32.8235H120.358C121.227 34.5197 124.765 39.8496 126.667 42.4568H122.122ZM116.796 36.1508C116.362 36.8435 115.863 37.6538 115.379 38.462C116.182 38.4746 116.988 38.4746 117.602 38.4746C118.266 38.4746 119.135 38.4746 120.003 38.462C119.531 37.6391 119.032 36.8183 118.586 36.1235C118.189 35.521 117.909 35.0193 117.692 34.6204L116.796 36.1508Z" fill="white"/>
<path d="M143.401 32.8234C143.363 34.0052 143.351 35.5839 143.351 37.6264C143.351 39.7466 143.351 41.172 143.376 42.4546H139.735C138.981 41.5939 135.008 38.8712 132.811 37.3304C132.275 36.9442 131.726 36.56 131.279 36.1486C131.329 36.919 131.344 37.6894 131.369 38.4724C131.381 40.4624 131.394 41.8626 131.434 42.4546H128.149C128.149 41.1573 128.187 39.6941 128.187 37.639C128.187 35.5965 128.187 34.1333 128.149 32.8234H132.315C132.786 33.4406 137.169 36.5747 139.123 37.9224C139.582 38.231 140.044 38.4745 140.388 38.8083C140.338 38.1029 140.311 37.4207 140.311 36.8938C140.311 35.1094 140.273 33.5035 140.221 32.8213H143.401V32.8234Z" fill="white"/>
<path d="M154.205 42.7654C148.827 42.7654 145.697 41.212 145.697 37.5761C145.697 33.7492 148.954 32.5149 154.013 32.5149C158.842 32.5149 161.83 33.3105 161.83 36.1885C161.83 36.2788 161.83 36.3817 161.817 36.4719C161.435 36.4467 160.757 36.4341 160.105 36.4341C159.404 36.4341 158.738 36.4467 158.343 36.4719C158.343 36.4194 158.356 36.3691 158.356 36.3187C158.356 35.4202 157.143 35.1368 154 35.1368C150.679 35.1368 149.301 35.817 149.301 37.6412C149.301 39.2975 150.591 40.1833 154.205 40.1833C156.9 40.1833 158.088 39.7719 158.433 38.8986C156.658 38.8986 154.268 38.9112 152.685 38.9511C152.698 38.758 152.698 38.3465 152.698 38.1555C152.698 37.8091 152.698 37.5005 152.685 37.257C154.754 37.2948 156.875 37.2822 158.42 37.2822C159.366 37.2822 160.579 37.2948 161.844 37.257C162.074 40.7228 161.205 42.7654 154.205 42.7654Z" fill="white"/>
<path d="M178 32.8235C177.987 33.1069 177.975 33.5561 177.975 33.9529C177.975 34.3643 177.975 34.8261 178 35.0969C175.342 35.0843 170.54 35.0718 168.152 35.0718V36.5496C170.912 36.5496 175.726 36.5496 177.86 36.5118C177.848 37.0135 177.835 38.0401 177.848 38.5796C175.753 38.5544 170.885 38.5292 168.152 38.5292V40.0322C170.54 40.0322 175.509 40.0196 178 40.007C177.975 40.3156 177.975 40.8026 177.975 41.254C177.975 41.6654 177.975 42.1398 178 42.461H164.498C164.55 41.1511 164.55 39.7005 164.55 37.6454C164.55 35.6029 164.55 34.125 164.498 32.8298H178V32.8235Z" fill="white"/>
<path d="M15.8382 55.1086C15.1221 55.1086 14.4477 55.0268 13.8193 54.8588C11.6626 54.2836 10.1635 52.7113 9.47663 50.3056C4.00867 46.0778 0.757954 40.1034 0.32369 33.474C-0.152329 26.2359 2.7017 19.13 8.35548 13.4642L8.72919 13.0906L8.86908 13.6028C11.0425 21.5379 22.3125 35.2815 33.9916 44.241L34.2714 44.4551L34.0209 44.7049C27.4338 51.3048 20.7048 55.1086 15.8382 55.1086ZM8.42646 14.2745C3.14014 19.7493 0.484451 26.534 0.937505 33.4342C1.36342 39.9166 4.55776 45.7566 9.92968 49.8774L10.0132 49.9403L10.0403 50.0411C10.6625 52.3104 11.9862 53.7295 13.9779 54.2606C14.5667 54.418 15.2014 54.4957 15.8716 54.4957C20.4961 54.4957 26.9453 50.8493 33.3382 44.516C21.9137 35.6719 10.9318 22.3209 8.42646 14.2745Z" fill="#FF3300"/>
<path d="M14.3037 54.9344C8.34088 50.3602 2.57854 43.3131 1.45947 39.2238L2.05241 39.0601C3.14224 43.0381 8.80646 49.9382 14.6774 54.4432L14.3037 54.9344Z" fill="#FF3300"/>
<path d="M22.9366 52.9129C12.7669 45.1122 2.94376 33.1068 1.0376 26.152L1.63053 25.9883C3.50538 32.8318 13.2304 44.6903 23.3082 52.4217L22.9366 52.9129Z" fill="#FF3300"/>
<path d="M9.62699 50.4084C6.46188 49.0985 4.4555 46.7326 3.82916 43.5691C2.67878 37.7627 6.20508 30.0753 13.2619 23.0051L13.6961 23.4439C6.78549 30.3671 3.32391 37.8445 4.43253 43.4474C5.01712 46.3989 6.89406 48.6094 9.86083 49.8374L9.62699 50.4084Z" fill="#FF3300"/>
<path d="M8.64988 50.8849C8.48286 50.8849 8.34506 50.8303 8.24276 50.6981C8.03189 50.4231 7.67905 49.9612 11.6605 45.3429C14.2097 42.3872 17.8947 38.4827 22.3146 34.0554L22.7488 34.4942C12.9069 44.3521 9.09041 49.1866 8.77933 50.2467C8.90877 50.2089 9.15305 50.1124 9.5894 49.8563L9.89839 50.3916C9.44325 50.6561 8.9902 50.8849 8.64988 50.8849Z" fill="#FF3300"/>
<path d="M27.5861 56.1981C24.4106 56.1981 21.2622 55.7446 18.2787 54.8273C16.6293 55.1862 15.1261 55.2072 13.8191 54.8588C11.6332 54.2752 10.1216 52.6672 9.44726 50.2048L9.20508 49.321L9.92955 49.8773C12.4558 51.8149 15.3015 53.2508 18.3204 54.1975C22.7048 53.192 28.1749 49.6884 33.5865 44.2682L33.7765 44.0771L33.9894 44.2409C38.8958 48.0027 42.4158 49.8857 44.9003 50.7695C47.0528 49.4659 49.0676 47.904 50.8798 46.0882L51.2535 45.7145L51.3934 46.2268C52.2974 49.5288 51.4142 50.95 50.5123 51.5609C49.3285 52.3649 47.4182 52.304 44.9629 51.4496C39.6703 54.588 33.576 56.1981 27.5861 56.1981ZM19.4458 54.5229C27.5068 56.7019 36.6535 55.5011 44.2197 51.1704C41.3385 50.0347 37.7892 47.9082 33.8328 44.8937C28.8117 49.8815 23.7216 53.2382 19.4458 54.5229ZM10.345 50.95C11.0486 52.6924 12.2658 53.805 13.9757 54.2605C14.8985 54.5061 15.932 54.5565 17.0511 54.42C14.673 53.5719 12.414 52.4174 10.345 50.95ZM45.6686 51.0214C48.5665 51.8905 49.8254 51.2838 50.172 51.0466C51.3641 50.2363 51.2848 48.4393 50.932 46.9027C49.3139 48.4708 47.5455 49.8437 45.6686 51.0214Z" fill="#FF3300"/>
<path d="M21.8532 58.6919C20.1684 58.6919 17.4814 57.3715 14.3037 54.9343L14.6774 54.4431C19.1975 57.9089 21.8052 58.4568 22.6654 57.8732C23.2604 57.4681 23.1351 56.4626 22.9222 55.6901L23.5151 55.5263C23.9953 57.2813 23.5047 58.0496 23.0099 58.3854C22.7071 58.5912 22.3188 58.6919 21.8532 58.6919Z" fill="#FF3300"/>
<path d="M35.6952 59.305C32.8809 59.305 28.3378 57.0567 22.9346 52.9128L23.3083 52.4216C29.7471 57.3611 35.213 59.6681 37.2298 58.2974C38.3572 57.5332 38.1401 55.7132 37.758 54.3214L38.3509 54.1577C39.138 57.0336 38.3635 58.2743 37.5743 58.8096C37.0857 59.1412 36.4531 59.305 35.6952 59.305Z" fill="#FF3300"/>
<path d="M25.9995 59.2083C25.3648 59.2083 24.7301 59.1789 24.0996 59.1201C18.1827 58.5659 12.9945 55.4318 9.49121 50.2971L9.99855 49.9465C13.3975 54.928 18.427 57.9656 24.158 58.503C30.9309 59.139 38.0816 56.2274 43.7813 50.5196L44.2156 50.9584C38.9146 56.2673 32.3715 59.2083 25.9995 59.2083Z" fill="#FF3300"/>
<path d="M30.9122 59.6807C30.7973 59.6807 30.6825 59.6807 30.5677 59.6786C22.6382 59.5842 15.1638 56.2653 9.52051 50.335L9.96521 49.9067C15.4916 55.7153 22.8115 58.9649 30.5739 59.0594C30.6867 59.0615 30.7994 59.0615 30.9122 59.0615C38.136 59.0615 44.8963 56.2674 49.9822 51.1726L50.4164 51.6113C45.2157 56.8237 38.3009 59.6807 30.9122 59.6807Z" fill="#FF3300"/>
<path d="M27.5861 56.1982C21.068 56.1982 14.6709 54.29 9.55789 50.3686L9.47438 50.3056L9.44723 50.2049C7.23207 42.1187 14.5018 26.4543 25.6507 15.2843L25.8407 15.0933L26.0536 15.257C37.8247 24.2858 49.1928 38.1763 51.3954 46.2226L51.4434 46.3969L51.3161 46.5249C44.9608 52.8919 36.167 56.1982 27.5861 56.1982ZM10.013 49.9404C21.5795 58.7382 39.7914 57.0672 50.7545 46.2142C48.4809 38.3023 37.4113 24.8106 25.895 15.9141C15.0384 26.8825 7.95028 42.062 10.013 49.9404Z" fill="#FF3300"/>
<path d="M22.9218 55.6903C21.832 51.7122 16.1678 44.8121 10.2969 40.3071L10.6706 39.8159C16.6334 44.3901 22.3957 51.4372 23.5148 55.5265L22.9218 55.6903Z" fill="#FF3300"/>
<path d="M37.7602 54.3213C35.8853 47.4779 26.1604 35.6194 16.0825 27.8879L16.4562 27.3967C26.6259 35.1974 36.4491 47.2029 38.3531 54.1576L37.7602 54.3213Z" fill="#FF3300"/>
<path d="M15.9676 51.5358C13.6209 51.5358 11.4726 51.1726 9.62695 50.4085L9.86079 49.8375C18.7778 53.528 34.9792 47.5662 45.9777 36.5474L46.412 36.9861C37.5117 45.8994 25.2124 51.5358 15.9676 51.5358Z" fill="#FF3300"/>
<path d="M9.89835 50.3896L9.58936 49.8543C13.5979 47.5052 25.8617 36.5788 36.925 25.4949L37.3593 25.9336C26.2647 37.049 13.9445 48.0195 9.89835 50.3896Z" fill="#FF3300"/>
<path d="M10.2824 50.9249L9.55796 50.3686C4.03989 46.1366 0.759946 40.137 0.323594 33.4741C-0.14825 26.2905 2.65776 19.235 8.23011 13.5923C7.40334 10.4141 8.27187 9.03282 9.1571 8.43244C11.8128 6.62921 18.1305 9.17976 26.0537 15.2591L26.3335 15.4732L26.0829 15.723C15.0739 26.7524 7.87727 42.146 10.0382 50.0412L10.2824 50.9249ZM11.3242 8.51641C10.2636 8.51641 9.71245 8.7998 9.4995 8.94255C8.16957 9.84522 8.42219 11.9738 8.86689 13.6007L8.91491 13.775L8.78756 13.903C3.26322 19.4408 0.473916 26.3766 0.937409 33.4342C1.34453 39.6374 4.28834 45.2528 9.25105 49.3379C7.75409 41.1027 14.7775 26.2989 25.4002 15.5362C17.7046 9.68148 13.4726 8.51641 11.3242 8.51641Z" fill="#FF3300"/>
<path d="M10.2973 40.307C5.77926 36.8412 3.17159 36.2912 2.30933 36.8769C1.7143 37.282 1.83957 38.2876 2.05253 39.0601L1.45959 39.2238C0.979396 37.4689 1.47003 36.7006 1.96484 36.3647C3.36367 35.4158 6.61856 36.7069 10.671 39.8158L10.2973 40.307Z" fill="#FF3300"/>
<path d="M16.0822 27.8881C9.64337 22.9486 4.18167 20.6416 2.16068 22.0124C1.03326 22.7765 1.25039 24.5965 1.63246 25.9883L1.03952 26.152C0.252423 23.2782 1.027 22.0355 1.81619 21.5002C4.1253 19.932 9.59952 22.1362 16.4559 27.3969L16.0822 27.8881Z" fill="#FF3300"/>
<path d="M9.49087 50.2973C1.60314 38.7411 4.28179 20.2301 15.4599 9.03076L15.8942 9.4695C4.9144 20.4673 2.26915 38.6256 9.99612 49.9488L9.49087 50.2973Z" fill="#FF3300"/>
<path d="M9.52024 50.3372C-1.82281 38.4178 -1.94181 19.5941 9.25509 8.37793L9.68935 8.81667C-1.27163 19.7956 -1.14844 38.231 9.96494 49.909L9.52024 50.3372Z" fill="#FF3300"/>
<path d="M33.8329 44.8958L33.6199 44.7321C21.8489 35.7033 10.4808 21.8107 8.27605 13.7665L8.22803 13.5922L8.35538 13.4642C19.5398 2.26062 38.2715 0.539256 50.1136 9.6226L50.1971 9.68557L50.2242 9.78633C52.4394 17.8725 45.1717 33.5369 34.0229 44.7048L33.8329 44.8958ZM8.91909 13.7749C11.1927 21.6868 22.2622 35.1785 33.7786 44.075C44.6331 33.1087 51.7212 17.9292 49.6584 10.0508C38.092 1.25299 19.8801 2.92397 8.91909 13.7749Z" fill="#FF3300"/>
<path d="M43.2177 32.5943C33.048 24.7936 23.2249 12.7881 21.3208 5.83342L21.9137 5.66968C23.7886 12.5131 33.5136 24.3717 43.5914 32.1031L43.2177 32.5943Z" fill="#FF3300"/>
<path d="M49.0009 20.1754C43.0382 15.6011 37.2758 8.55405 36.1567 4.46476L36.7497 4.30103C37.8395 8.27905 43.5037 15.1792 49.3746 19.6841L49.0009 20.1754Z" fill="#FF3300"/>
<path d="M13.696 23.4438L13.2617 23.005C24.421 11.8267 40.921 5.8061 50.0447 9.5826L49.8109 10.1536C40.8938 6.46526 24.6945 12.4249 13.696 23.4438Z" fill="#FF3300"/>
<path d="M22.7487 34.4941L22.3145 34.0554C33.409 22.9421 45.7271 11.9716 49.7733 9.60156L50.0823 10.1369C46.0737 12.4838 33.812 23.4124 22.7487 34.4941Z" fill="#FF3300"/>
<path d="M48.3621 52.1279C45.1197 52.1279 39.8689 49.5269 33.6201 44.7323L33.3403 44.5182L33.5909 44.2684C44.5999 33.2412 51.7965 17.8476 49.6336 9.95238L49.3914 9.0686L50.1158 9.6249C55.6339 13.8569 58.9117 19.8565 59.3502 26.5215C59.822 33.7051 57.016 40.7585 51.4458 46.4012C52.2725 49.5794 51.404 50.9607 50.5188 51.5611C49.9551 51.941 49.2306 52.1279 48.3621 52.1279ZM34.2715 44.4531C45.7628 53.1943 49.5292 51.4813 50.1722 51.0468C51.5021 50.1441 51.2495 48.0155 50.8048 46.3886L50.7568 46.2144L50.8841 46.0863C56.4106 40.5506 59.1978 33.6148 58.7364 26.5593C58.3293 20.3561 55.3854 14.7386 50.4227 10.6535C51.9197 18.8909 44.8963 33.6925 34.2715 44.4531Z" fill="#FF3300"/>
<path d="M55.9765 38.9866C53.1621 38.9866 48.6191 36.7384 43.2158 32.5945L43.5895 32.1033C50.0283 37.0427 55.4942 39.3498 57.511 37.979C58.6384 37.2149 58.4213 35.3949 58.0392 34.0031L58.6322 33.8393C59.4193 36.7132 58.6447 37.9559 57.8555 38.4912C57.367 38.825 56.7344 38.9866 55.9765 38.9866Z" fill="#FF3300"/>
<path d="M56.5505 23.9331C54.8635 23.9331 52.1786 22.6148 49.001 20.1755L49.3747 19.6843C53.8927 23.1501 56.5024 23.7001 57.3626 23.1144C57.9576 22.7093 57.8324 21.7038 57.6194 20.9313L58.2124 20.7675C58.6926 22.5225 58.2019 23.2908 57.7071 23.6267C57.4044 23.8324 57.016 23.9331 56.5505 23.9331Z" fill="#FF3300"/>
<path d="M44.2136 50.9587L43.7793 50.5199C54.757 39.5221 57.4022 21.3638 49.6753 10.0427L50.1826 9.69214C58.0682 21.2505 55.3917 39.7614 44.2136 50.9587Z" fill="#FF3300"/>
<path d="M50.4185 51.6114L49.9842 51.1726C60.9452 40.1937 60.8199 21.7604 49.7065 10.0803L50.1512 9.6521C61.4943 21.5757 61.6133 40.3973 50.4185 51.6114Z" fill="#FF3300"/>
<path d="M50.9426 46.9007L50.8027 46.3885C48.6293 38.4534 37.3593 24.7098 25.6802 15.7503L25.4004 15.5341L25.6509 15.2843C33.2067 7.71452 40.9483 3.82466 45.8525 5.13248C48.0093 5.70766 49.5083 7.27998 50.1973 9.68569C55.6652 13.9135 58.9139 19.8879 59.3502 26.5194C59.8262 33.7575 56.9722 40.8613 51.3184 46.525L50.9426 46.9007ZM26.3336 15.4753C37.7602 24.3194 48.74 37.6704 51.2474 45.7168C56.5317 40.2441 59.1874 33.4615 58.7343 26.5613C58.3084 20.0789 55.1141 14.2389 49.74 10.116L49.6565 10.0531L49.6294 9.95229C49.0072 7.68303 47.6836 6.26396 45.6918 5.73285C41.0527 4.49221 33.6556 8.22253 26.3336 15.4753Z" fill="#FF3300"/>
<path d="M58.0409 34.003C56.1661 27.1595 46.4411 15.301 36.3633 7.56959L36.737 7.07837C46.9067 14.8791 56.7298 26.8845 58.6339 33.8393L58.0409 34.003Z" fill="#FF3300"/>
<path d="M57.6216 20.9312C56.5317 16.9532 50.8675 10.053 44.9966 5.5481L45.3703 5.05688C51.3331 9.63109 57.0954 16.6782 58.2145 20.7675L57.6216 20.9312Z" fill="#FF3300"/>
<path d="M46.4123 36.9841L45.978 36.5454C52.8866 29.6243 56.3503 22.1468 55.2395 16.544C54.655 13.5925 52.778 11.382 49.8112 10.154L50.0451 9.58301C53.2102 10.8929 55.2166 13.2587 55.8429 16.4244C56.9933 22.2308 53.467 29.9182 46.4123 36.9841Z" fill="#FF3300"/>
<path d="M37.3591 25.9337L36.9248 25.4949C46.7646 15.637 50.5811 10.8046 50.8922 9.74447C50.7628 9.78226 50.5185 9.87882 50.0822 10.1349L49.7732 9.59963C50.4517 9.20287 51.1219 8.89009 51.4267 9.28894C51.6376 9.56604 51.9925 10.0279 48.009 14.6462C45.4618 17.6061 41.779 21.5064 37.3591 25.9337Z" fill="#FF3300"/>
<path d="M25.8953 15.9141L25.6803 15.7504C20.776 11.9865 17.2539 10.1056 14.7715 9.22182C12.619 10.5254 10.6042 12.0873 8.78994 13.9031L8.41622 14.2768L8.27634 13.7645C7.37232 10.4625 8.25546 9.04129 9.1574 8.43042C10.3412 7.62641 12.2515 7.68729 14.7089 8.54168C22.8116 3.74075 32.7851 2.51481 41.3931 5.16403C43.0425 4.80506 44.5478 4.78407 45.8527 5.13254C48.0386 5.71612 49.5502 7.32413 50.2245 9.78652L50.4667 10.6703L49.7422 10.114C47.216 8.17641 44.3703 6.74054 41.3514 5.79379C36.967 6.79932 31.4969 10.3029 26.0874 15.721L25.8953 15.9141ZM15.4542 8.81877C18.3354 9.95445 21.8847 12.081 25.841 15.0955C30.8601 10.1098 35.9502 6.75314 40.226 5.46841C32.165 3.29152 23.0204 4.49017 15.4542 8.81877ZM11.3245 8.51649C10.2639 8.51649 9.71275 8.79988 9.4998 8.94263C8.30766 9.75293 8.38699 11.5499 8.73775 13.0865C10.3558 11.5205 12.1263 10.1455 14.0032 8.96992C12.8779 8.63194 11.9989 8.51649 11.3245 8.51649ZM42.6187 5.57128C44.9988 6.41936 47.2578 7.57393 49.3268 9.04129C48.6232 7.29894 47.406 6.18635 45.6961 5.73082C44.7712 5.48521 43.7377 5.43483 42.6187 5.57128Z" fill="#FF3300"/>
<path d="M36.3634 7.56973C29.9246 2.63026 24.4587 0.323215 22.4419 1.69401C21.3145 2.46022 21.5316 4.27815 21.9137 5.66993L21.3208 5.83367C20.5337 2.95984 21.3082 1.7171 22.0974 1.1818C24.4066 -0.386322 29.8787 1.81786 36.7371 7.07851L36.3634 7.56973Z" fill="#FF3300"/>
<path d="M44.9945 5.54822C40.4765 2.0824 37.8668 1.5324 37.0066 2.11809C36.4116 2.52324 36.5368 3.52876 36.7498 4.30128L36.1569 4.46502C35.6767 2.71007 36.1673 1.94175 36.6621 1.60588C38.0589 0.657027 41.3137 1.94595 45.3683 5.057L44.9945 5.54822Z" fill="#FF3300"/>
<path d="M49.6754 10.0447C46.2744 5.06323 41.2448 2.02355 35.5138 1.48615C28.7389 0.852185 21.5902 3.76171 15.8947 9.4674L15.4604 9.02866C21.2875 3.19072 28.6178 0.218219 35.5723 0.868979C41.4891 1.42317 46.6773 4.55731 50.1827 9.69201L49.6754 10.0447Z" fill="#FF3300"/>
<path d="M49.7066 10.0824C44.1781 4.27388 36.8603 1.02428 29.0958 0.929818C21.73 0.845849 14.8549 3.64201 9.68963 8.8166L9.25537 8.37786C14.4561 3.16759 21.3709 0.310547 28.7576 0.310547C28.8724 0.310547 28.9872 0.310547 29.102 0.312646C37.0315 0.407111 44.5059 3.72598 50.1492 9.65629L49.7066 10.0824Z" fill="#FF3300"/>
<path d="M29.7397 60.0015C29.2052 60.0015 28.6436 59.9763 28.2197 59.9469C27.5057 59.8965 26.5098 59.7916 25.1757 59.6236C24.3886 59.525 23.4115 59.3067 22.8123 59.1513C21.829 58.8952 20.5116 58.4922 19.5324 58.1521C18.6847 57.8561 16.8433 57.0836 15.244 56.1641C14.5049 55.7401 12.5424 54.6107 10.5298 52.8767C9.51718 52.0056 7.98265 50.6033 6.33537 48.4893C5.79254 47.7924 5.37289 47.1836 5.3708 47.1794C4.94698 46.5644 4.94698 46.5644 4.30602 45.5357C3.80913 44.7401 3.28509 43.6968 3.06169 43.2497C2.72764 42.5821 2.37689 41.7928 2.16394 41.226C2.00526 40.8062 1.84033 40.3402 1.68374 39.8741C1.45408 39.257 1.25156 38.6272 1.07619 37.9869C0.840267 37.0591 0.529184 35.8373 0.401828 34.9032C0.282823 34.0341 0.151292 33.0412 0.0865697 32.2791C0.061516 31.9748 -0.0199084 30.9188 -0.00111816 30.0918L0.00305745 29.9616C0.0218477 29.1996 0.0448136 28.2507 0.0990965 27.5223C0.147116 26.882 0.251506 26.0046 0.366336 25.2845C0.79016 22.5933 1.47496 20.6494 1.5021 20.5697C1.70462 20.0008 2.08042 18.9407 2.39568 18.1934C2.62534 17.6497 2.99906 16.8582 3.39365 16.0815C3.98033 14.9291 4.87808 13.468 5.63178 12.4478C6.59426 11.1442 7.82606 9.6915 8.77184 8.75105C10.202 7.32778 10.7636 6.90163 12.6259 5.48886C13.2752 4.99554 14.1897 4.44344 14.8223 4.06978C15.3985 3.72971 16.2107 3.29517 16.8892 2.96559C17.5469 2.64651 18.4801 2.24346 19.2672 1.94117C19.714 1.76903 20.2569 1.5948 20.783 1.42476C21.0126 1.35129 21.2319 1.27991 21.4323 1.21274C22.1693 0.965029 23.1422 0.757206 23.9961 0.580871C24.4575 0.486406 25.015 0.402437 25.5557 0.324766C25.7833 0.291178 26.0046 0.25969 26.2029 0.228202C27.0234 0.0980498 28.107 0.0497676 28.9588 0.0203785C29.6896 -0.00481221 30.5456 0.00148546 31.1364 0.0371723C31.9924 0.0875536 33.1783 0.200912 34.1595 0.324766C35.5521 0.501101 36.7944 0.832778 38.1097 1.18335C39.0909 1.44365 40.3937 1.90548 41.3499 2.32743C42.2352 2.71998 42.8949 3.02647 43.3668 3.26998C43.9639 3.57646 44.7593 4.0257 45.3481 4.38466C45.9598 4.75833 46.6592 5.22016 47.1311 5.56023C47.8347 6.07034 48.0727 6.24038 49.127 7.11785C49.2418 7.21442 49.8431 7.72453 50.6323 8.49285C51.2336 9.08063 51.7368 9.63062 51.9769 9.89723C52.2692 10.2184 52.9185 10.9783 53.3277 11.5136C53.9874 12.3722 54.1064 12.5485 54.7641 13.5247C55.2589 14.2594 56.1337 15.7667 56.6076 16.7701C56.9709 17.5405 57.5805 18.8315 58.0795 20.3577C58.6203 22.0181 58.994 23.4771 59.1902 24.6968C59.3886 25.9311 59.612 27.3271 59.6558 29.3297C59.7018 31.5255 59.5076 33.2595 59.3886 34.0971C59.2654 34.9536 59.0399 36.549 58.3635 38.793C57.9563 40.147 57.2235 41.8852 56.6807 43.1027C56.4302 43.6632 56.0314 44.4085 55.4552 45.3825C55.2046 45.8086 54.8748 46.2999 54.5574 46.7743C54.4175 46.9821 54.2839 47.1836 54.1649 47.3663C53.7181 48.0548 53.0354 48.8945 52.5468 49.4529L52.4571 49.5558C51.8704 50.2254 51.1397 51.0588 50.5008 51.634C50.3567 51.7641 50.2001 51.9069 50.0394 52.0538C49.603 52.4548 49.1061 52.9082 48.6907 53.2483C48.1144 53.7185 47.2668 54.3945 46.5736 54.8353L46.0976 55.1418C45.6028 55.4609 45.0412 55.824 44.5777 56.0864C43.8616 56.4916 42.9262 56.9744 42.2477 57.2851C39.8572 58.3851 37.7902 58.9183 37.5648 58.9771C36.1576 59.3318 34.312 59.6467 33.1595 59.8105C32.5331 59.8986 31.746 59.9322 31.0508 59.9616C30.8232 59.9721 30.6019 59.9805 30.3994 59.991C30.1948 59.9952 29.9693 60.0015 29.7397 60.0015ZM6.20384 47.2844C6.36669 47.509 6.58173 47.7987 6.82183 48.1073C8.4357 50.1771 9.94101 51.5521 10.9327 52.4065C12.9015 54.1027 14.8265 55.209 15.5509 55.6267C17.1147 56.5252 18.9102 57.2809 19.7349 57.5685C20.6995 57.9044 21.9981 58.299 22.9668 58.553C23.731 58.7525 24.6287 58.933 25.2509 59.0107C26.5746 59.1765 27.5579 59.2815 28.2615 59.3297C28.8503 59.3696 29.7125 59.4032 30.3681 59.3675C30.5727 59.357 30.794 59.3486 31.0258 59.3381C31.7064 59.3088 32.4789 59.2773 33.0739 59.1933C34.2117 59.0317 36.0302 58.721 37.4144 58.3725C37.6357 58.3158 39.6505 57.7952 41.993 56.7183C42.6569 56.4139 43.5755 55.9416 44.2771 55.5427C44.7259 55.2887 45.2792 54.9319 45.7677 54.617L46.2479 54.3084C46.916 53.8844 47.7428 53.2231 48.3065 52.7634C48.7095 52.4359 49.198 51.9867 49.6281 51.592C49.7909 51.443 49.9475 51.2981 50.0937 51.168C50.7054 50.6159 51.4236 49.7993 51.9998 49.1401L52.0896 49.0372C52.5656 48.4956 53.2254 47.6811 53.6555 47.0199C53.7766 46.8352 53.9123 46.6315 54.0522 46.4216C54.3653 45.9535 54.6889 45.4707 54.9311 45.0592C55.4948 44.1062 55.8832 43.3819 56.1233 42.8424C56.6598 41.6396 57.3822 39.9287 57.7789 38.6062C58.4407 36.4062 58.6641 34.8423 58.7831 34.0005C58.9 33.1818 59.09 31.4856 59.0441 29.3339C59.0023 27.3754 58.7831 26.0025 58.589 24.7891C58.399 23.5989 58.0336 22.1714 57.5012 20.5424C57.0148 19.0519 56.4176 17.784 56.0585 17.0262C55.5971 16.0479 54.7432 14.5785 54.2672 13.8711C53.6116 12.8991 53.4947 12.727 52.8454 11.881C52.4445 11.3604 51.8119 10.6194 51.528 10.3045C51.29 10.0421 50.7973 9.50047 50.2085 8.92529C49.436 8.17166 48.8493 7.67625 48.7408 7.58388C47.701 6.719 47.4693 6.55106 46.7762 6.04935C46.3168 5.71767 45.6341 5.26634 45.0349 4.90107C44.4587 4.5484 43.6778 4.10967 43.0933 3.80948C42.6319 3.57226 41.9826 3.26998 41.1078 2.88162C40.1787 2.47017 38.9114 2.02304 37.9573 1.76903C36.6628 1.42476 35.4394 1.09938 34.0865 0.927243C33.1177 0.803389 31.9465 0.69213 31.103 0.641749C30.5289 0.608161 29.6958 0.601863 28.9818 0.624955C28.1467 0.652245 27.0861 0.700527 26.299 0.82648C26.0985 0.857969 25.8751 0.891556 25.6455 0.925144C25.1152 1.00282 24.5661 1.08468 24.1214 1.17495C23.518 1.29881 22.3927 1.53182 21.6285 1.78792C21.426 1.8551 21.2026 1.92647 20.973 2.00205C20.4552 2.16788 19.9207 2.34002 19.4906 2.50586C18.7181 2.80395 17.8016 3.1986 17.1586 3.51139C16.503 3.83047 15.6887 4.26291 15.1355 4.59039C14.5175 4.95565 13.6218 5.49725 12.9996 5.96958C11.1624 7.36346 10.607 7.78541 9.2061 9.17929C8.2812 10.1009 7.07236 11.522 6.12659 12.8047C5.39168 13.7997 4.5148 15.2251 3.94275 16.3502C3.55441 17.1165 3.18696 17.8911 2.96356 18.4222C2.65457 19.1548 2.28294 20.2023 2.08251 20.7649C2.05537 20.8447 1.38936 22.734 0.973887 25.3685C0.865321 26.0612 0.760931 26.9408 0.712911 27.5559C0.658628 28.2696 0.635662 29.208 0.61896 29.9637L0.614784 30.096C0.602257 30.6334 0.633574 31.4269 0.698296 32.2162C0.767194 33.0265 0.919604 34.1412 1.01147 34.8087C1.13465 35.7072 1.43947 36.91 1.66286 37.7896C1.66704 37.8022 1.66913 37.8148 1.6733 37.8274C1.82154 38.3123 2.02614 38.9568 2.24745 39.6096C3.70891 43.5646 6.28735 47.0388 9.7886 49.7636C9.83453 49.7993 9.88046 49.835 9.92639 49.8706L9.55268 50.3619C8.32714 49.4277 7.20807 48.3949 6.20384 47.2844Z" fill="#FF3300"/>
</g>
<defs>
<clipPath id="clip0">
<rect width="178" height="60" fill="white"/>
</clipPath>
</defs>
</svg>
