<svg width="180" height="180" viewBox="0 0 180 180" fill="none" xmlns="http://www.w3.org/2000/svg">
<g filter="url(#filter0_d)">
<circle cx="90" cy="80" r="60" fill="#232B3E"/>
</g>
<path d="M96.3254 61.9457C96.0749 61.9457 95.8453 61.8208 95.6992 61.5919L89.3534 51.1218C89.1447 50.7887 89.249 50.3308 89.6039 50.1226C89.9379 49.9145 90.3971 50.0186 90.6058 50.3724L96.9725 60.8633C97.1812 61.1964 97.0769 61.6543 96.722 61.8625C96.5967 61.9249 96.4506 61.9457 96.3254 61.9457Z" fill="white"/>
<path d="M107.827 81.0957H102.337C102.087 81.0957 101.836 80.9709 101.711 80.7419C101.586 80.5129 101.586 80.2423 101.711 80.0342L102.65 78.3481C100.375 74.0602 96.7636 70.5632 93.2776 67.8988L90.3761 69.7722C90.0421 70.0012 89.6038 69.8971 89.3742 69.5641C89.1445 69.231 89.2489 68.7939 89.5829 68.5649L92.0461 66.9413C87.4746 63.6733 83.425 61.9249 83.3415 61.8832C83.1536 61.8 83.0075 61.6334 82.9449 61.4461C82.8823 61.238 82.9031 61.0298 83.0075 60.8425L89.3742 50.3515C89.5829 50.0185 90.0213 49.8936 90.3761 50.1018C90.7101 50.3099 90.8353 50.747 90.6266 51.1009L84.6775 60.9049C86.1804 61.6126 89.6246 63.3403 93.382 66.0879L97.6195 63.2778C97.7865 63.1738 97.9952 63.1321 98.1831 63.1738C98.3709 63.2154 98.5379 63.3403 98.6423 63.5068L108.495 79.9925C108.62 80.2215 108.641 80.4921 108.495 80.7211C108.328 80.95 108.077 81.0957 107.827 81.0957ZM103.548 79.6387H106.533L97.7238 64.9014L94.551 67.0038C98.1204 69.793 101.773 73.4773 104.09 77.9943C104.195 78.2024 104.195 78.4522 104.07 78.6812L103.548 79.6387Z" fill="white"/>
<path d="M83.613 61.9457C83.4878 61.9457 83.3626 61.904 83.2373 61.8416C82.9033 61.6334 82.7781 61.1963 82.9868 60.8425L89.3535 50.3515C89.5622 50.0185 90.0005 49.8936 90.3554 50.1018C90.6894 50.3099 90.8146 50.747 90.6059 51.1009L84.2393 61.5918C84.0932 61.8416 83.8427 61.9457 83.613 61.9457Z" fill="white"/>
<path d="M77.6012 81.0953H72.1113C71.8608 81.0953 71.6103 80.9496 71.485 80.7206C71.3598 80.4917 71.3598 80.2211 71.485 79.9921L81.3377 63.5064C81.442 63.3399 81.609 63.215 81.7969 63.1733C81.9848 63.1317 82.1935 63.1733 82.3605 63.2774L86.598 66.0875C90.3345 63.3607 93.7996 61.6122 95.2816 60.9045L89.3534 51.1213C89.1446 50.7882 89.249 50.3303 89.6039 50.1221C89.9378 49.914 90.3971 50.0181 90.6058 50.3719L96.9725 60.8628C97.0768 61.0502 97.0977 61.2583 97.0351 61.4665C96.9725 61.6746 96.8263 61.8203 96.6385 61.9036C96.555 61.9452 92.5054 63.6937 87.9339 66.9617L90.3971 68.5853C90.7311 68.8143 90.8146 69.2514 90.6058 69.5844C90.3762 69.9175 89.9378 70.0007 89.6039 69.7926L86.7023 67.8776C83.2164 70.5419 79.6051 74.0597 77.3298 78.3269L78.2692 80.0129C78.3944 80.2419 78.3944 80.5125 78.2692 80.7206C78.1022 80.9496 77.8726 81.0953 77.6012 81.0953ZM73.3846 79.6382H76.3696L75.8269 78.6807C75.7016 78.4726 75.7016 78.2228 75.806 77.9938C78.123 73.4561 81.776 69.7926 85.3455 67.0033L82.1726 64.901L73.3846 79.6382Z" fill="white"/>
<path d="M53.825 87.0898L59.0018 98.2677C59.294 98.8713 58.3547 99.2876 58.0833 98.7256L53.3449 88.4845L48.9822 98.7256C48.7108 99.3292 47.7923 98.8921 48.0428 98.2677L52.8856 87.0898C52.99 86.7984 53.6162 86.6527 53.825 87.0898ZM55.8915 94.9164L57.4988 98.2677C57.7702 98.8713 56.81 99.3084 56.5595 98.7256L55.1818 95.6241H51.7376L50.339 98.7256C50.1094 99.1835 49.3579 98.9337 49.5249 98.3926L51.0278 94.9164C51.0905 94.7082 51.1948 94.5834 51.4871 94.5834H55.5367C55.7037 94.5834 55.8289 94.7499 55.8915 94.9164Z" fill="white"/>
<path d="M61.82 92.4817V92.8772C61.82 93.8763 60.0874 93.8763 60.0874 92.8772V92.4817C60.0874 91.3368 61.82 91.3368 61.82 92.4817Z" fill="white"/>
<path d="M69.9605 88.2558C68.4993 87.9227 66.0361 87.3191 65.5769 89.359C65.389 90.1708 65.6395 90.7536 66.2658 91.2948C67.7687 92.5645 69.6474 92.6686 70.7746 94.7501C71.213 95.5619 71.1295 96.457 70.7328 97.2063C69.4804 99.6209 67.0172 99.2254 64.6585 98.3928C64.1366 98.2055 64.4915 97.2271 64.9924 97.4977C66.9964 98.5385 70.6911 98.2679 69.9605 95.2289C69.6265 94.542 68.9794 93.9383 68.0609 93.4179C66.3493 92.4604 64.0322 91.7944 64.6585 89.1508C65.3264 86.2367 67.727 86.8819 70.211 87.3399C70.3571 87.3607 70.4406 87.444 70.4406 87.444C70.7746 87.7978 70.4197 88.339 69.9605 88.2558Z" fill="white"/>
<path d="M77.8513 87.2568V98.497C77.8513 99.2047 76.912 99.2256 76.912 98.497V87.7355H73.6347C73.0294 87.7355 73.0085 86.7988 73.6347 86.7988H77.3712C77.4965 86.7988 77.6217 86.7988 77.7469 86.9029C77.8513 87.0278 77.8513 87.1527 77.8513 87.2568ZM78.6237 87.2568V98.497C78.6237 99.2047 79.563 99.2256 79.563 98.497V87.7355H82.8403C83.4456 87.7355 83.4665 86.7988 82.8403 86.7988H79.1038C78.9785 86.7988 78.8533 86.7988 78.728 86.9029C78.6237 87.0278 78.6237 87.1527 78.6237 87.2568Z" fill="white"/>
<path d="M89.4783 87.0906L94.6551 98.2684C94.9473 98.872 94.008 99.2883 93.7366 98.7263L88.9982 88.4852L84.6355 98.7263C84.3641 99.33 83.4457 98.8929 83.6961 98.2684L88.539 87.0906C88.6433 86.7992 89.2696 86.6535 89.4783 87.0906ZM91.5657 94.9171L93.173 98.2684C93.4444 98.872 92.4842 99.3092 92.2337 98.7263L90.856 95.6249H87.37L85.9923 98.7263C85.7627 99.1843 85.0112 98.9345 85.1782 98.3933L86.6812 94.9171C86.7438 94.709 86.8482 94.5841 87.1404 94.5841H91.2109C91.357 94.5841 91.4822 94.7506 91.5657 94.9171Z" fill="white"/>
<path d="M99.4563 87.2568V98.497C99.4563 99.2047 98.517 99.2256 98.517 98.497V87.7355H95.2397C94.6344 87.7355 94.6135 86.7988 95.2397 86.7988H98.9762C99.1014 86.7988 99.2267 86.7988 99.3519 86.9029C99.4563 87.0278 99.4563 87.1527 99.4563 87.2568ZM100.229 87.2568V98.497C100.229 99.2047 101.168 99.2256 101.168 98.497V87.7355H104.445C105.051 87.7355 105.071 86.7988 104.445 86.7988H100.709C100.584 86.7988 100.458 86.7988 100.333 86.9029C100.229 87.0278 100.229 87.1527 100.229 87.2568Z" fill="white"/>
<path d="M107.034 87.278C107.034 86.6743 107.973 86.6535 107.973 87.278V98.5182C107.973 99.2468 107.034 99.2259 107.034 98.5182V87.278Z" fill="white"/>
<path d="M119.788 89.2135C120.372 90.2126 120.706 91.4824 120.706 93.0643C120.706 94.5422 120.247 95.7911 119.558 96.8319V96.936C118.639 98.3098 117.283 99.0799 115.446 99.0799C113.63 99.0799 112.273 98.289 111.229 96.936C110.415 95.7911 110.081 94.4381 110.081 92.9602C110.081 91.2534 110.415 90.0045 111.104 88.9845C112.022 87.4858 113.484 86.8197 115.696 86.8197C117.617 86.7989 118.994 87.6107 119.788 89.2135ZM111.02 92.9602C111.02 94.2092 111.354 95.3332 112.022 96.3531C112.836 97.498 113.964 98.06 115.446 98.06C116.949 98.06 117.951 97.4772 118.765 96.3531C119.433 95.4581 119.662 94.3132 119.662 93.0643C119.662 91.7113 119.433 90.5873 118.994 89.6714C118.285 88.4017 117.178 87.7356 115.696 87.7356C113.985 87.7356 112.711 88.2768 111.897 89.5465C111.354 90.3375 111.02 91.4615 111.02 92.9602Z" fill="white"/>
<path d="M122.793 87.0489C122.96 86.6534 123.587 86.6742 123.733 87.0489L129.953 98.31C130.183 98.9136 129.285 99.3715 129.014 98.6638L123.733 88.6725V98.5806C123.733 99.0801 122.793 99.3091 122.793 98.5597V87.0489ZM131.936 98.8095C131.769 99.205 131.206 99.1634 130.997 98.8095L124.61 87.5484C124.38 86.9448 125.277 86.4869 125.549 87.1946L131.018 97.1859V87.4444C131.018 86.9448 131.957 86.7158 131.957 87.4652V98.8095H131.936Z" fill="white"/>
<path d="M69.8564 106.344C70.1069 106.303 70.4827 106.261 70.8167 106.261C71.3594 106.261 71.6934 106.365 71.9439 106.573C72.1317 106.74 72.257 107.01 72.257 107.302C72.257 107.801 71.923 108.134 71.5264 108.28V108.301C71.8186 108.405 71.9856 108.676 72.09 109.071C72.2152 109.612 72.2987 109.987 72.3822 110.133H71.8604C71.7977 110.029 71.7143 109.696 71.6099 109.217C71.5055 108.676 71.2759 108.488 70.8375 108.467H70.3783V110.133H69.8773V106.344H69.8564ZM70.3574 108.093H70.8584C71.4011 108.093 71.7351 107.801 71.7351 107.364C71.7351 106.865 71.3803 106.656 70.8375 106.656C70.587 106.656 70.4409 106.677 70.3366 106.698V108.093H70.3574Z" fill="white"/>
<path d="M76.5567 108.343H75.0537V109.738H76.7237V110.154H74.5527V106.303H76.6402V106.719H75.0537V107.927H76.5567V108.343Z" fill="white"/>
<path d="M78.9574 109.53C79.187 109.675 79.5001 109.779 79.855 109.779C80.356 109.779 80.6691 109.509 80.6691 109.134C80.6691 108.78 80.4603 108.572 79.9385 108.364C79.3123 108.156 78.9157 107.823 78.9157 107.281C78.9157 106.678 79.4166 106.241 80.1681 106.241C80.5647 106.241 80.857 106.324 81.0239 106.428L80.8778 106.844C80.7526 106.761 80.5021 106.657 80.1472 106.657C79.6254 106.657 79.4166 106.969 79.4166 107.24C79.4166 107.594 79.6462 107.781 80.189 107.968C80.8361 108.218 81.1701 108.53 81.1701 109.092C81.1701 109.675 80.7317 110.196 79.8341 110.196C79.4584 110.196 79.0618 110.092 78.853 109.946L78.9574 109.53Z" fill="white"/>
<path d="M83.9669 106.303V110.154H83.4663V106.303H83.9669Z" fill="white"/>
<path d="M86.472 106.345C86.7852 106.303 87.14 106.261 87.5366 106.261C88.2464 106.261 88.7682 106.428 89.1022 106.74C89.4571 107.052 89.6449 107.49 89.6449 108.114C89.6449 108.738 89.4362 109.259 89.0813 109.613C88.7056 109.967 88.1211 110.175 87.3696 110.175C87.0148 110.175 86.7225 110.154 86.4512 110.133V106.345H86.472ZM86.973 109.758C87.0983 109.779 87.2861 109.779 87.474 109.779C88.5386 109.779 89.1231 109.176 89.1231 108.156C89.1231 107.24 88.6221 106.678 87.5575 106.678C87.307 106.678 87.0983 106.699 86.973 106.719V109.758Z" fill="white"/>
<path d="M93.9028 108.343H92.3999V109.738H94.0698V110.154H91.8989V106.303H93.9863V106.719H92.3999V107.927H93.9028V108.343Z" fill="white"/>
<path d="M96.3667 110.133V106.282H96.9094L98.141 108.239C98.4124 108.697 98.642 109.093 98.8299 109.488H98.8507C98.809 108.968 98.7881 108.51 98.7881 107.906V106.282H99.2473V110.133H98.7464L97.5148 108.177C97.2434 107.74 96.9929 107.302 96.8051 106.886H96.7842C96.8051 107.365 96.8259 107.844 96.8259 108.468V110.112H96.3667V110.133Z" fill="white"/>
<path d="M104.466 110.008C104.278 110.091 103.923 110.195 103.443 110.195C102.358 110.195 101.543 109.508 101.543 108.239C101.543 107.031 102.358 106.219 103.568 106.219C104.048 106.219 104.361 106.324 104.487 106.386L104.361 106.802C104.174 106.719 103.902 106.636 103.589 106.636C102.692 106.636 102.086 107.219 102.086 108.218C102.086 109.154 102.629 109.758 103.568 109.758C103.881 109.758 104.194 109.696 104.382 109.592L104.466 110.008Z" fill="white"/>
<path d="M108.724 108.343H107.221V109.738H108.891V110.154H106.72V106.303H108.808V106.719H107.221V107.927H108.724V108.343Z" fill="white"/>
<defs>
<filter id="filter0_d" x="0" y="0" width="180" height="180" filterUnits="userSpaceOnUse" color-interpolation-filters="sRGB">
<feFlood flood-opacity="0" result="BackgroundImageFix"/>
<feColorMatrix in="SourceAlpha" type="matrix" values="0 0 0 0 0 0 0 0 0 0 0 0 0 0 0 0 0 0 127 0" result="hardAlpha"/>
<feOffset dy="10"/>
<feGaussianBlur stdDeviation="15"/>
<feColorMatrix type="matrix" values="0 0 0 0 0.137255 0 0 0 0 0.168627 0 0 0 0 0.243137 0 0 0 0.05 0"/>
<feBlend mode="normal" in2="BackgroundImageFix" result="effect1_dropShadow"/>
<feBlend mode="normal" in="SourceGraphic" in2="effect1_dropShadow" result="shape"/>
</filter>
</defs>
</svg>
