<svg width="120" height="120" viewBox="0 0 120 120" fill="none" xmlns="http://www.w3.org/2000/svg">
<circle cx="60" cy="60" r="60" fill="#232B3E"/>
<path d="M66.3254 41.9457C66.0749 41.9457 65.8453 41.8208 65.6992 41.5919L59.3534 31.1218C59.1447 30.7887 59.249 30.3308 59.6039 30.1226C59.9379 29.9145 60.3971 30.0186 60.6058 30.3724L66.9725 40.8633C67.1812 41.1964 67.0769 41.6543 66.722 41.8625C66.5967 41.9249 66.4506 41.9457 66.3254 41.9457Z" fill="white"/>
<path d="M77.827 61.0957H72.337C72.0865 61.0957 71.8361 60.9709 71.7108 60.7419C71.5856 60.5129 71.5856 60.2423 71.7108 60.0342L72.6501 58.3481C70.3749 54.0602 66.7636 50.5632 63.2776 47.8988L60.3761 49.7722C60.0421 50.0012 59.6038 49.8971 59.3742 49.5641C59.1445 49.231 59.2489 48.7939 59.5829 48.5649L62.0461 46.9413C57.4746 43.6733 53.425 41.9249 53.3415 41.8832C53.1536 41.8 53.0075 41.6334 52.9449 41.4461C52.8823 41.238 52.9031 41.0298 53.0075 40.8425L59.3742 30.3515C59.5829 30.0185 60.0213 29.8936 60.3761 30.1018C60.7101 30.3099 60.8353 30.747 60.6266 31.1009L54.6775 40.9049C56.1804 41.6126 59.6246 43.3403 63.382 46.0879L67.6195 43.2778C67.7865 43.1738 67.9952 43.1321 68.1831 43.1738C68.3709 43.2154 68.5379 43.3403 68.6423 43.5068L78.4949 59.9925C78.6202 60.2215 78.641 60.4921 78.4949 60.7211C78.3279 60.95 78.0774 61.0957 77.827 61.0957ZM73.5477 59.6387H76.5328L67.7238 44.9014L64.551 47.0038C68.1204 49.793 71.7734 53.4773 74.0905 57.9943C74.1948 58.2024 74.1948 58.4522 74.0696 58.6812L73.5477 59.6387Z" fill="white"/>
<path d="M53.613 41.9457C53.4878 41.9457 53.3626 41.904 53.2373 41.8416C52.9033 41.6334 52.7781 41.1963 52.9868 40.8425L59.3535 30.3515C59.5622 30.0185 60.0005 29.8936 60.3554 30.1018C60.6894 30.3099 60.8146 30.747 60.6059 31.1009L54.2393 41.5918C54.0932 41.8416 53.8427 41.9457 53.613 41.9457Z" fill="white"/>
<path d="M47.6012 61.0953H42.1113C41.8608 61.0953 41.6103 60.9496 41.485 60.7206C41.3598 60.4917 41.3598 60.2211 41.485 59.9921L51.3377 43.5064C51.442 43.3399 51.609 43.215 51.7969 43.1733C51.9848 43.1317 52.1935 43.1733 52.3605 43.2774L56.598 46.0875C60.3345 43.3607 63.7996 41.6122 65.2816 40.9045L59.3534 31.1213C59.1446 30.7882 59.249 30.3303 59.6039 30.1221C59.9378 29.914 60.3971 30.0181 60.6058 30.3719L66.9725 40.8628C67.0768 41.0502 67.0977 41.2583 67.0351 41.4665C66.9725 41.6746 66.8263 41.8203 66.6385 41.9036C66.555 41.9452 62.5054 43.6937 57.9339 46.9617L60.3971 48.5853C60.7311 48.8143 60.8146 49.2514 60.6058 49.5844C60.3762 49.9175 59.9378 50.0008 59.6039 49.7926L56.7023 47.8776C53.2164 50.5419 49.6051 54.0597 47.3298 58.3269L48.2692 60.0129C48.3944 60.2419 48.3944 60.5125 48.2692 60.7206C48.1022 60.9496 47.8726 61.0953 47.6012 61.0953ZM43.3846 59.6382H46.3696L45.8269 58.6807C45.7016 58.4726 45.7016 58.2228 45.806 57.9938C48.123 53.4561 51.776 49.7926 55.3455 47.0033L52.1726 44.901L43.3846 59.6382Z" fill="white"/>
<path d="M23.825 67.0898L29.0018 78.2677C29.294 78.8713 28.3547 79.2876 28.0833 78.7256L23.3449 68.4845L18.9822 78.7256C18.7108 79.3292 17.7923 78.8921 18.0428 78.2677L22.8856 67.0898C22.99 66.7984 23.6162 66.6527 23.825 67.0898ZM25.8915 74.9164L27.4988 78.2677C27.7702 78.8713 26.81 79.3084 26.5595 78.7256L25.1818 75.6241H21.7376L20.339 78.7256C20.1094 79.1835 19.3579 78.9337 19.5249 78.3926L21.0278 74.9164C21.0905 74.7082 21.1948 74.5834 21.4871 74.5834H25.5367C25.7037 74.5834 25.8289 74.7499 25.8915 74.9164Z" fill="white"/>
<path d="M31.82 72.4817V72.8772C31.82 73.8763 30.0874 73.8763 30.0874 72.8772V72.4817C30.0874 71.3368 31.82 71.3368 31.82 72.4817Z" fill="white"/>
<path d="M39.9605 68.2558C38.4993 67.9227 36.0361 67.3191 35.5769 69.359C35.389 70.1708 35.6395 70.7536 36.2658 71.2948C37.7687 72.5645 39.6474 72.6686 40.7746 74.7501C41.213 75.5619 41.1295 76.457 40.7328 77.2063C39.4804 79.6209 37.0172 79.2254 34.6585 78.3928C34.1366 78.2055 34.4915 77.2271 34.9924 77.4977C36.9964 78.5385 40.6911 78.2679 39.9605 75.2289C39.6265 74.542 38.9794 73.9383 38.0609 73.4179C36.3493 72.4604 34.0322 71.7944 34.6585 69.1508C35.3264 66.2367 37.727 66.8819 40.211 67.3399C40.3571 67.3607 40.4406 67.444 40.4406 67.444C40.7746 67.7978 40.4197 68.339 39.9605 68.2558Z" fill="white"/>
<path d="M47.8513 67.2568V78.497C47.8513 79.2047 46.912 79.2256 46.912 78.497V67.7355H43.6347C43.0294 67.7355 43.0085 66.7988 43.6347 66.7988H47.3712C47.4965 66.7988 47.6217 66.7988 47.7469 66.9029C47.8513 67.0278 47.8513 67.1527 47.8513 67.2568ZM48.6237 67.2568V78.497C48.6237 79.2047 49.563 79.2256 49.563 78.497V67.7355H52.8403C53.4456 67.7355 53.4665 66.7988 52.8403 66.7988H49.1038C48.9785 66.7988 48.8533 66.7988 48.728 66.9029C48.6237 67.0278 48.6237 67.1527 48.6237 67.2568Z" fill="white"/>
<path d="M59.4783 67.0906L64.6551 78.2684C64.9473 78.872 64.008 79.2883 63.7366 78.7263L58.9982 68.4852L54.6355 78.7263C54.3641 79.33 53.4457 78.8929 53.6961 78.2684L58.539 67.0906C58.6433 66.7992 59.2696 66.6535 59.4783 67.0906ZM61.5657 74.9171L63.173 78.2684C63.4444 78.872 62.4842 79.3092 62.2337 78.7263L60.856 75.6249H57.37L55.9923 78.7263C55.7627 79.1843 55.0112 78.9345 55.1782 78.3933L56.6812 74.9171C56.7438 74.709 56.8482 74.5841 57.1404 74.5841H61.2109C61.357 74.5841 61.4822 74.7506 61.5657 74.9171Z" fill="white"/>
<path d="M69.4563 67.2568V78.497C69.4563 79.2047 68.517 79.2256 68.517 78.497V67.7355H65.2397C64.6344 67.7355 64.6135 66.7988 65.2397 66.7988H68.9762C69.1014 66.7988 69.2267 66.7988 69.3519 66.9029C69.4563 67.0278 69.4563 67.1527 69.4563 67.2568ZM70.2286 67.2568V78.497C70.2286 79.2047 71.168 79.2256 71.168 78.497V67.7355H74.4452C75.0506 67.7355 75.0715 66.7988 74.4452 66.7988H70.7087C70.5835 66.7988 70.4583 66.7988 70.333 66.9029C70.2286 67.0278 70.2286 67.1527 70.2286 67.2568Z" fill="white"/>
<path d="M77.0337 67.278C77.0337 66.6743 77.973 66.6535 77.973 67.278V78.5182C77.973 79.2468 77.0337 79.2259 77.0337 78.5182V67.278Z" fill="white"/>
<path d="M89.7876 69.2135C90.372 70.2126 90.706 71.4824 90.706 73.0643C90.706 74.5422 90.2468 75.7911 89.5579 76.8319V76.936C88.6395 78.3098 87.2827 79.0799 85.4457 79.0799C83.6297 79.0799 82.2728 78.289 81.2291 76.936C80.415 75.7911 80.0811 74.4381 80.0811 72.9602C80.0811 71.2534 80.415 70.0045 81.1039 68.9845C82.0224 67.4858 83.4835 66.8197 85.6962 66.8197C87.6166 66.7989 88.9943 67.6107 89.7876 69.2135ZM81.0204 72.9602C81.0204 74.2092 81.3544 75.3332 82.0224 76.3531C82.8365 77.498 83.9637 78.06 85.4457 78.06C86.9487 78.06 87.9506 77.4772 88.7647 76.3531C89.4327 75.4581 89.6623 74.3132 89.6623 73.0643C89.6623 71.7113 89.4327 70.5873 88.9943 69.6714C88.2846 68.4017 87.1783 67.7356 85.6962 67.7356C83.9845 67.7356 82.7112 68.2768 81.8971 69.5465C81.3544 70.3375 81.0204 71.4615 81.0204 72.9602Z" fill="white"/>
<path d="M92.7935 67.0489C92.9605 66.6534 93.5867 66.6742 93.7328 67.0489L99.9533 78.31C100.183 78.9136 99.2853 79.3715 99.014 78.6638L93.7328 68.6725V78.5806C93.7328 79.0801 92.7935 79.3091 92.7935 78.5597V67.0489ZM101.936 78.8095C101.769 79.205 101.206 79.1634 100.997 78.8095L94.6095 67.5484C94.3799 66.9448 95.2775 66.4869 95.5489 67.1946L101.018 77.1859V67.4444C101.018 66.9448 101.957 66.7158 101.957 67.4652V78.8095H101.936Z" fill="white"/>
<path d="M39.8564 86.3442C40.1069 86.3026 40.4827 86.261 40.8167 86.261C41.3594 86.261 41.6934 86.3651 41.9439 86.5732C42.1317 86.7397 42.257 87.0103 42.257 87.3018C42.257 87.8013 41.923 88.1344 41.5264 88.2801V88.3009C41.8186 88.405 41.9856 88.6756 42.09 89.0711C42.2152 89.6122 42.2987 89.9869 42.3822 90.1326H41.8604C41.7977 90.0285 41.7143 89.6955 41.6099 89.2168C41.5055 88.6756 41.2759 88.4882 40.8375 88.4674H40.3783V90.1326H39.8773V86.3442H39.8564ZM40.3574 88.0927H40.8584C41.4011 88.0927 41.7351 87.8013 41.7351 87.3642C41.7351 86.8646 41.3803 86.6565 40.8375 86.6565C40.587 86.6565 40.4409 86.6773 40.3366 86.6981V88.0927H40.3574Z" fill="white"/>
<path d="M46.5567 88.3429H45.0537V89.7375H46.7237V90.1538H44.5527V86.303H46.6402V86.7193H45.0537V87.9266H46.5567V88.3429Z" fill="white"/>
<path d="M48.9574 89.5295C49.187 89.6752 49.5001 89.7793 49.855 89.7793C50.356 89.7793 50.6691 89.5087 50.6691 89.134C50.6691 88.7802 50.4603 88.572 49.9385 88.3639C49.3123 88.1557 48.9157 87.8227 48.9157 87.2815C48.9157 86.6778 49.4166 86.2407 50.1681 86.2407C50.5647 86.2407 50.857 86.324 51.0239 86.4281L50.8778 86.8444C50.7526 86.7611 50.5021 86.657 50.1472 86.657C49.6254 86.657 49.4166 86.9693 49.4166 87.2399C49.4166 87.5937 49.6462 87.7811 50.189 87.9684C50.8361 88.2182 51.1701 88.5304 51.1701 89.0924C51.1701 89.6752 50.7317 90.1956 49.8341 90.1956C49.4584 90.1956 49.0618 90.0915 48.853 89.9458L48.9574 89.5295Z" fill="white"/>
<path d="M53.9669 86.303V90.1538H53.4663V86.303H53.9669Z" fill="white"/>
<path d="M56.472 86.3447C56.7852 86.3031 57.14 86.2615 57.5366 86.2615C58.2464 86.2615 58.7682 86.428 59.1022 86.7402C59.4571 87.0525 59.6449 87.4896 59.6449 88.114C59.6449 88.7385 59.4362 89.2589 59.0813 89.6127C58.7056 89.9666 58.1211 90.1747 57.3696 90.1747C57.0148 90.1747 56.7225 90.1539 56.4512 90.1331V86.3447H56.472ZM56.973 89.7584C57.0983 89.7793 57.2861 89.7793 57.474 89.7793C58.5386 89.7793 59.1231 89.1756 59.1231 88.1557C59.1231 87.2398 58.6221 86.6778 57.5575 86.6778C57.307 86.6778 57.0983 86.6986 56.973 86.7194V89.7584Z" fill="white"/>
<path d="M63.9028 88.3429H62.3999V89.7375H64.0698V90.1538H61.8989V86.303H63.9863V86.7193H62.3999V87.9266H63.9028V88.3429Z" fill="white"/>
<path d="M66.3667 90.1333V86.2825H66.9094L68.141 88.2391C68.4124 88.6971 68.642 89.0925 68.8299 89.488H68.8507C68.809 88.9676 68.7881 88.5097 68.7881 87.9061V86.2825H69.2473V90.1333H68.7464L67.5148 88.1767C67.2434 87.7395 66.9929 87.3024 66.8051 86.8861H66.7842C66.8051 87.3649 66.8259 87.8436 66.8259 88.4681V90.1125H66.3667V90.1333Z" fill="white"/>
<path d="M74.4658 90.0079C74.278 90.0911 73.9231 90.1952 73.443 90.1952C72.3576 90.1952 71.5435 89.5083 71.5435 88.2386C71.5435 87.0313 72.3576 86.2195 73.5683 86.2195C74.0484 86.2195 74.3615 86.3236 74.4867 86.386L74.3615 86.8023C74.1736 86.719 73.9022 86.6358 73.5891 86.6358C72.6915 86.6358 72.0862 87.2186 72.0862 88.2178C72.0862 89.1544 72.6289 89.7581 73.5683 89.7581C73.8814 89.7581 74.1945 89.6956 74.3824 89.5916L74.4658 90.0079Z" fill="white"/>
<path d="M78.7241 88.3429H77.2212V89.7375H78.8911V90.1538H76.7202V86.303H78.8076V86.7193H77.2212V87.9266H78.7241V88.3429Z" fill="white"/>
</svg>
