<svg width="137" height="92" viewBox="0 0 137 92" fill="none" xmlns="http://www.w3.org/2000/svg">
<path d="M136.756 31.8626C136.756 14.3525 122.155 0 104.519 0H32.0929C14.4562 0 0 14.3525 0 31.8626C0 49.3726 14.4562 63.7251 32.0929 63.7251H104.519C122.155 63.8686 136.756 49.5161 136.756 31.8626Z" fill="#656E75"/>
<path d="M21.3952 76.6416V88.1236H20.5278L19.9496 87.2624C19.3713 87.8365 18.6485 88.2671 17.492 88.2671C14.8899 88.2671 13.8779 86.1142 13.8779 84.2484C13.8779 82.3826 14.8899 80.2297 17.492 80.2297C18.6485 80.2297 19.5159 80.6603 19.9496 81.3779V76.6416H21.3952ZM20.2387 84.2484C20.2387 82.6696 19.2267 81.5214 17.7811 81.5214C16.3355 81.5214 15.4681 82.6696 15.4681 84.3919C15.4681 86.1142 16.3355 87.2624 17.7811 87.2624C19.0822 87.1189 20.2387 86.1142 20.2387 84.2484Z" fill="#656E75"/>
<path d="M31.5143 84.3924V84.823H25.4427C25.5872 86.4017 26.4546 87.2629 28.0448 87.2629C29.2013 87.2629 29.9241 86.8323 30.2132 85.8276L31.3697 86.4017C30.936 87.5499 29.9241 88.5546 28.0448 88.5546C25.1535 88.5546 24.1416 86.4017 24.1416 84.5359C24.1416 82.5266 25.1535 80.5172 28.0448 80.5172C30.6469 80.2302 31.6588 82.2395 31.5143 84.3924ZM25.5872 83.5312H30.2132C30.0687 82.2395 29.2013 81.5219 28.0448 81.5219C26.5992 81.5219 25.7318 82.2395 25.5872 83.5312Z" fill="#656E75"/>
<path d="M41.7785 80.5176L38.4535 88.2679H37.4416L34.2612 80.5176H35.7069L38.0199 86.1151L40.1883 80.5176H41.7785Z" fill="#656E75"/>
<path d="M51.8986 84.3924V84.823H45.8269C45.9715 86.4017 46.8389 87.2629 48.4291 87.2629C49.5856 87.2629 50.3084 86.8323 50.5975 85.8276L51.754 86.4017C51.3203 87.5499 50.3084 88.5546 48.4291 88.5546C45.5378 88.5546 44.5259 86.4017 44.5259 84.5359C44.5259 82.5266 45.5378 80.5172 48.4291 80.5172C50.8866 80.2302 51.8986 82.2395 51.8986 84.3924ZM45.8269 83.5312H50.4529C50.3084 82.2395 49.441 81.5219 48.2845 81.5219C46.8389 81.5219 45.9715 82.2395 45.8269 83.5312Z" fill="#656E75"/>
<path d="M61.7281 86.9754V88.2671H54.6445V86.9754H57.5358V77.9333H55.2228V76.6416H58.8368V77.9333V86.9754H61.7281Z" fill="#656E75"/>
<path d="M64.6191 84.2487C64.6191 82.3829 65.6311 80.23 68.3778 80.23C70.9799 80.23 72.1364 82.2393 72.1364 84.2487C72.1364 86.258 71.1244 88.4109 68.3778 88.4109C65.7756 88.4109 64.6191 86.258 64.6191 84.2487ZM70.6908 84.2487C70.6908 82.6699 69.8234 81.5217 68.3778 81.5217C66.9321 81.5217 66.0648 82.5264 66.0648 84.2487C66.0648 86.1145 66.9321 87.1192 68.3778 87.1192C69.8234 87.1192 70.6908 86.1145 70.6908 84.2487Z" fill="#656E75"/>
<path d="M82.1115 84.3928C82.1115 86.2586 81.0996 88.4115 78.4974 88.4115C77.3409 88.4115 76.4736 87.9809 76.0399 87.2633V91.9996H74.5942V80.5176H75.4616L76.0399 81.3788C76.6181 80.8047 77.3409 80.3741 78.4974 80.3741C81.0996 80.2306 82.1115 82.527 82.1115 84.3928ZM80.8104 84.3928C80.8104 82.6705 79.9431 81.5223 78.4974 81.5223C77.0518 81.5223 76.0399 82.527 76.0399 84.3928C76.0399 85.9716 77.0518 87.1198 78.4974 87.1198C79.9431 87.1198 80.8104 86.1151 80.8104 84.3928Z" fill="#656E75"/>
<path d="M92.954 83.8181V88.2674H91.5084V83.8181C91.5084 82.957 91.5084 81.5217 90.4965 81.5217C89.7736 81.5217 89.1954 82.3829 89.1954 84.6792V88.1238H87.8943V83.6746C87.8943 82.5264 87.7498 81.3782 86.8824 81.3782C86.1596 81.3782 85.5813 82.2393 85.5813 84.5357V88.1238H84.2803V80.3735H85.1477L85.5813 81.0911C85.8705 80.517 86.4487 80.23 87.1715 80.23C88.1835 80.23 88.6171 80.8041 89.0508 81.5217C89.34 80.8041 90.0628 80.23 90.9302 80.23C93.0986 80.23 92.954 82.8134 92.954 83.8181Z" fill="#656E75"/>
<path d="M102.495 84.3924V84.823H96.4231C96.5677 86.4017 97.4351 87.2629 99.0253 87.2629C100.182 87.2629 100.905 86.8323 101.194 85.8276L102.35 86.4017C101.917 87.5499 100.905 88.5546 99.0253 88.5546C96.134 88.5546 95.1221 86.4017 95.1221 84.5359C95.1221 82.5266 96.134 80.5172 99.0253 80.5172C101.483 80.2302 102.639 82.2395 102.495 84.3924ZM96.4231 83.5312H101.049C100.905 82.2395 100.037 81.5219 98.8807 81.5219C97.4351 81.5219 96.7122 82.2395 96.4231 83.5312Z" fill="#656E75"/>
<path d="M112.181 83.5311V88.2674H110.735V83.9616V83.5311C110.735 83.1005 110.735 81.5217 109 81.5217C106.976 81.5217 106.832 83.5311 106.832 84.6792V88.1238H105.531V80.3735H106.398L106.976 81.3782C107.555 80.517 108.422 80.23 109.289 80.23C111.024 80.23 112.181 81.5217 112.181 83.5311Z" fill="#656E75"/>
<path d="M122.734 86.2585C122.3 87.6937 121.288 88.4114 119.842 88.4114C117.963 88.4114 116.951 87.2632 116.951 85.3973V81.6657H114.927V80.374H116.951V77.647H118.397V80.374H122.444V81.6657H118.397V85.1103C118.397 85.6844 118.397 87.1196 119.987 87.1196C120.999 87.1196 121.433 86.5455 121.722 85.6844L122.734 86.2585Z" fill="#656E75"/>
<path d="M27.3229 24.3989L22.1187 41.909H25.4436L26.4555 38.3209H32.9608L34.1173 41.909H37.4423L32.0935 24.3989H27.3229ZM27.4675 35.1633L29.7805 27.413L32.0935 35.1633H27.4675Z" fill="black"/>
<path d="M54.0668 25.8341C53.0549 24.973 51.8984 24.5424 50.5973 24.3989C50.0191 24.3989 49.4408 24.2554 48.5734 24.2554H43.0801V41.7654H48.5734C49.4408 41.7654 50.1636 41.7654 50.5973 41.6219C51.8984 41.4784 53.0549 40.9043 54.0668 40.1867C55.0788 39.3255 55.8016 38.3208 56.2353 37.0291C56.8135 35.7374 56.9581 34.4457 56.9581 32.8669C56.9581 31.4316 56.6689 29.9964 56.2353 28.7046C55.8016 27.7 55.0788 26.6953 54.0668 25.8341ZM53.344 35.5939C53.0549 36.3115 52.7658 37.0291 52.3321 37.6032C51.8984 38.1773 51.3201 38.4644 50.5973 38.6079C50.0191 38.7514 49.4408 38.7514 48.5734 38.7514H46.2605V27.4129H48.5734C48.8626 27.4129 49.2963 27.4129 49.5854 27.4129C49.8745 27.4129 50.1636 27.4129 50.4528 27.5565C51.1756 27.7 51.7538 27.987 52.1875 28.5611C52.6212 29.1352 53.0549 29.7093 53.1994 30.5705C53.4886 31.2881 53.6331 32.1493 53.6331 33.1539C53.6331 34.0151 53.4886 34.8762 53.344 35.5939Z" fill="black"/>
<path d="M67.0773 24.3989L61.873 41.909H65.198L66.2099 38.3209H72.7152L73.8717 41.909H77.1967L71.8479 24.3989H67.0773ZM67.2219 35.1633L69.5349 27.413L71.8479 35.1633H67.2219Z" fill="black"/>
<path d="M93.9658 25.4036C93.243 24.8295 92.5202 24.5424 91.5082 24.3989C91.0745 24.3989 90.6408 24.2554 90.0626 24.2554H82.8345V41.7654H86.0148V35.8809H90.0626C90.6408 35.8809 91.0745 35.8809 91.5082 35.7374C92.5202 35.5939 93.3875 35.3068 93.9658 34.7327C94.6886 34.1586 95.1223 33.5845 95.4114 32.7234C95.7005 31.8622 95.8451 31.0011 95.8451 29.9964C95.8451 28.9917 95.7005 28.1305 95.4114 27.2694C95.1223 26.6953 94.544 25.9777 93.9658 25.4036ZM92.5202 31.1446C92.3756 31.4316 92.231 31.8622 91.9419 32.1493C91.6528 32.4363 91.3637 32.5798 90.93 32.7234C90.6408 32.8669 90.3517 32.8669 89.7735 32.8669H85.8703V27.4129H89.7735C90.2072 27.4129 90.6408 27.4129 90.93 27.5565C91.3637 27.7 91.6528 27.8435 91.9419 28.1305C92.231 28.4176 92.3756 28.7046 92.5202 29.1352C92.6647 29.4223 92.6647 29.8529 92.6647 30.1399C92.6647 30.5705 92.5202 30.8575 92.5202 31.1446Z" fill="black"/>
<path d="M100.327 24.3989V27.413H105.82V41.909H109V27.413H114.349V24.3989H100.327Z" fill="black"/>
</svg>
