<svg width="219" height="44" viewBox="0 0 219 44" fill="none" xmlns="http://www.w3.org/2000/svg">
<path d="M94.8589 34.4861C94.5385 34.3787 94.1703 34.319 93.7789 34.319C93.3875 34.319 93.0313 34.3787 92.6996 34.4981C92.3673 34.6174 92.1537 34.7249 92.0588 34.7965C91.964 34.8681 91.8923 34.9397 91.8452 34.9875V43.3315L92.0349 43.4986C92.1537 43.606 92.3912 43.7254 92.7116 43.8328C93.3398 44.0596 94.2061 44.0596 94.8708 43.8089C95.2032 43.6895 95.4161 43.5821 95.5116 43.5105C95.6065 43.4389 95.6655 43.3792 95.7133 43.3315V41.5767H94.4197V42.6869L94.3487 42.7346C94.2419 42.8062 94.0045 42.8778 93.7789 42.8778C93.5063 42.8898 93.3046 42.8182 93.1381 42.6869V35.644L93.1978 35.5843C93.3046 35.5127 93.5421 35.4411 93.767 35.4411C94.0403 35.4411 94.2539 35.5007 94.4078 35.644V36.7422H95.7013V34.9875L95.5229 34.8323C95.4161 34.7249 95.1912 34.6055 94.8589 34.4861Z" fill="white"/>
<path d="M97.3984 35.5723H97.4097V42.7345H97.3984V43.8685H98.7033V42.7345V35.5723V34.4622H97.3984V35.5723Z" fill="white"/>
<path d="M100.009 35.7514H101.361V43.8686H102.63V35.7514H103.995V34.6652H100.009V35.7514Z" fill="white"/>
<path d="M107.091 38.1269L106.973 39.0699H106.877L106.771 38.1269L105.798 34.6652H104.434L106.296 40.1323V43.8686H107.554V40.1323L109.417 34.6652H108.052L107.091 38.1269Z" fill="white"/>
<path d="M114.993 34.4861C114.673 34.3787 114.317 34.319 113.926 34.319C113.534 34.319 113.166 34.3787 112.834 34.4981C112.502 34.6174 112.288 34.7249 112.193 34.7965C112.098 34.8681 112.027 34.9397 111.979 34.9875V38.3418L114.555 40.4427V42.6749L114.471 42.7226C114.376 42.7943 114.151 42.8659 113.914 42.8659C113.641 42.8778 113.427 42.8062 113.273 42.6749V41.3022H111.979V43.3315L112.17 43.4986C112.288 43.606 112.525 43.7254 112.846 43.8328C113.166 43.9521 113.522 43.9999 113.914 43.9999C114.305 43.9999 114.673 43.9402 115.005 43.8089C115.337 43.6895 115.551 43.5821 115.646 43.5105C115.741 43.4389 115.812 43.3792 115.86 43.3315V39.7503L113.273 37.6494V35.644L113.356 35.5843C113.439 35.5127 113.676 35.4411 113.914 35.4411C114.187 35.4411 114.388 35.5007 114.555 35.644V37.0167H115.848V34.9994L115.646 34.8442C115.539 34.7249 115.314 34.6055 114.993 34.4861Z" fill="white"/>
<path d="M120.997 35.5484C120.902 35.3455 120.795 35.1426 120.676 34.9635C120.439 34.5935 120.356 34.5219 120.309 34.4622H117.378V43.8685H118.671V40.2159H120.297L120.546 39.8935C120.724 39.6787 120.902 39.3325 121.079 38.855C121.258 38.3775 121.353 37.8762 121.353 37.351C121.353 37.0167 121.317 36.6944 121.246 36.3601C121.163 36.014 121.079 35.7514 120.997 35.5484ZM119.656 39.0937H118.66V35.5723H119.656L119.751 35.7633C119.822 35.8827 119.893 36.0975 119.964 36.396C120.024 36.6944 120.059 37.0048 120.059 37.339C120.059 38.103 119.929 38.6998 119.656 39.0937Z" fill="white"/>
<path d="M123.287 34.4622L121.673 43.8685H122.955L123.192 42.1974H124.734L124.972 43.8685H126.253L124.639 34.4622H123.287ZM123.346 41.0872L123.821 37.9359L123.88 36.8019H124.022L124.094 37.9359L124.556 41.0872H123.346Z" fill="white"/>
<path d="M130.299 34.4861C129.978 34.3787 129.611 34.319 129.219 34.319C128.827 34.319 128.472 34.3787 128.14 34.4981C127.807 34.6174 127.594 34.7249 127.499 34.7965C127.404 34.8681 127.333 34.9397 127.285 34.9875V43.3315L127.475 43.4986C127.594 43.606 127.831 43.7254 128.152 43.8328C128.78 44.0596 129.646 44.0596 130.311 43.8089C130.643 43.6895 130.857 43.5821 130.952 43.5105C131.046 43.4389 131.105 43.3792 131.153 43.3315V41.5767H129.86V42.6869L129.789 42.7346C129.682 42.8062 129.444 42.8778 129.219 42.8778C128.946 42.8898 128.745 42.8182 128.579 42.6869V35.644L128.638 35.5843C128.745 35.5127 128.982 35.4411 129.208 35.4411C129.48 35.4411 129.694 35.5007 129.848 35.644V36.7422H131.141V34.9875L130.964 34.8323C130.857 34.7249 130.631 34.6055 130.299 34.4861Z" fill="white"/>
<path d="M132.613 43.8685H135.768V42.7465H133.906V39.6309H135.472V38.5208H133.906V35.5723H135.768V34.4622H132.613V43.8685Z" fill="white"/>
<path d="M41.8945 18.7539L41.9775 22.3828H41.8945L27.5144 0.442505H23.2905V26.0832H24.7855V7.77187L24.7143 4.14298H24.7855L39.1655 26.0832H43.3894V0.442505H41.8945V18.7539Z" fill="white"/>
<path d="M57.4729 0.442505H48.4082V26.0832H57.4729C60.973 26.0832 63.7018 24.9612 65.6714 22.717C67.617 20.4728 68.5782 17.3215 68.5782 13.2629C68.5782 9.20425 67.6051 6.0529 65.6714 3.80875C63.7018 1.56458 60.9611 0.442505 57.4729 0.442505ZM64.6036 19.5656C62.9307 21.0816 60.5458 21.8337 57.461 21.8337H49.9268V4.69209H57.461C60.5458 4.69209 62.9188 5.45606 64.6036 6.99592C66.2293 8.48809 67.0479 10.577 67.0479 13.2629C67.0479 15.9964 66.2293 18.0974 64.6036 19.5656Z" fill="white"/>
<path d="M84.3823 16.0442C86.5887 15.8055 88.2856 15.0057 89.4843 13.6687C90.6943 12.3318 91.2992 10.5293 91.2992 8.28515C91.2992 5.79029 90.5755 3.86843 89.1161 2.49568C87.6567 1.12291 85.6043 0.442505 82.9581 0.442505H73.3838V26.0832H74.9142V16.1158H82.7094L90.2432 26.0832H91.9878L84.3823 16.0442ZM74.9142 11.8663V4.69209H82.9581C87.5028 4.69209 89.7689 5.88579 89.7689 8.28515C89.7689 10.6845 87.5028 11.8782 82.9581 11.8782H74.9142V11.8663Z" fill="white"/>
<path d="M97.2915 26.0832H98.7861V21.8337V4.69209V0.442505H97.2915V26.0832Z" fill="white"/>
<path d="M129.433 21.8337V4.69209V0.442505H127.938V26.0832H129.433V21.8337Z" fill="white"/>
<path d="M144.691 18.7539L143.41 23.4452H143.338L141.962 18.7539L135.875 0.442505H134.238L142.757 26.0832H146.732L155.286 0.442505H150.801L144.691 18.7539Z" fill="white"/>
<path d="M176.619 13.7037C175.456 13.0949 173.475 12.6413 170.687 12.3429C167.649 12.0444 165.656 11.7222 164.719 11.3521C162.904 10.6478 161.99 9.35865 161.99 7.5084C161.99 6.31469 162.595 5.45522 163.806 4.94193C164.968 4.47639 166.937 4.24958 169.702 4.24958C172.668 4.24958 174.721 4.61963 175.895 5.34779C176.94 6.0282 177.462 7.22189 177.462 8.90502V9.56159H178.992V8.90502C178.992 2.97232 175.895 0 169.702 0C166.665 0 164.327 0.752031 162.678 2.26803C161.195 3.61692 160.46 5.35973 160.46 7.5084C160.46 9.77645 161.373 11.376 163.188 12.3071C164.351 12.9159 166.344 13.3456 169.156 13.5843C172.146 13.8828 174.116 14.217 175.089 14.6109C176.904 15.3152 177.818 16.6164 177.818 18.4904C177.818 19.8632 177.177 20.8301 175.884 21.427C174.65 21.988 172.585 22.2745 169.69 22.2745C166.629 22.2745 164.506 21.8925 163.319 21.1405C162.18 20.4362 161.611 19.2067 161.611 17.4758V16.8192H160.08V17.4758C160.08 23.504 163.284 26.524 169.69 26.524C172.799 26.524 175.22 25.6885 176.975 24.0292C178.553 22.5609 179.336 20.7227 179.336 18.5024C179.348 16.2344 178.446 14.6348 176.619 13.7037Z" fill="white"/>
<path d="M203.03 0.394653H197.537L189.48 10.4337H186.17V0.394653H184.64V26.0354H186.17V14.6833H191.628L201.499 26.0354H203.908L192.838 13.1076L203.03 0.394653Z" fill="white"/>
<path d="M218.917 13.9907L217.541 10.8393L212.225 0.286987H207.598L216.698 18.3835V25.9277H217.232H218.229H219V16.8675V13.9907H218.917Z" fill="white"/>
<path d="M112.562 26.0832H113.096H114.092H114.863V17.0231L123.24 0.442505H121.591L116.275 10.9948L114.863 14.1462H114.792L113.404 10.9948L108.089 0.442505H103.461L112.562 18.5391V26.0832Z" fill="white"/>
<path d="M6.7748 0.442505L0 14.1462V26.0832H2.2899V18.5391L2.4916 18.1451H17.1209V26.0832H18.6277V0.442505H6.7748ZM17.1209 15.0057H4.06962L9.2189 4.77565H17.1328V15.0057H17.1209Z" fill="white"/>
</svg>
