<svg width="100" height="69" viewBox="0 0 100 69" fill="none" xmlns="http://www.w3.org/2000/svg">
<path d="M56.4555 51.37H54.7703V53.0039H56.4921C56.6133 53.0101 56.7344 52.9912 56.8479 52.9483C56.9614 52.9055 57.0648 52.8396 57.1516 52.7548C57.2342 52.6784 57.2998 52.5853 57.344 52.4818C57.3882 52.3782 57.41 52.2665 57.408 52.154C57.4097 52.0446 57.3854 51.9363 57.337 51.8382C57.2886 51.7401 57.2175 51.6549 57.1296 51.5898C56.9385 51.4381 56.6993 51.3601 56.4555 51.37Z" fill="#656E75"/>
<path d="M47.6256 51.3261C47.3937 51.3106 47.1615 51.3534 46.9503 51.4507C46.7391 51.5479 46.5557 51.6966 46.4167 51.883C46.1766 52.2362 46.0583 52.6581 46.0796 53.0846C46.0483 53.5243 46.1423 53.9638 46.3507 54.3522C46.5158 54.5664 46.7334 54.7343 46.9824 54.8396C47.2315 54.9448 47.5036 54.9839 47.7722 54.953C48.0042 54.9758 48.2382 54.9369 48.4504 54.8405C48.6627 54.744 48.8457 54.5933 48.9812 54.4035C49.1868 54.0088 49.2805 53.5654 49.2523 53.1212C49.2758 52.6753 49.1437 52.235 48.8786 51.8756C48.7302 51.689 48.5385 51.5414 48.3202 51.4457C48.1018 51.3499 47.8634 51.3089 47.6256 51.3261Z" fill="#656E75"/>
<path d="M18.1492 25.0807H12.4561V38.3428H18.4569C19.1999 38.3497 19.9328 38.1711 20.5891 37.8231C21.2455 37.4751 21.8046 36.9686 22.2157 36.3498C23.1874 35.0252 23.7018 33.4204 23.6811 31.7777C23.6992 30.0885 23.1438 28.4431 22.1058 27.1103C21.6594 26.4775 21.0663 25.9623 20.3772 25.6088C19.6881 25.2553 18.9236 25.0741 18.1492 25.0807Z" fill="#656E75"/>
<path d="M8.88802 51.4219H7.42261V54.851H8.9906C9.15834 54.8521 9.32231 54.8012 9.46004 54.7055C9.59777 54.6097 9.70252 54.4737 9.75995 54.3161C9.90559 53.9659 9.97551 53.5889 9.9651 53.2097C9.97977 52.798 9.90477 52.388 9.74529 52.0081C9.67941 51.8345 9.56193 51.6852 9.40866 51.5804C9.25539 51.4756 9.07369 51.4203 8.88802 51.4219Z" fill="#656E75"/>
<path d="M76.6851 27.0441C75.6403 28.3303 75.0848 29.9449 75.1171 31.6016C75.1003 33.2708 75.6134 34.9023 76.5825 36.2616C76.9966 36.8989 77.5667 37.4198 78.2386 37.775C78.9105 38.1302 79.662 38.3079 80.4219 38.2912H86.452V25.1024H80.693C79.9192 25.0878 79.153 25.2561 78.4565 25.5935C77.7601 25.9308 77.1532 26.4279 76.6851 27.0441Z" fill="#656E75"/>
<path d="M0 0V68.3837H100V0H0ZM10.7855 54.8139C10.6755 55.0351 10.5169 55.2284 10.3214 55.3795C10.126 55.5305 9.89884 55.6352 9.65709 55.6858C9.45117 55.7193 9.24292 55.7364 9.03429 55.7371H6.18406V50.4836H8.87309C9.19573 50.4825 9.51593 50.5395 9.81829 50.6521C10.2696 50.8375 10.6301 51.1927 10.8221 51.6413C11.0561 52.1253 11.174 52.6571 11.1665 53.1946C11.1777 53.7578 11.0467 54.3148 10.7855 54.8139ZM18.8453 53.5903H15.3869C15.3831 53.7425 15.4079 53.8941 15.4601 54.0372C15.513 54.1842 15.5953 54.3188 15.7019 54.4329C15.8042 54.5599 15.9314 54.6646 16.0756 54.7406C16.2175 54.8162 16.3765 54.8541 16.5372 54.8505H18.8672V55.7664H16.2588C15.8598 55.7637 15.4666 55.6711 15.1084 55.4953C14.7085 55.2941 14.3883 54.9636 14.1999 54.5575C13.9971 54.1201 13.8921 53.6437 13.8921 53.1616C13.8921 52.6795 13.9971 52.2032 14.1999 51.7658C14.3972 51.35 14.7201 51.0065 15.1231 50.784C15.3204 50.6808 15.5295 50.6021 15.7459 50.5495C15.9725 50.503 16.2034 50.4809 16.4346 50.4836H18.8233V51.4215H16.6251C16.458 51.4183 16.2916 51.4456 16.1342 51.5021C15.9846 51.5667 15.8499 51.6615 15.7386 51.7805C15.6212 51.8888 15.5287 52.0213 15.4675 52.1688C15.4108 52.3211 15.3835 52.4827 15.3869 52.6451H18.8672L18.8453 53.5903ZM24.9341 55.7884H23.6005L21.1313 50.4836H22.5967L24.3113 54.4988L26.0404 50.4836H27.5059L24.9341 55.7884ZM20.677 43.3324H6.16208V12.141H12.456V20.2008H20.7796C22.123 20.1917 23.4486 20.5083 24.6429 21.1233C25.8373 21.7384 26.8649 22.6336 27.6378 23.7324C29.3414 25.9746 30.235 28.7278 30.1729 31.5431C30.2452 34.4308 29.3674 37.2624 27.6744 39.6029C26.9094 40.7589 25.8684 41.706 24.6453 42.3585C23.4223 43.0109 22.0559 43.3482 20.6697 43.3397L20.677 43.3324ZM34.7304 53.5903H31.2427C31.2403 53.7419 31.2626 53.8928 31.3086 54.0372C31.3673 54.183 31.4517 54.317 31.5577 54.4329C31.66 54.5599 31.7872 54.6646 31.9314 54.7406C32.0733 54.8162 32.2323 54.8541 32.393 54.8505H34.723V55.7664H32.1439C31.7449 55.7637 31.3517 55.6711 30.9936 55.4953C30.5936 55.2941 30.2735 54.9636 30.085 54.5575C29.8823 54.1201 29.7772 53.6437 29.7772 53.1616C29.7772 52.6795 29.8823 52.2032 30.085 51.7658C30.2823 51.35 30.6053 51.0065 31.0082 50.784C31.2055 50.6808 31.4147 50.6021 31.631 50.5495C31.8576 50.503 32.0885 50.4809 32.3198 50.4836H34.7084V51.4215H32.5103C32.3431 51.4183 32.1767 51.4456 32.0193 51.5021C31.8697 51.5667 31.7351 51.6615 31.6237 51.7805C31.5063 51.8888 31.4139 52.0213 31.3526 52.1688C31.296 52.3211 31.2686 52.4827 31.272 52.6451H34.7523L34.7304 53.5903ZM42.0062 55.7884H40.0865C39.6319 55.8027 39.1782 55.7383 38.7456 55.5979C38.5441 55.5288 38.3585 55.4199 38.2 55.2776C38.0414 55.1354 37.913 54.9628 37.8224 54.7699C37.7529 54.6311 37.7036 54.4831 37.6758 54.3303C37.6443 54.1736 37.6295 54.0139 37.6319 53.8541V50.4836H38.9947V53.7881C38.9918 53.9218 39.0091 54.0552 39.046 54.1838C39.0867 54.3076 39.1514 54.4221 39.2365 54.5208C39.346 54.6698 39.4999 54.7801 39.6761 54.8359C39.8814 54.8913 40.0938 54.916 40.3063 54.9092H41.9988L42.0062 55.7884ZM49.7509 55.3488C49.1543 55.7453 48.4433 55.9334 47.7286 55.8837C46.9443 55.9527 46.162 55.7311 45.5305 55.2609C45.2573 54.9688 45.0504 54.6212 44.9239 54.2419C44.7975 53.8625 44.7544 53.4603 44.7978 53.0627C44.7679 52.7145 44.8082 52.3639 44.9165 52.0316C45.0247 51.6993 45.1986 51.3922 45.4279 51.1284C45.7331 50.864 46.0879 50.663 46.4716 50.5372C46.8553 50.4114 47.2602 50.3633 47.6627 50.3957C48.0781 50.3548 48.4975 50.3986 48.8955 50.5246C49.2935 50.6505 49.6617 50.8559 49.978 51.1284C50.418 51.7036 50.6294 52.4214 50.5715 53.1433C50.6104 53.5464 50.5559 53.953 50.4123 54.3317C50.2687 54.7103 50.0399 55.0508 49.7436 55.3268L49.7509 55.3488ZM58.3162 53.4511C57.9644 53.7726 57.5033 53.9481 57.0267 53.942H54.7699V55.7884H53.4877V50.4836H57.1073C57.3601 50.4717 57.6123 50.5177 57.8446 50.618C58.077 50.7183 58.2834 50.8703 58.4481 51.0624C58.7227 51.388 58.871 51.8015 58.8658 52.2274C58.8672 52.4564 58.8181 52.6828 58.7218 52.8906C58.6256 53.0983 58.4846 53.2822 58.3089 53.4291L58.3162 53.4511ZM49.5237 43.3617C45.0884 43.3617 41.5323 42.629 38.8555 41.1635C37.2472 40.372 35.905 39.128 34.9938 37.5842C34.0827 36.0405 33.6422 34.2642 33.7266 32.4736V12.141H41.6471V31.5065C41.6471 33.939 42.5264 35.7122 44.2775 36.8113C45.7383 37.6512 47.408 38.0578 49.0914 37.9836C52.3373 37.9836 54.5648 37.3461 55.7884 36.0639C56.8044 34.9795 57.3124 33.3626 57.3124 31.2134V12.163H64.9472V32.774C64.9472 36.8772 63.3109 39.7738 60.0381 41.464C57.5957 42.7144 54.0983 43.3397 49.5457 43.3397L49.5237 43.3617ZM68.347 55.8177H67.2333V51.7292L65.7312 55.7664H64.3757L62.8297 51.6339V55.7664H61.7233V50.4836H63.4965L65.0425 54.66L66.5079 50.4836H68.3397L68.347 55.8177ZM76.1943 53.6196H72.7433C72.7409 53.7712 72.7632 53.9221 72.8092 54.0665C72.865 54.2137 72.9497 54.3483 73.0583 54.4622C73.1606 54.5892 73.2877 54.6939 73.432 54.7699C73.5709 54.8465 73.7278 54.8845 73.8863 54.8798H76.2016V55.7957H73.6298C73.2308 55.794 72.8373 55.7013 72.4795 55.5246C72.0772 55.3242 71.7544 54.9937 71.5636 54.5868C71.3552 54.1448 71.2499 53.6612 71.2559 53.1726C71.2467 52.6963 71.3496 52.2244 71.5563 51.7951C71.7489 51.3761 72.073 51.0313 72.4795 50.8133C72.6763 50.709 72.8856 50.6302 73.1023 50.5788C73.3264 50.5322 73.5548 50.5101 73.7837 50.5129H76.2016V51.4508H74.0035C73.8363 51.447 73.6698 51.4743 73.5126 51.5314C73.3597 51.594 73.2222 51.689 73.1096 51.8098C72.9945 51.9201 72.9024 52.0521 72.8385 52.1981C72.7847 52.351 72.7599 52.5125 72.7652 52.6744H76.2016L76.1943 53.6196ZM84.6058 55.8177H82.9279L80.3708 51.905V55.8177H79.1325V50.4836H80.8324L83.3455 54.4402V50.4836H84.6278L84.6058 55.8177ZM92.3725 51.4215H90.3942V55.8177H89.1706V51.4215H87.2289V50.4836H92.3579L92.3725 51.4215ZM92.5923 43.3617H78.114C75.3151 43.3617 72.9924 42.1112 71.146 39.6102C69.4344 37.235 68.5419 34.3675 68.6035 31.4405C68.5586 28.5601 69.5758 25.7641 71.461 23.5859C72.3206 22.5233 73.4103 21.6699 74.6478 21.0898C75.8853 20.5098 77.2383 20.2183 78.6049 20.2374H86.5914V12.1776H92.6143L92.5923 43.3617Z" fill="#656E75"/>
</svg>
