<svg width="140" height="71" viewBox="0 0 140 71" fill="none" xmlns="http://www.w3.org/2000/svg">
<path d="M27.5497 37.2045C25.782 40.7128 22.1649 43.106 17.9767 43.106C12.0751 43.106 7.28858 38.3195 7.28858 32.4179C7.28858 26.4892 12.1023 21.7026 18.0039 21.7026C22.1649 21.7026 25.782 24.0959 27.5497 27.5498L34.0768 24.2863C31.0852 18.4391 25.0205 14.4141 18.0039 14.4141C8.07727 14.4141 0 22.4641 0 32.4179C0 42.3446 8.05007 50.4218 18.0039 50.4218C25.0477 50.4218 31.1396 46.3696 34.0768 40.4952L27.5497 37.2045Z" fill="#656E75"/>
<path d="M46.4239 14.4141H39.2441V50.3402H46.4239V14.4141Z" fill="#656E75"/>
<path d="M134.671 14.4206L121.864 27.228L126.941 32.3049L139.748 19.4974L134.671 14.4206Z" fill="#656E75"/>
<path d="M116.722 32.3693L103.914 45.1768L108.991 50.2536L121.798 37.4461L116.722 32.3693Z" fill="#656E75"/>
<path d="M108.991 14.4202L103.915 19.4971L116.722 32.3045L121.799 27.2277L108.991 14.4202Z" fill="#656E75"/>
<path d="M126.941 32.3699L121.864 37.4468L134.671 50.2542L139.748 45.1774L126.941 32.3699Z" fill="#656E75"/>
<path d="M67.9903 7.20699H60.7833V0H53.6035V50.3402H60.7833V14.414H67.9903V7.20699Z" fill="#656E75"/>
<path d="M101.958 32.4181C101.958 31.1943 101.822 29.9704 101.578 28.801C101.034 26.1358 99.8643 23.5521 98.151 21.4036C94.7243 16.9707 89.5298 14.4414 83.9546 14.4414C75.4422 14.4414 68.0176 20.479 66.3314 28.801C66.0867 29.9976 65.9507 31.1943 65.9507 32.4181C65.9507 33.6147 66.0595 34.8114 66.3042 35.9536C67.9632 44.33 75.3878 50.3948 83.9546 50.3948C89.4754 50.3948 94.5883 47.9199 98.015 43.6229L92.5758 39.4075C90.4545 42.0183 87.3269 43.5141 83.9546 43.5141C78.9777 43.5141 74.7622 40.2234 73.348 35.736H101.632C101.85 34.6482 101.958 33.5331 101.958 32.4181ZM83.9546 21.2677C89.1218 21.2677 93.5004 24.8032 94.7243 29.6169H73.1849C74.4359 24.8304 78.7873 21.2677 83.9546 21.2677Z" fill="#656E75"/>
<path d="M56.5679 57.7646H53.957V67.5825H56.6495C59.5594 67.5825 61.3272 65.8691 61.3272 62.6328C61.3272 59.3964 59.5594 57.7646 56.5679 57.7646ZM56.4591 66.2227H55.6704V59.1517H56.4591C58.4716 59.1517 59.6138 60.2395 59.6138 62.66C59.5866 65.0532 58.4444 66.2227 56.4591 66.2227Z" fill="#656E75"/>
<path d="M65.9236 60.0493C64.183 60.0493 62.5513 61.5179 62.5513 63.9112C62.5513 66.3316 64.1286 67.773 66.1684 67.773C67.1202 67.773 67.9905 67.4467 68.6704 66.9843L68.0993 65.9509C67.5554 66.2772 67.0114 66.4948 66.3859 66.4948C65.1893 66.4948 64.319 65.7333 64.183 64.4007H68.888C68.9152 64.2103 68.9696 63.9112 68.9696 63.5848C68.9424 61.4635 67.8817 60.0493 65.9236 60.0493ZM64.1558 63.2041C64.319 62.0074 65.0805 61.3275 65.9508 61.3275C66.9843 61.3275 67.501 62.0346 67.501 63.2041H64.1558Z" fill="#656E75"/>
<path d="M73.7287 64.0743C73.5112 64.8086 73.2936 65.5429 73.1032 66.2772H73.0488C72.8313 65.5429 72.6137 64.7814 72.4233 64.0743L71.2267 60.2124H69.5405L72.1242 67.5826H74.0551L76.5571 60.2124H74.9526L73.7287 64.0743Z" fill="#656E75"/>
<path d="M80.5008 60.0493C78.7602 60.0493 77.1284 61.5179 77.1284 63.9112C77.1284 66.3316 78.7058 67.773 80.7455 67.773C81.6974 67.773 82.5677 67.4467 83.2476 66.9843L82.6764 65.9509C82.1325 66.2772 81.5886 66.4948 80.9631 66.4948C79.7665 66.4948 78.8962 65.7333 78.7602 64.4007H83.4379C83.4651 64.2103 83.5195 63.9112 83.5195 63.5848C83.5195 61.4635 82.4589 60.0493 80.5008 60.0493ZM78.733 63.2041C78.8962 62.0074 79.6577 61.3275 80.5279 61.3275C81.5614 61.3275 82.0781 62.0346 82.0781 63.2041H78.733Z" fill="#656E75"/>
<path d="M87.082 66.386C86.8917 66.386 86.7013 66.2228 86.7013 65.8148V56.9761H85.0151V65.7332C85.0151 66.9843 85.4503 67.773 86.6469 67.773C87.0549 67.773 87.3268 67.7186 87.5444 67.637L87.3268 66.386C87.218 66.386 87.1636 66.386 87.082 66.386Z" fill="#656E75"/>
<path d="M91.923 60.0493C90.1009 60.0493 88.4419 61.4635 88.4419 63.9112C88.4419 66.3588 90.1009 67.773 91.923 67.773C93.7452 67.773 95.4041 66.3588 95.4041 63.9112C95.4041 61.4635 93.7452 60.0493 91.923 60.0493ZM91.923 66.386C90.8352 66.386 90.1553 65.407 90.1553 63.9112C90.1553 62.4154 90.8352 61.4091 91.923 61.4091C93.0109 61.4091 93.6908 62.4154 93.6908 63.9112C93.6908 65.407 93.0109 66.386 91.923 66.386Z" fill="#656E75"/>
<path d="M100.789 60.0493C99.9732 60.0493 99.1845 60.4845 98.559 61.0284H98.5046L98.3686 60.2397H97.0088V70.5199H98.695V68.181L98.6406 66.9571C99.2389 67.4739 99.8916 67.773 100.544 67.773C102.176 67.773 103.699 66.3044 103.699 63.8024C103.672 61.5179 102.611 60.0493 100.789 60.0493ZM100.191 66.3588C99.7556 66.3588 99.2117 66.1957 98.695 65.7333V62.2522C99.2933 61.6811 99.81 61.4091 100.354 61.4091C101.496 61.4091 101.986 62.3066 101.986 63.7752C101.959 65.4886 101.197 66.3588 100.191 66.3588Z" fill="#656E75"/>
<path d="M113.517 60.0493C112.592 60.0493 111.858 60.6204 111.151 61.3819C110.825 60.5388 110.199 60.0493 109.111 60.0493C108.187 60.0493 107.479 60.5932 106.854 61.2459H106.8L106.664 60.2397H105.304V67.6099H106.99V62.4426C107.561 61.8171 108.105 61.4907 108.567 61.4907C109.356 61.4907 109.737 61.9531 109.737 63.1769V67.5827H111.423V62.4154C111.994 61.7899 112.511 61.4635 113 61.4635C113.789 61.4635 114.17 61.9259 114.17 63.1497V67.5555H115.856V62.9321C115.774 61.11 115.067 60.0493 113.517 60.0493Z" fill="#656E75"/>
<path d="M120.67 60.0493C118.929 60.0493 117.297 61.5179 117.297 63.9112C117.297 66.3316 118.875 67.773 120.914 67.773C121.866 67.773 122.737 67.4467 123.417 66.9843L122.845 65.9509C122.301 66.2772 121.758 66.4948 121.132 66.4948C119.908 66.4948 119.065 65.7333 118.929 64.4007H123.634C123.661 64.2103 123.716 63.9112 123.716 63.5848C123.688 61.4635 122.628 60.0493 120.67 60.0493ZM118.902 63.2041C119.065 62.0074 119.827 61.3275 120.697 61.3275C121.73 61.3275 122.247 62.0346 122.247 63.2041H118.902Z" fill="#656E75"/>
<path d="M129.182 60.0493C128.176 60.0493 127.414 60.5932 126.762 61.2188H126.707L126.571 60.2125H125.211V67.5827H126.898V62.4154C127.523 61.7899 127.958 61.4635 128.611 61.4635C129.427 61.4635 129.78 61.9259 129.78 63.1497V67.5555H131.467V62.9321C131.439 61.11 130.759 60.0493 129.182 60.0493Z" fill="#656E75"/>
<path d="M136.416 66.413C135.682 66.413 135.355 65.9778 135.355 65.1075V61.5448H137.232V60.2122H135.355V58.1997H133.968L133.778 60.2122L132.636 60.2938V61.5448H133.696V65.1075C133.696 66.6849 134.322 67.7456 136.008 67.7456C136.579 67.7456 137.096 67.6096 137.504 67.4736L137.205 66.2498C136.96 66.3314 136.661 66.413 136.416 66.413Z" fill="#656E75"/>
</svg>
