<svg width="248" height="54" viewBox="0 0 248 54" fill="none" xmlns="http://www.w3.org/2000/svg">
<path d="M14.8019 20.0979L17.7781 22.5973C16.82 23.7204 15.6244 24.6212 14.2762 25.2359C12.9279 25.8506 11.4598 26.1642 9.97565 26.1545C4.47861 26.1545 0 21.8785 0 16.5893C0 11.3001 4.47861 6.99711 9.97565 6.99711C11.4619 6.993 12.931 7.31221 14.2792 7.93223C15.6274 8.55225 16.8218 9.45795 17.7781 10.5854L14.8019 13.0821C14.2575 12.3158 13.5345 11.6911 12.6942 11.2612C11.8539 10.8312 10.9213 10.6086 9.97565 10.6124C6.68043 10.6124 3.96736 13.0024 3.96736 16.5893C3.96736 20.1303 6.68043 22.5716 9.97565 22.5716C10.9217 22.5749 11.8545 22.3517 12.6948 21.9211C13.5351 21.4904 14.258 20.8649 14.8019 20.0979Z" fill="#656E75"/>
<path d="M29.6981 7.20996H25.8357V25.9431H29.6981V7.20996Z" fill="#656E75"/>
<path d="M53.6534 10.5051H47.6178V22.7547H43.7568V10.5051H37.7512V7.20996H53.6534V10.5051Z" fill="#656E75"/>
<path d="M78.1746 7.20996L70.9066 19.5934V25.9445H67.0456V19.5934L59.8062 7.20996H64.1771L69.0033 15.4741L73.7751 7.20996H78.1746Z" fill="#656E75"/>
<path d="M156.732 7.20996V25.9445H154.855L143.567 14.1434V25.9445H139.731V7.20996H141.609L152.87 19.007V7.20996H156.732Z" fill="#656E75"/>
<path d="M180.05 20.4437C180.05 24.0577 177.128 26.1842 172.731 26.1842C169.514 26.1842 167.877 25.891 164.873 24.4049L166.268 21.4543C168.763 22.6499 170.504 22.889 172.864 22.889C174.929 22.889 176.163 22.146 176.163 20.7612C176.163 19.4872 174.901 18.9292 172.138 18.2915C168.253 17.4134 165.114 16.3245 165.114 12.6321C165.114 9.33432 167.77 6.99707 172.087 6.99707C174.579 7.0085 177.044 7.52383 179.329 8.51156L177.773 11.5392C176.108 10.8488 173.777 10.2922 172.006 10.2922C170.077 10.2922 169.007 11.142 169.007 12.3106C169.007 13.64 170.347 14.202 173.187 14.8343C177.263 15.7368 180.053 17.0135 180.053 20.441" fill="#656E75"/>
<path d="M204.758 18.4234C204.758 22.7291 201.862 26.1539 196.365 26.1539C190.897 26.1539 188.027 22.7534 188.027 18.4234V7.20996H191.779V17.4412C191.779 20.9768 193.362 22.6493 196.365 22.6493C199.423 22.6493 201.001 20.9471 201.001 17.4412V7.21131H204.754L204.758 18.4234Z" fill="#656E75"/>
<path d="M227.165 22.7535V25.9432H213.598V7.21143H217.432V22.7535H227.165Z" fill="#656E75"/>
<path d="M247.207 10.5051H241.173V22.7547H237.312V10.5051H231.306V7.20996H247.207V10.5051Z" fill="#656E75"/>
<path d="M107.376 26.669C105.218 28.1906 102.635 29.008 99.9869 29.0076C92.9983 29.0076 87.3472 23.4563 87.3472 16.5904C87.3472 9.77728 92.9983 4.17733 99.9869 4.17733C102.637 4.17744 105.221 4.99892 107.376 6.52675V1.56718C105.054 0.533538 102.538 -0.00059496 99.9923 4.97318e-07C90.3657 4.97318e-07 82.5496 7.41976 82.5496 16.5904C82.5496 25.7611 90.3657 33.1822 99.9923 33.1822C102.538 33.1824 105.054 32.6478 107.376 31.6137V26.669Z" fill="#656E75"/>
<path d="M131.427 16.5901C131.427 21.8779 126.95 26.1553 121.372 26.1553C115.822 26.1553 111.315 21.8779 111.315 16.5901C111.315 11.3022 115.825 7.0249 121.375 7.0249C126.953 7.0249 131.427 11.3022 131.427 16.5901ZM127.513 16.5901C127.513 13.295 124.749 10.5848 121.378 10.5848C118.006 10.5848 115.265 13.295 115.265 16.5901C115.267 17.3823 115.428 18.1663 115.737 18.897C116.046 19.6278 116.497 20.291 117.065 20.8488C117.633 21.4065 118.306 21.8479 119.046 22.1476C119.786 22.4473 120.578 22.5994 121.378 22.5953C124.755 22.5953 127.513 19.9109 127.513 16.5901Z" fill="#656E75"/>
<path d="M69.2582 53.9523H66.417V45.6828H68.9855C70.0758 45.6732 71.1267 46.0865 71.9135 46.8345C72.7003 47.5825 73.1607 48.6057 73.1963 49.6856C73.2319 50.7655 72.8399 51.8164 72.104 52.6136C71.3682 53.4109 70.3468 53.8914 69.2582 53.9523ZM69.2241 53.5403C71.1533 53.3755 72.7389 51.784 72.7389 49.8236C72.7401 49.3342 72.644 48.8494 72.456 48.3968C72.268 47.9442 71.9918 47.5328 71.6432 47.1861C71.2946 46.8394 70.8804 46.5642 70.4244 46.3763C69.9684 46.1883 69.4794 46.0913 68.9855 46.0908H66.856V53.5403H69.2241Z" fill="#656E75"/>
<path d="M83.0022 53.5411V53.9531H77.2598V45.6836H82.7527V46.0916H77.6988V49.742H82.0192V50.1406H77.6988V53.5411H83.0022Z" fill="#656E75"/>
<path d="M93.9719 45.6836H94.4464L90.5608 53.9531H90.3018L86.4189 45.6836H86.9043L90.4313 53.2263L93.9719 45.6836Z" fill="#656E75"/>
<path d="M104.022 53.5411V53.9531H98.28V45.6836H103.773V46.0916H98.719V49.742H103.039V50.1406H98.719V53.5411H104.022Z" fill="#656E75"/>
<path d="M113.397 53.5532V53.9531H108.044V45.6836H108.483V53.5532H113.397Z" fill="#656E75"/>
<path d="M125.156 49.8228C125.156 52.1196 123.202 54.0002 120.775 54.0002C118.349 54.0002 116.383 52.1223 116.383 49.8228C116.383 47.5234 118.347 45.6455 120.775 45.6455C123.203 45.6455 125.156 47.5234 125.156 49.8228ZM124.706 49.8228C124.706 47.7571 122.955 46.0684 120.775 46.0684C118.595 46.0684 116.839 47.7571 116.839 49.8228C116.839 51.8885 118.612 53.5638 120.782 53.5638C122.953 53.5638 124.713 51.8885 124.713 49.8228" fill="#656E75"/>
<path d="M132.43 45.6836C134.584 45.6836 135.329 46.9481 135.329 48.3235C135.329 50.3041 134.003 51.0998 132.134 51.0998H129.68V53.9518H129.246V45.6836H132.43ZM132.109 50.7026C133.745 50.7026 134.866 50.0095 134.866 48.3329C134.866 47.1602 134.23 46.0916 132.393 46.0916H129.682V50.7026H132.109Z" fill="#656E75"/>
<path d="M147.329 45.6836V53.9531H146.893V46.6901L143.293 52.5575L139.682 46.6901V53.9531H139.243V45.6836H139.542L143.293 51.7577L147.047 45.6836H147.329Z" fill="#656E75"/>
<path d="M157.597 53.5411V53.9531H151.854V45.6836H157.347V46.0916H152.293V49.742H156.614V50.1406H152.293V53.5411H157.597Z" fill="#656E75"/>
<path d="M168.459 45.6836V53.9531H168.176L162.055 46.5172V53.9531H161.616V45.6836H161.915L168.021 53.1196V45.6836H168.459Z" fill="#656E75"/>
<path d="M179.03 46.091H175.989V53.9525H175.55V46.091H172.519V45.6816H179.03V46.091Z" fill="#656E75"/>
</svg>
