<svg width="227" height="56" viewBox="0 0 227 56" fill="none" xmlns="http://www.w3.org/2000/svg">
<path d="M73.8043 36.3033C72.1343 36.3033 70.6569 35.9815 69.4365 35.3378C68.216 34.6941 67.3168 33.793 66.6744 32.57C66.0321 31.4114 65.7109 29.9953 65.7109 28.3861C65.7109 26.7769 66.0321 25.4252 66.6744 24.2665C67.3168 23.1079 68.216 22.2068 69.4365 21.4987C70.6569 20.855 72.07 20.5332 73.8043 20.5332C74.4466 20.5332 75.1532 20.5976 75.8598 20.7907C76.5663 20.9194 77.2087 21.1769 77.7225 21.4987C78.1079 21.6918 78.4291 22.0137 78.5576 22.3355C78.686 22.6573 78.7503 22.9792 78.7503 23.3654C78.686 23.6872 78.5576 24.0091 78.3649 24.2665C78.1722 24.524 77.9152 24.7171 77.5941 24.8458C77.2729 24.9102 76.9517 24.9102 76.5663 24.7171C75.7313 24.2665 74.832 24.0734 73.9328 24.0734C72.5839 24.0734 71.5562 24.4596 70.9138 25.2321C70.2073 26.0045 69.8861 27.0987 69.8861 28.5148C69.8861 29.9309 70.2073 31.0252 70.9138 31.7976C71.6204 32.57 72.5839 32.9562 73.9328 32.9562C74.3182 32.9562 74.7036 32.8918 75.1532 32.8275C75.6028 32.7631 75.9882 32.57 76.4379 32.3769C76.8875 32.1838 77.2729 32.1194 77.5941 32.2481C77.9152 32.3125 78.2364 32.5056 78.4291 32.7631C78.6218 33.0206 78.7503 33.3424 78.8145 33.6642C78.8787 33.9861 78.8145 34.3079 78.686 34.6941C78.5576 35.016 78.3006 35.2734 77.9152 35.4665C77.4014 35.7884 76.759 35.9815 76.0525 36.1746C75.2817 36.239 74.5109 36.3033 73.8043 36.3033Z" fill="#656E75"/>
<path d="M87.9995 36.3034C86.4579 36.3034 85.109 35.9816 83.9528 35.3379C82.7966 34.6942 81.8973 33.7287 81.255 32.5701C80.6127 31.4114 80.2915 29.9954 80.2915 28.4505C80.2915 26.8413 80.6127 25.4896 81.255 24.331C81.8973 23.1724 82.7966 22.2712 83.9528 21.5632C85.109 20.9195 86.4579 20.5977 87.9995 20.5977C89.5411 20.5977 90.89 20.9195 92.0462 21.5632C93.2024 22.2069 94.1016 23.108 94.744 24.331C95.3863 25.4896 95.7075 26.9057 95.7075 28.4505C95.7075 29.9954 95.3863 31.4114 94.744 32.5701C94.1016 33.7287 93.2024 34.6942 92.0462 35.3379C90.89 35.9816 89.5411 36.3034 87.9995 36.3034ZM87.9995 32.9563C89.1557 32.9563 89.9907 32.5701 90.633 31.7333C91.2754 30.9609 91.5965 29.8023 91.5965 28.3862C91.5965 26.9701 91.2754 25.8758 90.633 25.039C89.9907 24.2666 89.0914 23.816 87.9995 23.816C86.8433 23.816 85.944 24.2023 85.3659 25.039C84.7236 25.8115 84.4024 26.9701 84.4024 28.3862C84.4024 29.8023 84.7236 30.9609 85.3659 31.7333C86.0082 32.5701 86.9075 32.9563 87.9995 32.9563Z" fill="#656E75"/>
<path d="M100.204 36.3035C99.6257 36.3035 99.1761 36.1748 98.8549 35.8529C98.5337 35.5311 98.4053 35.0805 98.4053 34.5012V22.4644C98.4053 21.8851 98.598 21.4345 98.9191 21.1127C99.2403 20.7908 99.6899 20.6621 100.332 20.6621C100.846 20.6621 101.232 20.7908 101.553 20.9839C101.874 21.1771 102.131 21.4989 102.388 21.9495L106.627 29.6736L110.867 21.9495C111.123 21.4989 111.38 21.1771 111.702 20.9839C112.023 20.7908 112.408 20.6621 112.922 20.6621C113.5 20.6621 113.95 20.7908 114.271 21.1127C114.592 21.4345 114.72 21.8851 114.72 22.4644V34.5012C114.72 35.0805 114.592 35.5311 114.271 35.8529C113.95 36.1748 113.5 36.3035 112.922 36.3035C112.344 36.3035 111.894 36.1748 111.573 35.8529C111.252 35.5311 111.123 35.0805 111.123 34.5012V27.8069L108.104 33.0851C107.912 33.4069 107.719 33.6644 107.462 33.7931C107.269 33.9219 106.948 34.0506 106.563 34.0506C106.177 34.0506 105.921 33.9862 105.664 33.7931C105.407 33.6644 105.214 33.4069 105.021 33.0851L102.002 27.8713V34.4368C102.002 35.0161 101.874 35.4667 101.553 35.7885C101.232 36.1104 100.782 36.3035 100.204 36.3035Z" fill="#656E75"/>
<path d="M119.667 36.3033C119.024 36.3033 118.51 36.1102 118.189 35.7883C117.804 35.4665 117.675 34.9515 117.675 34.2435V22.9147C117.675 21.563 118.382 20.855 119.731 20.855H126.925C127.953 20.855 128.466 21.3699 128.466 22.3998C128.466 23.4297 127.953 23.9446 126.925 23.9446H121.658V27.0343H126.475C127.503 27.0343 128.017 27.5492 128.017 28.5791C128.017 29.609 127.503 30.1239 126.475 30.1239H121.658V34.3079C121.594 35.5952 120.951 36.3033 119.667 36.3033Z" fill="#656E75"/>
<path d="M137.523 36.3034C135.981 36.3034 134.632 35.9816 133.476 35.3379C132.32 34.6942 131.421 33.7287 130.778 32.5701C130.136 31.4114 129.815 29.9954 129.815 28.4505C129.815 26.8413 130.136 25.4896 130.778 24.331C131.421 23.1724 132.32 22.2712 133.476 21.5632C134.632 20.9195 135.981 20.5977 137.523 20.5977C139.065 20.5977 140.413 20.9195 141.57 21.5632C142.726 22.2069 143.625 23.108 144.267 24.331C144.91 25.4896 145.231 26.9057 145.231 28.4505C145.231 29.9954 144.91 31.4114 144.267 32.5701C143.625 33.7287 142.726 34.6942 141.57 35.3379C140.413 35.9816 139.065 36.3034 137.523 36.3034ZM137.523 32.9563C138.679 32.9563 139.514 32.5701 140.156 31.7333C140.799 30.9609 141.12 29.8023 141.12 28.3862C141.12 26.9701 140.799 25.8758 140.156 25.039C139.514 24.2666 138.615 23.816 137.523 23.816C136.367 23.816 135.467 24.2023 134.889 25.039C134.247 25.8115 133.926 26.9701 133.926 28.3862C133.926 29.8023 134.247 30.9609 134.889 31.7333C135.532 32.5701 136.431 32.9563 137.523 32.9563Z" fill="#656E75"/>
<path d="M149.856 36.3033C149.214 36.3033 148.7 36.1102 148.379 35.7883C148.057 35.4665 147.865 34.9515 147.865 34.3079V22.8504C147.865 22.2067 148.057 21.6918 148.379 21.3699C148.7 21.0481 149.214 20.855 149.856 20.855H155.187C156.922 20.855 158.271 21.3056 159.17 22.1423C160.133 22.9791 160.583 24.1377 160.583 25.6826C160.583 26.8412 160.326 27.8067 159.748 28.5791C159.17 29.3515 158.335 29.8665 157.243 30.1883C158.078 30.3814 158.72 30.9607 159.17 31.8619L160.262 33.7929C160.519 34.2435 160.583 34.6297 160.583 35.0159C160.583 35.4021 160.39 35.7239 160.133 35.9814C159.876 36.2389 159.427 36.3676 158.849 36.3676C158.271 36.3676 157.821 36.2389 157.5 36.0458C157.114 35.8527 156.857 35.4665 156.536 34.9515L154.545 31.3469C154.352 31.0251 154.16 30.832 153.903 30.7033C153.646 30.5745 153.325 30.5102 153.003 30.5102H151.783V34.3722C151.783 35.0159 151.59 35.5308 151.269 35.8527C151.012 36.1102 150.498 36.3033 149.856 36.3033ZM151.847 27.5492H154.481C156.022 27.5492 156.857 26.9056 156.857 25.6826C156.857 24.4596 156.087 23.8159 154.481 23.8159H151.847V27.5492Z" fill="#656E75"/>
<path d="M168.484 36.3033C167.841 36.3033 167.327 36.1102 167.006 35.7883C166.685 35.4665 166.492 34.9515 166.492 34.3079V24.0734H163.088C161.996 24.0734 161.418 23.5584 161.418 22.4642C161.418 21.3699 161.996 20.855 163.088 20.855H173.879C174.971 20.855 175.549 21.3699 175.549 22.4642C175.549 23.5584 174.971 24.0734 173.879 24.0734H170.475V34.3079C170.475 34.9515 170.282 35.4665 169.961 35.7883C169.64 36.1102 169.126 36.3033 168.484 36.3033Z" fill="#656E75"/>
<path d="M185.505 36.0462C184.863 36.0462 184.349 35.8531 184.028 35.5312C183.707 35.2094 183.514 34.6945 183.514 34.0508V22.7864C183.514 22.1427 183.707 21.6278 184.028 21.306C184.349 20.9841 184.863 20.791 185.505 20.791C186.148 20.791 186.662 20.9841 186.983 21.306C187.304 21.6278 187.497 22.1427 187.497 22.7864V32.7634H192.764C193.342 32.7634 193.727 32.8922 194.048 33.214C194.37 33.4715 194.498 33.922 194.498 34.437C194.498 34.9519 194.37 35.4025 194.048 35.66C193.727 35.9175 193.342 36.1106 192.764 36.1106H185.505V36.0462Z" fill="#656E75"/>
<path d="M198.352 36.3034C197.709 36.3034 197.195 36.1103 196.874 35.7885C196.553 35.4666 196.36 34.9517 196.36 34.2436V22.6574C196.36 22.0137 196.553 21.4988 196.874 21.1126C197.195 20.7908 197.709 20.5977 198.352 20.5977C198.994 20.5977 199.508 20.7908 199.829 21.1126C200.15 21.4344 200.343 21.9494 200.343 22.6574V34.2436C200.343 34.8873 200.15 35.4023 199.829 35.7885C199.508 36.1103 198.994 36.3034 198.352 36.3034Z" fill="#656E75"/>
<path d="M205.354 36.3033C204.711 36.3033 204.197 36.1102 203.876 35.7883C203.491 35.4665 203.362 34.9515 203.362 34.2435V22.9147C203.362 21.563 204.069 20.855 205.418 20.855H212.612C213.64 20.855 214.153 21.3699 214.153 22.3998C214.153 23.4297 213.64 23.9446 212.612 23.9446H207.345V27.0343H212.162C213.19 27.0343 213.704 27.5492 213.704 28.5791C213.704 29.609 213.19 30.1239 212.162 30.1239H207.345V34.3079C207.281 35.5952 206.638 36.3033 205.354 36.3033Z" fill="#656E75"/>
<path d="M218.136 36.0462C216.722 36.0462 216.08 35.3381 216.08 33.9864V22.8508C216.08 21.4991 216.787 20.791 218.136 20.791H225.458C226.486 20.791 227 21.306 227 22.3358C227 23.3657 226.486 23.8807 225.458 23.8807H219.87V26.7772H225.008C226.036 26.7772 226.55 27.2922 226.55 28.3221C226.55 29.3519 226.036 29.8669 225.008 29.8669H219.87V33.0209H225.458C226.486 33.0209 227 33.5358 227 34.5657C227 35.5956 226.486 36.1106 225.458 36.1106H218.136V36.0462Z" fill="#656E75"/>
<path d="M68.9866 52.8456C68.5369 52.8456 68.3442 52.6525 68.3442 52.2019V45.3146C68.3442 44.864 68.5369 44.6709 68.9866 44.6709H71.1705C72.5194 44.6709 73.5471 44.9927 74.2537 45.7008C74.9603 46.4088 75.3457 47.4387 75.3457 48.7261C75.3457 50.0778 74.9603 51.0433 74.2537 51.7514C73.5471 52.4594 72.5194 52.8456 71.1705 52.8456H68.9866ZM69.5647 51.8157H71.1705C73.1617 51.8157 74.1252 50.7858 74.1252 48.7261C74.1252 46.6663 73.1617 45.6364 71.1705 45.6364H69.5647V51.8157Z" fill="#656E75"/>
<path d="M85.1731 52.8456C84.7235 52.8456 84.5308 52.6525 84.5308 52.2019V45.3146C84.5308 44.864 84.7235 44.6709 85.1731 44.6709H89.3482C89.6694 44.6709 89.8621 44.7996 89.8621 45.1215C89.8621 45.4433 89.6694 45.6364 89.3482 45.6364H85.687V48.2111H89.0913C89.4125 48.2111 89.6052 48.4042 89.6052 48.7261C89.6052 49.0479 89.4125 49.241 89.0913 49.241H85.687V51.9445H89.3482C89.6694 51.9445 89.8621 52.1376 89.8621 52.4594C89.8621 52.7812 89.6694 52.9743 89.3482 52.9743H85.1731V52.8456Z" fill="#656E75"/>
<path d="M101.81 52.9103C101.489 52.9103 101.232 52.7172 101.103 52.3954L98.02 45.3149C97.8915 45.0574 97.9557 44.8643 98.02 44.7356C98.1484 44.6069 98.2769 44.5425 98.4696 44.5425C98.6623 44.5425 98.7908 44.6069 98.855 44.6712C98.9192 44.7356 99.0477 44.8643 99.1119 44.9931L101.745 51.3011L104.379 44.9931C104.443 44.8643 104.508 44.7356 104.636 44.6712C104.7 44.6069 104.893 44.5425 105.021 44.5425C105.214 44.5425 105.343 44.6069 105.471 44.7356C105.535 44.8643 105.535 45.0574 105.471 45.3149L102.388 52.3954C102.324 52.5885 102.259 52.7172 102.131 52.7816C102.131 52.9103 101.938 52.9103 101.81 52.9103Z" fill="#656E75"/>
<path d="M114.913 52.8456C114.463 52.8456 114.271 52.6525 114.271 52.2019V45.3146C114.271 44.864 114.463 44.6709 114.913 44.6709H119.088C119.409 44.6709 119.602 44.7996 119.602 45.1215C119.602 45.4433 119.409 45.6364 119.088 45.6364H115.427V48.2111H118.831C119.152 48.2111 119.345 48.4042 119.345 48.7261C119.345 49.0479 119.152 49.241 118.831 49.241H115.427V51.9445H119.088C119.409 51.9445 119.602 52.1376 119.602 52.4594C119.602 52.7812 119.409 52.9743 119.088 52.9743H114.913V52.8456Z" fill="#656E75"/>
<path d="M129.173 52.8459C128.787 52.8459 128.595 52.6528 128.595 52.2023V45.1862C128.595 44.8 128.787 44.5425 129.173 44.5425C129.558 44.5425 129.751 44.7356 129.751 45.1862V51.816H133.284C133.605 51.816 133.798 52.0092 133.798 52.331C133.798 52.6528 133.605 52.8459 133.284 52.8459H129.173Z" fill="#656E75"/>
<path d="M145.488 52.9751C144.717 52.9751 144.075 52.782 143.497 52.4601C142.919 52.1383 142.469 51.6233 142.212 50.9797C141.891 50.336 141.763 49.6279 141.763 48.7268C141.763 47.89 141.891 47.1176 142.212 46.4739C142.533 45.8302 142.983 45.3797 143.497 44.9935C144.075 44.6716 144.717 44.4785 145.488 44.4785C146.259 44.4785 146.901 44.6716 147.479 44.9935C148.058 45.3153 148.507 45.8302 148.764 46.4739C149.085 47.1176 149.214 47.8256 149.214 48.7268C149.214 49.5636 149.085 50.336 148.764 50.9797C148.443 51.6233 147.993 52.0739 147.479 52.4601C146.901 52.782 146.195 52.9751 145.488 52.9751ZM145.488 51.8808C146.259 51.8808 146.901 51.6233 147.351 51.044C147.801 50.4647 147.993 49.6923 147.993 48.7268C147.993 47.6969 147.801 46.9245 147.351 46.4096C146.901 45.8302 146.259 45.5728 145.488 45.5728C144.717 45.5728 144.075 45.8302 143.625 46.4096C143.176 46.9889 142.983 47.7613 142.983 48.7268C142.983 49.7567 143.176 50.5291 143.625 51.044C144.011 51.6233 144.653 51.8808 145.488 51.8808Z" fill="#656E75"/>
<path d="M158.977 52.9103C158.592 52.9103 158.399 52.7172 158.399 52.2666V45.1862C158.399 44.8 158.592 44.5425 158.977 44.5425H161.739C162.638 44.5425 163.281 44.7356 163.73 45.1862C164.18 45.6367 164.437 46.216 164.437 47.0528C164.437 47.8252 164.18 48.4689 163.73 48.9195C163.281 49.3701 162.574 49.5632 161.739 49.5632H159.619V52.2023C159.555 52.7172 159.362 52.9103 158.977 52.9103ZM159.555 48.662H161.546C162.703 48.662 163.281 48.1471 163.281 47.1172C163.281 46.0873 162.703 45.5724 161.546 45.5724H159.555V48.662Z" fill="#656E75"/>
<path d="M173.815 52.9103C173.43 52.9103 173.237 52.7172 173.237 52.331V45.1218C173.237 44.7356 173.43 44.5425 173.815 44.5425C173.943 44.5425 174.072 44.5425 174.2 44.6069C174.265 44.6712 174.393 44.8 174.457 44.9287L177.283 50.2712L180.11 44.9287C180.174 44.8 180.238 44.6712 180.367 44.6069C180.431 44.5425 180.559 44.5425 180.752 44.5425C181.073 44.5425 181.266 44.7356 181.266 45.1218V52.331C181.266 52.7172 181.073 52.9103 180.752 52.9103C180.367 52.9103 180.238 52.7172 180.238 52.331V46.7954L177.862 51.3011C177.797 51.4298 177.733 51.4942 177.669 51.5586C177.605 51.6229 177.476 51.6229 177.412 51.6229C177.284 51.6229 177.155 51.6229 177.091 51.5586C177.027 51.4942 176.962 51.4298 176.898 51.3011L174.521 46.7954V52.331C174.329 52.7172 174.136 52.9103 173.815 52.9103Z" fill="#656E75"/>
<path d="M191.222 52.8456C190.772 52.8456 190.58 52.6525 190.58 52.2019V45.3146C190.58 44.864 190.772 44.6709 191.222 44.6709H195.397C195.718 44.6709 195.911 44.7996 195.911 45.1215C195.911 45.4433 195.718 45.6364 195.397 45.6364H191.736V48.2111H195.14C195.461 48.2111 195.654 48.4042 195.654 48.7261C195.654 49.0479 195.461 49.241 195.14 49.241H191.736V51.9445H195.397C195.718 51.9445 195.911 52.1376 195.911 52.4594C195.911 52.7812 195.718 52.9743 195.397 52.9743H191.222V52.8456Z" fill="#656E75"/>
<path d="M205.417 52.9107C205.032 52.9107 204.839 52.7176 204.839 52.3314V45.1222C204.839 44.9291 204.904 44.8004 204.968 44.6716C205.032 44.5429 205.161 44.5429 205.353 44.5429C205.482 44.5429 205.61 44.5429 205.674 44.6073C205.739 44.6716 205.803 44.736 205.931 44.8647L210.363 50.7866V45.0578C210.363 44.6716 210.556 44.4785 210.942 44.4785C211.327 44.4785 211.52 44.6716 211.52 45.0578V52.3314C211.52 52.5245 211.455 52.6532 211.391 52.782C211.327 52.9107 211.198 52.9107 211.07 52.9107C210.942 52.9107 210.813 52.9107 210.749 52.8463C210.685 52.782 210.556 52.7176 210.492 52.5889L206.06 46.667V52.3958C205.996 52.7176 205.803 52.9107 205.417 52.9107Z" fill="#656E75"/>
<path d="M223.467 52.9103C223.082 52.9103 222.889 52.7172 222.889 52.2666V45.5724H220.448C220.127 45.5724 219.935 45.3793 219.935 45.0574C219.935 44.7356 220.127 44.5425 220.448 44.5425H226.486C226.808 44.5425 227 44.7356 227 45.0574C227 45.3793 226.808 45.5724 226.486 45.5724H224.045V52.331C224.045 52.7172 223.853 52.9103 223.467 52.9103Z" fill="#656E75"/>
<path d="M27.9414 56C24.1517 56 20.4904 55.2276 17.0218 53.8115C13.6817 52.3954 10.7269 50.4 8.15761 47.8253C5.58829 45.2506 3.59707 42.2253 2.18394 38.9425C0.706577 35.4667 0 31.7977 0 28C0 24.2023 0.770811 20.5333 2.18394 17.0575C3.59707 13.7103 5.58829 10.7494 8.15761 8.17471C10.7269 5.60001 13.7459 3.60457 17.0218 2.18848C20.4904 0.70802 24.1517 0 27.9414 0C31.7312 0 35.3925 0.772388 38.8611 2.18848C42.2012 3.60457 45.1559 5.60001 47.7252 8.17471C50.2946 10.7494 52.2858 13.7747 53.6989 17.0575C55.1763 20.5333 55.8828 24.2023 55.8828 28C55.8828 31.7977 55.112 35.4667 53.6989 38.9425C52.2858 42.2897 50.2946 45.2506 47.7252 47.8253C45.1559 50.4 42.1369 52.3954 38.8611 53.8115C35.3925 55.2276 31.7312 56 27.9414 56ZM27.9414 2.25287C13.8101 2.25287 2.31242 13.7747 2.31242 27.9356C2.31242 42.0966 13.8101 53.6184 27.9414 53.6184C42.0727 53.6184 53.5704 42.0966 53.5704 27.9356C53.5704 13.7747 42.0727 2.25287 27.9414 2.25287Z" fill="#656E75"/>
<path d="M36.9339 46.5379C34.3646 46.5379 31.8595 46.023 29.5471 45.0575C27.2989 44.0919 25.2435 42.8046 23.5092 41.0667C21.7749 39.3287 20.3618 37.3977 19.3983 35.1448C18.4348 32.8276 17.9209 30.3816 17.9209 27.8713C17.9209 25.3609 18.4348 22.9149 19.3983 20.5977C20.3618 18.4092 21.7107 16.4138 23.5092 14.6759C25.2435 13.0023 27.2989 11.6506 29.5471 10.685C31.8595 9.71953 34.3646 9.20459 36.9339 9.20459C39.5032 9.20459 42.0083 9.71953 44.3207 10.685C46.5689 11.6506 48.6243 12.9379 50.3586 14.6759C52.0929 16.4138 53.5061 18.3448 54.4696 20.5977C55.4331 22.9149 55.9469 25.3609 55.9469 27.8713C55.9469 30.3816 55.4331 32.8276 54.4696 35.1448C53.5061 37.3333 52.1572 39.3287 50.3586 41.0667C48.6243 42.7402 46.5689 44.0919 44.3207 45.0575C41.9441 46.023 39.5032 46.5379 36.9339 46.5379ZM36.9339 11.7149C27.7486 11.7149 20.2975 18.9885 20.2975 27.9356C20.2975 36.8828 27.7486 44.1563 36.9339 44.1563C46.1193 44.1563 53.5703 36.8828 53.5703 27.9356C53.5703 18.9885 46.1193 11.7149 36.9339 11.7149Z" fill="#656E75"/>
<path d="M46.6334 37.2689C44.1283 37.2689 41.8159 36.3034 40.0816 34.5654C38.3473 32.8275 37.3838 30.4459 37.3838 27.9999C37.3838 25.4896 38.3473 23.1723 40.0816 21.4344C41.8159 19.6965 44.1925 18.731 46.6334 18.731C49.1385 18.731 51.4508 19.6965 53.1851 21.4344C54.9194 23.1723 55.8829 25.5539 55.8829 27.9999C55.8829 30.5103 54.9194 32.8275 53.1851 34.5654C51.4508 36.3034 49.1385 37.2689 46.6334 37.2689ZM46.6334 20.9838C42.7794 20.9838 39.6962 24.0735 39.6962 27.9356C39.6962 31.7976 42.7794 34.8873 46.6334 34.8873C50.4873 34.8873 53.5705 31.7976 53.5705 27.9356C53.5705 24.0735 50.4231 20.9838 46.6334 20.9838Z" fill="#656E75"/>
</svg>
