<svg width="105" height="120" viewBox="0 0 105 120" fill="none" xmlns="http://www.w3.org/2000/svg">
<path d="M13.0282 0H28.6028L41.631 45.416V119.91H32.2935V53.7724H9.04222V119.91H0V45.1911L13.0282 0ZM32.109 44.9663L21.7751 8.88083H19.7084L9.48509 44.9663H32.109Z" fill="white"/>
<path d="M51.2268 71.6129V53.7387H55.6926C56.3021 53.7219 56.9083 53.833 57.4735 54.0651C58.0387 54.2972 58.5506 54.6454 58.9772 55.0877C59.4165 55.518 59.7617 56.0372 59.9906 56.6118C60.2195 57.1863 60.3271 57.8033 60.306 58.4227V66.8164C60.3271 67.4358 60.2195 68.0528 59.9906 68.6273C59.7617 69.2019 59.4165 69.7211 58.9772 70.1515C58.5524 70.5987 58.0417 70.9524 57.4767 71.1909C56.9116 71.4294 56.3045 71.5476 55.6926 71.5379L51.2268 71.6129ZM58.2392 58.3852C58.2442 58.0344 58.1797 57.6861 58.0498 57.361C57.9198 57.036 57.7271 56.7407 57.4828 56.4926C57.2384 56.2446 56.9474 56.0489 56.6272 55.917C56.3071 55.785 55.9642 55.7196 55.6187 55.7246H53.2566V69.5893H55.6187C55.9645 69.5798 56.305 69.4999 56.6198 69.3544C56.9346 69.2089 57.2174 69.0007 57.4515 68.7421C57.6855 68.4835 57.8661 68.1798 57.9824 67.849C58.0987 67.5182 58.1483 67.167 58.1284 66.8164L58.2392 58.3852Z" fill="white"/>
<path d="M66.4692 53.7373H74.8102V55.7608H68.4991V61.1942H74.2197V63.1802H68.4991V69.5879H74.9947V71.6114H66.4692V53.7373Z" fill="white"/>
<path d="M82.4127 53.7373V61.1193L84.8117 69.5879H85.2915L87.6904 61.1193V53.7373H89.7572V61.3816L86.8046 71.6114H83.2985L80.3459 61.3816V53.7373H82.4127Z" fill="white"/>
<path d="M95.7734 53.7373H104.114V55.7608H97.8033V61.1942H103.524V63.1802H97.8033V69.5879H104.299V71.6114H95.7734V53.7373Z" fill="white"/>
<path d="M51.2268 77.8696H53.2936V93.7577H59.6785V95.7437H51.2268V77.8696Z" fill="white"/>
<path d="M72.1529 91.3172C72.1551 91.9228 72.039 92.5229 71.8109 93.0826C71.5828 93.6422 71.2474 94.1502 70.8243 94.5772C70.3544 95.0814 69.7784 95.4714 69.1393 95.718C68.5002 95.9646 67.8147 96.0613 67.1336 96.0011C66.4527 96.0585 65.7678 95.9605 65.1292 95.7141C64.4906 95.4677 63.9144 95.0792 63.4429 94.5772C62.6097 93.6882 62.147 92.507 62.1512 91.2799V82.324C62.1431 81.0961 62.6063 79.9133 63.4429 79.0265C63.919 78.5308 64.4958 78.1467 65.1332 77.9008C65.7707 77.6548 66.4534 77.553 67.1336 77.6025C67.8137 77.553 68.4962 77.6548 69.1337 77.9008C69.7711 78.1467 70.3481 78.5308 70.8243 79.0265C71.2485 79.4603 71.5843 79.9749 71.8123 80.5408C72.0403 81.1066 72.156 81.7127 72.1529 82.324V91.3172ZM70.0861 82.2865C70.0867 81.9241 70.0143 81.5656 69.8734 81.2326C69.7326 80.8997 69.5264 80.5994 69.2673 80.3502C69.0081 80.1011 68.7014 79.9083 68.3662 79.7837C68.031 79.6592 67.6744 79.6055 67.3181 79.6259C66.9605 79.5999 66.6014 79.6498 66.2638 79.7723C65.9262 79.8948 65.6175 80.0872 65.3572 80.3374C65.0968 80.5877 64.8906 80.8902 64.7517 81.2258C64.6127 81.5613 64.544 81.9226 64.55 82.2865V91.3172C64.544 91.6811 64.6127 92.0424 64.7517 92.3779C64.8906 92.7135 65.0968 93.016 65.3572 93.2662C65.6175 93.5165 65.9262 93.7091 66.2638 93.8316C66.6014 93.9541 66.9605 94.0038 67.3181 93.9777C67.6744 93.9982 68.031 93.9445 68.3662 93.8199C68.7014 93.6954 69.0081 93.5028 69.2673 93.2536C69.5264 93.0045 69.7326 92.7042 69.8734 92.3713C70.0143 92.0383 70.0867 91.6795 70.0861 91.3172V82.2865Z" fill="white"/>
<path d="M80.2723 89.5605V95.7433H78.2056V78.0566H82.8928C83.4024 78.0483 83.9079 78.1472 84.378 78.3471C84.848 78.547 85.2723 78.8437 85.6239 79.2183C86.0041 79.5762 86.3059 80.0114 86.5094 80.4956C86.7129 80.9798 86.8136 81.5023 86.8049 82.0286V85.7758C86.8188 86.3085 86.7205 86.8381 86.5168 87.3292C86.3132 87.8203 86.0089 88.2616 85.6239 88.6237C85.2723 88.9983 84.848 89.295 84.378 89.4949C83.9079 89.6948 83.4024 89.7937 82.8928 89.7854L80.2723 89.5605ZM84.7012 81.8413C84.7062 81.584 84.66 81.3283 84.5654 81.0896C84.4707 80.8509 84.3294 80.6341 84.1502 80.4521C83.971 80.2702 83.7575 80.1268 83.5224 80.0306C83.2873 79.9345 83.0354 79.8876 82.782 79.8927H80.2723V87.3871H82.782C83.0323 87.3921 83.281 87.3464 83.5136 87.2526C83.7463 87.1588 83.9582 87.0187 84.1369 86.8407C84.3156 86.6628 84.4574 86.4504 84.5543 86.2161C84.6512 85.9818 84.7013 85.7301 84.7012 85.476V81.8413Z" fill="white"/>
<path d="M58.9772 106.531L57.2426 111.44H55.4342L53.6627 106.569L53.2198 104.733L53.0721 104.77L53.2198 107.73V119.909H51.2268V102.035H53.8841L56.283 109.267H56.3938L58.7558 102.035H61.4131V119.909H59.4201V107.73L59.6047 104.77L59.4201 104.733L58.9772 106.531Z" fill="white"/>
<path d="M67.5024 102.035H75.8434V104.058H69.5692V109.492H75.2898V111.478H69.5692V117.885H76.0648V119.909H67.5024V102.035Z" fill="white"/>
<path d="M90.7909 102.035V119.909H88.3919L83.9262 107.73L83.3726 105.295H83.1511L83.3726 108.517V119.909H81.4165V102.035H83.8154L88.2812 114.176L88.8348 116.611H89.0562L88.8348 113.539V102.035H90.7909Z" fill="white"/>
<path d="M95.5889 104.058V102.035H105V104.058H101.309V119.909H99.2426V104.058H95.5889Z" fill="white"/>
</svg>
