<svg width="91" height="104" viewBox="0 0 91 104" fill="none" xmlns="http://www.w3.org/2000/svg">
<path d="M11.2911 0H24.7891L36.0802 39.39V104H27.9877V46.6376H7.83659V104H0V39.195L11.2911 0ZM27.8278 39L18.8718 7.70248H17.0806L8.2204 39H27.8278Z" fill="#656E75"/>
<path d="M44.3965 62.1109V46.6084H48.2668C48.7951 46.5938 49.3205 46.6901 49.8103 46.8914C50.3002 47.0928 50.7438 47.3947 51.1134 47.7783C51.4942 48.1515 51.7934 48.6019 51.9918 49.1002C52.1901 49.5985 52.2834 50.1337 52.2651 50.6709V57.9508C52.2834 58.4881 52.1901 59.0232 51.9918 59.5215C51.7934 60.0198 51.4942 60.4702 51.1134 60.8434C50.7453 61.2313 50.3027 61.5381 49.813 61.745C49.3233 61.9518 48.7971 62.0543 48.2668 62.0459L44.3965 62.1109ZM50.4739 50.6383C50.4782 50.3341 50.4223 50.032 50.3097 49.7501C50.1971 49.4681 50.0301 49.212 49.8183 48.9969C49.6066 48.7817 49.3543 48.612 49.0768 48.4976C48.7994 48.3832 48.5022 48.3264 48.2028 48.3308H46.1557V60.3558H48.2028C48.5025 60.3476 48.7976 60.2783 49.0704 60.1521C49.3433 60.0259 49.5883 59.8454 49.7912 59.6211C49.994 59.3968 50.1506 59.1334 50.2513 58.8465C50.3521 58.5596 50.3951 58.255 50.3778 57.9508L50.4739 50.6383Z" fill="#656E75"/>
<path d="M57.6064 46.6074H64.8353V48.3624H59.3657V53.0749H64.3235V54.7974H59.3657V60.3549H64.9952V62.1099H57.6064V46.6074Z" fill="#656E75"/>
<path d="M71.424 46.6074V53.0099L73.5031 60.3549H73.9189L75.998 53.0099V46.6074H77.7892V53.2374L75.2303 62.1099H72.1917L69.6328 53.2374V46.6074H71.424Z" fill="#656E75"/>
<path d="M83.0034 46.6074H90.2322V48.3624H84.7626V53.0749H89.7205V54.7974H84.7626V60.3549H90.3922V62.1099H83.0034V46.6074Z" fill="#656E75"/>
<path d="M44.3965 67.5376H46.1877V81.3176H51.7212V83.0401H44.3965V67.5376Z" fill="#656E75"/>
<path d="M62.5324 79.2009C62.5344 79.7262 62.4337 80.2467 62.2361 80.7321C62.0384 81.2175 61.7477 81.6581 61.381 82.0284C60.9738 82.4657 60.4745 82.804 59.9207 83.0178C59.3668 83.2317 58.7726 83.3156 58.1824 83.2634C57.5923 83.3132 56.9987 83.2282 56.4452 83.0145C55.8918 82.8008 55.3924 82.4638 54.9838 82.0284C54.2617 81.2574 53.8606 80.2329 53.8643 79.1686V71.401C53.8573 70.336 54.2588 69.3101 54.9838 68.541C55.3964 68.1111 55.8963 67.7779 56.4488 67.5646C57.0012 67.3513 57.5929 67.263 58.1824 67.306C58.7719 67.263 59.3634 67.3513 59.9158 67.5646C60.4682 67.7779 60.9683 68.1111 61.381 68.541C61.7487 68.9173 62.0396 69.3636 62.2372 69.8544C62.4348 70.3451 62.5351 70.8708 62.5324 71.401V79.2009ZM60.7412 71.3685C60.7417 71.0542 60.679 70.7432 60.5569 70.4544C60.4349 70.1656 60.2562 69.9052 60.0316 69.6891C59.8069 69.4731 59.5411 69.3058 59.2507 69.1978C58.9602 69.0898 58.6511 69.0432 58.3423 69.0609C58.0324 69.0383 57.7212 69.0816 57.4286 69.1879C57.136 69.2941 56.8685 69.461 56.6428 69.678C56.4172 69.8951 56.2385 70.1574 56.118 70.4485C55.9976 70.7395 55.9381 71.0528 55.9433 71.3685V79.2009C55.9381 79.5166 55.9976 79.8299 56.118 80.1209C56.2385 80.4119 56.4172 80.6743 56.6428 80.8914C56.8685 81.1084 57.136 81.2755 57.4286 81.3817C57.7212 81.488 58.0324 81.5311 58.3423 81.5085C58.6511 81.5262 58.9602 81.4796 59.2507 81.3716C59.5411 81.2636 59.8069 81.0965 60.0316 80.8805C60.2562 80.6644 60.4349 80.4039 60.5569 80.1152C60.679 79.8264 60.7417 79.5152 60.7412 79.2009V71.3685Z" fill="#656E75"/>
<path d="M69.569 77.6772V83.0395H67.7778V67.6996H71.8401C72.2817 67.6924 72.7199 67.7782 73.1272 67.9516C73.5346 68.125 73.9023 68.3823 74.207 68.7071C74.5366 69.0176 74.7981 69.395 74.9745 69.815C75.1508 70.235 75.2381 70.6881 75.2306 71.1446V74.3946C75.2426 74.8566 75.1574 75.316 74.9809 75.7419C74.8044 76.1678 74.5407 76.5506 74.207 76.8647C73.9023 77.1895 73.5346 77.4468 73.1272 77.6202C72.7199 77.7936 72.2817 77.8794 71.8401 77.8721L69.569 77.6772ZM73.4074 70.9822C73.4117 70.759 73.3717 70.5372 73.2897 70.3301C73.2076 70.1231 73.0852 69.9351 72.9299 69.7773C72.7745 69.6195 72.5895 69.4951 72.3858 69.4117C72.182 69.3284 71.9637 69.2877 71.7441 69.2921H69.569V75.7921H71.7441C71.961 75.7964 72.1765 75.7568 72.3782 75.6755C72.5798 75.5941 72.7635 75.4726 72.9183 75.3182C73.0732 75.1639 73.1961 74.9797 73.2801 74.7765C73.3641 74.5732 73.4074 74.355 73.4074 74.1346V70.9822Z" fill="#656E75"/>
<path d="M51.1135 92.3961L49.6102 96.6536H48.0429L46.5076 92.4286L46.1237 90.8361L45.9958 90.8686L46.1237 93.4361V103.999H44.3965V88.4961H46.6995L48.7786 94.7686H48.8745L50.9216 88.4961H53.2246V103.999H51.4974V93.4361L51.6573 90.8686L51.4974 90.8361L51.1135 92.3961Z" fill="#656E75"/>
<path d="M58.502 88.4961H65.7308V90.2511H60.2932V94.9636H65.251V96.6861H60.2932V102.244H65.9227V103.999H58.502V88.4961Z" fill="#656E75"/>
<path d="M78.6855 88.4961V103.999H76.6064L72.7361 93.4361L72.2563 91.3236H72.0644L72.2563 94.1186V103.999H70.561V88.4961H72.6401L76.5104 99.0261L76.9902 101.139H77.1821L76.9902 98.4736V88.4961H78.6855Z" fill="#656E75"/>
<path d="M82.8438 90.2511V88.4961H91.0002V90.2511H87.8016V103.999H86.0104V90.2511H82.8438Z" fill="#656E75"/>
</svg>
