<svg width="135" height="95" viewBox="0 0 135 95" fill="none" xmlns="http://www.w3.org/2000/svg">
<path d="M13.1698 84.619C11.8852 83.5583 10.1315 83.0166 7.96444 83.0166H0V94.6618H8.35541C10.2097 94.6618 11.7959 94.1427 13.0581 93.1384C14.4321 92.0326 15.1358 90.6334 15.1358 88.9634C15.1358 87.1579 14.4767 85.7022 13.1698 84.619ZM12.3097 88.9182C12.3097 89.9338 11.9634 90.7462 11.2597 91.3894C10.5448 92.0439 9.64 92.3599 8.51179 92.3599H2.65854V85.3073H8.14317C9.40542 85.3073 10.4331 85.6458 11.1927 86.3116C11.941 86.9886 12.3097 87.835 12.3097 88.9182Z" fill="#656E75"/>
<path d="M27.2222 89.4935L21.5812 83.0278H18.6099V94.6616H21.2572V86.176L27.1998 93.0142L33.2095 86.1648V94.6616H35.8569V83.0278H32.8856L27.2222 89.4935Z" fill="#656E75"/>
<path d="M52.6124 90.4755H58.0412C57.2146 91.9425 55.6843 92.6533 53.3608 92.6533C51.7412 92.6533 50.4231 92.2922 49.4512 91.5588C48.5018 90.8479 48.0326 89.9565 48.0326 88.8167C48.0326 87.6433 48.5688 86.7067 49.6858 85.962C50.6576 85.3188 51.8976 84.9802 53.3608 84.9802C55.2375 84.9802 56.7902 85.567 57.9742 86.7293L58.1306 86.8872L60.6216 85.7588L60.2977 85.4204C58.5439 83.5923 56.2652 82.667 53.5285 82.667C51.272 82.667 49.373 83.1861 47.8874 84.2129C46.1671 85.409 45.2959 86.955 45.2959 88.8281C45.2959 90.7238 46.156 92.281 47.8539 93.4545C49.3284 94.47 51.1827 94.9778 53.3608 94.9778C55.7513 94.9778 57.6949 94.4024 59.1582 93.2627C60.644 92.1004 61.3924 90.5545 61.3924 88.6701V88.1736H52.6124V90.4755Z" fill="#656E75"/>
<path d="M78.2371 89.2905C78.8962 88.6587 79.2202 87.8236 79.2202 86.8082C79.2202 85.6458 78.818 84.7206 78.0249 84.0322C77.243 83.3665 76.1707 83.0166 74.8302 83.0166H64.978V94.6618H67.6254V90.4754H73.2441L76.5169 94.6618H79.667L76.3494 90.2835C77.1201 90.0918 77.7568 89.7645 78.2371 89.2905ZM76.5169 86.8082C76.5169 87.3948 76.3047 88.1735 74.5174 88.1735H67.6142V85.3073H74.3275C76.2936 85.3186 76.5169 86.1762 76.5169 86.8082Z" fill="#656E75"/>
<path d="M95.5734 84.2237C94.0989 83.1969 92.2558 82.6777 90.0999 82.6777C87.9552 82.6777 86.101 83.1969 84.6152 84.2237C82.8839 85.4198 82.0015 86.9657 82.0015 88.8388C82.0015 90.7345 82.8727 92.2917 84.5818 93.4653C86.0562 94.4809 87.9105 94.9886 90.0999 94.9886C92.2669 94.9886 94.1213 94.4809 95.5845 93.4766C97.2936 92.3031 98.1649 90.7459 98.1649 88.8388C98.1649 86.9657 97.2936 85.4085 95.5734 84.2237ZM95.4281 88.8276C95.4281 89.9673 94.9701 90.8587 94.0207 91.5696C93.0489 92.2917 91.7307 92.6529 90.0999 92.6529C88.4579 92.6529 87.1286 92.2917 86.1568 91.5696C85.2073 90.87 84.7382 89.9673 84.7382 88.8276C84.7382 87.7218 85.2185 86.8416 86.1903 86.1082C87.1844 85.3747 88.5026 84.991 90.0999 84.991C91.5632 84.991 92.8031 85.3183 93.775 85.9727C94.8808 86.7174 95.4281 87.654 95.4281 88.8276Z" fill="#656E75"/>
<path d="M113.345 90.3512C113.345 91.0846 112.999 91.6375 112.284 92.0324C111.513 92.4612 110.363 92.6757 108.844 92.6757C107.325 92.6757 106.163 92.4612 105.392 92.0324C104.666 91.6375 104.32 91.0846 104.32 90.3512V83.0278H101.661V90.7912C101.661 92.0438 102.331 93.0706 103.661 93.8491C104.968 94.6164 106.721 95.0001 108.844 95.0001C110.977 95.0001 112.709 94.6164 113.993 93.8491C115.322 93.0818 115.993 92.055 115.993 90.7912V83.0278H113.334V90.3512H113.345Z" fill="#656E75"/>
<path d="M133.184 84.0322C132.402 83.3665 131.341 83.0166 130.034 83.0166H120.126V94.6618H122.784V90.4754H129.654C131.151 90.4754 132.324 90.1594 133.128 89.5388C133.966 88.8956 134.379 87.9704 134.379 86.7742C134.39 85.6458 133.988 84.7206 133.184 84.0322ZM131.687 86.8082C131.687 87.3948 131.474 88.1735 129.698 88.1735H122.796V85.3073H129.565C131.464 85.3186 131.687 86.1762 131.687 86.8082Z" fill="#656E75"/>
<path d="M96.7461 70.2542H37.6328V0H96.7461V70.2542ZM40.6823 67.1737H93.7078V3.08054H40.6823V67.1737Z" fill="#656E75"/>
<path d="M75.2544 5.94673C71.0431 4.31055 66.6421 4.68292 64.0058 5.16813C62.643 5.41638 61.3361 5.87902 60.1075 6.51093L43.4971 15.1657L45.8541 16.9374H45.8652H45.8541L56.7005 25.0844C59.0128 23.8544 64.408 21.0222 65.6591 20.616C66.0054 20.5031 66.4298 20.4129 66.9102 20.3565L66.899 20.3451C66.899 20.3451 69.5799 19.8825 72.7411 20.8755C72.864 20.9093 72.9868 20.9319 73.1209 20.9657C74.6735 21.4735 78.5944 23.8544 78.5944 23.8544L90.7365 15.1771C90.7253 15.1996 81.8896 8.5082 75.2544 5.94673Z" fill="#656E75"/>
<path d="M43.5755 17.7046L43.5532 30.952L67.279 49.1981L90.8372 31.0084L90.826 17.7046L67.2008 36.2104L43.5755 17.7046Z" fill="#656E75"/>
<path d="M54.232 64.5221H43.5643L43.5532 34.1343L67.0109 52.8771L90.8596 34.1343V64.477H80.1025V54.4793L66.9886 64.5335L54.2432 54.6035C54.2544 54.5922 54.2544 64.4995 54.232 64.5221Z" fill="#656E75"/>
</svg>
