<svg width="229" height="67" viewBox="0 0 229 67" fill="none" xmlns="http://www.w3.org/2000/svg">
<path d="M19.2791 10.4121H0V15.6517H19.2791V10.4121Z" fill="#656E75"/>
<path d="M19.2791 0H0V5.23962H19.2791V0Z" fill="#656E75"/>
<path d="M19.2791 20.8911H0V26.1307H19.2791V20.8911Z" fill="#656E75"/>
<path d="M31.169 7.38934C32.7812 7.38934 34.7293 7.65804 35.9384 8.86718H36.0056C36.0056 8.86718 35.9384 8.53131 35.9384 8.06109V0.671875H42.1185V26.0639H36.3415V24.8547C36.3415 24.3174 36.4086 23.8471 36.4086 23.8471H36.3415C35.1995 25.5937 33.1842 26.5341 31.0347 26.5341C26.1309 26.5341 22.8394 22.638 22.8394 16.9281C22.8394 11.1511 26.3324 7.38934 31.169 7.38934ZM32.6469 21.4288C34.5277 21.4288 36.2071 20.0853 36.2071 16.9281C36.2071 14.7114 35.0651 12.5618 32.6469 12.5618C30.6988 12.5618 29.0866 14.1068 29.0866 16.9281C29.0194 19.6823 30.4973 21.4288 32.6469 21.4288Z" fill="#656E75"/>
<path d="M54.8146 7.38916C60.1886 7.38916 63.2786 11.1509 63.2786 16.2562C63.2786 16.928 63.2114 17.5325 63.1442 18.2043H51.5902C52.0604 20.421 53.8741 21.4958 55.8894 21.4958C57.7031 21.4958 59.4496 20.6226 60.9275 19.6149L63.2114 23.9141C61.1962 25.5935 58.1733 26.6011 55.4192 26.6011C48.9032 26.6011 45.343 21.8989 45.343 16.9951C45.2758 11.554 48.9032 7.38916 54.8146 7.38916ZM57.1657 14.644C57.1657 13.1662 56.2253 11.8899 54.6131 11.8899C52.8665 11.8899 51.9932 13.1662 51.6574 14.644H57.1657Z" fill="#656E75"/>
<path d="M66.4358 0.671875H72.6159V18.5403C72.6159 20.2869 72.9518 20.8914 74.2953 20.8914C74.4968 20.8914 74.7655 20.8914 75.0342 20.8243V26.1311C74.6311 26.1982 73.9594 26.2654 73.1533 26.2654C69.8617 26.2654 66.3687 25.4593 66.3687 19.3464V0.671875H66.4358Z" fill="#656E75"/>
<path d="M77.9226 0.671875H84.1027V7.72521C84.1027 8.66566 84.0355 9.27023 84.0355 9.27023H84.1027C85.1775 8.06109 87.1927 7.32217 89.0736 7.32217C94.0445 7.32217 97.3361 11.2183 97.3361 16.9281C97.3361 22.7052 93.6415 26.4669 88.8049 26.4669C86.924 26.4669 84.9088 25.7952 83.6996 24.3174H83.6325C83.6325 24.3174 83.6996 24.7876 83.6996 25.325V26.0639H77.9226V0.671875ZM87.5286 21.4288C89.4766 21.4288 91.0888 19.8838 91.0888 17.0625C91.0888 14.3083 89.611 12.5618 87.5286 12.5618C85.6477 12.5618 83.9683 13.9053 83.9683 17.0625C83.9012 19.2793 85.1103 21.4288 87.5286 21.4288Z" fill="#656E75"/>
<path d="M100.292 7.79248H106.472V18.5404C106.472 20.2198 107.144 20.9587 108.42 20.9587C111.04 20.9587 112.316 18.6748 112.316 15.9206V7.79248H118.496V26.1312H112.585V24.519C112.585 23.9144 112.652 23.377 112.652 23.377H112.585C111.577 25.3251 109.293 26.5342 106.875 26.5342C103.247 26.5342 100.359 24.8548 100.359 19.6824V7.79248H100.292Z" fill="#656E75"/>
<path d="M122.527 7.79242H128.438V10.8824C128.438 11.487 128.371 12.0244 128.371 12.0244H128.438C129.244 9.53896 131.528 7.45654 134.282 7.45654C134.551 7.45654 134.752 7.52372 135.021 7.52372V13.5694C134.82 13.5023 134.215 13.4351 133.745 13.4351C130.319 13.4351 128.707 15.5847 128.707 18.9434V26.0639H122.527V7.79242Z" fill="#656E75"/>
<path d="M145.366 28.482C147.583 28.482 149.598 27.6759 149.598 24.9889V24.3172C149.598 24.1156 149.665 23.6454 149.665 23.6454H149.598C148.523 24.9217 147.112 25.5935 145.03 25.5935C139.522 25.5935 136.768 21.0928 136.768 16.3906C136.768 11.7555 139.455 7.38916 144.963 7.38916C146.709 7.38916 148.657 7.85938 149.934 9.1357H150.068C150.068 9.1357 150.001 8.93418 150.001 8.73265V7.79221H155.778V24.4515C155.778 31.169 150.471 33.5873 145.433 33.5873C142.948 33.5873 140.261 32.8484 138.514 31.9751L140.261 27.34C141.739 28.0118 143.552 28.482 145.366 28.482ZM146.441 20.4882C148.053 20.4882 149.732 19.6821 149.732 16.4577C149.732 13.2334 148.053 12.4944 146.172 12.4944C144.022 12.4944 142.88 14.0395 142.88 16.189C142.948 18.4058 144.022 20.4882 146.441 20.4882Z" fill="#656E75"/>
<path d="M0 33.5874H9.0014C16.9952 33.5874 22.1005 38.2225 22.1005 46.2162C22.1005 54.21 16.9952 58.9794 9.0014 58.9794H0V33.5874ZM8.7327 53.6726C13.0319 53.6726 15.6517 51.12 15.6517 46.2162C15.6517 41.3797 12.8975 38.8942 8.7327 38.8942H6.18007V53.6726H8.7327Z" fill="#656E75"/>
<path d="M33.9233 40.2378C39.2973 40.2378 42.3873 43.9996 42.3873 49.1048C42.3873 49.7766 42.3202 50.3812 42.253 51.0529H30.6318C31.102 53.2697 32.9157 54.3445 34.9309 54.3445C36.7447 54.3445 38.4912 53.4712 39.969 52.4636L42.253 56.7628C40.2377 58.4421 37.2149 59.4497 34.4607 59.4497C27.9448 59.4497 24.3845 54.7475 24.3845 49.8438C24.3845 44.4698 28.012 40.2378 33.9233 40.2378ZM36.2744 47.4927C36.2744 46.0148 35.334 44.7385 33.7218 44.7385C31.9753 44.7385 31.102 46.0148 30.7661 47.4927H36.2744Z" fill="#656E75"/>
<path d="M43.2605 40.708H49.7093L52.5306 50.4483C52.8665 51.5903 53.2023 53.6055 53.2023 53.6055H53.2695C53.2695 53.6055 53.6054 51.6575 53.9413 50.4483L56.7626 40.708H63.2785L57.0313 59.0467H49.6421L43.2605 40.708Z" fill="#656E75"/>
<path d="M73.6906 40.2378C79.0645 40.2378 82.1546 43.9996 82.1546 49.1048C82.1546 49.7766 82.0874 50.3812 82.0202 51.0529H70.4662C70.9364 53.2697 72.7501 54.3445 74.7654 54.3445C76.5791 54.3445 78.3256 53.4712 79.8035 52.4636L82.0874 56.7628C80.0722 58.4421 77.0493 59.4497 74.2951 59.4497C67.7792 59.4497 64.2189 54.7475 64.2189 49.8438C64.1518 44.4698 67.7792 40.2378 73.6906 40.2378ZM76.0417 47.4927C76.0417 46.0148 75.1012 44.7385 73.489 44.7385C71.7425 44.7385 70.8692 46.0148 70.5334 47.4927H76.0417Z" fill="#656E75"/>
<path d="M85.3118 33.5874H91.4919V51.4559C91.4919 53.2024 91.8277 53.807 93.1712 53.807C93.3728 53.807 93.6415 53.807 93.9102 53.7398V59.0466C93.5071 59.1138 92.8354 59.1809 92.0293 59.1809C88.7377 59.1809 85.2446 58.3748 85.2446 52.2619V33.5874H85.3118Z" fill="#656E75"/>
<path d="M106.136 40.2378C111.913 40.2378 116.548 44.1339 116.548 49.8438C116.548 55.5536 111.913 59.3826 106.136 59.3826C100.359 59.3826 95.7239 55.5536 95.7239 49.8438C95.7911 44.1339 100.426 40.2378 106.136 40.2378ZM106.203 54.2773C108.42 54.2773 110.368 52.5979 110.368 49.8438C110.368 47.0896 108.42 45.3431 106.203 45.3431C103.986 45.3431 102.038 47.0896 102.038 49.8438C102.038 52.5979 103.919 54.2773 106.203 54.2773Z" fill="#656E75"/>
<path d="M119.638 40.708H125.213V41.6485C125.213 42.253 125.146 42.7904 125.146 42.7904H125.213C126.49 41.1111 128.572 40.2378 130.789 40.2378C135.76 40.2378 139.051 44.1339 139.051 49.8438C139.051 55.6208 135.357 59.3826 130.52 59.3826C128.841 59.3826 127.161 58.778 125.885 57.636H125.818C125.818 57.636 125.885 58.3078 125.885 59.181V66.0329H119.705V40.708H119.638ZM129.244 54.3445C131.192 54.3445 132.804 52.7995 132.804 49.9781C132.804 47.224 131.326 45.4774 129.244 45.4774C127.363 45.4774 125.684 46.8209 125.684 49.9781C125.616 52.1949 126.826 54.3445 129.244 54.3445Z" fill="#656E75"/>
<path d="M142.142 40.7082H148.053V42.3204C148.053 42.925 147.986 43.4624 147.986 43.4624H148.053C148.926 42.1861 150.606 40.3052 153.494 40.3052C155.778 40.3052 157.659 41.3128 158.599 43.3952H158.667C159.607 41.8502 161.824 40.3052 164.511 40.3052C167.87 40.3052 170.422 42.1189 170.422 47.157V59.0469H164.242V48.1646C164.242 46.8211 163.973 45.8807 162.831 45.8807C160.144 45.8807 159.338 48.5677 159.338 51.2546V58.9797H153.158V48.1646C153.158 46.8211 152.89 45.8807 151.748 45.8807C148.926 45.8807 148.255 48.7692 148.255 51.2546V58.9797H142.074V40.7082H142.142Z" fill="#656E75"/>
<path d="M182.984 40.2378C188.358 40.2378 191.448 43.9996 191.448 49.1048C191.448 49.7766 191.381 50.3812 191.313 51.0529H179.759C180.23 53.2697 182.043 54.3445 184.059 54.3445C185.872 54.3445 187.619 53.4712 189.097 52.4636L191.381 56.7628C189.365 58.4421 186.343 59.4497 183.588 59.4497C177.072 59.4497 173.512 54.7475 173.512 49.8438C173.445 44.4698 177.072 40.2378 182.984 40.2378ZM185.335 47.4927C185.335 46.0148 184.394 44.7385 182.782 44.7385C181.036 44.7385 180.162 46.0148 179.827 47.4927H185.335Z" fill="#656E75"/>
<path d="M194.605 40.7082H200.516V42.3204C200.516 42.925 200.449 43.4624 200.449 43.4624H200.516C201.39 42.0517 203.136 40.3052 206.361 40.3052C210.055 40.3052 212.944 41.9845 212.944 47.157V59.0469H206.764V48.299C206.764 46.6196 206.092 45.8807 204.748 45.8807C201.994 45.8807 200.785 48.1646 200.785 50.7844V59.0469H194.605V40.7082Z" fill="#656E75"/>
<path d="M217.982 45.813H215.631V41.0436H218.183V35.7368H224.162V40.9764H227.991V45.813H224.162V51.4557C224.162 53.5381 226.244 53.8068 227.453 53.8068C227.655 53.8068 227.856 53.8068 228.259 53.7396V59.0464C227.789 59.1136 227.319 59.1808 226.58 59.1808C223.692 59.1808 217.982 58.3747 217.982 52.2618V45.813Z" fill="#656E75"/>
</svg>
