<svg width="120" height="120" viewBox="0 0 120 120" fill="none" xmlns="http://www.w3.org/2000/svg">
<mask id="mask0" style="mask-type:alpha" maskUnits="userSpaceOnUse" x="0" y="0" width="120" height="120">
<circle cx="60" cy="60" r="60" fill="#EFBC48"/>
</mask>
<g mask="url(#mask0)">
<circle cx="60" cy="60" r="60" fill="#EFBC48"/>
<rect width="120" height="120" fill="#0951BE"/>
<path d="M89.2245 60.731H77.1416V61.3454H89.2245V60.731Z" fill="#ECEAE1"/>
<path d="M88.2294 46.8711H85.9639V61.3453H88.2294V46.8711Z" fill="#ECEAE1"/>
<path d="M67.2568 46.8711H64.9912V61.3453H67.2568V46.8711Z" fill="#ECEAE1"/>
<path d="M75.7001 46.8711H73.4346V61.3453H75.7001V46.8711Z" fill="#ECEAE1"/>
<path d="M74.0528 53.801H66.501V54.4155H74.0528V53.801Z" fill="#ECEAE1"/>
<path d="M32.4496 46.8711H30.1841V61.3453H32.4496V46.8711Z" fill="#ECEAE1"/>
<path d="M37.7016 46.8711H30.1841V47.4856H37.7016V46.8711Z" fill="#ECEAE1"/>
<path d="M87.818 46.8711H80.0259V47.4856H87.818V46.8711Z" fill="#ECEAE1"/>
<path d="M42.1982 46.8711H39.9326V61.3453H42.1982V46.8711Z" fill="#ECEAE1"/>
<path d="M49.2348 51.582C49.2348 48.7828 46.6603 46.8711 43.9485 46.8711H42.1636V47.4856C42.4382 47.4856 42.6785 47.4856 42.8158 47.4856C45.9738 47.4856 47.1066 49.3973 47.1066 51.7186C47.1066 54.0399 45.9738 55.9175 42.8501 55.9175C42.7128 55.9175 42.4382 55.9175 42.1979 55.9175V56.532H43.9829C46.6947 56.532 49.2691 54.6203 49.2691 51.821V51.582H49.2348Z" fill="#ECEAE1"/>
<path d="M63.1719 61.3453H60.5974L54.4873 46.8711H57.0618L63.1719 61.3453Z" fill="#ECEAE1"/>
<path d="M55.2416 46.8711L49.4748 61.3453H48.7539L54.5207 46.8711H55.2416Z" fill="#ECEAE1"/>
<path d="M59.7731 58.2732H50.0244L50.3334 57.6587H59.7731V58.2732Z" fill="#ECEAE1"/>
<path d="M83.9731 66.5686H81.7075V81.0428H83.9731V66.5686Z" fill="#ECEAE1"/>
<path d="M89.1907 66.5686H81.7075V67.1831H89.1907V66.5686Z" fill="#ECEAE1"/>
<path d="M89.1907 80.4624H81.7075V81.0769H89.1907V80.4624Z" fill="#ECEAE1"/>
<path d="M87.4407 73.5325H81.7769V74.1469H87.4407V73.5325Z" fill="#ECEAE1"/>
<path d="M88.4358 64.486L83.9734 65.6467L83.8018 65.0322L88.2642 63.8374L88.4358 64.486Z" fill="#ECEAE1"/>
<path d="M37.4268 66.5686H31.4883V67.1831H37.4268V66.5686Z" fill="#ECEAE1"/>
<path d="M32.4496 66.5686H30.1841V81.0428H32.4496V66.5686Z" fill="#ECEAE1"/>
<path d="M39.52 76.3317C39.52 79.131 36.9455 81.0427 34.2337 81.0427H32.4487V80.4282C32.7233 80.4282 32.9636 80.4282 33.1009 80.4282C36.259 80.4282 37.3917 78.5165 37.3917 76.1952C37.3917 73.8738 36.2246 71.9621 33.1009 71.9621C32.9636 71.9621 32.7233 71.9621 32.4487 71.9621V71.3477H34.2337C36.9455 71.3477 39.52 73.2593 39.52 76.0586V76.3317Z" fill="#ECEAE1"/>
<path d="M56.3744 75.615C56.2715 75.615 55.9625 75.615 55.6879 75.615V67.1831H56.3744C59.5325 67.1831 60.6652 69.0948 60.6652 71.4161C60.6652 73.7374 59.4981 75.615 56.3744 75.615ZM57.4729 66.5686H55.6879H54.3492H53.4224V81.0428H55.6879V76.2295H57.4729C60.1847 76.2295 62.7591 74.386 62.7591 71.382C62.7591 68.4462 60.1847 66.5686 57.4729 66.5686Z" fill="#ECEAE1"/>
<path d="M50.7445 66.5686C50.1609 68.0706 48.2386 73.0888 47.1745 75.7857L42.8837 66.5686H40.6182L46.1447 78.346C45.4239 79.9846 44.909 80.4625 43.9478 80.4625C42.7121 80.4625 42.1629 79.4042 42.1629 78.6874H41.4077C41.4077 79.8822 42.3688 81.2135 43.9478 81.2135C45.7328 81.2135 46.385 79.8139 47.1745 77.7998C47.5178 76.9464 50.9847 67.9 51.4996 66.5686H50.7445Z" fill="#ECEAE1"/>
<path d="M78.3774 61.3456V60.7311C81.7071 60.7311 82.428 49.773 82.428 47.0762H83.0458C83.0458 48.0662 82.9085 51.5823 82.2907 54.8253C81.5011 59.1266 80.1624 61.3456 78.3774 61.3456Z" fill="#ECEAE1"/>
<path d="M72.1996 66.5686H69.9341V81.0428H72.1996V66.5686Z" fill="#ECEAE1"/>
<path d="M62.0391 79.1311C62.0391 80.2917 62.9659 81.2134 64.1673 81.2134C68.1492 81.2134 67.4283 76.2294 69.4192 76.2294C70.3117 76.2294 70.3117 76.2294 70.6893 76.2294C70.6893 76.0587 70.6893 75.9222 70.6893 75.7515C70.1744 75.7515 70.0028 75.7515 69.1446 75.7515C65.0255 75.7515 66.2269 80.4283 63.8927 80.4283C63.0345 80.4283 62.554 79.7114 62.554 79.0969C62.2107 79.1311 62.245 79.1311 62.0391 79.1311Z" fill="#ECEAE1"/>
<path d="M70.964 76.2977C67.9776 76.2977 67.3254 73.6692 66.7762 71.3478C66.227 69.1289 65.7464 67.1831 63.6182 67.1831V66.5686C66.2613 66.5686 66.8448 68.9241 67.3941 71.2113C67.9433 73.4985 68.4925 75.6833 70.9983 75.6833V76.2977H70.964Z" fill="#ECEAE1"/>
<path d="M80.1293 79.1311C80.1293 80.2917 79.2024 81.2134 78.001 81.2134C74.0192 81.2134 74.74 76.2294 72.7491 76.2294C71.8566 76.2294 71.8566 76.2294 71.479 76.2294C71.479 76.0587 71.479 75.9222 71.479 75.7515C71.9939 75.7515 72.1655 75.7515 73.0237 75.7515C77.1429 75.7515 75.9414 80.4283 78.2756 80.4283C79.1338 80.4283 79.6144 79.7114 79.6144 79.0969C79.9233 79.1311 79.9233 79.1311 80.1293 79.1311Z" fill="#ECEAE1"/>
<path d="M71.2041 76.2975V75.7172C73.7099 75.7172 74.2248 73.5324 74.8084 71.2452C75.3576 68.958 75.9411 66.6025 78.5843 66.6025V67.217C76.4217 67.217 75.9755 69.1628 75.4263 71.3818C74.8427 73.7031 74.1905 76.2975 71.2041 76.2975Z" fill="#ECEAE1"/>
<path d="M38.8335 91.557L38.147 92.4446L38.1127 92.4787C38.1127 92.4787 38.0783 92.4787 38.044 92.4446L37.9754 92.3422C37.941 92.308 37.9754 92.2739 37.9754 92.2397L38.6619 91.3522L39.6574 91.1474C39.6917 91.1474 39.726 91.1474 39.7603 91.1815L39.829 91.2839C39.8633 91.318 39.829 91.318 39.829 91.3522H39.7947L38.8335 91.557ZM37.8037 91.8984C37.7694 91.8984 37.7351 91.8984 37.7008 91.8642L37.6321 91.7618C37.5978 91.7277 37.6321 91.6936 37.6321 91.6594L39.3484 90.6012C39.3828 90.6012 39.4171 90.6012 39.4514 90.6353L39.5201 90.7377C39.5544 90.7719 39.5201 90.806 39.5201 90.8401L37.8037 91.8984ZM39.0052 90.1232L39.0395 90.0891C39.0395 90.0891 39.0738 90.0891 39.1081 90.1232L39.1768 90.2257C39.2111 90.2598 39.1768 90.2939 39.1768 90.3281L38.5589 91.1132L37.4261 91.3522C37.3918 91.3522 37.3575 91.3522 37.3232 91.318L37.2545 91.2156C37.2202 91.1815 37.2545 91.1815 37.2545 91.1474H37.2888L38.3873 90.9425L39.0052 90.1232Z" fill="#ECEAE1"/>
<path d="M39.967 94.8C39.9326 94.8341 39.8983 94.8341 39.864 94.8L39.7953 94.7317C39.761 94.6976 39.761 94.6634 39.7953 94.6293L40.6192 93.9807C40.7908 93.8441 41.0654 93.6393 41.0654 93.6393L39.3834 94.1172C39.3491 94.1172 39.3148 94.1172 39.2804 94.0831L39.2118 93.9807C39.1775 93.9466 39.1775 93.9124 39.2118 93.8783L40.7908 92.6152C40.8251 92.5811 40.8594 92.5811 40.8938 92.6152L40.9624 92.6835C40.9968 92.7176 40.9968 92.7518 40.9624 92.7859L40.1386 93.4686C39.9326 93.6393 39.7267 93.7759 39.7267 93.7759L41.4087 93.2979C41.443 93.2979 41.4773 93.298 41.5116 93.3321L41.5803 93.4345C41.6146 93.4686 41.6146 93.5028 41.5803 93.5369L39.967 94.8Z" fill="#ECEAE1"/>
<path d="M41.923 96.7458C41.8886 96.7799 41.8543 96.7799 41.82 96.7458L41.7513 96.6775C41.717 96.6433 41.717 96.6092 41.7513 96.5751L43.0214 95.2437L42.6438 94.9023C42.6095 94.8682 42.6095 94.8341 42.6438 94.7999L42.7125 94.7317C42.7468 94.6975 42.7811 94.6975 42.8154 94.7317L43.7766 95.6192C43.8109 95.6534 43.8109 95.6875 43.7766 95.7216L43.7079 95.7899C43.6736 95.8241 43.6393 95.8241 43.605 95.7899L43.2274 95.4144L41.923 96.7458Z" fill="#ECEAE1"/>
<path d="M43.7084 98.2477L43.777 98.1795C43.8113 98.1453 43.8457 98.1453 43.88 98.1795C43.9486 98.2136 44.0516 98.2136 44.1889 98.0771C44.5665 97.6333 44.8411 97.2919 45.1844 96.8481C45.2187 96.814 45.2531 96.814 45.2874 96.8481L45.9396 97.326C45.9739 97.3602 45.9739 97.3943 45.9396 97.4285L44.7725 99.0329C44.7382 99.067 44.7038 99.067 44.6695 99.0329L44.5665 98.9646C44.5322 98.9305 44.5322 98.8964 44.5322 98.8622L45.5963 97.3943L45.2531 97.1212C44.9441 97.4967 44.5322 98.0088 44.3262 98.2477C44.1546 98.4526 43.9143 98.4867 43.7084 98.3502C43.674 98.316 43.674 98.2819 43.7084 98.2477Z" fill="#ECEAE1"/>
<path d="M48.0681 99.2036C48.1368 99.0671 48.1024 98.8623 47.9308 98.7598C47.7249 98.6574 47.5532 98.7257 47.4846 98.8623L46.9697 99.784C46.901 99.9205 46.9353 100.125 47.107 100.228C47.3129 100.33 47.4846 100.262 47.5532 100.125L48.0681 99.2036ZM47.7935 100.262C47.6562 100.501 47.3129 100.637 47.004 100.467C46.6607 100.296 46.5921 99.9205 46.7294 99.6816L47.2443 98.7598C47.3816 98.5209 47.6905 98.3843 48.0338 98.555C48.3771 98.7257 48.4457 99.0671 48.3084 99.3402L47.7935 100.262Z" fill="#ECEAE1"/>
<path d="M50.3678 99.9206L50.1275 100.535L50.4021 100.637C50.5394 100.672 50.6767 100.637 50.7111 100.501L50.7797 100.33C50.814 100.194 50.7797 100.057 50.6424 100.023L50.3678 99.9206ZM49.7499 101.457L50.0245 101.559C50.1618 101.627 50.3335 101.525 50.3678 101.423L50.4364 101.218C50.4708 101.115 50.4708 100.945 50.2648 100.876L49.9902 100.774L49.7499 101.457ZM50.7111 99.8182C50.9857 99.9206 51.0886 100.194 51.02 100.433L50.9513 100.603C50.8827 100.74 50.7797 100.842 50.6424 100.876C50.7111 101.013 50.7454 101.15 50.6767 101.32L50.6081 101.525C50.5051 101.798 50.1962 101.901 49.9215 101.798L49.4753 101.627C49.441 101.593 49.4066 101.559 49.441 101.559L50.1618 99.7158C50.1618 99.6816 50.1962 99.6816 50.2648 99.6816L50.7111 99.8182Z" fill="#ECEAE1"/>
<path d="M53.595 102.822C53.595 102.856 53.5607 102.89 53.5263 102.856L53.4233 102.822C53.389 102.822 53.3547 102.788 53.3547 102.754L53.595 101.764C53.6636 101.559 53.7323 101.252 53.7323 101.252L52.6682 102.617C52.6338 102.651 52.5995 102.651 52.5652 102.651L52.4622 102.617C52.4279 102.617 52.3936 102.583 52.3936 102.549L52.8741 100.637C52.8741 100.603 52.9085 100.569 52.9428 100.603L53.0458 100.637C53.0801 100.637 53.1144 100.672 53.1144 100.706L52.8398 101.73C52.7711 102.003 52.7025 102.208 52.7025 102.208L53.7323 100.842C53.7666 100.808 53.8009 100.808 53.8353 100.808L53.9382 100.842C53.9726 100.842 54.0069 100.876 54.0069 100.91L53.595 102.822Z" fill="#ECEAE1"/>
<path d="M56.2723 100.637C56.3066 100.637 56.341 100.672 56.341 100.706C56.341 100.774 56.341 100.876 56.444 100.876H56.5469C56.6499 100.876 56.6842 100.808 56.6842 100.74C56.6842 100.706 56.7186 100.706 56.7529 100.706H56.8902C56.9245 100.706 56.9245 100.74 56.9245 100.774C56.8902 100.945 56.7529 101.081 56.5126 101.047H56.444C56.2037 101.013 56.1007 100.842 56.135 100.672C56.135 100.637 56.1693 100.637 56.1693 100.637H56.2723ZM56.7872 103.334C56.7872 103.368 56.7529 103.403 56.7186 103.403H56.6156C56.5813 103.403 56.5469 103.368 56.5469 103.334L56.6842 102.31C56.7186 102.071 56.7529 101.764 56.7529 101.764L55.8947 103.232C55.8947 103.266 55.8604 103.3 55.7917 103.266H55.6888C55.6544 103.266 55.6201 103.232 55.6201 103.198L55.8604 101.218C55.8604 101.184 55.8947 101.15 55.9291 101.15H56.032C56.0664 101.15 56.1007 101.184 56.1007 101.218L55.9634 102.276C55.9291 102.549 55.8947 102.788 55.8947 102.788L56.7529 101.32C56.7529 101.286 56.7872 101.252 56.8559 101.286H56.9588C56.9932 101.286 57.0275 101.32 57.0275 101.354L56.7872 103.334Z" fill="#ECEAE1"/>
<path d="M62.4505 102.173L63.2744 103.129L63.3087 103.163C63.3087 103.198 63.3087 103.198 63.2744 103.198L63.1027 103.232C63.0684 103.232 63.0341 103.198 62.9998 103.198L62.1759 102.242L62.3132 103.266C62.3132 103.3 62.3132 103.334 62.2446 103.334H62.1416C62.1073 103.334 62.073 103.3 62.073 103.3L61.7983 101.32C61.7983 101.286 61.7983 101.252 61.867 101.252H61.97C62.0043 101.252 62.0386 101.286 62.0386 101.286L62.1759 102.208L62.6908 101.218C62.6908 101.184 62.7252 101.149 62.7595 101.149L62.9311 101.115C62.9654 101.115 62.9998 101.115 62.9998 101.149V101.184L62.4505 102.173Z" fill="#ECEAE1"/>
<path d="M65.7113 101.047C65.6769 100.91 65.5053 100.774 65.2993 100.842C65.0934 100.91 64.9904 101.081 65.059 101.218L65.3337 102.242C65.368 102.413 65.5396 102.515 65.7456 102.447C65.9515 102.378 66.0545 102.208 65.9859 102.071L65.7113 101.047ZM66.2605 102.003C66.3291 102.276 66.1918 102.583 65.8142 102.686C65.4366 102.788 65.162 102.583 65.0934 102.31L64.8188 101.286C64.7501 101.013 64.8874 100.706 65.265 100.603C65.6426 100.501 65.9172 100.706 65.9859 100.979L66.2605 102.003Z" fill="#ECEAE1"/>
<path d="M68.6295 100.74C68.6295 100.774 68.6295 100.808 68.5952 100.808L68.4579 100.842C68.4235 100.876 68.3892 100.842 68.3549 100.808L67.84 100.296C67.84 100.296 67.9773 100.603 68.1489 101.013L68.4579 101.73C68.4579 101.764 68.4579 101.798 68.4235 101.798L68.3206 101.832C68.2862 101.832 68.2519 101.832 68.2176 101.798L67.4624 99.9547C67.4624 99.9205 67.4624 99.8864 67.4967 99.8864L67.634 99.8181C67.6684 99.8181 67.7027 99.8181 67.737 99.8523L68.3892 100.535L68.3549 99.5792C68.3549 99.545 68.3549 99.5109 68.3892 99.5109L68.5265 99.4426C68.5608 99.4085 68.5952 99.4426 68.6295 99.4767L69.3847 101.32C69.3847 101.354 69.3847 101.388 69.3504 101.388L69.2474 101.423C69.213 101.423 69.1787 101.423 69.1444 101.388L68.8355 100.672C68.6638 100.228 68.5608 99.9547 68.5608 99.9547L68.6295 100.74Z" fill="#ECEAE1"/>
<path d="M72.2686 99.9548C72.2686 99.9889 72.2686 100.023 72.2342 100.057L72.1313 100.125C72.0969 100.16 72.0626 100.125 72.0283 100.091L71.1358 98.521L70.5522 98.8283L71.4447 100.399C71.4447 100.433 71.4447 100.467 71.4104 100.501L71.3074 100.569C71.2731 100.603 71.2388 100.569 71.2044 100.535L70.209 98.7941C70.209 98.76 70.209 98.7259 70.2433 98.6917L71.1358 98.1797C71.1701 98.1455 71.2044 98.1797 71.2388 98.2138L72.2686 99.9548Z" fill="#ECEAE1"/>
<path d="M73.8474 98.9307L73.7787 98.8624C73.7444 98.8282 73.7787 98.7941 73.7787 98.76C73.8474 98.6917 73.8817 98.5893 73.7787 98.4527C73.4698 97.9748 73.1952 97.5993 72.8862 97.1555C72.8862 97.1214 72.8862 97.0872 72.9206 97.0531L73.5728 96.5752C73.6071 96.541 73.6414 96.5752 73.6757 96.6093L74.8772 98.1796C74.9115 98.2138 74.8772 98.2479 74.8428 98.282L74.7399 98.3503C74.7055 98.3845 74.6712 98.3845 74.6369 98.3503L73.5384 96.9166L73.1952 97.1896C73.4698 97.5993 73.8474 98.1455 74.019 98.4186C74.1563 98.6576 74.122 98.8624 73.916 98.9989C73.916 98.9989 73.8817 98.9989 73.8474 98.9307Z" fill="#ECEAE1"/>
<path d="M76.6274 96.814C76.5931 96.8481 76.5588 96.8481 76.5244 96.814L75.1171 95.3802C75.0827 95.346 75.0827 95.3119 75.1171 95.2778L75.7693 94.6633C75.8036 94.6292 75.8379 94.6292 75.8722 94.6633L75.9409 94.7316C75.9752 94.7657 75.9752 94.7998 75.9409 94.834L75.426 95.346L75.8722 95.824L76.3528 95.3802C76.3871 95.346 76.4215 95.346 76.4558 95.3802L76.5244 95.4485C76.5588 95.4826 76.5588 95.5167 76.5244 95.5509L76.0439 95.9947L76.5931 96.5409L77.1423 96.0288C77.1766 95.9947 77.211 95.9947 77.2453 96.0288L77.314 96.0971C77.3483 96.1312 77.3483 96.1653 77.314 96.1995L76.6274 96.814Z" fill="#ECEAE1"/>
<path d="M78.2412 93.5028L79.5113 93.6393C79.5456 93.6393 79.5456 93.6393 79.5456 93.6393C79.5456 93.6393 79.5456 93.6734 79.5456 93.7076L79.4427 93.8441C79.4083 93.8783 79.374 93.8783 79.3397 93.8783L78.1039 93.7417L78.9278 94.3903C78.9621 94.4245 78.9621 94.4586 78.9278 94.4927L78.8591 94.5952C78.8248 94.6293 78.7905 94.6293 78.7561 94.5952L77.1771 93.3321C77.1428 93.2979 77.1428 93.2638 77.1771 93.2297L77.2458 93.1273C77.2801 93.0931 77.3144 93.0931 77.3487 93.1273L78.0696 93.7076L77.7607 92.6493C77.7607 92.6152 77.7263 92.5811 77.7607 92.5469L77.8636 92.4104C77.898 92.3762 77.898 92.3762 77.9323 92.4104C77.9323 92.4104 77.9323 92.4445 77.9666 92.4445L78.2412 93.5028Z" fill="#ECEAE1"/>
<path d="M81.0562 91.5912C80.8846 91.8643 80.5413 91.9667 80.2667 91.796L79.3399 91.2498C79.0653 91.0791 78.9966 90.7378 79.1683 90.4647C79.3742 90.1574 79.7518 90.1574 79.8891 90.2257C79.9235 90.2257 79.9235 90.294 79.8891 90.3281L79.8205 90.4305C79.7862 90.4647 79.7518 90.4647 79.7175 90.4647C79.6145 90.4305 79.4086 90.4305 79.3399 90.6012C79.2369 90.7719 79.2713 90.9426 79.4429 91.045L80.3697 91.5912C80.507 91.6936 80.713 91.6253 80.816 91.4888C80.9189 91.3522 80.8846 91.1474 80.713 91.045C80.6786 91.045 80.6786 90.9767 80.713 90.9426L80.7816 90.8402C80.8159 90.806 80.8503 90.806 80.8846 90.806C81.1249 90.9767 81.2279 91.3181 81.0562 91.5912Z" fill="#ECEAE1"/>
<path d="M54.1778 31.0314C54.3151 30.9631 54.4181 30.8949 54.5554 30.8266C54.6584 30.7583 54.7957 30.5876 54.7957 30.5876C54.7957 30.5876 54.5897 30.5535 54.4867 30.4852C54.1092 30.3145 53.8345 29.9049 53.9032 29.4952C54.0062 28.7783 54.7614 28.6759 55.3449 28.8807C56.4777 29.3245 57.2672 30.5193 57.5418 31.6459C57.5761 31.7824 57.6104 32.0214 57.6448 32.1921H57.1299V32.8407H59.1551C59.0865 33.66 58.5716 34.5475 57.3702 34.5475C57.7477 35.1279 58.297 35.5375 58.9148 35.7765C59.0178 36.5616 59.3611 37.2785 59.9103 37.8247C60.4595 37.2785 60.8028 36.5958 60.9058 35.7765C61.558 35.5375 62.0729 35.1279 62.4505 34.5475C61.249 34.5475 60.7341 33.66 60.6655 32.8407H62.6908V32.1921H62.1759C62.2102 32.0214 62.2445 31.7824 62.2788 31.6459C62.5878 30.5193 63.343 29.3245 64.5101 28.8807C65.0936 28.6759 65.8488 28.7783 65.9518 29.4952C65.9861 29.9049 65.7458 30.3145 65.3682 30.4852C65.2652 30.5193 65.1623 30.5876 65.0593 30.5876C65.0593 30.5876 65.2652 30.7242 65.3339 30.7924C65.4369 30.8607 65.5742 30.9631 65.7115 30.9973C66.7756 31.4752 67.9084 30.9973 68.5262 30.0756C69.5217 28.6077 68.6979 26.6618 67.0845 26.0474C65.7458 25.5353 64.2011 26.0815 63.3086 27.1056C62.3132 28.2321 61.7983 29.6659 61.5923 31.0997C61.558 31.3728 61.5237 31.8848 61.4893 32.1921H60.7341C60.7341 32.0897 60.7341 31.9531 60.7341 31.8507C60.7685 30.8949 60.9744 29.939 61.2834 29.0173C61.6266 28.0273 62.0386 27.0715 62.3818 26.0815C62.7594 25.0574 62.9654 23.9308 62.9654 22.8384C62.9654 19.6637 60.0133 16.8985 59.979 16.9327C59.9103 16.9668 56.9582 19.6978 56.9582 22.9067C56.9582 23.9991 57.1642 25.1256 57.5418 26.1498C57.8851 27.1739 58.3313 28.0956 58.6402 29.0856C58.9492 30.0073 59.1895 30.929 59.1895 31.919C59.1895 32.0214 59.1895 32.1579 59.1895 32.2603H58.4343C58.4 31.9531 58.3656 31.4752 58.3313 31.168C58.1253 29.7342 57.6104 28.2663 56.615 27.1739C55.6882 26.1498 54.1778 25.6036 52.8391 26.1156C51.2257 26.7301 50.4019 28.6759 51.3974 30.1438C51.9809 31.0314 53.1137 31.5093 54.1778 31.0314Z" fill="#ECEAE1"/>
</g>
</svg>
