<svg width="201" height="76" viewBox="0 0 201 76" fill="none" xmlns="http://www.w3.org/2000/svg">
<path d="M129.117 21.3592V19.1528H128.292V21.372H129.111L129.117 21.3592Z" fill="#656E75"/>
<path d="M131.937 19.1547C131.937 19.9386 131.937 20.5986 131.937 21.3825H132.067H132.767V21.3398V19.144C132.443 19.1675 132.187 19.1376 131.937 19.1547Z" fill="#656E75"/>
<path d="M134.582 28.5378V26.4019H134.388C134.205 26.4019 133.748 26.4019 133.748 26.4019V28.6211H134.567L134.582 28.5378Z" fill="#656E75"/>
<path d="M130.158 21.3761H130.932V21.3334C130.932 20.5453 130.932 19.9045 130.932 19.1548H130.122C130.122 19.9493 130.122 20.5901 130.122 21.3783L130.158 21.3761Z" fill="#656E75"/>
<path d="M129.145 15.4917H128.317V17.7066H129.145V15.4917Z" fill="#656E75"/>
<path d="M130.95 17.7066C130.95 16.9313 130.95 16.2713 130.95 15.4917H130.084V17.7066H130.95Z" fill="#656E75"/>
<path d="M136.378 26.4189H135.604V28.5869H136.378V26.4189Z" fill="#656E75"/>
<path d="M132.769 17.7066V15.4917H131.926V17.7066H132.769Z" fill="#656E75"/>
<path d="M76.7701 59.9421C76.5311 59.7883 76.1223 59.7114 75.5435 59.7114H74.0503V61.6337H75.4795C75.8009 61.6448 76.1226 61.6226 76.4394 61.5675C76.6292 61.5199 76.7988 61.4129 76.9236 61.2621C77.0649 61.1003 77.1409 60.8917 77.137 60.6769C77.1466 60.5328 77.1177 60.3887 77.0532 60.2596C76.9887 60.1304 76.891 60.0208 76.7701 59.9421Z" fill="#656E75"/>
<path d="M116.705 59.9442C116.466 59.789 116.057 59.7114 115.478 59.7114H113.985V61.6337H115.412C115.734 61.6454 116.057 61.6232 116.374 61.5675C116.561 61.5166 116.727 61.4101 116.852 61.2621C116.994 61.1009 117.07 60.8919 117.065 60.6769C117.075 60.5338 117.047 60.3906 116.983 60.262C116.92 60.1333 116.824 60.0237 116.705 59.9442Z" fill="#656E75"/>
<path d="M62.5737 25.1416V34.5204C64.581 34.734 65.2423 34.3282 65.3468 32.5746C65.4492 30.8218 65.4492 29.0645 65.3468 27.3117C65.2103 25.4513 64.5213 24.9686 62.5737 25.1416Z" fill="#656E75"/>
<path d="M128.445 57.1207C128.308 57.2872 128.237 57.4988 128.247 57.7145C128.234 57.9338 128.301 58.1502 128.436 58.3233C128.56 58.4717 128.733 58.5709 128.923 58.6031C129.321 58.6509 129.723 58.6695 130.124 58.6586H131.21V56.8153H130.064C129.681 56.8073 129.298 56.8201 128.916 56.8537C128.732 56.8817 128.564 56.9767 128.445 57.1207Z" fill="#656E75"/>
<path d="M140.037 26.3848H139.218V28.604H140.037V26.3848Z" fill="#656E75"/>
<path d="M137.428 28.604H138.247V26.3848H137.428V26.3976V28.6018V28.604Z" fill="#656E75"/>
<path d="M39.8384 59.9421C39.5974 59.7883 39.1985 59.7114 38.6119 59.7114H37.1187V61.6337H38.5457C38.8678 61.6448 39.1902 61.6226 39.5078 61.5675C39.6974 61.5195 39.8669 61.4126 39.992 61.2621C40.1332 61.1003 40.2093 60.8917 40.2053 60.6769C40.215 60.5328 40.186 60.3887 40.1216 60.2596C40.0571 60.1304 39.9593 60.0208 39.8384 59.9421Z" fill="#656E75"/>
<path d="M154.704 56.7128C154.43 56.7023 154.157 56.7528 153.904 56.8606C153.651 56.9684 153.426 57.1309 153.243 57.3365C152.872 57.7508 152.687 58.3767 152.687 59.2139C152.687 60.0512 152.877 60.6756 153.258 61.0871C153.442 61.2877 153.665 61.4479 153.913 61.5575C154.162 61.6671 154.431 61.7236 154.702 61.7236C154.974 61.7236 155.243 61.6671 155.491 61.5575C155.74 61.4479 155.963 61.2877 156.146 61.0871C156.522 60.6599 156.71 60.027 156.71 59.1883C156.71 58.3553 156.526 57.7316 156.161 57.3215C155.978 57.1189 155.753 56.9593 155.501 56.8541C155.249 56.7489 154.977 56.7006 154.704 56.7128Z" fill="#656E75"/>
<path d="M168.22 56.7127C167.946 56.7024 167.672 56.7529 167.42 56.8608C167.167 56.9686 166.941 57.131 166.759 57.3364C166.388 57.7508 166.204 58.3766 166.204 59.2139C166.204 60.0512 166.385 60.6599 166.774 61.0871C166.957 61.2873 167.18 61.4472 167.429 61.5566C167.677 61.6659 167.945 61.7224 168.217 61.7224C168.488 61.7224 168.757 61.6659 169.005 61.5566C169.253 61.4472 169.476 61.2873 169.66 61.0871C170.035 60.6599 170.223 60.027 170.223 59.1883C170.223 58.3552 170.042 57.7316 169.675 57.3215C169.492 57.119 169.267 56.9595 169.015 56.8543C168.764 56.7491 168.492 56.7007 168.22 56.7127Z" fill="#656E75"/>
<path d="M174.133 61.6363H176.895V56.8027H174.734C174.734 59.0141 174.534 60.6253 174.133 61.6363Z" fill="#656E75"/>
<path d="M119.953 29.375H119.042V31.7758H119.953V29.375Z" fill="#656E75"/>
<path d="M119.953 32.9937H119.042V35.3944H119.953V32.9937Z" fill="#656E75"/>
<path d="M0 0V76H201V0H0ZM176.819 22.6684C176.834 22.3139 176.876 21.9614 176.913 21.5364H186.379V45.9584H188.491V49.6898H172.529V45.9712C174.022 46.4219 174.144 45.2792 174.436 44.333C175.573 40.54 176.231 36.6192 176.394 32.6624C176.558 29.3325 176.676 26.0005 176.819 22.6684ZM165.925 21.5407C166.1 21.5407 166.351 21.955 166.407 22.2113C167.136 26.1863 167.836 30.1698 168.54 34.149C168.551 34.2253 168.578 34.2985 168.619 34.3634C168.661 34.4283 168.716 34.4834 168.781 34.5249C169.476 30.2146 170.174 25.9022 170.878 21.5535H174.756C174.41 23.3455 174.073 25.1076 173.732 26.8698C172.61 32.6794 171.505 38.4849 170.338 44.2839C170.121 45.2706 169.816 46.2357 169.425 47.1673C168.67 49.0512 167.26 49.9846 165.206 49.991C162.876 49.991 162.876 50.0252 162.879 47.744V46.2339C163.593 46.2339 164.231 46.3343 164.82 46.2019C165.302 46.0951 165.912 45.8238 166.138 45.4351C166.812 44.2732 167.226 43.0023 166.876 41.6118C165.262 35.1827 163.651 28.7536 162.042 22.3245C161.987 22.0981 161.955 21.8653 161.889 21.5086C163.275 21.5086 164.602 21.483 165.925 21.5407ZM154.081 25.2507L154.096 25.2678L154.081 25.2507H154.096V21.5727H160.671V25.2572H154.096V25.2742H154.081V32.7264C155.024 32.7969 155.901 32.8311 156.769 32.94C158.958 33.2049 160.481 34.3583 161.076 36.507C161.994 39.7592 161.911 43.2131 160.839 46.4176C160.148 48.5151 158.531 49.5852 156.407 49.7176C154.367 49.8436 152.315 49.7432 150.199 49.7432V25.2678H154.084L154.081 25.2507ZM150.174 21.5727H153.352V24.5267H150.174V21.5727ZM141.767 28.9758C143.853 30.0651 144.222 30.9301 143.774 33.5851L141.767 32.6474V28.9758ZM134.663 19.0694L135.493 18.9541C135.525 18.6401 135.557 18.3283 135.593 17.9652L136.404 17.8413C136.44 17.476 136.477 17.1321 136.517 16.7413H137.413C137.434 17.1108 137.454 17.4312 137.475 17.7964L138.352 17.9886C138.371 18.3005 138.386 18.591 138.405 18.9306L139.224 19.0716V24.5373H134.663V19.0694ZM123.185 31.682H124.789C124.789 33.929 124.789 36.1204 124.77 38.3033C124.77 38.5041 124.49 38.7006 124.343 38.8992L124.102 38.7476V34.6274C123.772 34.5761 123.494 34.5356 123.196 34.4928L123.185 31.682ZM115.879 35.3258L116.67 35.1827V23.0465L117.513 22.9653C117.588 23.3476 117.649 23.6744 117.711 24.0034L117.957 24.0909C118.466 22.9974 118.974 21.9016 119.529 20.7077C120.103 21.9166 120.617 22.9974 121.129 24.0781L121.363 24.0269C121.412 23.7022 121.461 23.3861 121.521 22.9696L122.468 22.9162C122.468 24.1358 122.468 25.2871 122.468 26.4383C122.453 29.027 122.451 31.62 122.396 34.2088C122.381 34.8987 122.468 35.375 123.36 35.2959C123.36 36.4579 123.379 37.5557 123.341 38.6515C123.321 38.7705 123.274 38.8835 123.204 38.9819C123.134 39.0803 123.043 39.1616 122.938 39.2196C120.591 40.2876 118.245 41.3213 115.881 42.3658L115.879 35.3258ZM113.095 40.3303H115.043C115.523 42.6413 115.241 43.2885 113.095 44.7046V40.3303ZM93.5769 46.3108C95.8337 45.7662 96.3137 45.2429 96.4396 42.8421C96.6785 38.3254 96.8712 33.8058 97.0176 29.2833C97.0966 26.7309 97.0304 24.1742 97.0304 21.5642H106.986V49.724H103.08V25.3554H100.399C100.399 27.0086 100.433 28.6319 100.399 30.2552C100.292 34.3924 100.209 38.5297 99.9912 42.6627C99.9136 44.1454 99.6403 45.6112 99.1785 47.0221C98.4298 49.2904 96.3414 50.4395 94.2168 49.9526C93.9758 49.897 93.6238 49.6001 93.611 49.3994C93.5449 48.3656 93.5769 47.3254 93.5769 46.3108ZM87.8366 21.5727C89.3212 30.9237 90.8144 40.3103 92.3162 49.7326H88.3485C88.02 47.1844 87.6958 44.6555 87.3652 42.0775H83.9649C83.6727 44.6149 83.3826 47.146 83.0882 49.724H79.3104C80.7545 40.3431 82.1944 30.9878 83.6449 21.5727H87.8366ZM71.6247 21.5727H74.7646V24.5416H71.6289L71.6247 21.5727ZM46.4685 21.5556H55.8052V25.2849H50.4958V33.0703H54.2822V36.7163H50.4958V45.9691H56.1913V49.7091H46.4727L46.4685 21.5556ZM33.4563 21.5556H44.427V25.2614H40.9052V49.7176H36.8394V25.317H33.4605L33.4563 21.5556ZM32.1081 53.7566H32.7886C32.773 54.1602 32.6035 54.5424 32.315 54.8246C32.0125 55.0731 31.6334 55.2089 31.2421 55.2089C30.8508 55.2089 30.4716 55.0731 30.1691 54.8246C29.8791 54.5434 29.7094 54.1606 29.6955 53.7566H30.3739C30.3826 53.9604 30.4716 54.1524 30.6213 54.2906C30.8 54.4233 31.0201 54.4877 31.2421 54.4721C31.4634 54.488 31.6829 54.4235 31.8607 54.2906C31.9349 54.2246 31.9953 54.1446 32.0385 54.0552C32.0817 53.9657 32.1068 53.8686 32.1124 53.7694L32.1081 53.7566ZM12.4832 21.4552H15.6829V24.4989H12.4832V21.4552ZM12.4832 25.3554H16.517V49.7432H12.4938L12.4832 25.3554ZM19.5226 62.8449H18.1744V57.1292L16.7324 62.8577H15.3203L13.8825 57.1292V62.8577H12.5194V55.5807H14.7187L16.037 60.5445L17.3403 55.5807H19.5375L19.5226 62.8449ZM19.706 21.5727H23.6438V32.9977H27.3853V21.5535H31.417V49.7304H27.3981V36.8039H23.7142V49.7005H19.706V21.5727ZM25.9519 62.8641L25.3119 61.2109H22.413L21.8136 62.8641H20.2649L23.0956 55.5871H24.6464L27.556 62.8641H25.9519ZM34.1261 62.8641H32.7523V58.1075L29.8129 62.8577H28.3474V55.5807H29.719V60.4249L32.6627 55.5807H34.1303L34.1261 62.8641ZM41.3425 61.9414C41.1279 62.2604 40.8256 62.5104 40.4722 62.6612C40.024 62.8089 39.5529 62.8748 39.0814 62.8556H35.6513V55.5807H41.0844V56.8024H37.1167V58.4898H39.0792C39.5368 58.4767 39.993 58.5439 40.4274 58.6884C40.8015 58.8318 41.1215 59.0887 41.3425 59.4232C41.5909 59.7964 41.7234 60.2349 41.7234 60.6834C41.7234 61.1319 41.5909 61.5703 41.3425 61.9436V61.9414ZM45.788 61.1084C45.5849 61.6022 45.3096 62.0629 44.971 62.4754C44.8384 62.6271 44.6741 62.7478 44.4898 62.829C44.3055 62.9102 44.1057 62.9499 43.9044 62.9453C43.5632 62.953 43.2221 62.9243 42.8869 62.8599V61.7706C43.1002 61.7834 43.2837 61.7898 43.4522 61.7898C43.7101 61.8131 43.9682 61.7475 44.1839 61.604C44.39 61.3764 44.5366 61.1012 44.6105 60.803L41.9377 55.5807H43.578L45.2739 59.3591L46.7159 55.5807H48.2475L45.788 61.1084ZM54.2352 56.8152H52.0829V62.8599H50.6153V56.8152H48.4608V55.5828H54.2352V56.8152ZM60.9952 62.8599H59.5276V59.6774H56.6542V62.8599H55.1866V55.5807H56.6542V58.4449H59.5276V55.5807H60.9952V62.8599ZM67.544 62.3579C66.9713 62.7942 66.264 63.0157 65.5452 62.9838C64.7076 62.9838 64.0456 62.7851 63.5592 62.3878C63.102 62.0255 62.7451 61.552 62.5225 61.0123C62.3062 60.4542 62.1997 59.8595 62.209 59.2609C62.209 58.1217 62.5083 57.2033 63.107 56.5055C63.7057 55.8078 64.5284 55.4589 65.5751 55.4589C66.2791 55.427 66.9738 55.6299 67.5504 56.0356C68.0574 56.4186 68.4101 56.9712 68.5444 57.5927L67.0917 57.9259C67.0036 57.5729 66.7973 57.2608 66.5072 57.0416C66.2254 56.8346 65.884 56.7252 65.5345 56.7298C65.3013 56.7192 65.0687 56.7622 64.8546 56.8555C64.6405 56.9488 64.4506 57.0899 64.2994 57.2681C63.986 57.6528 63.7983 58.1249 63.7619 58.6201H66.0401V59.8418H63.7619C63.8429 60.4926 64.0371 60.9717 64.3442 61.2793C64.4876 61.4275 64.6599 61.5448 64.8503 61.6237C65.0407 61.7027 65.2453 61.7418 65.4513 61.7385C65.8572 61.7525 66.2529 61.6094 66.5563 61.3391C66.8661 61.0324 67.0561 60.6248 67.0917 60.19L68.5636 60.6449C68.4282 61.3148 68.0685 61.9184 67.544 62.3558V62.3579ZM69.0094 35.266C68.2458 37.4019 66.5883 38.4186 64.3506 38.5105C63.7896 38.534 63.2265 38.5105 62.5524 38.5105V49.7176H58.4994V21.5385C60.6155 21.5385 62.6718 21.4317 64.7111 21.5663C66.7931 21.7051 68.2671 22.8991 68.9774 24.8599C70.2303 28.2125 70.2417 31.9037 69.0094 35.2639V35.266ZM71.5692 25.2678H75.5518V25.2529H75.5667V21.5727H81.5246V25.255H75.5625V25.27H75.5475C75.5603 28.0317 75.5795 30.7934 75.5816 33.5573C75.5816 38.9142 75.5816 44.271 75.5816 49.7048H71.5649L71.5692 25.2678ZM78.2737 61.9414C78.059 62.2604 77.7568 62.5104 77.4034 62.6612C76.9558 62.8088 76.4855 62.8746 76.0147 62.8556H72.5846V55.5807H78.0156V56.8024H74.05V58.4898H76.0147C76.4722 58.4768 76.9284 58.5441 77.3628 58.6884C77.7357 58.833 78.0546 59.0897 78.2758 59.4232C78.5242 59.7964 78.6567 60.2349 78.6567 60.6834C78.6567 61.1319 78.5242 61.5703 78.2758 61.9436L78.2737 61.9414ZM81.9 62.4754C81.7674 62.6271 81.6032 62.7478 81.4189 62.829C81.2346 62.9102 81.0347 62.9499 80.8335 62.9453C80.4922 62.953 80.1511 62.9243 79.8159 62.8599V61.7706C80.0293 61.7834 80.2127 61.7898 80.3812 61.7898C80.6391 61.8131 80.8973 61.7475 81.1129 61.604C81.319 61.3764 81.4656 61.1012 81.5395 60.803L78.8667 55.5807H80.5071L82.2029 59.3591L83.6513 55.5807H85.1829L82.7277 61.1106C82.5253 61.6042 82.2507 62.0649 81.9128 62.4775L81.9 62.4754ZM91.64 64.4426H90.4198V62.8556H85.8485V64.4426H84.6283V61.636H85.2427C85.5607 60.9525 85.7619 60.2204 85.8378 59.4702C85.9438 58.4342 85.9916 57.3931 85.9807 56.3517V55.5807H91.0022V61.636H91.6421L91.64 64.4426ZM95.8721 61.1084C95.6691 61.6022 95.3937 62.0629 95.0551 62.4754C94.9225 62.6271 94.7583 62.7478 94.574 62.829C94.3897 62.9102 94.1899 62.9499 93.9886 62.9453C93.6473 62.953 93.3063 62.9243 92.9711 62.8599V61.7706C93.1844 61.7834 93.3678 61.7898 93.5363 61.7898C93.7943 61.8131 94.0524 61.7475 94.268 61.604C94.4749 61.3769 94.6216 61.1015 94.6946 60.803L92.0239 55.5807H93.6451L95.3516 59.3591L96.7979 55.5807H98.3381L95.8721 61.1084ZM104.098 62.3558C103.526 62.7922 102.819 63.0137 102.101 62.9816C101.26 62.9816 100.598 62.783 100.115 62.3857C99.6569 62.0237 99.2993 61.5501 99.0761 61.0102C98.8616 60.4516 98.7559 59.8571 98.7647 59.2587C98.7647 58.1196 99.0633 57.2011 99.6606 56.5034C100.26 55.8071 101.081 55.4568 102.131 55.4568C102.834 55.4249 103.528 55.6277 104.104 56.0335C104.612 56.4158 104.965 56.9687 105.098 57.5906L103.647 57.9238C103.559 57.5703 103.352 57.258 103.061 57.0395C102.78 56.8329 102.439 56.7235 102.09 56.7277C101.857 56.717 101.624 56.76 101.409 56.8533C101.195 56.9466 101.005 57.0877 100.853 57.2659C100.54 57.6512 100.353 58.1229 100.315 58.618H102.604V59.8397H100.315C100.399 60.4904 100.593 60.9696 100.898 61.2772C101.041 61.4252 101.214 61.5423 101.404 61.6212C101.594 61.7002 101.799 61.7394 102.005 61.7364C102.411 61.7504 102.808 61.6074 103.112 61.337C103.422 61.0303 103.612 60.6226 103.647 60.1879L105.119 60.6428C104.984 61.3137 104.623 61.918 104.098 62.3558ZM111.542 56.8152H109.392V62.8599H107.924V56.8152H105.768V55.5828H111.542V56.8152ZM118.204 61.9671C117.994 62.2806 117.698 62.5262 117.351 62.674C116.9 62.8167 116.428 62.8796 115.956 62.8599H112.519V55.5807H113.987V58.4898H115.949C116.873 58.4898 117.545 58.7034 117.959 59.1306C118.16 59.3363 118.319 59.5801 118.426 59.8477C118.533 60.1154 118.586 60.4016 118.582 60.6898C118.597 61.1445 118.464 61.5919 118.204 61.9649V61.9671ZM124.516 62.4049C123.861 62.8456 123.074 63.0454 122.288 62.9703C121.502 62.8951 120.767 62.5496 120.207 61.9927C119.584 61.332 119.273 60.4299 119.275 59.2865C119.275 58.0747 119.587 57.1342 120.211 56.465C120.526 56.1308 120.909 55.8681 121.334 55.6945C121.759 55.521 122.217 55.4407 122.675 55.4589C123.473 55.4246 124.252 55.7088 124.84 56.2492C125.205 56.62 125.462 57.0828 125.585 57.5884L124.132 57.9366C124.067 57.5824 123.876 57.2637 123.594 57.0392C123.313 56.8148 122.96 56.6996 122.6 56.7149C122.352 56.7074 122.106 56.7558 121.879 56.8563C121.652 56.9568 121.45 57.107 121.289 57.2958C120.953 57.6831 120.786 58.3104 120.787 59.1776C120.787 60.096 120.952 60.751 121.282 61.1426C121.437 61.331 121.633 61.4816 121.855 61.583C122.076 61.6844 122.318 61.7339 122.562 61.7278C122.932 61.735 123.292 61.6023 123.569 61.3562C123.887 61.0377 124.098 60.6278 124.173 60.1836L125.595 60.6364C125.442 61.3292 125.062 61.9509 124.516 62.4028V62.4049ZM132.682 62.8577H131.21V59.8205H130.913C130.45 59.8205 130.124 59.8888 129.934 60.0341C129.744 60.1793 129.42 60.5894 128.959 61.2814L127.893 62.8641H126.137L127.025 61.4438C127.271 61.0269 127.551 60.6311 127.863 60.2605C128.091 60.0187 128.355 59.8134 128.646 59.6517C127.97 59.5471 127.479 59.31 127.178 58.9447C126.877 58.5755 126.717 58.1102 126.728 57.6333C126.72 57.2157 126.837 56.8052 127.063 56.4543C127.266 56.1272 127.578 55.8828 127.944 55.7644C128.479 55.6264 129.03 55.5667 129.582 55.5871H132.682V62.8577ZM141.967 62.4028C141.312 62.8435 140.525 63.0433 139.739 62.9681C138.954 62.893 138.218 62.5475 137.658 61.9906C137.037 61.3299 136.726 60.4278 136.726 59.2844C136.726 58.0726 137.038 57.1321 137.663 56.4628C137.978 56.1286 138.361 55.8659 138.786 55.6924C139.211 55.5189 139.668 55.4385 140.126 55.4568C140.924 55.4224 141.703 55.7067 142.292 56.2471C142.656 56.6179 142.913 57.0807 143.036 57.5863L141.583 57.9345C141.518 57.5802 141.327 57.2616 141.045 57.0371C140.764 56.8126 140.411 56.6974 140.052 56.7127C139.804 56.705 139.557 56.7532 139.331 56.8538C139.104 56.9543 138.903 57.1047 138.742 57.2937C138.405 57.6803 138.239 58.3082 138.239 59.1754C138.239 60.0939 138.404 60.7489 138.733 61.1405C138.888 61.3289 139.084 61.4795 139.306 61.5809C139.528 61.6823 139.77 61.7318 140.013 61.7257C140.384 61.7329 140.743 61.6002 141.02 61.3541C141.339 61.0362 141.55 60.626 141.624 60.1814L143.047 60.6343C142.893 61.3284 142.511 61.951 141.963 62.4028H141.967ZM141.795 39.0146C141.822 39.0886 141.869 39.1544 141.929 39.2059C141.989 39.2574 142.061 39.2929 142.138 39.3093C142.669 39.3435 143.205 39.3243 143.8 39.3243V49.7539H113.057C113.057 48.5194 113.018 47.3062 113.084 46.0994C113.099 45.8089 113.411 45.4885 113.66 45.2621C116.7 42.5153 120.327 40.8472 124.181 39.6147C125.474 39.2004 125.476 39.2089 125.476 37.8142C125.476 30.2815 125.476 22.7482 125.476 15.2141V14.3597L126.372 14.1461C126.4 13.8364 126.427 13.5182 126.461 13.1316H132.786C132.814 13.4776 132.837 13.7937 132.867 14.1739L133.721 14.3042V25.3725H140.852V32.6794C139.497 32.893 138.537 33.6641 138.183 35.1229C138.317 34.9841 138.463 34.8559 138.584 34.7086C139.072 34.0996 139.758 33.6818 140.522 33.5283C141.287 33.3748 142.081 33.4955 142.765 33.8691C143.599 34.3284 144.135 35.0012 144.16 36.0051C144.186 37.041 143.67 37.7544 142.808 38.2478C142.552 38.393 142.245 38.4507 141.997 38.6045C141.933 38.6522 141.882 38.7141 141.846 38.7852C141.81 38.8564 141.791 38.9349 141.79 39.0146H141.795ZM150.031 61.9649C149.82 62.2783 149.524 62.5239 149.177 62.6719C148.727 62.8146 148.255 62.8775 147.782 62.8577H144.339V55.5807H145.807V58.4898H147.769C148.695 58.4898 149.366 58.7034 149.781 59.1306C149.982 59.3365 150.141 59.5803 150.247 59.8479C150.354 60.1156 150.406 60.4017 150.402 60.6898C150.417 61.1442 150.285 61.5913 150.026 61.9649H150.031ZM157.27 61.9863C156.632 62.6513 155.779 62.983 154.711 62.9816C153.643 62.9802 152.784 62.6498 152.134 61.9906C151.497 61.3299 151.178 60.4207 151.178 59.263C151.158 58.6252 151.271 57.9903 151.509 57.3983C151.674 57.0285 151.903 56.6908 152.185 56.4009C152.451 56.1204 152.771 55.8973 153.126 55.7452C153.623 55.5444 154.156 55.4464 154.692 55.4568C155.762 55.4568 156.619 55.7893 157.262 56.4543C157.905 57.1193 158.226 58.0448 158.226 59.231C158.225 60.4043 157.905 61.3227 157.266 61.9863H157.27ZM164.37 56.8024H160.914V62.8577H159.446V55.5807H164.37V56.8024ZM170.788 61.9863C170.15 62.6513 169.296 62.983 168.228 62.9816C167.16 62.9802 166.302 62.6498 165.652 61.9906C165.013 61.3299 164.694 60.4207 164.694 59.263C164.675 58.6251 164.788 57.9901 165.027 57.3983C165.191 57.0281 165.42 56.6903 165.703 56.4009C165.968 56.121 166.287 55.8979 166.641 55.7452C167.139 55.5444 167.671 55.4464 168.207 55.4568C169.278 55.4568 170.135 55.7893 170.778 56.4543C171.42 57.1193 171.742 58.0448 171.742 59.231C171.74 60.4043 171.421 61.3227 170.784 61.9863H170.788ZM179.001 64.4447H177.776V62.8577H173.212V64.4447H171.991V61.636H172.606C172.924 60.9525 173.125 60.2204 173.201 59.4702C173.307 58.4342 173.355 57.3931 173.344 56.3517V55.5807H178.365V61.636H179.005L179.001 64.4447ZM185.797 62.8577H184.329V59.6752H181.456V62.8577H179.989V55.5807H181.456V58.4449H184.329V55.5807H185.797V62.8577ZM188.737 62.8577H187.269V55.5807H188.737V62.8577Z" fill="#656E75"/>
<path d="M157.213 44.1836C157.347 42.203 157.316 40.2148 157.121 38.2393C156.953 36.5306 155.961 35.9945 154.167 36.3533V46.2746C156.123 46.5331 157.079 45.9799 157.213 44.1836Z" fill="#656E75"/>
<path d="M182.384 25.3638H180.182C179.871 32.2991 179.884 39.2258 177.87 45.9561H182.384V25.3638Z" fill="#656E75"/>
<path d="M85.5051 26.1689C85.0955 30.3916 84.7052 34.4157 84.3105 38.4654H86.9258C86.4501 34.3559 85.9893 30.3532 85.5051 26.1689Z" fill="#656E75"/>
<path d="M127.328 21.3764V19.1572H126.496C126.496 19.9582 126.496 20.5755 126.496 21.3444V21.3807L127.328 21.3764Z" fill="#656E75"/>
<path d="M140.161 38.5849C136.384 38.5698 132.614 38.9355 128.91 39.6764C126.137 40.2509 123.437 41.0455 120.9 42.3292C120.613 42.4744 120.207 42.7905 120.165 43.0276C120.165 43.1494 120.205 43.3117 120.534 43.1686C123.8 41.6397 127.267 40.5819 130.83 40.0267C134.063 39.5285 137.329 39.2764 140.6 39.2727C140.668 39.2727 141.11 38.5828 140.161 38.5849Z" fill="#656E75"/>
<path d="M22.8652 59.9786H24.8469L23.8465 57.2788L22.8652 59.9786Z" fill="#656E75"/>
<path d="M148.527 59.9442C148.286 59.7883 147.887 59.7114 147.3 59.7114H145.807V61.6337H147.234C147.556 61.6454 147.879 61.6232 148.196 61.5675C148.383 61.5171 148.55 61.4105 148.674 61.2621C148.816 61.1009 148.892 60.8919 148.887 60.6769C148.897 60.5337 148.869 60.3905 148.806 60.2618C148.743 60.1331 148.646 60.0236 148.527 59.9442Z" fill="#656E75"/>
<path d="M127.33 17.7066V15.4917H126.496C126.496 16.2777 126.496 16.9377 126.496 17.7066C126.741 17.7024 127.33 17.7066 127.33 17.7066Z" fill="#656E75"/>
<path d="M119.042 28.1576H119.953V25.7568H119.042V28.1576Z" fill="#656E75"/>
<path d="M86.7783 61.6363H89.5407V56.8027H87.3799C87.3799 59.0141 87.1794 60.6253 86.7783 61.6363Z" fill="#656E75"/>
</svg>
