<svg width="164" height="88" viewBox="0 0 164 88" fill="none" xmlns="http://www.w3.org/2000/svg">
<path fill-rule="evenodd" clip-rule="evenodd" d="M83.0408 3.27753C82.3614 4.59411 81.5083 5.81578 80.439 6.77622C79.3408 7.78021 77.9463 8.45069 76.5049 8.44372C75.1206 8.41412 73.7031 8.4385 72.3792 7.92998C72.6432 8.41586 72.8917 8.91045 73.1403 9.40591C79.7409 9.40765 86.3415 9.40591 92.9429 9.40765C93.1906 8.90871 93.4392 8.40976 93.7066 7.92388C92.4874 8.50729 91.1321 8.51164 89.8269 8.47246C88.9151 8.4472 87.988 8.31137 87.1579 7.87425C85.325 6.96692 83.9679 5.19928 83.0408 3.27753ZM83.0425 0C84.013 2.38761 85.3428 4.73082 87.3835 6.16234C88.3268 6.86156 89.4796 7.15762 90.6093 7.10798C92.9957 7.0061 95.2901 5.82188 97.003 4.00461C96.012 6.16408 95.0449 8.33401 94.0616 10.4952H72.02C71.0375 8.33401 70.0721 6.1606 69.0785 4.00461C70.9089 5.94901 73.4136 7.17068 75.9745 7.10798C77.3248 7.08447 78.595 6.38961 79.6064 5.43961C81.1354 3.97152 82.2269 2.02973 83.0425 0ZM72.0183 11.3033H94.0633L93.6231 12.107C86.5705 12.1087 79.5179 12.107 72.4635 12.1105C72.3137 11.8405 72.1655 11.5723 72.0183 11.3033ZM79.7358 16.0898V19.5258H73.3302V16.2109C71.1984 16.2109 69.0675 16.2135 66.9357 16.2091C66.9382 21.2909 66.9297 26.3717 66.9442 31.4552C67.0225 35.9796 68.9159 40.2864 71.6326 43.6388C74.7409 47.4144 78.6673 50.4176 83.0408 52.1774C86.7237 50.6702 90.0559 48.2399 92.8944 45.2854C95.7524 42.2987 98.0774 38.5257 98.8462 34.2364C99.2463 32.2371 99.122 30.1813 99.1425 28.1515L99.1433 16.2109C97.049 16.2109 94.953 16.2083 92.8578 16.2091C92.8586 17.315 92.8552 18.4208 92.8561 19.5267H86.3432C86.3432 18.3817 86.3449 17.2366 86.3415 16.0898H79.7358ZM65.4049 14.532H74.8397C74.8405 15.7215 74.8371 16.911 74.8422 18.1004H78.3225V14.532H87.7573C87.7573 15.7215 87.7547 16.911 87.7598 18.1021C88.9194 18.1004 90.0798 18.1021 91.2402 18.1004V14.532H100.674V27.4306C100.649 29.8774 100.801 32.3599 100.276 34.7641C99.3187 39.6847 96.5237 43.9575 93.1234 47.2594C90.1436 50.1242 86.7254 52.4674 83.0391 54.0914C79.3484 52.4639 75.9251 50.1207 72.9428 47.2481C69.8252 44.217 67.226 40.3952 66.0792 35.9692C65.6338 34.26 65.4077 32.4987 65.4066 30.7299C65.4041 25.3312 65.4049 19.9307 65.4049 14.532Z" fill="#656E75"/>
<path fill-rule="evenodd" clip-rule="evenodd" d="M81.3189 18.0822C81.3206 19.0261 81.3146 19.9709 81.3172 20.9148C77.8752 20.9148 74.4331 20.913 70.9919 20.9148C70.9936 20.0092 70.9885 19.1062 70.9894 18.2024H68.6567C68.655 22.4909 68.6567 26.7793 68.655 31.0678C68.655 32.535 68.8508 34.004 69.2475 35.4085C70.3602 39.3731 72.9364 42.688 75.9417 45.2202C78.0982 47.034 80.4854 48.5421 83.0335 49.6375C86.4287 48.1459 89.5932 46.0126 92.2035 43.2488C95.2139 40.1472 97.3729 35.8857 97.4078 31.3491C97.4189 26.9274 97.4104 22.5039 97.4121 18.0822H95.1704C95.1704 19.0261 95.1662 19.9709 95.1679 20.9148C91.7327 20.9148 88.2983 20.9148 84.8622 20.913C84.8597 19.9691 84.8622 19.0252 84.8614 18.0787C83.6805 18.0822 82.4997 18.0822 81.3189 18.0822ZM80.3696 16.9546C82.183 16.9546 83.9972 16.9563 85.8115 16.9546V20.0083H94.0381C94.0364 18.9895 94.0381 17.9734 94.0381 16.9546C95.511 16.9563 96.9864 16.9546 98.4626 16.9546V30.3294C98.495 31.8567 98.3605 33.3892 98.002 34.8704C97.0247 39.0822 94.4647 42.6854 91.3998 45.4536C88.8968 47.701 86.0703 49.5548 83.0327 50.8627C78.7589 48.9853 74.8179 46.1423 71.7931 42.3928C69.3642 39.3522 67.7108 35.4921 67.6138 31.4596C67.595 26.6661 67.6112 21.8726 67.607 17.0782H72.0323C72.0323 18.0535 72.0306 19.0313 72.0323 20.0083H80.3705V16.9546H80.3696Z" fill="#656E75"/>
<path fill-rule="evenodd" clip-rule="evenodd" d="M77.1614 26.3042C77.1597 26.1475 77.1597 25.9907 77.1614 25.834H85.0612C85.0603 25.9907 85.0603 26.1475 85.0629 26.3042C84.5078 26.4653 83.9238 26.5898 83.4419 26.9529C83.029 27.2786 82.9507 27.8907 82.943 28.4123C82.9396 32.0407 82.943 35.6718 82.943 39.3011C82.9311 39.8479 83.0835 40.4897 83.5687 40.7361C84.1732 41.0348 84.8517 41.0348 85.5013 41.0531C86.4497 41.0557 87.4756 40.9103 88.2342 40.2171C88.9425 39.5554 89.4346 38.662 89.8943 37.7808H90.3864L89.8977 41.9813C85.652 41.9813 81.408 41.9795 77.1623 41.9813C77.1597 41.8211 77.1597 41.6626 77.1597 41.505C77.754 41.3239 78.4163 41.2046 78.8863 40.723C79.2345 40.2511 79.237 39.5972 79.2634 39.0172C79.2685 35.5281 79.266 32.0381 79.2643 28.5499C79.2532 27.9952 79.1945 27.3491 78.7807 26.9738C78.3082 26.5854 77.7165 26.4609 77.1614 26.3042ZM58.0596 44.7459C58.1805 43.0027 59.9419 41.687 61.5374 42.0379C62.2457 42.1572 62.8195 42.6474 63.3661 43.1054C62.8297 43.0541 62.2602 43.0027 61.7579 43.2552C60.9968 43.5704 60.5302 44.55 60.8001 45.3798C60.9235 45.7717 61.2462 46.0608 61.6089 46.1923C62.1852 46.4082 62.8067 46.3168 63.4052 46.3168C64.993 46.275 66.6063 46.3612 68.1371 46.8514C69.2558 47.2041 70.2978 47.7831 71.2811 48.4397C69.9713 47.9459 68.5871 47.6904 67.1912 47.6847C65.6545 47.6586 64.14 47.9773 62.616 48.1349C61.6651 48.2046 60.646 48.2098 59.7912 47.7013C58.7866 47.1318 57.9804 45.9963 58.0596 44.7459ZM101.236 43.0993C101.801 42.6396 102.393 42.138 103.123 42.0283C104.746 41.7009 106.52 43.1028 106.554 44.8809C106.55 46.4848 105.227 47.8136 103.791 48.0879C102.488 48.3004 101.182 48.0269 99.8892 47.8615C97.6978 47.535 95.4196 47.6247 93.3253 48.4397C94.4423 47.6908 95.6393 47.0517 96.9282 46.7182C98.5603 46.2724 100.258 46.2828 101.931 46.3325C102.539 46.3534 103.256 46.2628 103.645 45.702C104.176 44.9096 103.767 43.7228 102.975 43.3188C102.442 43.0097 101.818 43.0462 101.236 43.1002" fill="#656E75"/>
<path fill-rule="evenodd" clip-rule="evenodd" d="M51.4954 48.9905C51.0161 50.7869 51.8674 52.8489 53.2951 53.7039C54.453 54.3701 55.8228 54.4841 57.0684 54.1114C58.6655 53.5933 60.0634 52.5284 61.5465 51.7038C60.1009 52.2184 58.6263 52.6355 57.1254 52.861C55.7445 53.0578 54.2691 52.6111 53.2321 51.5227C52.4404 50.7007 52.1943 49.2657 52.6762 48.1677C52.8984 47.5634 53.3675 47.1602 53.7949 46.7553C52.7673 46.9913 51.7874 47.7915 51.4954 48.9905ZM53.0108 45.3499C54.0929 45.0103 55.375 45.2863 56.1481 46.2642C56.5354 46.7823 56.5261 47.5111 56.4196 48.1442C56.0578 47.7636 55.6406 47.2656 55.0992 47.3988C54.0375 47.6252 53.6161 49.3684 54.3636 50.234C55.1171 51.1039 56.2366 51.3529 57.2667 51.332C58.4425 51.3451 59.5654 50.8914 60.6688 50.4734C62.7171 49.661 64.7689 48.6405 66.9739 48.6239C69.5152 48.5012 72.2745 49.0106 74.2173 51.0473C71.8845 49.8648 69.1926 49.5208 66.7313 50.3628C64.8047 50.9811 63.1981 52.403 61.4469 53.4514C59.5943 54.6052 57.5937 55.6135 55.4567 55.6997C53.7285 55.7868 51.8827 55.0223 50.8475 53.3713C49.6241 51.5131 49.6862 48.7171 50.9743 46.9242C51.5116 46.2041 52.1977 45.585 53.0108 45.3499ZM110.793 46.7562C111.256 47.1785 111.747 47.6243 111.961 48.2852C112.395 49.3902 112.11 50.7913 111.314 51.5802C110.816 52.0765 110.214 52.4505 109.553 52.6737C108.893 52.897 108.191 52.9637 107.502 52.8689C105.988 52.646 104.502 52.2289 103.049 51.6994C104.288 52.383 105.45 53.2494 106.739 53.8128C108.174 54.4772 109.869 54.5355 111.268 53.724C112.822 52.8219 113.711 50.4586 112.96 48.59C112.582 47.5825 111.695 46.9799 110.793 46.7562ZM108.415 46.3251C109.23 45.2019 110.689 44.9729 111.846 45.437C113.45 46.151 114.583 48.0431 114.629 50.0171C114.697 51.696 114.016 53.3852 112.869 54.4232C111.931 55.2643 110.739 55.664 109.561 55.7014C108.152 55.7554 106.767 55.327 105.469 54.7332C103.451 53.8049 101.638 52.4126 99.7393 51.2214C96.8659 49.4773 93.3132 49.5147 90.3837 51.0612C92.301 49.0323 95.0313 48.5125 97.5487 48.6213C99.6882 48.6196 101.695 49.5704 103.68 50.375C104.872 50.8357 106.087 51.3529 107.364 51.3363C108.391 51.3564 109.508 51.0899 110.248 50.2105C110.996 49.3214 110.517 47.5425 109.424 47.3875C108.905 47.3047 108.526 47.788 108.176 48.145C108.093 47.5355 108.031 46.8258 108.415 46.3251" fill="#656E75"/>
<path fill-rule="evenodd" clip-rule="evenodd" d="M67.1975 50.6333C69.0679 49.8583 71.1044 49.9715 73.0336 50.3407C75.0053 50.7413 76.9277 51.5354 78.627 52.7832C76.032 51.5789 73.1545 51.3665 70.4097 51.8132C69.463 52.0343 68.4064 52.2007 67.6794 53.0131C67.1822 53.5529 67.4274 54.597 68.0284 54.8817C68.764 55.2492 69.5839 55.1447 70.362 55.1098C69.4996 56.0529 68.3188 56.618 67.1328 56.4978C66.29 56.4134 65.4012 55.9998 64.9363 55.1255C64.6545 54.6309 64.5958 53.9935 64.7448 53.4293C65.064 52.0657 66.0899 51.0809 67.1975 50.6342V50.6333ZM86.7106 52.7727C89.0944 51.033 91.8953 50.1579 94.6912 50.0577C96.1496 50.0299 97.6709 50.2214 98.9608 51.0809C99.8411 51.6773 100.592 52.7092 100.666 53.9369C100.738 54.8965 100.135 55.7359 99.4264 56.1191C97.9519 56.9463 96.1291 56.409 94.9781 55.1125C95.7895 55.1403 96.6646 55.2666 97.4164 54.8173C97.9698 54.4603 98.1179 53.4563 97.6165 52.9626C96.8928 52.2015 95.8771 52.0317 94.9568 51.8158C92.2027 51.3604 89.3157 51.5737 86.7106 52.7727ZM99.6529 60.9927C101.454 60.4302 103.392 60.3884 105.195 60.9613C105.97 61.1747 106.704 61.5944 107.508 61.6579C107.995 61.6841 108.413 61.3601 108.773 61.0284H109.286L109.287 66.2024C109.108 66.2024 108.931 66.2042 108.756 66.2059C108.009 64.0752 106.357 62.3572 104.375 61.8077C103.017 61.4385 101.494 61.5291 100.288 62.3868C99.2008 63.1556 98.4874 64.4444 98.0685 65.7862C97.4871 67.687 97.3815 69.7307 97.4607 71.7256C97.5603 73.6883 97.9655 75.7755 99.2008 77.2462C100.205 78.4679 101.735 78.9442 103.174 78.8684C103.898 78.8336 104.735 78.6986 105.215 78.0107C105.646 77.3516 105.468 76.4869 105.506 75.7267C105.461 74.8299 105.645 73.8659 105.276 73.0291C104.982 72.3726 104.342 72.0713 103.74 71.9163C103.74 71.7387 103.741 71.5637 103.744 71.3895H110.958L110.96 71.9181C110.47 72.0983 109.94 72.3169 109.645 72.8263C109.335 73.3731 109.294 74.0453 109.286 74.6775C109.286 75.9888 109.287 77.3002 109.284 78.6124C107.165 79.6643 104.817 79.9307 102.525 79.9273C100.575 79.922 98.593 79.3813 96.9592 78.1509C94.9594 76.6645 93.6185 74.1272 93.3733 71.4426C93.1894 69.3833 93.5087 67.229 94.4613 65.4431C95.6107 63.2906 97.5092 61.6666 99.6529 60.9935V60.9927ZM18.8192 61.4942C19.8264 61.0353 21.1392 61.779 21.283 63.0572C21.478 64.231 20.5832 65.3909 19.5625 65.3891C18.5877 65.4788 17.6197 64.5245 17.6367 63.3768C17.6111 62.5322 18.1475 61.772 18.8192 61.4942ZM63.6457 61.4942C64.6511 61.0371 65.9588 61.7755 66.1061 63.0494C66.3062 64.2249 65.4105 65.3917 64.3889 65.3883C63.4115 65.4814 62.4418 64.521 62.4614 63.3716C62.4401 62.5278 62.9748 61.7685 63.6465 61.4942H63.6457ZM79.3634 61.6771C80.9333 61.5761 82.4989 61.4011 84.0697 61.3584C84.0739 64.5915 84.0646 67.8238 84.0756 71.056C84.7184 69.9397 85.5587 68.8443 86.7421 68.4812C88.0081 68.1024 89.509 68.2382 90.5255 69.2535C91.3105 70.0215 91.6749 71.2084 91.6868 72.3587C91.6936 74.0322 91.6859 75.7058 91.6893 77.3794C91.6944 77.8679 91.7498 78.4104 92.069 78.7779C92.4019 79.1593 92.8821 79.2829 93.3239 79.4205C93.3222 79.5877 93.3222 79.7557 93.3239 79.9264H86.9388L86.9379 79.4214C87.6045 79.2228 88.4082 78.8519 88.501 77.9655C88.6261 76.6915 88.5248 75.4002 88.5572 74.1193C88.5274 73.0439 88.696 71.8554 88.1596 70.8958C87.7322 70.1365 86.823 69.9876 86.1019 70.1861C85.2352 70.4169 84.629 71.2136 84.0731 71.9407C84.0688 73.7519 84.0714 75.5648 84.0697 77.3777C84.0731 77.8671 84.1267 78.4165 84.4553 78.777C84.7984 79.1445 85.2727 79.2716 85.7154 79.417V79.9264H79.3634C79.3617 79.7993 79.3617 79.5459 79.3617 79.4205C79.7959 79.269 80.2701 79.1297 80.5817 78.7291C80.8907 78.3198 80.9358 77.7521 80.9393 77.2366C80.941 72.9873 80.9384 68.7363 80.9427 64.487C80.9384 63.9533 80.9707 63.3533 80.654 62.9136C80.328 62.4843 79.818 62.345 79.3617 62.1821L79.3634 61.6771ZM0.00255409 61.3584H8.77578L8.77833 61.9026C8.17472 62.0742 7.54642 62.2248 7.01602 62.6166C6.55459 62.9615 6.4371 63.645 6.42859 64.2345C6.43029 68.509 6.42348 72.7836 6.43284 77.0573C6.40901 77.7974 6.83979 78.528 7.49363 78.6525C8.69405 78.9442 9.97534 78.9625 11.1647 78.5872C12.6137 78.1022 13.431 76.4956 14.1504 75.0928C14.3317 75.0911 14.5139 75.0928 14.6953 75.0928C14.5139 76.7037 14.3326 78.3146 14.1529 79.9264H0.00255409C0.00255409 79.7427 0.000851356 79.5589 0 79.3778C0.650436 79.1784 1.35962 79.0365 1.8849 78.5193C2.2927 78.0099 2.30462 77.2601 2.33272 76.6079V64.3651C2.3208 63.7417 2.22544 63.0154 1.75124 62.628C1.23191 62.2178 0.601909 62.0707 0 61.9026C0.000851356 61.7198 0.000851374 61.5386 0.00255409 61.3584ZM23.5145 68.2583C25.1456 68.1233 26.7717 67.8899 28.4046 67.8168C28.4097 68.7224 28.4012 69.628 28.4097 70.5336C28.9614 69.5679 29.6749 68.6632 30.6352 68.2043C31.9752 67.5547 33.683 67.7001 34.7881 68.8295C35.4998 69.513 35.8685 70.5632 35.8804 71.6028C35.894 73.2843 35.8787 74.9683 35.8864 76.6506C35.8991 77.1121 35.9442 77.6241 36.2397 77.9794C36.5717 78.3495 37.0416 78.4775 37.4767 78.6272C37.4767 78.7491 37.4767 78.9956 37.475 79.1192H31.2107C31.2107 78.9956 31.2099 78.7509 31.2082 78.6281C31.8765 78.4679 32.681 78.1056 32.7712 77.2358C32.8726 75.9897 32.79 74.7323 32.8172 73.4802C32.7891 72.464 32.9534 71.3434 32.4341 70.4412C32.0595 69.7507 31.2839 69.4869 30.5994 69.6123C29.6323 69.7316 28.8507 70.5492 28.42 71.4844C28.3859 73.1092 28.4183 74.7358 28.4046 76.3624C28.4157 76.8866 28.408 77.4735 28.712 77.908C29.0185 78.3033 29.4867 78.4531 29.9098 78.6255L29.909 79.1192H23.7707C23.7664 78.9956 23.7613 78.7465 23.7579 78.6229C24.1921 78.4766 24.6604 78.3425 24.9916 77.9724C25.2963 77.6259 25.3474 77.1138 25.3466 76.6515V70.7434C25.3449 70.241 25.281 69.6741 24.926 69.3206C24.5344 68.9418 24.0031 68.8573 23.5145 68.7502V68.2583ZM78.3613 67.8177L78.7845 67.8185C78.8679 69.1787 78.9488 70.5405 79.0331 71.9015H78.5478C78.02 70.7634 77.3414 69.6332 76.3104 68.9906C75.1151 68.2435 73.4618 68.341 72.4402 69.3981C71.5973 70.2584 71.2398 71.5428 71.164 72.7775C71.0788 74.162 71.2168 75.651 71.9464 76.8248C72.9595 78.5489 75.1236 78.8519 76.7617 78.1892C77.5807 77.8287 78.209 77.1112 78.7845 76.399C78.9284 76.3998 79.217 76.4051 79.3617 76.4059C78.69 77.9149 77.464 79.1157 75.9903 79.5668C74.4247 80.0509 72.7186 80.0605 71.1657 79.511C69.6392 78.9529 68.2983 77.6267 67.8369 75.8939C67.4053 74.243 67.561 72.3648 68.4201 70.9106C69.3634 69.3128 70.952 68.226 72.6522 67.9343C74.1795 67.6365 75.7145 67.9744 77.2325 68.1694C77.6403 68.2513 78.0268 68.0562 78.3613 67.8177ZM16.1672 68.2583C17.8121 68.1216 19.4518 67.8917 21.1 67.8168C21.1009 70.8113 21.0983 73.805 21.1009 76.7995C21.0983 77.281 21.2328 77.7878 21.5725 78.11C21.8994 78.4426 22.3481 78.541 22.7704 78.6316L22.7797 79.1192H16.3043L16.3035 78.6255C16.7675 78.4931 17.2791 78.4026 17.6469 78.0299C17.9611 77.6676 17.9968 77.1295 18.0104 76.6532C18.0113 74.6853 18.0087 72.7174 18.0113 70.7504C18.0045 70.241 17.9602 69.6471 17.5788 69.3032C17.1667 68.9705 16.6508 68.8748 16.1655 68.752C16.1655 68.5865 16.1655 68.422 16.1672 68.2583ZM41.7037 69.2083C41.0354 69.9893 40.8336 71.1239 40.7714 72.1819H45.2027C45.1185 70.9994 44.7907 69.7177 43.924 68.9871C43.5994 68.719 43.1849 68.592 42.7696 68.6334C42.3544 68.6748 41.9716 68.8812 41.7037 69.2083ZM41.9437 67.937C43.5571 67.6226 45.3432 67.896 46.6586 69.0924C47.6964 69.9893 48.3161 71.4069 48.4941 72.8741C45.9196 72.8846 43.3451 72.8759 40.7706 72.8785C40.7314 74.0723 40.8634 75.3166 41.3989 76.3615C41.8765 77.3106 42.6521 78.1013 43.5954 78.3477C44.8281 78.6682 46.1733 78.231 47.1013 77.2453C47.4673 76.8927 47.7321 76.4286 48.0556 76.0315L48.4983 76.001C47.8002 77.9097 46.2474 79.3064 44.508 79.7427C43.1467 80.0762 41.6756 79.976 40.4071 79.2812C39.6902 78.874 39.0687 78.3119 38.5858 77.6342C38.1028 76.9565 37.7699 76.1793 37.6103 75.3567C37.3294 73.8685 37.4792 72.2394 38.1595 70.9193C38.97 69.3572 40.3883 68.2374 41.9437 67.937ZM60.5935 68.2652C62.3448 68.1477 64.0909 67.8865 65.8464 67.8168C65.8481 70.908 65.8464 74.0018 65.8464 77.0947C65.8379 77.6206 66.0116 78.1762 66.41 78.501C66.7506 78.7988 67.1873 78.8841 67.6045 78.9799L67.6036 79.4814H60.7579C60.7562 79.3108 60.7545 79.1401 60.7562 78.972C61.2789 78.8266 61.8799 78.7335 62.2571 78.2702C62.6027 77.7573 62.5678 77.0816 62.5755 76.4791C62.5687 74.5503 62.5806 72.619 62.5704 70.6885C62.5661 70.1112 62.4069 69.4233 61.8612 69.183C61.3606 68.9653 60.7783 68.6675 60.2522 68.9636C59.4306 69.3241 58.9445 70.1852 58.5367 70.989C57.1473 73.96 55.7885 76.9493 54.4076 79.9264C54.2024 79.9255 53.9972 79.9255 53.7921 79.9264C52.4273 77.0137 51.0643 74.101 49.697 71.1892C49.3574 70.5074 48.9989 69.8021 48.4387 69.3014C48.0412 68.9514 47.5252 68.8321 47.0289 68.7746L47.0306 68.2696C49.2867 68.2696 51.5428 68.2678 53.7989 68.2696V68.7642C53.4728 68.8904 53.0863 68.9827 52.8947 69.3302C52.6666 69.7342 52.7968 70.2349 52.9867 70.6232C53.8125 72.3517 54.6426 74.0775 55.4684 75.8042C56.1427 74.3701 56.8186 72.9368 57.4895 71.501C57.756 70.8827 58.0276 70.1391 57.7594 69.4695C57.5397 68.9645 56.9889 68.8469 56.5317 68.7685C56.5317 68.6013 56.5317 68.435 56.5334 68.2696C57.8854 68.2652 59.2407 68.2757 60.5935 68.2652ZM111.694 68.2583C113.355 68.1216 115.014 67.8925 116.679 67.8168C116.682 68.9949 116.675 70.1731 116.682 71.3521C117.268 70.0738 117.946 68.6841 119.174 68.0519C120.123 67.559 121.291 67.8865 121.982 68.7346C121.757 69.8352 121.523 70.935 121.301 72.0373C120.542 71.3277 119.658 70.4613 118.585 70.6581C117.842 70.7495 117.274 71.3494 116.827 71.9642C116.567 72.2533 116.714 72.6913 116.679 73.0509C116.718 74.4903 116.599 75.9401 116.746 77.3707C116.844 78.2746 117.769 78.4679 118.429 78.6246C118.426 78.7883 118.424 78.952 118.426 79.1192H111.859C111.857 78.9546 111.856 78.7901 111.856 78.6255C112.337 78.4688 112.872 78.3495 113.239 77.9376C113.554 77.551 113.573 76.9937 113.581 76.4991C113.58 74.6305 113.582 72.7618 113.58 70.8932C113.577 70.3359 113.485 69.7246 113.106 69.3215C112.73 68.9183 112.19 68.8208 111.694 68.7468V68.2591V68.2583ZM127.862 68.7241C127.228 68.8922 126.684 69.3615 126.338 69.9667C125.638 71.1892 125.512 72.6861 125.504 74.1002C125.509 75.5691 125.776 77.1626 126.73 78.2545C127.718 79.41 129.591 79.3952 130.543 78.1953C131.466 77.0512 131.671 75.4385 131.691 73.9574C131.688 72.4571 131.529 70.8209 130.638 69.621C129.983 68.7259 128.839 68.4481 127.863 68.7241H127.862ZM126.927 67.9727C128.551 67.6879 130.274 67.7602 131.81 68.4672C133.269 69.1517 134.53 70.4961 134.997 72.2063C135.431 73.8581 135.206 75.7502 134.267 77.1426C133.261 78.6734 131.632 79.5981 129.958 79.8271C128.058 80.0918 126.001 79.8672 124.375 78.6621C123.114 77.7434 122.161 76.2405 122.021 74.5477C121.799 72.6739 122.543 70.7539 123.816 69.5296C124.688 68.6876 125.795 68.1912 126.927 67.9727ZM135.945 68.2739C137.516 68.1311 139.082 67.8969 140.657 67.8168C140.658 70.409 140.658 73.003 140.657 75.5953C140.646 76.1909 140.646 76.8535 141.006 77.335C141.489 78.0055 142.331 78.1213 143.044 78.0003C144.006 77.8357 144.653 76.8857 145.134 76.0036C145.177 74.3335 145.136 72.6599 145.154 70.9881C145.146 70.5153 145.188 69.9919 144.927 69.5914C144.608 69.0733 144.036 68.9122 143.528 68.7755V68.2739C145.105 68.1311 146.676 67.8917 148.255 67.8185C148.259 70.8035 148.255 73.7893 148.259 76.7751C148.276 77.3019 148.279 77.9071 148.612 78.3216C148.965 78.696 149.455 78.811 149.906 78.9642C149.903 79.1323 149.902 79.3012 149.904 79.471C148.319 79.6216 146.735 79.7697 145.15 79.9212C145.149 78.9903 145.154 78.0604 145.149 77.1295C144.645 77.9115 144.077 78.6621 143.341 79.1697C142.123 80.0387 140.526 80.1554 139.2 79.5406C138.231 79.0879 137.583 77.9533 137.57 76.7673C137.542 74.6905 137.572 72.6112 137.556 70.5327C137.542 70.1112 137.464 69.6523 137.187 69.3467C136.848 68.9897 136.376 68.8965 135.944 68.7781V68.2731" fill="#656E75"/>
<mask id="mask0" style="mask-type:alpha" maskUnits="userSpaceOnUse" x="150" y="67" width="14" height="21">
<path d="M150.029 67.916H163.701V88H150.028L150.029 67.916Z" fill="white"/>
</mask>
<g mask="url(#mask0)">
<path fill-rule="evenodd" clip-rule="evenodd" d="M155.239 70.4351C155.105 70.6093 154.865 70.7521 154.889 71.0194C154.884 73.1649 154.886 75.3087 154.889 77.4534C155.395 77.9741 155.972 78.4391 156.642 78.622C157.488 78.8675 158.452 78.6733 159.104 77.9846C159.909 77.1574 160.269 75.9035 160.338 74.694C160.399 73.495 160.308 72.2402 159.827 71.1544C159.487 70.3881 158.904 69.7263 158.165 69.5086C157.133 69.1882 156.001 69.594 155.239 70.4351ZM150.037 68.3653C151.654 68.2277 153.266 67.9909 154.886 67.916C154.884 68.6248 154.89 69.3336 154.882 70.0433C155.548 69.2361 156.353 68.5482 157.285 68.2129C158.478 67.781 159.822 67.8037 160.966 68.4158C162.237 69.1142 163.191 70.5013 163.529 72.0687C163.972 74.1428 163.607 76.5391 162.255 78.0777C160.992 79.6181 158.994 80.1371 157.227 79.7034C156.349 79.4649 155.607 78.8353 154.886 78.2432C154.89 80.623 154.882 83.0019 154.889 85.3816C154.907 85.9128 154.96 86.5223 155.326 86.9002C155.731 87.2747 156.258 87.3879 156.748 87.5307C156.745 87.6857 156.745 87.8415 156.745 88H150.037C150.034 87.8346 150.034 87.6691 150.037 87.5037C150.559 87.3957 151.175 87.3069 151.52 86.7801C151.814 86.2324 151.825 85.561 151.848 84.9367C151.851 80.3513 151.848 75.7633 151.849 71.1779C151.832 70.6171 151.824 69.978 151.483 69.5356C151.089 69.1177 150.538 69.0114 150.037 68.8669V68.3653Z" fill="#656E75"/>
</g>
</svg>
