<svg width="170" height="92" viewBox="0 0 170 92" fill="none" xmlns="http://www.w3.org/2000/svg">
<path fill-rule="evenodd" clip-rule="evenodd" d="M86.2357 3.40363C85.5301 4.77087 84.6443 6.03954 83.5338 7.03694C82.3933 8.07955 80.9451 8.77583 79.4483 8.76859C78.0108 8.73785 76.5387 8.76317 75.1639 8.23508C75.438 8.73966 75.6962 9.25328 75.9543 9.7678C82.8089 9.76961 89.6634 9.7678 96.5188 9.76961C96.7761 9.25147 97.0342 8.73333 97.3118 8.22875C96.0458 8.83461 94.6383 8.83913 93.2829 8.79844C92.3361 8.77221 91.3733 8.63115 90.5112 8.17721C88.6078 7.23497 87.1985 5.39933 86.2357 3.40363ZM86.2374 0C87.2453 2.47948 88.6263 4.91284 90.7455 6.39944C91.7251 7.12556 92.9222 7.43301 94.0954 7.38146C96.5736 7.27566 98.9563 6.04587 100.735 4.15869C99.706 6.40125 98.7017 8.65466 97.6805 10.899H74.7908C73.7706 8.65466 72.768 6.39763 71.7362 4.15869C73.6371 6.17789 76.2381 7.44657 78.8975 7.38146C80.2997 7.35705 81.6188 6.63545 82.6692 5.6489C84.257 4.12432 85.3905 2.10783 86.2374 0ZM74.7891 11.7382H97.6823L97.2252 12.5728C89.9012 12.5746 82.5772 12.5728 75.2515 12.5764C75.0959 12.2961 74.942 12.0176 74.7891 11.7382ZM82.8036 16.7089V20.2771H76.1515V16.8346C73.9377 16.8346 71.7247 16.8373 69.5109 16.8328C69.5136 22.11 69.5047 27.3864 69.5198 32.6654C69.6011 37.364 71.5674 41.8364 74.3886 45.3178C77.6165 49.2387 81.694 52.3575 86.2357 54.185C90.0603 52.6197 93.5208 50.0959 96.4684 47.0278C99.4364 43.9262 101.851 40.008 102.649 35.5536C103.065 33.4775 102.936 31.3425 102.957 29.2347L102.958 16.8346C100.783 16.8346 98.6062 16.8319 96.4304 16.8328C96.4313 17.9812 96.4277 19.1296 96.4286 20.278H89.6651C89.6651 19.0889 89.6669 17.8998 89.6634 16.7089H82.8036ZM67.9213 15.0912H77.719C77.7199 16.3264 77.7164 17.5616 77.7217 18.7968H81.3359V15.0912H91.1337C91.1337 16.3264 91.131 17.5616 91.1363 18.7986C92.3405 18.7968 93.5455 18.7986 94.7506 18.7968V15.0912H104.547V28.486C104.522 31.0269 104.679 33.605 104.134 36.1016C103.14 41.2116 100.237 45.6488 96.7062 49.0777C93.6118 52.0527 90.0621 54.4861 86.2339 56.1725C82.4013 54.4825 78.8463 52.0491 75.7492 49.066C72.5116 45.9182 69.8124 41.9495 68.6215 37.3531C68.159 35.5781 67.9242 33.7491 67.9231 31.9122C67.9204 26.3058 67.9213 20.6976 67.9213 15.0912Z" fill="white"/>
<path fill-rule="evenodd" clip-rule="evenodd" d="M84.4479 18.7779C84.4496 19.7582 84.4434 20.7393 84.4461 21.7195C80.8716 21.7195 77.2972 21.7177 73.7236 21.7195C73.7254 20.7791 73.7201 19.8414 73.7209 18.9027H71.2985C71.2967 23.3562 71.2985 27.8097 71.2967 32.2632C71.2967 33.7868 71.5 35.3123 71.912 36.7709C73.0676 40.888 75.7429 44.3305 78.8638 46.9601C81.1033 48.8436 83.5823 50.4098 86.2285 51.5474C89.7543 49.9984 93.0405 47.7829 95.7512 44.9128C98.8775 41.6919 101.12 37.2664 101.156 32.5552C101.167 27.9634 101.158 23.3698 101.16 18.7779H98.8324C98.8324 19.7582 98.8279 20.7393 98.8297 21.7195C95.2623 21.7195 91.6958 21.7195 88.1275 21.7177C88.1249 20.7375 88.1275 19.7573 88.1267 18.7743C86.9004 18.7779 85.6741 18.7779 84.4479 18.7779ZM83.4621 17.6069C85.3452 17.6069 87.2293 17.6087 89.1133 17.6069V20.7782H97.6565C97.6547 19.7202 97.6565 18.6649 97.6565 17.6069C99.186 17.6087 100.718 17.6069 102.251 17.6069V31.4963C102.285 33.0824 102.145 34.6739 101.773 36.212C100.758 40.5859 98.0994 44.3278 94.9166 47.2024C92.3173 49.5363 89.3821 51.4615 86.2276 52.8197C81.7893 50.8701 77.6968 47.9177 74.5555 44.0239C72.0332 40.8663 70.3162 36.8577 70.2154 32.6701C70.196 27.6921 70.2128 22.7142 70.2084 17.7353H74.804C74.804 18.7481 74.8022 19.7636 74.804 20.7782H83.463V17.6069H83.4621Z" fill="white"/>
<path fill-rule="evenodd" clip-rule="evenodd" d="M80.13 27.3164C80.1282 27.1537 80.1282 26.9909 80.13 26.8281H88.3337C88.3328 26.9909 88.3328 27.1537 88.3354 27.3164C87.759 27.4837 87.1525 27.613 86.6521 27.9901C86.2233 28.3283 86.142 28.964 86.134 29.5056C86.1305 33.2737 86.134 37.0444 86.134 40.8134C86.1216 41.3813 86.2799 42.0477 86.7838 42.3036C87.4115 42.6138 88.1162 42.6138 88.7908 42.6328C89.7757 42.6355 90.841 42.4845 91.6288 41.7647C92.3643 41.0774 92.8753 40.1497 93.3528 39.2346H93.8638L93.3563 43.5967C88.9472 43.5967 84.5399 43.5949 80.1309 43.5967C80.1282 43.4303 80.1282 43.2657 80.1282 43.1021C80.7453 42.914 81.4332 42.7901 81.9212 42.29C82.2828 41.7999 82.2855 41.1208 82.3129 40.5186C82.3182 36.8952 82.3155 33.271 82.3137 29.6485C82.3023 29.0725 82.2413 28.4015 81.8116 28.0118C81.3209 27.6085 80.7064 27.4792 80.13 27.3164ZM60.2932 46.4677C60.4187 44.6574 62.2479 43.2911 63.9048 43.6555C64.6404 43.7794 65.2362 44.2885 65.8038 44.7641C65.2469 44.7107 64.6554 44.6574 64.1338 44.9196C63.3434 45.247 62.8589 46.2643 63.1391 47.126C63.2673 47.5329 63.6024 47.8331 63.979 47.9697C64.5776 48.1939 65.223 48.099 65.8445 48.099C67.4934 48.0556 69.1688 48.1451 70.7584 48.6542C71.9201 49.0204 73.0023 49.6218 74.0234 50.3036C72.6632 49.7908 71.2258 49.5255 69.7762 49.5196C68.1803 49.4925 66.6075 49.8234 65.0249 49.9871C64.0374 50.0594 62.9791 50.0649 62.0915 49.5368C61.0482 48.9454 60.211 47.7662 60.2932 46.4677ZM105.131 44.7578C105.718 44.2803 106.332 43.7595 107.09 43.6455C108.776 43.3055 110.618 44.7614 110.653 46.6079C110.65 48.2735 109.276 49.6534 107.784 49.9383C106.431 50.1589 105.074 49.875 103.732 49.7032C101.457 49.3641 99.0907 49.4572 96.9157 50.3036C98.0757 49.5259 99.3188 48.8622 100.657 48.5159C102.352 48.0529 104.115 48.0637 105.852 48.1153C106.484 48.137 107.229 48.0429 107.633 47.4606C108.184 46.6377 107.759 45.4052 106.936 44.9856C106.384 44.6646 105.736 44.7026 105.131 44.7587" fill="white"/>
<path fill-rule="evenodd" clip-rule="evenodd" d="M53.4765 50.8754C52.9788 52.7409 53.8629 54.8822 55.3455 55.7702C56.5479 56.462 57.9705 56.5804 59.2639 56.1934C60.9225 55.6554 62.3742 54.5495 63.9144 53.6931C62.4131 54.2275 60.8819 54.6607 59.3232 54.8949C57.8891 55.0992 56.357 54.6354 55.2801 53.505C54.4579 52.6514 54.2024 51.1612 54.7028 50.0209C54.9335 49.3934 55.4207 48.9747 55.8645 48.5542C54.7974 48.7993 53.7798 49.6303 53.4765 50.8754ZM55.0502 47.0947C56.1739 46.7421 57.5054 47.0287 58.3082 48.0442C58.7105 48.5822 58.7007 49.3391 58.5902 49.9965C58.2145 49.6013 57.7813 49.0841 57.219 49.2225C56.1165 49.4576 55.6788 51.2679 56.4551 52.1667C57.2375 53.0701 58.4001 53.3287 59.4699 53.307C60.6909 53.3206 61.857 52.8494 63.0028 52.4154C65.13 51.5717 67.2607 50.5119 69.5506 50.4948C72.1897 50.3673 75.0551 50.8962 77.0726 53.0113C74.6502 51.7833 71.8546 51.4261 69.2986 52.3006C67.2979 52.9426 65.6295 54.4192 63.8109 55.508C61.8871 56.7061 59.8094 57.7532 57.5903 57.8428C55.7955 57.9332 53.8788 57.1393 52.8037 55.4248C51.5332 53.4951 51.5978 50.5915 52.9354 48.7296C53.4933 47.9818 54.2059 47.3389 55.0502 47.0947ZM115.056 48.5551C115.536 48.9937 116.046 49.4567 116.268 50.143C116.719 51.2905 116.424 52.7455 115.597 53.5647C115.079 54.0802 114.454 54.4685 113.768 54.7004C113.082 54.9322 112.354 55.0015 111.638 54.903C110.066 54.6715 108.522 54.2384 107.014 53.6886C108.3 54.3984 109.507 55.2982 110.846 55.8832C112.336 56.5732 114.096 56.6338 115.549 55.791C117.163 54.8542 118.086 52.4 117.306 50.4595C116.913 49.4133 115.992 48.7875 115.056 48.5551ZM112.587 48.1075C113.433 46.941 114.948 46.7032 116.15 47.1852C117.814 47.9267 118.991 49.8916 119.039 51.9416C119.11 53.685 118.402 55.4392 117.211 56.5171C116.237 57.3906 114.999 57.8057 113.777 57.8446C112.313 57.9006 110.875 57.4557 109.527 56.839C107.431 55.8751 105.548 54.4292 103.577 53.1922C100.593 51.3809 96.9033 51.4198 93.8611 53.0258C95.8521 50.9189 98.6874 50.379 101.302 50.492C103.524 50.4902 105.607 51.4777 107.669 52.3132C108.907 52.7916 110.169 53.3287 111.495 53.3115C112.561 53.3323 113.721 53.0556 114.489 52.1423C115.266 51.2191 114.769 49.3717 113.634 49.2107C113.095 49.1248 112.702 49.6267 112.338 49.9974C112.252 49.3644 112.187 48.6275 112.586 48.1075" fill="white"/>
<path fill-rule="evenodd" clip-rule="evenodd" d="M69.783 52.5813C71.7253 51.7765 73.8401 51.8941 75.8435 52.2775C77.8912 52.6934 79.8875 53.5181 81.6522 54.8139C78.9574 53.5633 75.9691 53.3427 73.1187 53.8066C72.1356 54.0363 71.0384 54.209 70.2834 55.0527C69.767 55.6133 70.0217 56.6975 70.6458 56.9932C71.4097 57.3748 72.2611 57.2663 73.0692 57.2301C72.1736 58.2094 70.9473 58.7963 69.7158 58.6715C68.8405 58.5838 67.9175 58.1543 67.4348 57.2464C67.1421 56.7328 67.0811 56.0708 67.2358 55.4849C67.5674 54.0688 68.6327 53.0461 69.783 52.5822V52.5813ZM90.0468 54.8031C92.5223 52.9964 95.431 52.0876 98.3345 51.9836C99.849 51.9547 101.429 52.1536 102.768 53.0461C103.682 53.6655 104.462 54.7371 104.539 56.0121C104.613 57.0086 103.987 57.8803 103.252 58.2781C101.721 59.1372 99.8277 58.5793 98.6324 57.2328C99.475 57.2618 100.384 57.3929 101.165 56.9263C101.739 56.5555 101.893 55.5129 101.372 55.0002C100.621 54.2099 99.566 54.0336 98.6103 53.8093C95.7502 53.3364 92.7522 53.5579 90.0468 54.8031ZM103.487 63.3393C105.358 62.7551 107.37 62.7117 109.243 63.3067C110.047 63.5283 110.809 63.9641 111.644 64.0301C112.15 64.0573 112.585 63.7209 112.959 63.3764H113.491L113.492 68.7495C113.306 68.7495 113.122 68.7513 112.94 68.7531C112.165 66.5404 110.449 64.7563 108.39 64.1857C106.98 63.8023 105.399 63.8963 104.147 64.787C103.018 65.5855 102.277 66.9238 101.842 68.3172C101.238 70.2912 101.128 72.4135 101.21 74.4852C101.314 76.5234 101.735 78.6909 103.018 80.2182C104.061 81.4868 105.65 81.9815 107.144 81.9028C107.895 81.8666 108.765 81.7265 109.263 81.0121C109.71 80.3276 109.526 79.4297 109.565 78.6402C109.518 77.7089 109.709 76.7078 109.327 75.8388C109.022 75.157 108.357 74.8442 107.732 74.6832C107.732 74.4987 107.733 74.317 107.735 74.1361H115.227L115.229 74.685C114.721 74.8722 114.17 75.0992 113.864 75.6282C113.541 76.196 113.499 76.8941 113.491 77.5506C113.491 78.9124 113.492 80.2742 113.489 81.6369C111.288 82.7293 108.85 83.006 106.469 83.0024C104.445 82.997 102.386 82.4354 100.69 81.1577C98.613 79.6141 97.2205 76.9791 96.9659 74.1913C96.7749 72.0527 97.1064 69.8156 98.0958 67.9609C99.2893 65.7256 101.261 64.0392 103.487 63.3402V63.3393ZM19.5433 63.8601C20.5892 63.3836 21.9525 64.1558 22.1019 65.4833C22.3044 66.7022 21.3752 67.9067 20.3151 67.9049C19.3028 67.998 18.2976 67.007 18.3153 65.8151C18.2887 64.938 18.8457 64.1486 19.5433 63.8601ZM66.0944 63.8601C67.1386 63.3854 68.4966 64.1522 68.6495 65.4751C68.8573 66.6959 67.9272 67.9076 66.8663 67.904C65.8513 68.0007 64.8443 67.0033 64.8646 65.8097C64.8425 64.9335 65.3978 64.145 66.0953 63.8601H66.0944ZM82.4169 64.05C84.0472 63.9451 85.6731 63.7634 87.3043 63.7191C87.3087 67.0766 87.299 70.4332 87.3105 73.7898C87.978 72.6305 88.8506 71.493 90.0795 71.1159C91.3942 70.7226 92.9529 70.8636 94.0085 71.918C94.8237 72.7155 95.2021 73.948 95.2144 75.1426C95.2215 76.8805 95.2135 78.6185 95.2171 80.3565C95.2224 80.8638 95.2799 81.4272 95.6114 81.8088C95.9571 82.2048 96.4557 82.3332 96.9146 82.4761C96.9128 82.6497 96.9128 82.8242 96.9146 83.0015H90.2837L90.2829 82.477C90.9751 82.2708 91.8097 81.8856 91.9061 80.9651C92.0361 79.6422 91.9308 78.3011 91.9644 76.971C91.9335 75.8542 92.1086 74.6199 91.5516 73.6234C91.1077 72.8349 90.1635 72.6803 89.4147 72.8864C88.5146 73.1261 87.8851 73.9535 87.3078 74.7085C87.3034 76.5894 87.3061 78.472 87.3043 80.3547C87.3078 80.8629 87.3635 81.4335 87.7048 81.8079C88.0611 82.1894 88.5535 82.3215 89.0133 82.4725V83.0015H82.4169C82.4151 82.8694 82.4151 82.6063 82.4151 82.4761C82.866 82.3188 83.3585 82.1741 83.6821 81.7581C84.003 81.3331 84.0499 80.7435 84.0534 80.2082C84.0552 75.7954 84.0525 71.3809 84.0569 66.9681C84.0525 66.4138 84.0861 65.7907 83.7572 65.3341C83.4186 64.8883 82.889 64.7436 82.4151 64.5745L82.4169 64.05ZM0.00265235 63.7191H9.11343L9.11608 64.2842C8.48924 64.4624 7.83677 64.6188 7.28597 65.0257C6.80678 65.3838 6.68477 66.0937 6.67593 66.7058C6.6777 71.1448 6.67062 75.5838 6.68035 80.0219C6.65559 80.7906 7.10296 81.5492 7.78195 81.6785C9.02855 81.9815 10.3591 82.0005 11.5942 81.6107C13.099 81.107 13.9478 79.4387 14.6948 77.9819C14.8831 77.9801 15.0723 77.9819 15.2607 77.9819C15.0723 79.6548 14.884 81.3277 14.6975 83.0015H0.00265235C0.00265235 82.8107 0.000884112 82.6199 0 82.4318C0.675462 82.2247 1.41193 82.0773 1.95742 81.5402C2.38091 81.0112 2.39329 80.2326 2.42247 79.5553V66.8415C2.41009 66.194 2.31107 65.4399 1.81862 65.0375C1.27931 64.6116 0.625067 64.4588 0 64.2842C0.000884112 64.0943 0.00088413 63.9063 0.00265235 63.7191ZM24.4192 70.8844C26.1131 70.7442 27.8018 70.5019 29.4975 70.426C29.5028 71.3664 29.494 72.3068 29.5028 73.2472C30.0757 72.2444 30.8166 71.3049 31.8139 70.8283C33.2055 70.1538 34.979 70.3048 36.1266 71.4776C36.8657 72.1875 37.2485 73.278 37.2609 74.3577C37.275 76.1038 37.2591 77.8526 37.2671 79.5997C37.2803 80.0789 37.3272 80.6106 37.634 80.9795C37.9788 81.3639 38.4668 81.4968 38.9186 81.6523C38.9186 81.7789 38.9186 82.0348 38.9168 82.1632H32.4115C32.4115 82.0348 32.4107 81.7807 32.4089 81.6532C33.1029 81.4868 33.9384 81.1107 34.0321 80.2073C34.1373 78.9133 34.0516 77.6076 34.0799 76.3072C34.0507 75.252 34.2213 74.0882 33.682 73.1514C33.293 72.4343 32.4876 72.1603 31.7768 72.2905C30.7724 72.4144 29.9608 73.2635 29.5134 74.2347C29.4781 75.922 29.5117 77.6112 29.4975 79.3003C29.509 79.8447 29.501 80.4542 29.8167 80.9054C30.135 81.3159 30.6212 81.4715 31.0606 81.6505L31.0597 82.1632H24.6853C24.6809 82.0348 24.6756 81.7762 24.672 81.6478C25.1229 81.4959 25.6092 81.3566 25.9531 80.9723C26.2696 80.6124 26.3227 80.0807 26.3218 79.6006V73.4652C26.32 72.9434 26.2537 72.3547 25.885 71.9876C25.4783 71.5943 24.9267 71.5065 24.4192 71.3953V70.8844ZM81.3763 70.4269L81.8157 70.4278C81.9024 71.8402 81.9864 73.2545 82.0739 74.6678H81.5699C81.0218 73.486 80.3172 72.3122 79.2465 71.6449C78.0052 70.869 76.2882 70.9703 75.2273 72.0681C74.352 72.9615 73.9807 74.2953 73.902 75.5775C73.8136 77.0153 73.9568 78.5616 74.7145 79.7805C75.7666 81.5709 78.014 81.8856 79.7151 81.1975C80.5656 80.8231 81.2181 80.078 81.8157 79.3383C81.9651 79.3392 82.2648 79.3447 82.4151 79.3456C81.7176 80.9126 80.4445 82.1596 78.9141 82.628C77.2882 83.1308 75.5164 83.1407 73.9038 82.5701C72.3186 81.9905 70.9261 80.6133 70.4469 78.8139C69.9987 77.0994 70.1605 75.1489 71.0525 73.6388C72.0321 71.9795 73.6819 70.851 75.4475 70.548C77.0336 70.2388 78.6276 70.5896 80.204 70.7922C80.6275 70.8772 81.0289 70.6746 81.3763 70.4269ZM16.7893 70.8844C18.4974 70.7424 20.2002 70.5037 21.9118 70.426C21.9127 73.5357 21.9101 76.6445 21.9127 79.7543C21.9101 80.2543 22.0498 80.7806 22.4025 81.1152C22.742 81.4606 23.2079 81.5628 23.6465 81.6568L23.6562 82.1632H16.9316L16.9307 81.6505C17.4126 81.5131 17.9439 81.419 18.3259 81.032C18.6521 80.6558 18.6892 80.097 18.7034 79.6024C18.7043 77.5587 18.7016 75.5151 18.7043 73.4724C18.6972 72.9434 18.6512 72.3267 18.2551 71.9695C17.8272 71.6241 17.2915 71.5246 16.7875 71.3971C16.7875 71.2253 16.7875 71.0544 16.7893 70.8844ZM43.3082 71.871C42.6142 72.6821 42.4047 73.8603 42.3401 74.959H46.9419C46.8544 73.731 46.514 72.4 45.614 71.6413C45.2769 71.3629 44.8464 71.231 44.4152 71.274C43.984 71.3169 43.5865 71.5313 43.3082 71.871ZM43.5575 70.5507C45.2329 70.2243 47.0878 70.5082 48.4538 71.7507C49.5315 72.6821 50.1751 74.1542 50.3599 75.6779C47.6863 75.6887 45.0128 75.6797 42.3392 75.6824C42.2986 76.9221 42.4356 78.2143 42.9917 79.2994C43.4877 80.2851 44.2931 81.1061 45.2727 81.3621C46.5529 81.6948 47.9498 81.2409 48.9135 80.2173C49.2937 79.851 49.5686 79.3691 49.9046 78.9567L50.3643 78.9251C49.6393 80.9072 48.0267 82.3576 46.2205 82.8107C44.8068 83.157 43.279 83.053 41.9617 82.3314C41.2173 81.9085 40.5719 81.3249 40.0704 80.6211C39.5688 79.9173 39.2231 79.1102 39.0574 78.2559C38.7657 76.7105 38.9213 75.0187 39.6277 73.6478C40.4693 72.0256 41.9423 70.8627 43.5575 70.5507ZM62.9249 70.8916C64.7435 70.7696 66.5568 70.4983 68.3799 70.426C68.3816 73.6361 68.3799 76.8489 68.3799 80.0608C68.371 80.607 68.5514 81.1839 68.9651 81.5212C69.3188 81.8305 69.7723 81.9191 70.2056 82.0185L70.2047 82.5394H63.0955C63.0938 82.3622 63.092 82.1849 63.0938 82.0104C63.6366 81.8594 64.2608 81.7626 64.6525 81.2816C65.0114 80.749 64.9752 80.0473 64.9831 79.4215C64.976 77.4186 64.9884 75.4129 64.9778 73.4082C64.9734 72.8087 64.8081 72.0943 64.2413 71.8447C63.7215 71.6187 63.1168 71.3094 62.5704 71.6169C61.7172 71.9912 61.2124 72.8855 60.7889 73.7202C59.346 76.8055 57.935 79.9098 56.5009 83.0015C56.2879 83.0005 56.0748 83.0005 55.8617 83.0015C54.4445 79.9767 53.029 76.952 51.6091 73.9281C51.2564 73.2201 50.8842 72.4877 50.3024 71.9677C49.8896 71.6042 49.3538 71.4803 48.8383 71.4206L48.8401 70.8962C51.183 70.8962 53.5259 70.8944 55.8688 70.8962V71.4098C55.5302 71.5409 55.1288 71.6368 54.9299 71.9976C54.6929 72.4171 54.8282 72.9371 55.0254 73.3404C55.8829 75.1353 56.745 76.9276 57.6025 78.7207C58.3028 77.2314 59.0047 75.743 59.7014 74.2519C59.9782 73.6098 60.2602 72.8376 59.9817 72.1422C59.7536 71.6178 59.1816 71.4957 58.7068 71.4143C58.7068 71.2407 58.7068 71.068 58.7086 70.8962C60.1125 70.8916 61.52 70.9025 62.9249 70.8916ZM115.992 70.8844C117.717 70.7424 119.439 70.5046 121.168 70.426C121.171 71.6494 121.164 72.8729 121.171 74.0972C121.78 72.7698 122.484 71.3266 123.76 70.6701C124.745 70.1583 125.958 70.4983 126.676 71.379C126.441 72.522 126.198 73.6641 125.968 74.8089C125.18 74.0719 124.262 73.1722 123.148 73.3766C122.376 73.4715 121.786 74.0945 121.322 74.7329C121.052 75.0332 121.205 75.488 121.168 75.8615C121.209 77.3562 121.085 78.8618 121.237 80.3475C121.34 81.2861 122.3 81.4868 122.985 81.6496C122.983 81.8196 122.981 81.9896 122.983 82.1632H116.163C116.161 81.9923 116.16 81.8214 116.16 81.6505C116.659 81.4877 117.215 81.3639 117.596 80.9361C117.923 80.5347 117.942 79.9559 117.951 79.4423C117.95 77.5018 117.952 75.5612 117.95 73.6207C117.947 73.042 117.851 72.4072 117.458 71.9885C117.067 71.5698 116.507 71.4686 115.992 71.3917V70.8853V70.8844ZM132.781 71.3682C132.123 71.5427 131.559 72.0301 131.199 72.6586C130.472 73.9281 130.341 75.4826 130.333 76.9511C130.338 78.4766 130.615 80.1314 131.606 81.2653C132.632 82.4652 134.577 82.4499 135.565 81.2038C136.525 80.0156 136.737 78.3409 136.758 76.8028C136.754 75.2447 136.59 73.5456 135.664 72.2996C134.984 71.37 133.796 71.0815 132.782 71.3682H132.781ZM131.81 70.5878C133.497 70.2921 135.287 70.3672 136.882 71.1014C138.396 71.8122 139.706 73.2084 140.191 74.9843C140.642 76.6997 140.408 78.6647 139.433 80.1106C138.388 81.7002 136.696 82.6606 134.958 82.8984C132.985 83.1733 130.849 82.94 129.16 81.6885C127.851 80.7345 126.861 79.1737 126.715 77.4159C126.485 75.4699 127.258 73.476 128.58 72.2046C129.485 71.3302 130.635 70.8148 131.81 70.5878ZM141.176 70.9007C142.807 70.7524 144.433 70.5091 146.069 70.426C146.07 73.1179 146.07 75.8117 146.069 78.5037C146.057 79.1222 146.057 79.8103 146.431 80.3104C146.932 81.0067 147.808 81.1269 148.548 81.0013C149.547 80.8303 150.219 79.8438 150.718 78.9278C150.762 77.1934 150.72 75.4554 150.738 73.7193C150.73 73.2282 150.774 72.6848 150.503 72.2688C150.172 71.7308 149.578 71.5635 149.05 71.4215V70.9007C150.688 70.7524 152.319 70.5037 153.959 70.4278C153.964 73.5276 153.959 76.6283 153.963 79.729C153.981 80.276 153.984 80.9045 154.33 81.3349C154.697 81.7238 155.205 81.8431 155.674 82.0023C155.671 82.1768 155.669 82.3522 155.672 82.5285C154.026 82.685 152.381 82.8387 150.735 82.996C150.734 82.0294 150.738 81.0637 150.734 80.097C150.211 80.909 149.62 81.6885 148.856 82.2157C147.591 83.1181 145.932 83.2393 144.556 82.6009C143.55 82.1307 142.876 80.9524 142.863 79.7208C142.834 77.5642 142.865 75.4048 142.849 73.2463C142.834 72.8087 142.753 72.3321 142.466 72.0147C142.113 71.644 141.623 71.5472 141.175 71.4243V70.8998" fill="white"/>
<mask id="mask0" style="mask-type:alpha" maskUnits="userSpaceOnUse" x="155" y="70" width="15" height="22">
<path d="M155.801 70.5291H170V91.3858H155.8L155.801 70.5291Z" fill="white"/>
</mask>
<g mask="url(#mask0)">
<path fill-rule="evenodd" clip-rule="evenodd" d="M161.211 73.1451C161.072 73.3259 160.823 73.4742 160.848 73.7518C160.843 75.9799 160.845 78.2062 160.848 80.4334C161.374 80.9741 161.973 81.457 162.669 81.6469C163.547 81.9019 164.548 81.7003 165.225 80.985C166.061 80.126 166.435 78.8238 166.507 77.5678C166.571 76.3226 166.475 75.0196 165.977 73.892C165.623 73.0962 165.018 72.409 164.251 72.1829C163.178 71.8502 162.003 72.2716 161.211 73.1451ZM155.809 70.9957C157.489 70.8528 159.163 70.6068 160.845 70.5291C160.843 71.2651 160.85 72.0012 160.841 72.7382C161.533 71.8999 162.369 71.1855 163.337 70.8374C164.575 70.3889 165.971 70.4124 167.16 71.0481C168.479 71.7733 169.47 73.2138 169.821 74.8415C170.28 76.9954 169.902 79.4839 168.498 81.0818C167.186 82.6814 165.111 83.2203 163.277 82.77C162.364 82.5222 161.594 81.8685 160.845 81.2536C160.85 83.7249 160.841 86.1953 160.848 88.6667C160.867 89.2183 160.922 89.8513 161.302 90.2437C161.722 90.6325 162.27 90.7501 162.779 90.8984C162.776 91.0593 162.775 91.2212 162.776 91.3858H155.809C155.806 91.214 155.806 91.0421 155.809 90.8704C156.352 90.7582 156.991 90.666 157.349 90.1189C157.655 89.5501 157.667 88.853 157.691 88.2046C157.693 83.4428 157.691 78.6782 157.692 73.9164C157.674 73.3341 157.665 72.6703 157.311 72.211C156.902 71.7769 156.33 71.6666 155.809 71.5165V70.9957Z" fill="white"/>
</g>
</svg>
