<svg width="188" height="90" viewBox="0 0 188 90" fill="none" xmlns="http://www.w3.org/2000/svg">
<path d="M5.97107 64.1183C5.85513 64.1183 5.73918 64.1183 5.5073 64.1183C5.27541 64.1183 5.1015 64.1183 4.86961 64.1183V68.5284C4.86961 69.1086 4.86961 69.5728 4.86961 69.979C4.86961 70.3852 4.81164 70.6754 4.81164 70.9655L7.59427 70.7914V72.126H0.115941V71.1396C0.695657 71.1396 1.10146 71.0235 1.39132 70.8494C1.68117 70.6754 1.85509 70.3852 1.97103 70.0951C2.08697 69.7469 2.14495 69.3988 2.14495 68.9345C2.14495 68.4703 2.14495 68.0061 2.14495 67.4839V54.3698C2.14495 53.9636 2.14495 53.5574 2.14495 53.2093C2.14495 52.8611 2.20292 52.5129 2.20292 52.1648L0 52.2808V50.9462C1.04349 50.9462 2.14495 50.8882 3.30438 50.8882C4.40584 50.8882 5.56527 50.8882 6.78267 50.8882C9.73922 50.8882 11.9421 51.4104 13.5074 52.3969C15.1306 53.4994 15.9422 55.0661 15.9422 57.1551C15.9422 57.5613 15.8842 58.0255 15.8262 58.5477C15.7103 59.07 15.5364 59.5922 15.2465 60.1145C14.9567 60.6367 14.5509 61.1589 14.0871 61.6812C13.5653 62.2034 12.9856 62.6096 12.232 63.0158C11.4784 63.364 10.5508 63.7121 9.50733 63.8862C8.57979 64.0023 7.36239 64.1183 5.97107 64.1183ZM4.86961 62.8417C5.21744 62.8998 5.56527 62.8998 5.85513 62.9578C6.14498 62.9578 6.49281 62.9578 6.84064 62.9578C7.71022 62.9578 8.52182 62.8417 9.27545 62.5516C10.0291 62.3195 10.7247 61.9133 11.3045 61.4491C11.8842 60.9849 12.3479 60.3466 12.6378 59.6502C12.9856 58.9539 13.1595 58.1415 13.1595 57.2711C13.1595 56.2847 12.9856 55.4723 12.6958 54.834C12.4059 54.1377 11.9421 53.6154 11.4204 53.2093C10.8407 52.8031 10.203 52.5129 9.44936 52.2808C8.69573 52.1068 7.82616 51.9907 6.89861 51.9907C6.37687 51.9907 5.97107 52.0487 5.68121 52.2228C5.39135 52.3969 5.21744 52.629 5.1015 52.9772C4.98555 53.2673 4.92758 53.6735 4.92758 54.1377C4.92758 54.6019 4.92758 55.0661 4.92758 55.5884V62.8417H4.86961Z" fill="#656E75"/>
<path d="M29.9138 63.1318L19.2471 63.3059C19.2471 64.4665 19.305 65.511 19.5369 66.4974C19.7108 67.4258 20.0007 68.2382 20.4065 68.9345C20.8123 69.6309 21.334 70.1531 21.9717 70.5013C22.6094 70.8494 23.363 71.0235 24.2906 71.0235C24.7544 71.0235 25.2761 70.9655 25.7399 70.8494C26.2616 70.7334 26.7254 70.5593 27.1892 70.3272C27.6529 70.0951 28.0587 69.863 28.4645 69.5148C28.8703 69.2247 29.1602 68.8765 29.45 68.5284L30.2037 69.1086C29.7979 69.7469 29.3341 70.2692 28.7544 70.7334C28.2326 71.1976 27.6529 71.5458 27.0732 71.8359C26.4935 72.126 25.9138 72.3001 25.2761 72.4162C24.6964 72.5322 24.1167 72.5902 23.5949 72.5902C22.5514 72.5902 21.5659 72.4162 20.6963 72.01C19.7688 71.6618 19.0152 71.0815 18.3195 70.3852C17.6818 69.6889 17.1601 68.8185 16.7543 67.832C16.3485 66.8456 16.1746 65.7431 16.1746 64.4665C16.1746 63.422 16.3485 62.3775 16.6963 61.391C17.0441 60.4046 17.5659 59.5342 18.2615 58.7798C18.9572 58.0255 19.7108 57.4452 20.6963 56.981C21.6239 56.5168 22.6674 56.2847 23.8268 56.2847C24.6384 56.2847 25.45 56.4007 26.2036 56.6909C26.9573 56.981 27.595 57.3872 28.1747 57.9094C28.7544 58.4897 29.1602 59.186 29.508 59.9984C29.7979 61.0429 29.9138 62.0293 29.9138 63.1318ZM23.8268 57.6193C22.6674 57.6193 21.6819 57.9675 20.8703 58.6638C20.1166 59.3601 19.5949 60.4626 19.363 62.0293H27.0732C27.0732 61.5071 27.0152 60.9848 26.8993 60.4626C26.7834 59.9404 26.6094 59.4762 26.3196 59.07C26.0297 58.6638 25.7399 58.3156 25.2761 58.0255C24.9283 57.7353 24.4065 57.6193 23.8268 57.6193Z" fill="#656E75"/>
<path d="M40.2328 58.0842C39.827 58.0842 39.4791 58.1422 39.0733 58.3163C38.6675 58.4904 38.2617 58.7225 37.9139 59.0127C37.5081 59.3028 37.1603 59.6509 36.8125 60.0571C36.4646 60.4633 36.1748 60.9275 35.8849 61.4498L35.9429 68.9352C35.9429 69.3414 35.9429 69.6896 35.9429 70.0377C35.9429 70.3279 35.8849 70.6761 35.8269 71.0242L37.74 70.9082V72.1267H31.4791V71.1983C31.9428 71.1983 32.2907 71.0822 32.5226 70.9082C32.7544 70.7341 32.9284 70.4439 33.0443 70.1538C33.1602 69.8056 33.2182 69.4575 33.2182 68.9933C33.2182 68.5291 33.2182 68.0648 33.2182 67.4846V60.5214C33.2182 60.2312 33.2182 59.8831 33.2182 59.5929C33.2182 59.2448 33.2762 58.9546 33.3342 58.6065L31.1892 58.7225V57.504H32.1168C32.5226 57.504 32.9284 57.504 33.2182 57.4459C33.5081 57.3879 33.74 57.3299 33.9139 57.2718C34.0878 57.2138 34.2617 57.0978 34.3776 57.0397C34.4936 56.9237 34.6095 56.8657 34.7255 56.7496H35.5951C35.653 57.0397 35.653 57.4459 35.653 57.9101C35.653 58.3744 35.711 59.0127 35.711 59.709C35.9429 59.3608 36.2327 58.9546 36.5806 58.5484C36.9284 58.1423 37.3342 57.8521 37.798 57.504C38.2617 57.2138 38.7255 56.9817 39.2473 56.7496C39.769 56.5755 40.2907 56.4595 40.8125 56.4595C41.1024 56.4595 41.3342 56.5175 41.6241 56.5755C41.9139 56.6336 42.0879 56.7496 42.3198 56.9237C42.4937 57.0978 42.6676 57.2719 42.7835 57.504C42.8995 57.7361 42.9574 58.0262 42.9574 58.3744C42.9574 58.4904 42.9574 58.6645 42.8995 58.8386C42.8415 59.0127 42.7835 59.1867 42.6096 59.3028C42.4937 59.4769 42.3198 59.5929 42.1458 59.6509C41.9719 59.767 41.74 59.825 41.4502 59.825C41.2183 59.825 41.0444 59.767 40.8125 59.6509C40.6386 59.5349 40.4647 59.4188 40.3487 59.2448C40.2328 59.0707 40.1168 58.8966 40.0589 58.7225C40.2328 58.4904 40.1748 58.3163 40.2328 58.0842Z" fill="#656E75"/>
<path d="M53.449 50.5982C53.2751 50.4241 53.1012 50.2501 52.8693 50.192C52.6374 50.134 52.4055 50.076 52.1736 50.076C51.7098 50.076 51.304 50.192 51.0142 50.4242C50.7243 50.6563 50.4924 50.8884 50.2606 51.2365C50.0866 51.5847 49.9707 51.9909 49.8548 52.3971C49.7968 52.8033 49.7388 53.2675 49.7388 53.6737V56.8651H53.8548V58.0257L49.7388 58.0837L49.7968 68.8187C49.7968 69.2249 49.7968 69.573 49.7968 69.9212C49.7968 70.2113 49.7388 70.5595 49.6808 70.9076L51.5939 70.7916V72.0101H45.3909V71.0817C45.8547 71.0817 46.2025 70.9657 46.4344 70.7916C46.6663 70.6175 46.8402 70.3274 46.9562 70.0372C47.0721 69.6891 47.1301 69.3409 47.1301 68.8767C47.1301 68.4125 47.1301 67.9483 47.1301 67.368L47.0721 58.0837L44.5793 58.1417V56.7491H47.0721V56.1108C47.0721 55.0083 47.1881 53.9638 47.362 53.0934C47.5359 52.223 47.8837 51.4106 48.2895 50.8303C48.6953 50.192 49.275 49.7278 49.9707 49.3797C50.6664 49.0315 51.5359 48.8574 52.5214 48.8574C52.8693 48.8574 53.2171 48.9155 53.5649 48.9735C53.9707 49.0315 54.3186 49.2056 54.6084 49.3797C54.9563 49.5537 55.1881 49.7859 55.42 50.076C55.6519 50.3661 55.7679 50.7143 55.7679 51.1205C55.7679 51.5267 55.6519 51.8748 55.42 52.1069C55.1881 52.339 54.8983 52.5131 54.4925 52.5131C54.2606 52.5131 54.0287 52.4551 53.8548 52.3971C53.6809 52.339 53.5649 52.223 53.449 52.1069C53.333 51.9909 53.2751 51.8168 53.2171 51.7007C53.1591 51.5267 53.1591 51.4106 53.1591 51.2946C53.1591 51.1785 53.1591 51.0624 53.2171 50.9464C53.333 50.8884 53.391 50.7723 53.449 50.5982Z" fill="#656E75"/>
<path d="M68.5233 63.1318L57.8565 63.3059C57.8565 64.4665 57.9145 65.511 58.1464 66.4974C58.3203 67.4258 58.6102 68.2382 59.016 68.9345C59.4218 69.6309 59.9435 70.1531 60.5812 70.5013C61.2189 70.8494 61.9725 71.0235 62.9001 71.0235C63.3638 71.0235 63.8856 70.9655 64.3494 70.8494C64.8711 70.7334 65.3349 70.5593 65.7986 70.3272C66.2624 70.0951 66.6682 69.863 67.074 69.5148C67.4798 69.2247 67.7697 68.8765 68.0595 68.5284L68.8132 69.1086C68.4074 69.7469 67.9436 70.2692 67.3639 70.7334C66.8421 71.1976 66.2624 71.5458 65.6827 71.8359C65.103 72.126 64.5233 72.3001 63.8856 72.4162C63.3059 72.5322 62.7261 72.5902 62.2044 72.5902C61.1609 72.5902 60.1754 72.4162 59.2479 72.01C58.3203 71.6618 57.5667 71.0815 56.871 70.3852C56.2333 69.6889 55.7116 68.8185 55.3058 67.832C54.9 66.8456 54.7261 65.7431 54.7261 64.4665C54.7261 63.422 54.9 62.3775 55.2478 61.391C55.5956 60.4046 56.1174 59.5342 56.813 58.7798C57.5087 58.0255 58.2623 57.4452 59.2479 56.981C60.1754 56.5168 61.2189 56.2847 62.3783 56.2847C63.1899 56.2847 64.0015 56.4007 64.7552 56.6909C65.5088 56.981 66.1465 57.3872 66.7262 57.9094C67.3059 58.4897 67.7117 59.186 68.0595 59.9984C68.3494 61.0429 68.5233 62.0293 68.5233 63.1318ZM62.3783 57.6193C61.2189 57.6193 60.2334 57.9675 59.4218 58.6638C58.6681 59.3601 58.1464 60.4626 57.9145 62.0293H65.6247C65.6247 61.5071 65.5668 60.9848 65.4508 60.4626C65.3349 59.9404 65.161 59.4762 64.8711 59.07C64.5812 58.6638 64.2914 58.3156 63.8276 58.0255C63.4798 57.7353 62.958 57.6193 62.3783 57.6193Z" fill="#656E75"/>
<path d="M81.0431 59.244C80.9272 58.8959 80.6953 58.6057 80.4634 58.3736C80.1736 58.1415 79.8837 57.9674 79.5938 57.8514C79.304 57.7353 78.9562 57.6773 78.6663 57.6193C78.3764 57.5613 78.0866 57.5613 77.9127 57.5613C77.217 57.5613 76.5793 57.6773 75.9996 57.9675C75.4199 58.2576 74.8982 58.6638 74.4344 59.186C73.9706 59.7083 73.6807 60.4046 73.3909 61.217C73.159 62.0293 72.9851 62.9578 72.9851 64.0022C72.9851 64.9887 73.101 65.9171 73.3909 66.7875C73.6228 67.6579 73.9706 68.3543 74.4344 68.9926C74.8982 69.6309 75.4199 70.0951 76.0576 70.4432C76.6953 70.7914 77.3909 70.9655 78.2025 70.9655C78.6663 70.9655 79.1301 70.9074 79.5938 70.7914C80.0576 70.6753 80.5214 70.5013 80.9272 70.2111C81.333 69.979 81.7388 69.6889 82.0866 69.3988C82.4345 69.1086 82.7243 68.7605 82.9562 68.3543L83.7678 68.9345C83.362 69.5728 82.8982 70.0951 82.3765 70.5593C81.8547 71.0235 81.333 71.3717 80.7533 71.6618C80.1736 71.9519 79.5938 72.184 79.0141 72.3001C78.4344 72.4162 77.9127 72.5322 77.3909 72.5322C76.3474 72.5322 75.4199 72.3581 74.4923 72.01C73.5648 71.6618 72.8112 71.1396 72.1155 70.5013C71.4199 69.8049 70.8981 68.9926 70.4923 68.0641C70.0865 67.0777 69.9126 65.9752 69.9126 64.7566C69.9126 64.0603 69.9706 63.364 70.1445 62.6676C70.3184 61.9713 70.5503 61.333 70.8981 60.6947C71.2459 60.0564 71.5938 59.4762 72.0575 58.9539C72.5213 58.4317 73.0431 57.9674 73.6228 57.5613C74.2025 57.1551 74.8402 56.8649 75.5358 56.6328C76.2315 56.4007 76.9851 56.2847 77.7388 56.2847C78.5504 56.2847 79.362 56.4007 80.0576 56.5748C80.7533 56.8069 81.333 57.039 81.8547 57.3872C82.3765 57.7353 82.7243 58.1415 83.0142 58.6057C83.304 59.07 83.42 59.5342 83.42 59.9984C83.42 60.4626 83.304 60.8108 83.0721 61.1009C82.8402 61.391 82.4924 61.5651 82.0286 61.5651C81.7388 61.5651 81.5649 61.5071 81.333 61.4491C81.1591 61.333 80.9852 61.217 80.9272 61.1009C80.8112 60.9848 80.7533 60.8108 80.6953 60.6367C80.6373 60.4626 80.6373 60.3465 80.6373 60.1725C80.6373 59.9984 80.6953 59.7663 80.7533 59.5342C80.6953 59.5922 80.8692 59.4181 81.0431 59.244Z" fill="#656E75"/>
<path d="M84.6963 56.9239C85.218 56.9239 85.7398 56.7498 86.1456 56.4597C86.6093 56.1695 86.9572 55.8214 87.305 55.4152C87.6528 55.009 87.9427 54.5448 88.1166 54.0225C88.3485 53.5003 88.5224 53.0361 88.6383 52.6299H89.6818C89.6818 53.4423 89.6818 54.1966 89.6818 54.8929C89.6818 55.5893 89.6818 56.2856 89.6818 56.8658H94.7833V58.0264L89.6818 58.0844C89.6818 59.419 89.6818 60.5215 89.6818 61.45C89.6818 62.3784 89.6818 63.1328 89.6818 63.7711C89.6818 64.4093 89.6818 64.8736 89.6818 65.2217C89.6818 65.5699 89.6818 65.86 89.6818 66.0341C89.6818 66.2082 89.6818 66.3242 89.6818 66.3823C89.6818 66.4403 89.6818 66.4403 89.6818 66.4983C89.6818 67.1946 89.7398 67.7749 89.7978 68.3552C89.8558 68.8774 89.9717 69.3416 90.2036 69.6898C90.3775 70.038 90.6094 70.3281 90.8992 70.5022C91.1891 70.6762 91.5369 70.7923 92.0007 70.7923C92.5224 70.7923 93.0442 70.6182 93.5659 70.3281C94.0877 70.038 94.5514 69.5737 94.9572 68.9935L95.7688 69.6898C95.3051 70.3861 94.8993 70.9084 94.4355 71.2565C93.9717 71.6627 93.5659 71.9528 93.1601 72.1269C92.7543 72.301 92.4065 72.4171 92.0587 72.4751C91.7108 72.5331 91.421 72.5331 91.1891 72.5331C90.8992 72.5331 90.5514 72.5331 90.2616 72.4751C89.9137 72.4171 89.6239 72.301 89.334 72.185C89.0441 72.0689 88.7543 71.8368 88.4644 71.6047C88.1746 71.3145 87.9427 71.0244 87.7688 70.5602C87.5369 70.154 87.4209 69.6318 87.305 69.0515C87.1891 68.4712 87.1311 67.7749 87.1311 66.9625L87.0151 58.2005H84.6963V56.9239Z" fill="#656E75"/>
<path d="M111.943 20.7741C111.247 20.7741 110.725 20.2518 110.725 19.5555C110.725 18.8592 111.247 18.3369 111.943 18.3369C112.638 18.3369 113.16 18.9172 113.16 19.5555C113.16 20.1938 112.638 20.7741 111.943 20.7741Z" fill="#656E75"/>
<path d="M76.2323 20.7745C75.5366 20.7745 75.0149 20.2523 75.0149 19.556C75.0149 18.8596 75.5366 18.3374 76.2323 18.3374C76.928 18.3374 77.4497 18.9177 77.4497 19.556C77.4497 20.1943 76.87 20.7745 76.2323 20.7745Z" fill="#656E75"/>
<path d="M94.0868 18.5099C93.3911 18.5099 92.8694 17.9876 92.8694 17.2913C92.8694 16.595 93.3911 16.0728 94.0868 16.0728C94.7824 16.0728 95.3042 16.653 95.3042 17.2913C95.3042 17.9876 94.7824 18.5099 94.0868 18.5099Z" fill="#656E75"/>
<path d="M137.276 13.5203C136.986 13.1141 133.102 14.0425 131.943 13.8684C130.957 13.5203 130.436 12.4178 129.566 12.4178C128.406 12.3597 127.595 13.1141 127.595 14.2166C127.595 14.3326 127.595 14.5067 127.653 14.6228C126.899 16.6537 123.537 18.3365 121.392 17.9883C118.204 17.5241 117.566 14.9709 116.986 12.882C116.696 11.8955 118.261 12.1276 118.493 10.735C118.667 9.57444 118.03 8.58798 116.464 8.18179C117.276 7.94969 117.798 7.31139 117.798 6.55704C117.798 5.62861 117.624 4.35202 116.29 4.11991C115.073 3.8878 113.798 5.62861 113.798 6.55704C113.798 7.13731 114.145 7.65955 114.667 7.94969C112.348 8.00771 110.609 8.70404 110.783 10.2127C110.841 10.735 111.247 11.1992 111.073 11.6054C110.899 12.0116 107.073 15.4352 104.522 15.4352C101.798 15.4352 97.9135 11.9535 97.6236 10.6769C97.5656 10.6769 99.3048 9.69049 99.4787 8.64601C99.7106 6.73112 98.0294 5.28045 96.0004 4.70018C96.2323 4.35202 96.3482 3.94583 96.3482 3.53964C96.3482 2.37911 95.3627 0 94.2612 0C94.2033 0 94.2033 0 94.1453 0C94.0873 0 94.0873 0 94.0294 0C92.9279 0 91.9424 2.37911 91.9424 3.53964C91.9424 3.94583 92.0583 4.35202 92.2902 4.70018C90.2612 5.28045 88.58 6.73112 88.8119 8.64601C88.9279 9.69049 90.725 10.6769 90.667 10.6769C90.3772 11.9535 86.4931 15.4352 83.7684 15.4352C81.2176 15.4352 77.3915 12.0116 77.2176 11.6054C77.0437 11.1992 77.4495 10.793 77.5075 10.2127C77.6814 8.70404 75.9422 8.00771 73.6234 7.94969C74.1451 7.65955 74.4929 7.13731 74.4929 6.55704C74.4929 5.62861 73.2176 3.8878 72.0002 4.11991C70.6668 4.35202 70.4929 5.62861 70.4929 6.55704C70.4929 7.31139 71.0726 7.94969 71.8263 8.18179C70.261 8.58798 69.6233 9.57444 69.7973 10.735C70.0291 12.1856 71.5944 11.8955 71.3045 12.882C70.7248 14.9709 70.0291 17.5241 66.8987 17.9883C64.7537 18.3365 61.3914 16.5957 60.6377 14.6228C60.6377 14.5067 60.6957 14.3907 60.6957 14.2166C60.6957 13.1141 59.8841 12.3597 58.7247 12.4178C57.8551 12.4758 57.3334 13.5203 56.3479 13.8684C55.1884 14.0425 51.3043 13.1721 51.0145 13.5203C51.0145 13.5203 50.7246 13.8104 50.7246 14.2166C50.7246 14.5067 64.8697 26.2282 65.9711 27.6788C67.0146 29.0715 68.348 37.7755 68.9277 39.5743C68.9857 39.8064 69.0436 39.9805 69.1596 40.1546C70.7828 42.1855 83.3046 43.5202 94.0294 43.5202C94.0873 43.5202 94.1453 43.5202 94.2033 43.5202C94.2612 43.5202 94.3192 43.5202 94.3772 43.5202C105.102 43.5202 117.624 42.1855 119.247 40.1546C119.421 39.9805 119.479 39.7484 119.479 39.5743C120.059 37.7755 121.392 29.0715 122.435 27.6788C123.537 26.2282 137.682 14.5067 137.682 14.2166C137.508 13.8104 137.276 13.5203 137.276 13.5203ZM94.2612 42.0115C94.2033 42.0115 94.1453 42.0115 94.0873 42.0115C94.0294 42.0115 93.9714 42.0115 93.9134 42.0115C81.6814 42.0115 72.4639 40.4447 70.5509 39.4003C71.7683 38.2397 81.3336 35.8026 93.9134 35.8026C93.9714 35.8026 94.0294 35.8026 94.0873 35.8026C94.1453 35.8026 94.2033 35.8026 94.2612 35.8026C106.841 35.8026 116.406 38.2397 117.624 39.4003C115.653 40.4447 106.493 42.0115 94.2612 42.0115ZM120.406 28.8394C120.059 29.9999 119.537 36.3829 118.899 37.8335C117.392 36.615 106.609 33.8877 94.0873 33.8877C94.0873 33.8877 94.0873 33.8877 94.0294 33.8877C94.0294 33.8877 94.0294 33.8877 93.9714 33.8877C81.3916 33.8877 70.6668 36.615 69.1596 37.8335C68.5219 36.3829 68.0581 29.9419 67.6523 28.8394C67.4784 28.3171 67.8262 27.8529 67.8262 27.8529C69.5654 25.4738 80.522 22.6885 93.8555 22.6885C93.9134 22.6885 94.1453 22.6885 94.2033 22.6885C107.479 22.6885 118.493 25.4738 120.233 27.8529C120.29 27.8529 120.58 28.3751 120.406 28.8394ZM121.972 25.7639C121.972 25.7639 119.247 24.6034 114.377 23.3268C108.87 21.8761 101.102 21.2378 94.1453 21.2378C87.1887 21.2378 79.4205 22.1082 73.9132 23.3268C69.3335 24.3133 66.319 25.7639 66.319 25.7639L60.8117 19.9612C60.8117 19.9612 66.7827 20.7736 69.7973 19.5551C72.8118 18.3365 74.2031 12.8239 74.2031 12.8239C74.2031 12.8239 80.8698 17.9303 84.7539 17.6982C88.696 17.4661 94.1453 9.98063 94.1453 9.98063C94.1453 9.98063 99.6526 17.4661 103.537 17.6982C107.421 17.9303 114.088 12.8239 114.088 12.8239C114.088 12.8239 115.537 18.2785 118.493 19.5551C121.508 20.7736 127.479 19.9612 127.479 19.9612L121.972 25.7639Z" fill="#656E75"/>
<path d="M94.0865 24.3711C92.2314 24.3711 90.7241 26.1119 90.7241 28.2009C90.7241 30.3479 92.2314 32.0306 94.0865 32.0306C95.9416 32.0306 97.4488 30.2898 97.4488 28.2009C97.3909 26.1119 95.9416 24.3711 94.0865 24.3711Z" fill="#656E75"/>
<path d="M108.927 33.7129C110.434 34.1191 112.116 33.0166 112.637 31.2178C113.159 29.4189 112.348 27.5621 110.782 27.1559C109.275 26.7497 107.594 27.8522 107.072 29.6511C106.608 31.5079 107.42 33.3068 108.927 33.7129Z" fill="#656E75"/>
<path d="M79.1885 33.7129C77.6812 34.1191 76.0001 33.0166 75.4783 31.2178C74.9566 29.4189 75.7682 27.5621 77.3334 27.1559C78.8407 26.7497 80.5219 27.8522 81.0436 29.6511C81.5653 31.5079 80.7537 33.3068 79.1885 33.7129Z" fill="#656E75"/>
<path d="M124.637 71.0252H123.826C123.478 71.0252 123.072 71.0832 122.492 71.1992C121.912 71.3153 121.275 71.5474 120.579 71.7795C120.289 71.8956 119.941 72.0116 119.536 72.1277C119.188 72.2437 118.782 72.3018 118.376 72.3598C117.97 72.4178 117.623 72.4758 117.217 72.5339C116.811 72.5919 116.463 72.5919 116.115 72.5919C114.608 72.5919 113.217 72.3598 111.941 71.8375C110.666 71.3733 109.565 70.619 108.695 69.7486C107.767 68.8201 107.072 67.7176 106.55 66.383C106.028 65.0484 105.796 63.5977 105.796 61.9149C105.796 60.9865 105.912 60.0001 106.086 59.0716C106.26 58.1432 106.55 57.2148 106.956 56.3444C107.362 55.474 107.825 54.7196 108.405 53.9653C108.985 53.2109 109.68 52.5726 110.434 52.0504C111.246 51.5281 112.115 51.0639 113.101 50.7738C114.086 50.4837 115.188 50.3096 116.347 50.3096C116.869 50.3096 117.449 50.3676 118.028 50.4256C118.608 50.4837 119.13 50.5997 119.71 50.7738C120.231 50.8898 120.753 51.0639 121.275 51.296C121.797 51.5281 122.26 51.7602 122.666 51.9924L122.55 50.5417H124.231V57.5049H123.13C123.072 56.5765 122.84 55.7061 122.492 54.9517C122.144 54.1974 121.681 53.5591 121.101 53.0949C120.521 52.5726 119.826 52.2245 119.072 51.9343C118.318 51.6442 117.507 51.5281 116.579 51.5281C115.478 51.5281 114.492 51.7602 113.565 52.2245C112.637 52.6887 111.767 53.385 111.072 54.2554C110.376 55.1258 109.796 56.1123 109.391 57.3308C108.985 58.4914 108.753 59.826 108.753 61.2186C108.753 62.6693 108.927 64.0039 109.333 65.1645C109.738 66.383 110.26 67.4275 111.014 68.2979C111.709 69.1683 112.579 69.8646 113.565 70.3288C114.55 70.8511 115.652 71.0832 116.869 71.0832C117.275 71.0832 117.681 71.0252 118.144 70.9671C118.608 70.9091 119.014 70.7931 119.478 70.677C119.941 70.5609 120.347 70.3869 120.811 70.2128C121.275 70.0387 121.681 69.8066 122.086 69.5165V62.8434L119.941 62.9594V61.6248H126.782V62.6113C126.434 62.6113 126.086 62.6693 125.855 62.8434C125.623 62.9594 125.391 63.1915 125.217 63.3656C125.043 63.5977 124.927 63.8298 124.869 64.12C124.811 64.4101 124.753 64.6422 124.695 64.9323C124.637 65.2225 124.637 65.4546 124.637 65.6867C124.637 65.9188 124.637 66.0929 124.637 66.267V71.0252Z" fill="#656E75"/>
<path d="M136.927 58.1423C136.522 58.1423 136.174 58.2004 135.768 58.3744C135.362 58.5485 134.956 58.7806 134.609 59.0708C134.203 59.3609 133.855 59.7091 133.507 60.1152C133.159 60.5214 132.869 60.9856 132.58 61.5079L132.638 68.9934C132.638 69.3995 132.638 69.7477 132.638 70.0959C132.638 70.386 132.58 70.7342 132.522 71.0823L134.435 70.9663V72.1848H128.232V71.2564C128.696 71.2564 129.043 71.1404 129.275 70.9663C129.507 70.7922 129.681 70.5021 129.797 70.2119C129.913 69.8638 129.971 69.5156 129.971 69.0514C129.971 68.5872 129.971 68.123 129.971 67.5427V60.5795C129.971 60.2893 129.971 59.9412 129.971 59.651C129.971 59.3029 130.029 59.0127 130.087 58.6646L127.942 58.7806V57.5621H128.869C129.275 57.5621 129.681 57.5621 129.971 57.504C130.261 57.446 130.493 57.388 130.667 57.33C130.84 57.2719 131.014 57.1559 131.13 57.0978C131.246 56.9818 131.362 56.9238 131.478 56.8077H132.348C132.406 57.0978 132.406 57.504 132.406 57.9683C132.406 58.4325 132.464 59.0708 132.464 59.7671C132.696 59.4189 132.985 59.0127 133.333 58.6065C133.681 58.2004 134.087 57.9102 134.551 57.5621C135.014 57.2719 135.478 57.0398 136 56.8077C136.522 56.6336 137.043 56.5176 137.565 56.5176C137.855 56.5176 138.087 56.5756 138.377 56.6336C138.667 56.6917 138.841 56.8077 139.072 56.9818C139.246 57.1559 139.42 57.3299 139.536 57.5621C139.652 57.7942 139.71 58.0843 139.71 58.4325C139.71 58.5485 139.71 58.7226 139.652 58.8967C139.594 59.0708 139.536 59.2448 139.362 59.3609C139.246 59.535 139.072 59.651 138.899 59.7091C138.725 59.8251 138.493 59.8831 138.203 59.8831C137.971 59.8831 137.797 59.8251 137.565 59.7091C137.391 59.593 137.217 59.4769 137.101 59.3029C136.985 59.1288 136.87 58.9547 136.812 58.7806C136.927 58.5485 136.927 58.3744 136.927 58.1423Z" fill="#656E75"/>
<path d="M147.013 56.46C148.057 56.46 149.1 56.634 150.028 57.0402C150.955 57.4464 151.767 57.9687 152.462 58.665C153.158 59.3613 153.68 60.1737 154.086 61.1021C154.491 62.0305 154.665 63.075 154.665 64.1775C154.665 65.3381 154.491 66.4406 154.086 67.4851C153.68 68.5295 153.158 69.4 152.462 70.1543C151.767 70.9087 150.955 71.4889 150.028 71.9531C149.1 72.4173 148.115 72.5914 147.013 72.5914C145.97 72.5914 144.926 72.4173 143.999 72.0112C143.071 71.605 142.259 71.0827 141.564 70.4444C140.868 69.7481 140.346 68.9357 139.941 68.0073C139.535 67.0789 139.361 66.0344 139.361 64.8739C139.361 63.6553 139.535 62.5528 139.941 61.5083C140.346 60.4638 140.868 59.5934 141.564 58.8391C142.259 58.0847 143.071 57.5044 143.999 57.0402C144.926 56.6921 145.912 56.46 147.013 56.46ZM147.013 57.6205C146.201 57.6205 145.506 57.7946 144.984 58.1427C144.404 58.4909 143.941 58.9551 143.593 59.5934C143.245 60.1737 142.955 60.87 142.781 61.6243C142.607 62.3787 142.549 63.1911 142.549 64.0035C142.549 64.9319 142.665 65.8603 142.839 66.7307C143.013 67.6011 143.303 68.4135 143.709 69.1098C144.115 69.8061 144.578 70.3284 145.216 70.7926C145.796 71.1988 146.491 71.4309 147.303 71.4309C148.115 71.4309 148.752 71.2568 149.332 70.9086C149.854 70.5605 150.317 70.0963 150.665 69.458C151.013 68.8777 151.245 68.1814 151.419 67.427C151.593 66.6727 151.651 65.8603 151.651 65.106C151.651 64.1775 151.593 63.3071 151.419 62.3787C151.245 61.5083 150.955 60.6959 150.607 59.9996C150.26 59.3033 149.796 58.723 149.216 58.3168C148.462 57.8526 147.825 57.6205 147.013 57.6205Z" fill="#656E75"/>
<path d="M167.362 60.9284C167.362 60.4062 167.362 60 167.42 59.6518C167.42 59.3037 167.478 58.9555 167.536 58.6073L165.333 58.7234V57.5048H166.261C166.724 57.5048 167.072 57.5048 167.362 57.4468C167.652 57.3888 167.942 57.3308 168.174 57.2727C168.405 57.2147 168.579 57.0986 168.695 57.0406C168.811 56.9246 168.985 56.8665 169.101 56.7505H169.971L169.913 68.2398C169.913 68.4139 169.913 68.588 169.913 68.8201C169.913 69.0522 169.913 69.3423 169.913 69.5744C169.913 69.8646 169.913 70.0967 169.855 70.3868C169.855 70.6769 169.797 70.909 169.797 71.0831L172 70.9671V72.2437H167.652C167.594 71.8955 167.536 71.6054 167.536 71.3152C167.478 71.0251 167.478 70.735 167.478 70.4448C167.188 70.735 166.782 71.0831 166.434 71.3152C166.029 71.6054 165.623 71.8375 165.217 72.0696C164.811 72.3017 164.347 72.4177 163.884 72.5918C163.42 72.7079 162.956 72.7659 162.55 72.7659C161.739 72.7659 160.985 72.6499 160.347 72.4177C159.71 72.1856 159.188 71.8375 158.782 71.3152C158.376 70.793 158.029 70.0967 157.855 69.2843C157.623 68.4139 157.565 67.3694 157.565 66.1508V60.7543C157.565 60.4642 157.565 60.116 157.565 59.7679C157.565 59.4197 157.623 59.1296 157.681 58.7814L155.594 58.8975V57.6789H156.521C156.927 57.6789 157.333 57.6789 157.623 57.6209C157.913 57.5629 158.202 57.5048 158.434 57.4468C158.666 57.3888 158.84 57.2727 158.956 57.2147C159.072 57.0987 159.246 57.0406 159.362 56.9246H160.231V66.2089C160.231 67.0793 160.289 67.8336 160.405 68.5299C160.521 69.1682 160.695 69.6905 160.985 70.1547C161.275 70.5609 161.565 70.909 162.029 71.0831C162.434 71.2572 162.956 71.3733 163.536 71.3733C163.942 71.3733 164.289 71.3152 164.695 71.1992C165.043 71.0831 165.391 70.909 165.739 70.6769C166.087 70.4448 166.376 70.2127 166.666 69.9226C166.956 69.6325 167.188 69.3423 167.42 69.0522V67.4855V60.9284H167.362Z" fill="#656E75"/>
<path d="M174.087 60.5795C174.087 60.2893 174.087 59.9412 174.087 59.593C174.087 59.2448 174.145 58.9547 174.203 58.6065L172.058 58.7226V57.446C172.696 57.446 173.275 57.446 173.681 57.388C174.087 57.33 174.435 57.2719 174.667 57.2139C174.898 57.1559 175.13 57.0398 175.246 56.9818C175.362 56.8657 175.536 56.8077 175.594 56.6917H176.464C176.464 56.8657 176.522 57.0978 176.522 57.388C176.522 57.6781 176.58 57.9682 176.58 58.3164C176.869 58.0263 177.217 57.7942 177.623 57.5621C177.971 57.3299 178.377 57.1559 178.783 56.9818C179.188 56.8077 179.594 56.6917 180.058 56.6336C180.464 56.5176 180.928 56.5176 181.333 56.5176C182.203 56.5176 183.072 56.6917 183.884 57.0398C184.696 57.388 185.391 57.9102 186.029 58.5485C186.667 59.1868 187.13 59.9992 187.478 60.9276C187.826 61.856 188 62.9005 188 64.1191C188 64.9895 187.884 65.8019 187.71 66.5562C187.536 67.3106 187.246 68.0069 186.899 68.6452C186.551 69.2835 186.145 69.8638 185.681 70.386C185.217 70.9082 184.696 71.3144 184.116 71.6626C183.536 72.0107 182.956 72.3009 182.261 72.475C181.623 72.649 180.927 72.7651 180.29 72.7651C178.898 72.7651 177.681 72.4169 176.638 71.7786V76.827C176.638 77.2332 176.638 77.5813 176.638 77.9295C176.638 78.2196 176.58 78.5678 176.522 78.9159L178.435 78.7999V80.0185H172.232V79.09C172.696 79.09 173.043 78.974 173.275 78.7999C173.507 78.6258 173.681 78.3357 173.797 78.0455C173.913 77.6974 173.971 77.3492 173.971 76.885C173.971 76.4208 173.971 75.9566 174.029 75.3763L174.087 60.5795ZM180.29 57.9683C179.942 57.9683 179.594 58.0263 179.246 58.0843C178.899 58.2004 178.609 58.3164 178.261 58.4325C177.971 58.6065 177.681 58.7806 177.391 58.9547C177.101 59.1868 176.869 59.3609 176.696 59.593C176.696 59.651 176.696 59.7671 176.696 59.8831C176.696 59.9992 176.696 60.1733 176.696 60.4054C176.696 60.6375 176.696 60.9856 176.696 61.4499C176.696 61.9141 176.696 62.4943 176.696 63.2487C176.696 64.003 176.696 64.9315 176.696 66.092C176.696 67.1945 176.696 68.5872 176.696 70.2119C177.217 70.5601 177.739 70.9082 178.377 71.0823C178.956 71.3144 179.594 71.3725 180.29 71.3725C180.985 71.3725 181.681 71.1984 182.203 70.8502C182.783 70.5021 183.246 70.0378 183.652 69.3995C184.058 68.7612 184.348 68.0649 184.58 67.1945C184.812 66.3241 184.928 65.3957 184.928 64.4092C184.928 63.5969 184.87 62.7845 184.696 62.0301C184.522 61.2758 184.232 60.5214 183.884 59.9412C183.536 59.3029 183.014 58.8386 182.435 58.4905C181.797 58.1423 181.101 57.9683 180.29 57.9683Z" fill="#656E75"/>
<path d="M133.622 88.3734C133.332 88.3734 133.1 88.3734 132.752 88.3734C132.752 87.503 132.752 86.5746 132.752 85.7042C132.752 84.8337 132.752 83.9633 132.752 83.0929C132.694 83.0929 132.694 83.0349 132.637 83.0349C132.521 83.151 132.463 83.267 132.347 83.3831C131.013 84.9498 129.332 86.8067 127.999 88.3734H127.361C127.361 86.1103 127.361 83.7312 127.361 81.4102C127.651 81.4102 127.883 81.4102 128.231 81.4102C128.231 83.151 128.231 84.9498 128.231 86.8067C128.405 86.6906 128.173 86.8647 128.231 86.8067C129.622 85.2399 131.593 83.0349 132.926 81.4102H133.564C133.622 83.7312 133.622 86.0523 133.622 88.3734Z" fill="#656E75"/>
<path d="M67.2446 88.4314C67.3026 88.4895 66.2011 86.5165 66.2011 86.5165H62.0272C62.0272 86.5165 61.2156 88.1413 61.0417 88.4314H60.0562C60.1721 88.1993 62.6649 83.4411 63.7084 81.4102C63.9402 81.4102 64.462 81.4102 64.462 81.4102C65.6214 83.6152 67.0127 86.2264 68.1722 88.4314H67.2446ZM65.7953 85.7042C65.2156 84.6597 64.6939 83.6732 64.1142 82.5707C63.5344 83.6732 63.0127 84.6597 62.491 85.7042C63.6504 85.7042 64.6939 85.7042 65.7953 85.7042Z" fill="#656E75"/>
<path d="M164.057 88.3162C164.115 88.3742 163.014 86.4013 163.014 86.4013H158.84C158.84 86.4013 158.028 88.026 157.854 88.3162H156.869C156.985 88.0841 159.477 83.3259 160.521 81.2949C160.753 81.2949 161.274 81.2949 161.274 81.2949C162.434 83.4999 163.825 86.1111 164.985 88.3162H164.057ZM162.608 85.5889C162.028 84.5444 161.506 83.558 160.927 82.4555C160.347 83.558 159.825 84.5444 159.303 85.5889C160.405 85.5889 161.506 85.5889 162.608 85.5889Z" fill="#656E75"/>
<path d="M35.3602 81.1206C35.708 81.2367 36.0558 81.2947 36.4037 81.4107C37.0993 81.7009 37.679 82.1651 38.1428 82.8034C37.9109 82.9775 37.679 83.1515 37.4471 83.3256C36.0558 81.7589 34.3167 81.5268 33.0413 82.8034C31.8819 83.9639 31.9978 86.1109 33.2152 87.1554C34.5486 88.3159 36.3457 87.9097 37.6211 86.227C37.8529 86.401 38.0848 86.5751 38.3167 86.7492C37.6211 88.0258 36.5776 88.6641 35.1283 88.6641C33.2732 88.6641 31.8239 87.6196 31.4761 85.8208C30.9543 83.4997 32.3456 81.4688 34.4906 81.2367C34.5486 81.2367 34.6065 81.1786 34.6065 81.1786C34.8384 81.1206 35.0703 81.1206 35.3602 81.1206Z" fill="#656E75"/>
<path d="M78.4917 88.4902C78.2598 88.4902 78.0279 88.4902 77.738 88.4902C77.738 86.1111 77.738 83.732 77.738 81.2949C77.9699 81.2949 78.2598 81.2949 78.4917 81.2949C78.4917 83.674 78.4917 86.0531 78.4917 88.4902Z" fill="#656E75"/>
<path d="M28.8097 84.4284C29.6213 84.8926 30.0271 85.6469 29.9112 86.5754C29.7953 87.7359 28.9837 88.4322 27.7663 88.4322C26.201 88.4902 24.6938 88.4322 23.0706 88.4322C23.0706 86.0531 23.0706 83.674 23.0706 81.2949C23.2445 81.2949 23.3604 81.2949 23.5343 81.2949C24.9256 81.2949 26.317 81.2949 27.7083 81.3529C28.4039 81.3529 29.0416 81.6431 29.2735 82.3974C29.5054 83.0937 29.4474 83.8481 28.8097 84.3703C28.8677 84.3703 28.8097 84.3703 28.8097 84.4284ZM23.9981 84.9506C23.9981 85.821 23.9981 86.6914 23.9981 87.6198C25.2735 87.6198 26.5489 87.6198 27.8242 87.6198C28.5779 87.6198 28.9837 87.0976 28.9837 86.3432C28.9837 85.5889 28.5779 85.0086 27.8242 85.0086C26.6068 84.9506 25.3314 84.9506 23.9981 84.9506ZM23.9981 84.1382C25.2155 84.1382 26.3749 84.1382 27.5923 84.1382C28.23 84.1382 28.6358 83.732 28.5779 83.0937C28.5779 82.4555 28.1721 82.1653 27.5344 82.1073C26.6648 82.1073 25.7952 82.1073 24.9836 82.1073C24.6938 82.1073 24.4039 82.1073 24.0561 82.1073C23.9981 82.8036 23.9981 83.4419 23.9981 84.1382Z" fill="#656E75"/>
<path d="M53.9695 81.352C55.5347 81.352 57.042 81.2939 58.5492 81.352C59.6507 81.41 60.2884 82.2224 60.2304 83.3249C60.1725 84.4274 59.4188 85.2398 58.3753 85.2978C57.3318 85.3558 56.3463 85.2978 55.3028 85.2978C55.1869 85.2978 55.013 85.2978 54.8391 85.2978C54.8391 86.3423 54.8391 87.3868 54.8391 88.4312C54.5492 88.4312 54.2593 88.4312 53.9695 88.4312C53.9695 86.0521 53.9695 83.7311 53.9695 81.352ZM54.8391 82.1643C54.8391 82.9767 54.8391 83.7311 54.8391 84.4854C55.9985 84.4854 57.1579 84.4854 58.2594 84.4854C58.955 84.4854 59.3029 84.0212 59.3029 83.3829C59.3029 82.7446 58.955 82.2224 58.3174 82.2224C57.1579 82.1063 55.9985 82.1643 54.8391 82.1643Z" fill="#656E75"/>
<path d="M70.3176 84.1378C71.7669 84.1378 73.1002 84.1378 74.5495 84.1378C74.5495 83.2094 74.5495 82.281 74.5495 81.3525C74.8394 81.3525 75.1292 81.3525 75.4191 81.3525C75.4191 83.7317 75.4191 86.0527 75.4191 88.4319C75.1292 88.4319 74.8394 88.4319 74.5495 88.4319C74.5495 87.2713 74.5495 86.1688 74.5495 85.0082C73.1582 85.0082 71.7669 85.0082 70.3176 85.0082C70.3176 86.1688 70.3176 87.2713 70.3176 88.4319C70.0277 88.4319 69.7379 88.4319 69.448 88.4319C69.448 86.0527 69.448 83.7317 69.448 81.3525C69.7379 81.3525 69.9697 81.3525 70.3176 81.3525C70.3176 82.281 70.3176 83.2094 70.3176 84.1378Z" fill="#656E75"/>
<path d="M48.4052 88.4322C48.0574 88.4322 47.8255 88.4322 47.5356 88.4322C47.5356 86.0531 47.5356 83.7321 47.5356 81.2949C49.3328 81.2949 51.0719 81.2949 52.869 81.2949C52.869 81.527 52.869 81.8172 52.869 82.1073C51.3618 82.1073 49.9125 82.1073 48.4052 82.1073C48.4052 84.2543 48.4052 86.3433 48.4052 88.4322Z" fill="#656E75"/>
<path d="M40.8688 88.4322C40.579 88.4322 40.2891 88.4322 39.9993 88.4322C39.9993 86.0531 39.9993 83.674 39.9993 81.2949C40.2891 81.2949 40.579 81.2949 40.8688 81.2949C40.8688 83.674 40.8688 86.0531 40.8688 88.4322Z" fill="#656E75"/>
<path d="M84.8696 81.3525C86.5508 81.3525 88.29 81.3525 89.9711 81.4106C90.203 81.4106 90.4349 81.4106 90.6668 81.4106C90.6668 81.7007 90.6668 81.9328 90.6668 82.2229C89.0436 82.2229 87.4204 82.2229 85.7972 82.2229C85.7972 82.9193 85.7972 83.4995 85.7972 84.1959C86.4349 84.1959 87.1305 84.1959 87.7682 84.1959C88.2899 84.1959 88.7537 84.1959 89.2755 84.1959C90.6668 84.2539 91.3624 85.0082 91.3624 86.2848C91.3624 87.5614 90.4929 88.4318 89.2175 88.4318C87.7682 88.4899 86.3189 88.4318 84.9276 88.4318C84.8696 86.0527 84.8696 83.6736 84.8696 81.3525ZM85.7392 87.6195C86.8407 87.6195 87.8841 87.6195 88.8697 87.6195C89.1015 87.6195 89.3334 87.6195 89.5653 87.5034C90.0871 87.3293 90.3769 86.9812 90.3769 86.3429C90.3769 85.6465 90.145 85.2984 89.6233 85.0663C89.5074 85.0082 89.3914 84.9502 89.3334 84.9502C88.116 84.9502 86.9566 84.9502 85.7392 84.9502C85.7392 85.8786 85.7392 86.749 85.7392 87.6195Z" fill="#656E75"/>
<path d="M110.84 88.4319C110.84 86.0528 110.84 83.7317 110.84 81.4687C112.521 81.4687 114.144 81.4106 115.767 81.4687C116.347 81.4687 116.811 81.8748 116.985 82.4551C117.216 83.1514 117.159 83.8478 116.463 84.428C117.159 84.8922 117.564 85.5305 117.564 86.4009C117.506 87.5035 116.811 88.3158 115.593 88.3739C114.028 88.4899 112.463 88.4319 110.84 88.4319ZM111.709 85.0083C111.709 85.9367 111.709 86.7491 111.709 87.6195C113.043 87.6195 114.318 87.6195 115.593 87.6195C115.709 87.6195 115.883 87.5615 115.999 87.5035C116.521 87.2713 116.753 86.6911 116.637 86.0528C116.521 85.4725 116.115 85.0083 115.593 85.0083C114.318 84.9503 113.043 85.0083 111.709 85.0083ZM111.709 82.223C111.709 82.9193 111.709 83.4996 111.709 84.1379C112.927 84.1379 114.144 84.1959 115.361 84.1379C115.941 84.1379 116.231 83.6737 116.173 83.0934C116.115 82.5712 115.825 82.223 115.245 82.223C114.086 82.165 112.927 82.223 111.709 82.223Z" fill="#656E75"/>
<path d="M155.073 84.428C155.652 84.8342 156.058 85.2984 156.174 85.9947C156.348 87.3873 155.536 88.3738 154.087 88.4318C152.58 88.4899 151.015 88.4318 149.449 88.4318C149.449 86.1108 149.449 83.7897 149.449 81.3525C149.739 81.3525 150.029 81.3525 150.261 81.3525C151.478 81.3525 152.754 81.3525 153.971 81.4106C154.667 81.4106 155.247 81.7007 155.536 82.339C155.826 83.0934 155.768 83.8477 155.073 84.428ZM150.319 87.6195C151.652 87.6195 152.87 87.6775 154.145 87.6195C154.899 87.6195 155.363 87.0392 155.305 86.2268C155.305 85.4144 154.841 85.0082 154.029 84.9502C152.928 84.9502 151.826 84.9502 150.725 84.9502C150.609 84.9502 150.493 85.0082 150.377 85.0082C150.319 85.8786 150.319 86.749 150.319 87.6195ZM150.319 82.2229C150.319 82.8612 150.319 83.4995 150.319 84.1378C151.594 84.1378 152.812 84.1959 154.029 84.1378C154.609 84.1378 154.841 83.6736 154.841 83.1514C154.783 82.6291 154.551 82.281 154.029 82.281C152.754 82.2229 151.536 82.2229 150.319 82.2229Z" fill="#656E75"/>
<path d="M99.5359 89.9986C99.246 89.9986 99.0721 89.9986 98.7822 89.9986C98.7822 89.2442 98.7822 87.6195 98.7822 87.6195H99.6518L102.318 81.3525H103.014L105.797 87.6195H106.724C106.724 87.6195 106.724 89.1862 106.724 89.9986C106.492 89.9986 106.261 89.9986 105.971 89.9986C105.971 89.5343 105.971 89.0121 105.971 88.4899C103.768 88.4899 101.681 88.4899 99.4779 88.4899C99.5359 88.9541 99.5359 89.4183 99.5359 89.9986ZM102.724 82.5711C101.971 84.3119 101.333 85.9367 100.637 87.6195C102.087 87.6195 103.478 87.6195 104.985 87.6195C104.232 85.9367 103.478 84.3119 102.724 82.5711Z" fill="#656E75"/>
<path d="M141.274 87.6211C141.622 87.6211 141.97 87.6791 142.26 87.6791C142.26 88.4334 142.26 89.1878 142.26 90.0002C142.028 90.0002 141.796 90.0002 141.506 90.0002C141.506 89.4779 141.506 89.0137 141.506 88.4915C139.593 88.4915 137.738 88.4915 135.883 88.4915C135.883 86.1124 135.883 83.7913 135.883 81.4702C136.173 81.4702 136.405 81.4702 136.752 81.4702C136.752 83.5592 136.752 85.5901 136.752 87.6791C137.97 87.6791 139.187 87.6791 140.405 87.6791C140.405 85.5901 140.405 83.5592 140.405 81.4702C140.694 81.4702 140.984 81.4702 141.274 81.4702C141.274 83.4431 141.274 85.5321 141.274 87.6211Z" fill="#656E75"/>
<path d="M119.478 81.4102C119.768 81.4102 120 81.4102 120.348 81.4102C120.348 82.3386 120.348 83.209 120.348 84.1374C121.739 84.1374 123.13 84.1374 124.522 84.1374C124.522 83.209 124.522 82.3386 124.522 81.4102C124.811 81.4102 125.101 81.4102 125.333 81.4102C125.333 83.7312 125.333 86.0523 125.333 88.4314C125.043 88.4314 124.811 88.4314 124.522 88.4314C124.522 87.3289 124.522 86.1684 124.522 85.0659C123.13 85.0659 121.739 85.0659 120.348 85.0659C120.348 86.1684 120.348 87.2709 120.348 88.4314C120.058 88.4314 119.768 88.4314 119.478 88.4314C119.478 86.0523 119.478 83.7312 119.478 81.4102Z" fill="#656E75"/>
<path d="M95.9424 85.2404C96.638 84.1378 98.3192 81.3525 98.3192 81.3525H99.3627C99.3627 81.3525 96.1742 86.4589 95.0148 88.4319H93.9713C94.3192 87.8516 95.3626 86.1108 95.3626 86.1108C94.4931 84.8922 92.2322 81.3525 92.2322 81.3525H93.3336C93.3336 81.3525 95.1887 84.1378 95.9424 85.2404Z" fill="#656E75"/>
<path d="M145.101 82.2225C144.057 82.2225 143.13 82.2225 142.144 82.2225C142.144 81.9324 142.144 81.7003 142.144 81.4102C144.405 81.4102 146.608 81.4102 148.869 81.4102C148.869 81.6423 148.869 81.8744 148.869 82.1645C147.941 82.1645 146.956 82.1645 145.912 82.1645C145.912 84.2535 145.912 86.3425 145.912 88.3734C145.623 88.3734 145.333 88.3734 145.043 88.3734C145.101 86.3425 145.101 84.3115 145.101 82.2225Z" fill="#656E75"/>
<path d="M107.826 81.3525C108.116 81.3525 108.347 81.3525 108.637 81.3525C108.637 83.7317 108.637 86.0527 108.637 88.4319C108.347 88.4319 108.116 88.4319 107.826 88.4319C107.826 86.0527 107.826 83.7317 107.826 81.3525Z" fill="#656E75"/>
</svg>
