<svg width="213" height="45" viewBox="0 0 213 45" fill="none" xmlns="http://www.w3.org/2000/svg">
<path d="M29.5221 44.5521H14.2778C6.13974 44.5521 0 39.4099 0 30.9003C0 23.2033 6.28915 17.6875 13.7642 17.6875C21.2346 17.6875 27.5285 23.2033 27.5285 30.9003C27.5285 36.3787 24.531 39.2651 22.0144 40.7083V40.783H29.5268V44.5521H29.5221ZM4.88378 31.0124C4.88378 36.3787 8.61898 40.3393 13.7269 40.3393C18.9048 40.3393 22.6447 36.3787 22.6447 31.0124C22.6447 25.7954 18.9468 21.9096 13.6568 21.9096C8.58163 21.9049 4.88378 25.7908 4.88378 31.0124Z" fill="#656E75"/>
<path d="M48.7164 44.5518H44.5003V41.7029H44.4256C43.6131 43.4776 41.9463 44.9955 38.9862 44.9955C34.2144 44.9955 32.5103 41.6281 32.5103 37.9992V26.79H36.9505V35.7807C36.9505 37.7423 37.0999 40.9976 40.2048 40.9976C43.1276 40.9976 44.2761 38.8539 44.2761 36.4813V26.79H48.7164V44.5518Z" fill="#656E75"/>
<path d="M64.8427 42.1139H64.7307C63.4747 44.1129 61.4017 45.0003 59.0345 45.0003C55.7429 45.0003 52.5586 43.1881 52.5586 39.6713C52.5586 33.8986 59.2913 33.4922 63.7315 33.4922H64.8427V33.0112C64.8427 30.8301 63.1386 29.6811 60.7714 29.6811C58.9224 29.6811 57.2183 30.4191 56.037 31.5306L53.7072 29.2001C55.6682 27.2011 58.4415 26.3511 61.2523 26.3511C68.8347 26.3511 68.8347 31.8295 68.8347 34.3423V44.5566H64.8381V42.1139H64.8427ZM64.5859 36.5981H63.6615C61.2196 36.5981 57.0035 36.7849 57.0035 39.335C57.0035 40.965 58.6703 41.6656 60.113 41.6656C63.1479 41.6656 64.5906 40.0729 64.5906 37.5976V36.5981H64.5859Z" fill="#656E75"/>
<path d="M87.6652 41.8897H87.5905C86.2972 44.0334 83.9627 45.0002 81.4881 45.0002C76.0114 45.0002 72.7197 40.9275 72.7197 35.6733C72.7197 30.419 76.2355 26.3463 81.3014 26.3463C84.6304 26.3463 86.4046 27.9016 87.3337 29.0458H87.4458V16.5757H91.886V44.5518H87.6699V41.8897H87.6652ZM82.3752 41.0023C85.6295 41.0023 87.5905 38.4475 87.5905 35.6733C87.5905 32.899 85.6295 30.3442 82.3752 30.3442C79.1209 30.3442 77.1599 32.899 77.1599 35.6733C77.1599 38.4475 79.1209 41.0023 82.3752 41.0023Z" fill="#656E75"/>
<path d="M96.9097 26.7899H101.35V29.6015H101.425C102.386 27.5652 104.347 26.3462 106.677 26.3462C107.233 26.3462 107.751 26.4583 108.269 26.6031V30.8952C107.532 30.7131 106.827 30.5636 106.122 30.5636C101.943 30.5636 101.35 34.0805 101.35 35.0426V44.5517H96.9097V26.7899Z" fill="#656E75"/>
<path d="M127.502 44.5518H123.285V41.7029H123.211C122.398 43.4776 120.731 44.9955 117.771 44.9955C113 44.9955 111.295 41.6281 111.295 37.9992V26.79H115.736V35.7807C115.736 37.7423 115.885 40.9976 118.99 40.9976C121.913 40.9976 123.061 38.8539 123.061 36.4813V26.79H127.502V44.5518Z" fill="#656E75"/>
<path d="M132.343 26.7899H136.559V29.5641H136.634C137.409 27.8968 139.113 26.3462 142.073 26.3462C144.81 26.3462 146.696 27.4204 147.625 29.6389C148.918 27.383 150.805 26.3462 153.471 26.3462C158.205 26.3462 159.872 29.7136 159.872 33.9684V44.5517H155.432V34.4868C155.432 32.2683 154.764 30.3394 152.14 30.3394C149.366 30.3394 148.33 32.6326 148.33 34.9305V44.5517H143.89V33.9684C143.89 31.7873 143.003 30.3394 140.855 30.3394C137.932 30.3394 136.783 32.4879 136.783 34.8558V44.5517H132.343V26.7899Z" fill="#656E75"/>
<path d="M212.561 0H176.964V26.589H185.948V35.6077H212.561V0Z" fill="#656E75"/>
<path d="M176.964 26.5889H167.986V44.5515H185.948V35.6075H176.964V26.5889Z" fill="#656E75"/>
<path d="M185.943 26.5889H176.964V35.6075H185.943V26.5889Z" fill="black"/>
</svg>
