<svg width="237" height="53" viewBox="0 0 237 53" fill="none" xmlns="http://www.w3.org/2000/svg">
<path d="M11.4706 12.5912H43.9045L32.434 1.12061H0L11.4706 12.5912Z" fill="#656E75"/>
<path d="M56.5287 16.217L43.9045 28.8082V12.5912L56.5287 0V16.217Z" fill="#656E75"/>
<path d="M67.8344 52.7382L27.6875 12.5913V28.8083L51.6174 52.7382H67.8344Z" fill="#656E75"/>
<path d="M178.321 32.7964C175.75 35.1697 172.685 36.3892 169.059 36.3892C165.4 36.3892 162.335 35.2026 159.797 32.7964C157.226 30.3903 155.973 27.4897 155.973 24.0946C155.973 20.6996 157.226 17.832 159.797 15.3928C162.368 12.9867 165.433 11.7671 169.059 11.7671C172.718 11.7671 175.783 12.9537 178.321 15.3928C180.892 17.7661 182.178 20.6667 182.178 24.0946C182.178 27.4897 180.859 30.3903 178.321 32.7964ZM164.313 28.8411C165.598 30.1266 167.18 30.7858 169.059 30.7858C170.872 30.7858 172.454 30.1266 173.773 28.8081C175.124 27.4567 175.783 25.9075 175.783 24.0946C175.783 22.3147 175.124 20.7326 173.773 19.3812C172.487 18.0297 170.905 17.3705 169.059 17.3705C167.246 17.3705 165.664 18.0297 164.346 19.3812C163.06 20.6667 162.368 22.2488 162.368 24.0946C162.368 25.9734 162.994 27.5556 164.313 28.8411Z" fill="#656E75"/>
<path d="M79.47 35.5324V12.5913H93.7093C95.4562 12.5913 97.368 13.2835 98.9831 14.602C100.598 15.8874 101.785 18.1288 101.785 20.7657C101.785 23.106 100.928 25.0507 99.2468 26.5999C97.5658 28.1491 95.7199 28.9072 93.7093 28.9072H85.6997V35.5654H79.47V35.5324ZM85.7326 23.2378H93.4785C93.7752 23.2378 94.0719 23.1719 94.6322 22.9082C95.2585 22.6445 95.654 21.8535 95.654 20.7657C95.654 19.6121 95.2585 18.821 94.6322 18.5573C94.0059 18.2936 93.7422 18.2607 93.4456 18.2607H85.7326V23.2378Z" fill="#656E75"/>
<path d="M105.444 35.5324V12.5913H125.517V18.0629H111.673V21.5238H124.792V26.3362H111.673V30.1268H125.781V35.4995H105.444V35.5324Z" fill="#656E75"/>
<path d="M185.836 35.5325V11.8003L198.394 24.3256L210.953 11.8003V35.5325H205.119V25.1826L198.361 32.0386L191.604 25.1826V35.5654H185.836V35.5325Z" fill="#656E75"/>
<path d="M215.93 35.5324V12.5913H236.003V18.0629H222.16V21.5238H235.212V26.3362H222.193V30.1268H236.3V35.4995H215.93V35.5324Z" fill="#656E75"/>
<path d="M130.527 35.5324V12.5913H136.625V20.568H146.184V12.5913H152.282V35.5324H146.184V26.3032H136.625V35.5654H130.527V35.5324Z" fill="#656E75"/>
</svg>
