<svg width="141" height="93" viewBox="0 0 141 93" fill="none" xmlns="http://www.w3.org/2000/svg">
<path d="M58.4632 50.102C56.861 48.5672 54.697 47.801 51.97 47.801H30.8V71.3984L35.2291 75.8994V64.5953H51.1155C54.293 64.5953 56.709 63.8824 58.3633 62.4556C60.0188 61.0288 60.8466 58.9705 60.8466 56.2794C60.8466 53.7079 60.0455 51.6495 58.4434 50.102H58.4632ZM51.1956 60.5586H35.2279V51.8585H50.8961C54.5101 51.8585 56.3177 53.3584 56.3177 56.3595C56.3177 59.1585 54.61 60.5586 51.1933 60.5586H51.1956ZM70.3582 74.3855V47.7998H65.9501V69.9043L70.3582 74.3855ZM83.7231 70.8934V62.8794H95.2014L99.173 58.8219H83.7231V51.8596H101.854L105.825 47.8021H79.2952V74.9509H101.993L105.965 70.8934H83.7231ZM121.295 47.801L106.918 74.9509L113.947 70.9747L123.837 52.3414L133.608 70.833L140.757 74.9509L126.379 47.801H121.295Z" fill="#656E75"/>
<path d="M7.50677 37.566V3.12876L3.75342 0V41.3611L7.50677 37.566Z" fill="#656E75"/>
<path d="M7.50677 37.566V3.12876L3.75342 0V41.3611L7.50677 37.566Z" fill="#656E75"/>
<path d="M22.5399 22.4273V15.5637L18.7668 12.4141V26.241L22.5399 22.4273Z" fill="#656E75"/>
<path d="M22.5399 22.4273V15.5637L18.7668 12.4141V26.241L22.5399 22.4273Z" fill="#656E75"/>
<path d="M15.0134 29.9758V9.32603L11.26 6.19727V33.7919L15.0134 29.9758Z" fill="#656E75"/>
<path d="M15.0134 29.9758V9.32603L11.26 6.19727V33.7919L15.0134 29.9758Z" fill="#656E75"/>
<path d="M18.7668 55.289V89.7878L22.5399 92.8759V51.4741L18.7668 55.289Z" fill="#656E75"/>
<path d="M18.7668 55.289V89.7878L22.5399 92.8759V51.4741L18.7668 55.289Z" fill="#656E75"/>
<path d="M3.77319 70.5707V77.3529L7.52654 80.462V66.6548L3.77319 70.5707Z" fill="#656E75"/>
<path d="M3.77319 70.5707V77.3529L7.52654 80.462V66.6548L3.77319 70.5707Z" fill="#656E75"/>
<path d="M11.28 62.8595V83.5499L15.0334 86.659V59.0435L11.28 62.8595Z" fill="#656E75"/>
<path d="M11.28 62.8595V83.5499L15.0334 86.659V59.0435L11.28 62.8595Z" fill="#656E75"/>
<path d="M26.2934 47.6998V18.6099L22.54 22.4259V51.5344L26.2934 47.6998Z" fill="#656E75"/>
<path d="M26.2934 47.6998V18.6099L22.54 22.4259V51.5344L26.2934 47.6998Z" fill="#656E75"/>
<path d="M18.7668 55.289V26.2212L15.0134 30.0175V59.1039L18.7668 55.2879V55.289Z" fill="#656E75"/>
<path d="M18.7668 55.289V26.2212L15.0134 30.0175V59.1039L18.7668 55.2879V55.289Z" fill="#656E75"/>
<path d="M11.2797 62.8792V33.751L7.52637 37.5659V66.6941L11.2797 62.8792Z" fill="#656E75"/>
<path d="M11.2797 62.8792V33.751L7.52637 37.5659V66.6941L11.2797 62.8792Z" fill="#656E75"/>
<path d="M3.75335 70.5903V41.3413L0 45.1562V74.3854L3.75335 70.5903Z" fill="#656E75"/>
<path d="M3.75335 70.5903V41.3413L0 45.1562V74.3854L3.75335 70.5903Z" fill="#656E75"/>
</svg>
