<svg width="120" height="120" viewBox="0 0 120 120" fill="none" xmlns="http://www.w3.org/2000/svg">
<path d="M25.0529 79.4266H24.4868V82.6417H24.9057C25.9359 82.6417 26.4453 82.087 26.4453 81.0115C26.4453 79.9361 26.0378 79.4266 25.0529 79.4266Z" fill="white"/>
<path d="M67.9246 65.2192C68.8608 65.5202 69.8393 65.6693 70.8227 65.6607C72.8802 65.7256 74.8915 65.0418 76.483 63.7362C77.2495 63.0666 77.8753 62.2514 78.3242 61.338C78.7731 60.4247 79.0362 59.4312 79.0981 58.4154H71.0151L67.9246 65.2192Z" fill="white"/>
<path d="M60.2264 0.000427391C48.35 -0.0443896 36.7274 3.43642 26.8308 10.002C16.9341 16.5676 9.2085 25.9226 4.6325 36.8821C0.0565073 47.8416 -1.16404 59.9127 1.12544 71.5664C3.41492 83.2202 9.11143 93.9323 17.4935 102.346C25.8756 110.76 36.5661 116.497 48.2111 118.83C59.8561 121.164 71.9316 119.989 82.9084 115.454C93.8852 110.92 103.269 103.23 109.872 93.358C116.475 83.4862 120 71.8769 120 60.0004C119.929 44.1484 113.616 28.9625 102.428 17.7322C91.24 6.50184 76.0781 0.131278 60.2264 0.000427391ZM22.8113 66.7023C21.2606 67.9251 19.3286 68.5624 17.3547 68.5023C16.1361 68.5105 14.9305 68.2516 13.8227 67.7438L11.0151 73.9476L10.7434 73.823L13.5849 67.608C13.1465 67.3677 12.7265 67.0952 12.3283 66.7929C10.856 65.6516 9.79499 64.0621 9.30569 62.2646L12.1359 61.1325C12.3178 61.7887 12.5882 62.4171 12.9396 63.0004C13.2615 63.5398 13.6665 64.0251 14.1396 64.4381C14.3547 64.608 14.5698 64.7551 14.7963 64.9023L18.0227 57.7363L17.7057 57.6117L17.2415 57.4532C15.4076 56.774 14.2529 56.3212 13.8453 56.1061C12.7527 55.6507 11.821 54.8794 11.1695 53.8911C10.518 52.9028 10.1765 51.7425 10.1887 50.5589C10.1893 49.732 10.371 48.9154 10.7211 48.1663C11.0712 47.4172 11.5812 46.7539 12.2151 46.2231C13.6068 45.0072 15.4056 44.3605 17.2529 44.4117C18.8671 44.3807 20.4506 44.8557 21.7812 45.7702C22.1973 46.0641 22.5773 46.4061 22.9132 46.7891L25.517 41.0042L25.7887 41.1287L19.4944 55.0532C21.0085 55.57 22.3782 56.4392 23.4906 57.5891C24.4822 58.7745 25.0128 60.2779 24.9849 61.8231C25.024 62.749 24.8482 63.6714 24.471 64.5179C24.0939 65.3644 23.5259 66.1121 22.8113 66.7023ZM26.8642 82.9023C26.5863 83.1399 26.2643 83.3202 25.9165 83.4329C25.5687 83.5456 25.2021 83.5884 24.8378 83.5589H23.4227V78.5664H24.9849C25.3297 78.5436 25.6756 78.59 26.0022 78.7027C26.3288 78.8155 26.6296 78.9924 26.8868 79.223C27.1186 79.4596 27.2987 79.7418 27.4157 80.0516C27.5326 80.3615 27.5838 80.6923 27.5661 81.023C27.5886 81.3681 27.5377 81.714 27.4167 82.038C27.2957 82.3619 27.1074 82.6565 26.8642 82.9023ZM33.5321 79.4268H31.6981V80.5589H33.3849V81.4306H31.6981V82.6419H33.5095V83.5023H30.6679V78.5664H33.5321V79.4268ZM38.8755 83.5589H37.7434L36.0453 78.5664H37.0981L38.0264 81.5098C38.074 81.635 38.1118 81.7637 38.1396 81.8947C38.1396 81.9627 38.1396 82.0419 38.1963 82.1212C38.2331 82.2432 38.2596 82.3682 38.2755 82.4947V82.6079C38.3231 82.2237 38.4064 81.8447 38.5245 81.4759L39.4755 78.5098H40.5283L38.8755 83.5589ZM46.1321 79.4268H44.3208V80.5589H46.0076V81.4306H44.3208V82.6419H46.1321V83.5023H43.2679V78.5664H46.1321V79.4268ZM52.3359 83.5363H49.2566V78.5664H50.3094V82.6419H52.3359V83.5363ZM51.1132 67.9929L45.283 54.8382L36.9283 73.2004L36.6566 73.0759L41.9547 61.3249H36.6113L31.2566 73.2004L30.9849 73.0759L33.2491 67.9929H30.5661L28.2113 73.2004L27.9283 73.0759L42.7245 40.2457L42.9962 40.3702L40.9359 44.8985H43.6529L45.7698 40.2004L46.0415 40.3249L43.9132 45.057L46.5736 51.0004L51.4076 40.2683L51.6793 40.3929L46.7208 51.3627L54.2151 67.9929H51.1132ZM59.1962 82.9476C58.9643 83.1713 58.6888 83.345 58.387 83.4579C58.0852 83.5708 57.7634 83.6206 57.4415 83.6042C57.1191 83.6263 56.7957 83.5791 56.4931 83.4659C56.1904 83.3526 55.9155 83.1759 55.6868 82.9476C55.2529 82.4121 55.0349 81.7337 55.0755 81.0457C55.0342 80.3541 55.2522 79.672 55.6868 79.1325C56.1732 78.7088 56.7965 78.4755 57.4415 78.4755C58.0866 78.4755 58.7098 78.7088 59.1962 79.1325C59.6309 79.672 59.8489 80.3541 59.8076 81.0457C59.8482 81.7337 59.6302 82.4121 59.1962 82.9476ZM65.8415 81.3627C65.4237 81.6613 64.9167 81.809 64.4038 81.7815H63.9623V83.5589H62.9094V78.5664H64.5283C65.0249 78.5278 65.5189 78.6684 65.9208 78.9627C66.0773 79.1051 66.2001 79.2806 66.2804 79.4764C66.3607 79.6722 66.3964 79.8834 66.3849 80.0947C66.4001 80.3339 66.3588 80.5732 66.2644 80.7935C66.17 81.0137 66.0252 81.2087 65.8415 81.3627ZM74.717 83.5589H73.7208V80.8306C73.7208 80.7514 73.7208 80.6042 73.7208 80.4004C73.7208 80.2079 73.7208 79.9702 73.7208 79.6646L72.4528 83.5589H71.4906L70.2793 79.6419C70.2793 80.423 70.2793 80.9551 70.2793 81.2268V83.5589H69.3283V78.5664H70.7661L71.966 82.3702L73.2113 78.5664H74.717V83.5589ZM80.8981 79.4268H79.0868V80.5589H80.7736V81.4306H79.0755V82.6419H80.8868V83.5023H78.0226V78.5664H80.8868L80.8981 79.4268ZM79.2453 65.1174C78.1569 66.2473 76.8418 67.1341 75.3862 67.7195C73.9306 68.3048 72.3676 68.5755 70.8 68.5136C69.4129 68.5194 68.0348 68.2897 66.7245 67.8344L64.3019 73.2117L64.0302 73.0872L66.4302 67.7325C64.1683 66.8368 62.2323 65.2742 60.8796 63.2521C59.5268 61.2301 58.8213 58.8443 58.8566 56.4117C58.8323 54.8315 59.1249 53.2624 59.7171 51.7971C60.3092 50.3318 61.189 49 62.3044 47.8804C63.4198 46.7608 64.7483 45.876 66.2113 45.2783C67.6744 44.6806 69.2423 44.3821 70.8227 44.4004C72.4617 44.3979 74.0864 44.7052 75.6113 45.3061C75.8852 45.4131 76.1535 45.534 76.4151 45.6683L78.8604 40.2683L79.1321 40.3929L72.2604 55.6419H81.9396C82.05 56.2127 82.1069 56.7926 82.1094 57.374C82.181 58.7914 81.9641 60.2085 81.4718 61.5395C80.9794 62.8706 80.222 64.0878 79.2453 65.1174ZM88.3811 83.5589H87.0679L84.9057 79.7891C84.9057 80.4457 84.9736 80.9212 84.9736 81.2155V83.5589H84.0227V78.5664H85.3472L87.5094 82.291C87.5094 82.1438 87.5094 82.0193 87.5094 81.8947V81.7023C87.5094 81.3513 87.5094 81.091 87.5094 80.9098V78.5664H88.4604L88.3811 83.5589ZM95.0038 79.4268H93.6792V83.5363H92.6151V79.4268H91.2679V78.5664H95.0264L95.0038 79.4268ZM111.125 67.9249H108.068L102.181 54.7929L93.9623 73.1778L93.6906 73.0532L98.9887 61.3023H93.3962L90.4076 67.9249H87.3057L97.5962 44.9438H100.845L103.551 51.0004L108.408 40.2683L108.679 40.3929L103.721 51.3853L111.125 67.9249Z" fill="white"/>
<path d="M18.8378 54.7816L19.2453 54.9287L21.5095 50.0042C21.2332 49.2335 20.7325 48.5632 20.0717 48.0797C19.2622 47.4978 18.2833 47.1994 17.2868 47.2306C16.2333 47.2067 15.2044 47.551 14.3774 48.2042C14.0134 48.4769 13.7204 48.8332 13.5234 49.2431C13.3263 49.653 13.2309 50.1043 13.2453 50.5589C13.2468 50.9483 13.3302 51.333 13.4901 51.6879C13.65 52.0429 13.8829 52.3603 14.1736 52.6193C15.5394 53.5325 17.0409 54.2241 18.6227 54.6684L18.8378 54.7816Z" fill="white"/>
<path d="M18.2605 57.8265L15.0115 65.0265L15.17 65.1058C15.3153 65.1888 15.4666 65.2607 15.6228 65.3209C16.1828 65.551 16.7834 65.6665 17.3888 65.6605C18.5828 65.716 19.7579 65.347 20.7058 64.619C21.1261 64.2889 21.4608 63.8625 21.6815 63.3758C21.9022 62.8891 22.0024 62.3564 21.9737 61.8228C21.9848 61.36 21.8966 60.9003 21.715 60.4746C21.5334 60.0489 21.2626 59.667 20.9209 59.3548C20.1316 58.6919 19.2308 58.1745 18.2605 57.8265Z" fill="white"/>
<path d="M37.8455 58.4606H43.1775L44.9889 54.453L42.3398 48.5096L37.8455 58.4606Z" fill="white"/>
<path d="M57.4191 79.37C57.2386 79.3588 57.0581 79.391 56.8927 79.4639C56.7273 79.5367 56.5817 79.6482 56.4681 79.7888C56.2401 80.1711 56.1299 80.6121 56.1511 81.0568C56.1244 81.4983 56.2351 81.9373 56.4681 82.3134C56.5817 82.454 56.7273 82.5655 56.8927 82.6383C57.0581 82.7112 57.2386 82.7434 57.4191 82.7322C58.2681 82.7322 58.687 82.1662 58.6644 81.0568C58.6417 79.9473 58.2681 79.37 57.4191 79.37Z" fill="white"/>
<path d="M94.6643 58.4608H100.189L101.989 54.4759L99.2266 48.2721L94.6643 58.4608Z" fill="white"/>
<path d="M64.449 79.4154H63.9622V80.8871H64.3244C64.5757 80.9078 64.8267 80.844 65.0376 80.7059C65.1213 80.6352 65.1881 80.5466 65.2331 80.4467C65.2782 80.3468 65.3003 80.2381 65.298 80.1286C65.3023 79.9225 65.225 79.7232 65.0829 79.5739C64.8947 79.4529 64.6719 79.3972 64.449 79.4154Z" fill="white"/>
<path d="M75.1019 48.2719C74.8981 48.17 74.683 48.0455 74.4566 47.9549C73.3157 47.4667 72.0862 47.22 70.8453 47.2304C69.6724 47.2104 68.5077 47.4289 67.4219 47.8725C66.336 48.3162 65.3516 48.9759 64.5283 49.8115C62.8623 51.6145 61.937 53.9793 61.937 56.4342C61.937 58.8891 62.8623 61.2538 64.5283 63.0568C65.4099 63.9706 66.4909 64.668 67.6868 65.0945L75.2491 48.3398L75.1019 48.2719Z" fill="white"/>
</svg>
