<svg width="100" height="100" viewBox="0 0 100 100" fill="none" xmlns="http://www.w3.org/2000/svg">
<path d="M20.8775 66.189H20.4058V68.8682H20.7548C21.6133 68.8682 22.0378 68.4059 22.0378 67.5097C22.0378 66.6135 21.6982 66.189 20.8775 66.189Z" fill="#656E75"/>
<path d="M56.6038 54.3495C57.384 54.6004 58.1993 54.7246 59.0189 54.7174C60.7335 54.7715 62.4095 54.2017 63.7358 53.1136C64.3745 52.5556 64.896 51.8764 65.2701 51.1152C65.6442 50.3541 65.8634 49.5262 65.9151 48.6797H59.1792L56.6038 54.3495Z" fill="#656E75"/>
<path d="M50.1887 0.000356159C40.2917 -0.0369913 30.6062 2.86368 22.359 8.335C14.1117 13.8063 7.67375 21.6021 3.86042 30.7351C0.0470894 39.868 -0.970036 49.9272 0.937864 59.6387C2.84576 69.3501 7.59286 78.2769 14.5779 85.2884C21.563 92.2999 30.4717 97.0807 40.1759 99.0253C49.88 100.97 59.943 99.9908 69.0903 96.2121C78.2376 92.4333 86.0577 86.0248 91.5602 77.7983C97.0626 69.5718 99.9999 59.8974 100 50.0003C99.9409 36.7903 94.6799 24.1354 85.3566 14.7768C76.0333 5.4182 63.3984 0.109399 50.1887 0.000356159ZM19.0094 55.5852C17.7172 56.6042 16.1072 57.1353 14.4623 57.0852C13.4468 57.092 12.4421 56.8763 11.5189 56.4532L9.17926 61.623L8.95285 61.5192L11.3208 56.34C10.9554 56.1397 10.6054 55.9127 10.2736 55.6607C9.04663 54.7096 8.16249 53.3851 7.75474 51.8871L10.1132 50.9437C10.2648 51.4906 10.4902 52.0143 10.783 52.5003C11.0512 52.9499 11.3887 53.3542 11.783 53.6984C11.9623 53.84 12.1415 53.9626 12.3302 54.0852L15.0189 48.1135L14.7547 48.0098L14.3679 47.8777C12.8396 47.3117 11.8774 46.9343 11.5378 46.7551C10.6273 46.3756 9.85081 45.7329 9.30792 44.9093C8.76503 44.0857 8.48043 43.1188 8.49059 42.1324C8.49107 41.4434 8.64251 40.7628 8.93426 40.1386C9.226 39.5143 9.65097 38.9616 10.1793 38.5192C11.339 37.506 12.838 36.967 14.3774 37.0098C15.7226 36.9839 17.0421 37.3798 18.151 38.1418C18.4978 38.3867 18.8144 38.6717 19.0944 38.9909L21.2642 34.1702L21.4906 34.2739L16.2453 45.8777C17.5071 46.3083 18.6485 47.0326 19.5755 47.9909C20.4018 48.9787 20.844 50.2315 20.8208 51.5192C20.8534 52.2908 20.7068 53.0595 20.3925 53.7649C20.0783 54.4704 19.6049 55.0934 19.0094 55.5852ZM22.3868 69.0852C22.1553 69.2832 21.8869 69.4335 21.5971 69.5274C21.3073 69.6213 21.0018 69.657 20.6981 69.6324H19.5189V65.472H20.8208C21.1081 65.453 21.3963 65.4916 21.6685 65.5856C21.9406 65.6795 22.1913 65.827 22.4057 66.0192C22.5989 66.2163 22.7489 66.4515 22.8464 66.7097C22.9438 66.9679 22.9865 67.2436 22.9717 67.5192C22.9905 67.8067 22.9481 68.095 22.8472 68.365C22.7464 68.6349 22.5895 68.8804 22.3868 69.0852ZM27.9434 66.189H26.4151V67.1324H27.8208V67.8588H26.4151V68.8682H27.9245V69.5852H25.5566V65.472H27.9434V66.189ZM32.3962 69.6324H31.4528L30.0377 65.472H30.9151L31.6887 67.9249C31.7283 68.0292 31.7598 68.1364 31.783 68.2456C31.783 68.3022 31.783 68.3682 31.8302 68.4343C31.8609 68.536 31.883 68.6402 31.8962 68.7456V68.8399C31.9359 68.5197 32.0054 68.2039 32.1038 67.8965L32.8962 65.4249H33.7736L32.3962 69.6324ZM38.4434 66.189H36.934V67.1324H38.3396V67.8588H36.934V68.8682H38.4434V69.5852H36.0566V65.472H38.4434V66.189ZM43.6132 69.6135H41.0472V65.472H41.9245V68.8682H43.6132V69.6135ZM42.5943 56.6607L37.7359 45.6984L30.7736 61.0003L30.5472 60.8966L34.9623 51.1041H30.5094L26.0472 61.0003L25.8208 60.8966L27.7076 56.6607H25.4717L23.5094 61.0003L23.2736 60.8966L35.6038 33.5381L35.8302 33.6418L34.1132 37.4154H36.3774L38.1415 33.5003L38.3679 33.6041L36.5943 37.5475L38.8113 42.5003L42.8396 33.5569L43.066 33.6607L38.934 42.8022L45.1792 56.6607H42.5943ZM49.3302 69.123C49.1369 69.3094 48.9073 69.4541 48.6558 69.5482C48.4043 69.6424 48.1361 69.6838 47.8679 69.6701C47.5993 69.6886 47.3298 69.6493 47.0775 69.5549C46.8253 69.4605 46.5962 69.3132 46.4057 69.123C46.0441 68.6767 45.8624 68.1114 45.8962 67.5381C45.8618 66.9617 46.0434 66.3933 46.4057 65.9437C46.811 65.5907 47.3304 65.3962 47.8679 65.3962C48.4055 65.3962 48.9248 65.5907 49.3302 65.9437C49.6924 66.3933 49.874 66.9617 49.8396 67.5381C49.8735 68.1114 49.6918 68.6767 49.3302 69.123ZM54.8679 67.8022C54.5197 68.0511 54.0972 68.1742 53.6698 68.1513H53.3019V69.6324H52.4245V65.472H53.7736C54.1874 65.4398 54.5991 65.557 54.934 65.8022C55.0644 65.9209 55.1667 66.0672 55.2336 66.2303C55.3005 66.3935 55.3303 66.5695 55.3208 66.7456C55.3334 66.9449 55.299 67.1444 55.2203 67.3279C55.1417 67.5114 55.021 67.6739 54.8679 67.8022ZM62.2641 69.6324H61.434V67.3588C61.434 67.2928 61.434 67.1701 61.434 67.0003C61.434 66.8399 61.434 66.6418 61.434 66.3871L60.3774 69.6324H59.5755L58.566 66.3682C58.566 67.0192 58.566 67.4626 58.566 67.689V69.6324H57.7736V65.472H58.9717L59.9717 68.6418L61.0094 65.472H62.2641V69.6324ZM67.4151 66.189H65.9057V67.1324H67.3113V67.8588H65.8962V68.8682H67.4056V69.5852H65.0189V65.472H67.4056L67.4151 66.189ZM66.0377 54.2645C65.1308 55.2061 64.0348 55.9451 62.8218 56.4329C61.6088 56.9207 60.3064 57.1462 59 57.0947C57.8441 57.0995 56.6957 56.9081 55.6038 56.5286L53.5849 61.0098L53.3585 60.906L55.3585 56.4437C53.4735 55.6973 51.8603 54.3951 50.733 52.7101C49.6057 51.025 49.0177 49.0369 49.0472 47.0098C49.0269 45.6929 49.2707 44.3853 49.7642 43.1643C50.2577 41.9432 50.9908 40.8334 51.9203 39.9003C52.8498 38.9673 53.9569 38.23 55.1761 37.7319C56.3953 37.2338 57.7019 36.9851 59.0189 37.0003C60.3847 36.9982 61.7387 37.2543 63.0094 37.7551C63.2377 37.8442 63.4612 37.945 63.6792 38.0569L65.717 33.5569L65.9434 33.6607L60.217 46.3683H68.283C68.375 46.8439 68.4224 47.3272 68.4245 47.8117C68.4842 48.9928 68.3034 50.1737 67.8931 51.2829C67.4828 52.3921 66.8516 53.4065 66.0377 54.2645ZM73.6509 69.6324H72.5566L70.7547 66.4909C70.7547 67.0381 70.8113 67.4343 70.8113 67.6796V69.6324H70.0189V65.472H71.1226L72.9245 68.5758C72.9245 68.4532 72.9245 68.3494 72.9245 68.2456V68.0852C72.9245 67.7928 72.9245 67.5758 72.9245 67.4249V65.472H73.717L73.6509 69.6324ZM79.1698 66.189H78.066V69.6135H77.1792V66.189H76.0566V65.472H79.1887L79.1698 66.189ZM92.6038 56.6041H90.0566L85.1509 45.6607L78.3019 60.9815L78.0755 60.8777L82.4906 51.0852H77.8302L75.3396 56.6041H72.7547L81.3302 37.4532H84.0377L86.2924 42.5003L90.3396 33.5569L90.566 33.6607L86.4339 42.8211L92.6038 56.6041Z" fill="#656E75"/>
<path d="M15.6982 45.6512L16.0378 45.7739L17.9246 41.6701C17.6944 41.0278 17.2771 40.4692 16.7265 40.0663C16.0519 39.5815 15.2361 39.3327 14.4057 39.3588C13.5278 39.3389 12.6703 39.6258 11.9812 40.1701C11.6779 40.3973 11.4337 40.6943 11.2695 41.0359C11.1053 41.3774 11.0258 41.7536 11.0378 42.1324C11.039 42.4568 11.1085 42.7774 11.2418 43.0732C11.3751 43.369 11.5692 43.6335 11.8114 43.8494C12.9495 44.6104 14.2008 45.1867 15.5189 45.5569L15.6982 45.6512Z" fill="#656E75"/>
<path d="M15.2171 48.189L12.5095 54.189L12.6416 54.255C12.7627 54.3242 12.8888 54.3841 13.019 54.4342C13.4857 54.626 13.9861 54.7223 14.4907 54.7173C15.4856 54.7635 16.4648 54.456 17.2548 53.8493C17.6051 53.5743 17.8839 53.219 18.0678 52.8134C18.2518 52.4078 18.3353 51.9639 18.3114 51.5192C18.3207 51.1336 18.2471 50.7505 18.0958 50.3957C17.9444 50.0409 17.7188 49.7227 17.434 49.4625C16.7763 48.9101 16.0256 48.4789 15.2171 48.189Z" fill="#656E75"/>
<path d="M31.5378 48.7173H35.9812L37.4907 45.3776L35.2831 40.4248L31.5378 48.7173Z" fill="#656E75"/>
<path d="M47.8492 66.1419C47.6988 66.1326 47.5484 66.1595 47.4105 66.2202C47.2727 66.2809 47.1514 66.3738 47.0567 66.491C46.8667 66.8096 46.7749 67.1771 46.7926 67.5476C46.7703 67.9156 46.8625 68.2814 47.0567 68.5948C47.1514 68.712 47.2727 68.8049 47.4105 68.8656C47.5484 68.9263 47.6988 68.9531 47.8492 68.9438C48.5567 68.9438 48.9058 68.4721 48.8869 67.5476C48.8681 66.6231 48.5567 66.1419 47.8492 66.1419Z" fill="#656E75"/>
<path d="M78.8867 48.7176H83.4905L84.9905 45.3969L82.6886 40.2271L78.8867 48.7176Z" fill="#656E75"/>
<path d="M53.7077 66.1796H53.302V67.406H53.6039C53.8133 67.4233 54.0225 67.3701 54.1982 67.255C54.2679 67.1961 54.3236 67.1223 54.3611 67.039C54.3987 66.9558 54.4171 66.8652 54.4152 66.7739C54.4188 66.6022 54.3544 66.4361 54.236 66.3117C54.0791 66.2108 53.8935 66.1644 53.7077 66.1796Z" fill="#656E75"/>
<path d="M62.585 40.2269C62.4152 40.142 62.2359 40.0382 62.0472 39.9627C61.0965 39.5559 60.0719 39.3503 59.0378 39.359C58.0604 39.3423 57.0899 39.5243 56.185 39.8941C55.2801 40.2638 54.4597 40.8136 53.7737 41.5099C52.3853 43.0124 51.6143 44.983 51.6143 47.0288C51.6143 49.0745 52.3853 51.0451 53.7737 52.5476C54.5083 53.3091 55.4091 53.8903 56.4057 54.2457L62.7076 40.2835L62.585 40.2269Z" fill="#656E75"/>
</svg>
