<svg width="168" height="78" viewBox="0 0 168 78" fill="none" xmlns="http://www.w3.org/2000/svg">
<path d="M68.6372 55.0181C68.6372 56.5657 68.3277 57.9585 67.7086 59.0419C67.0896 60.1252 66.2384 61.0538 65.2324 61.8276C64.2265 62.524 62.9884 63.0657 61.5955 63.4526C60.2027 63.7621 58.8098 63.9943 57.2622 63.9943C56.2562 63.9943 55.3277 63.9943 54.3217 63.9169C53.3158 63.8395 52.3872 63.6847 51.3812 63.4526C50.4527 63.2204 49.4467 62.8335 48.5181 62.2919C47.5896 61.7502 46.661 61.0538 45.7324 60.2026L50.9169 55.0181C51.4586 55.5597 52.0777 56.024 52.6193 56.2562C53.2384 56.5657 53.78 56.7978 54.3991 56.9526C55.0181 57.1073 55.5598 57.1847 56.0241 57.1847C56.4884 57.1847 56.9527 57.1847 57.2622 57.1847C57.5717 57.1847 57.8812 57.1847 58.2681 57.1074C58.655 57.03 59.0419 56.9526 59.4289 56.8752C59.8158 56.7204 60.1253 56.5657 60.3574 56.3335C60.5896 56.1014 60.7443 55.8693 60.7443 55.4823C60.7443 55.0954 60.5896 54.7859 60.3574 54.399C60.1253 54.0895 59.5836 53.8574 58.8098 53.78L54.786 53.3931C53.6253 53.3157 52.6193 53.0835 51.6908 52.774C50.7622 52.4645 49.9884 52.0002 49.2919 51.3812C48.5955 50.7621 48.1312 49.9883 47.7443 49.0597C47.3574 48.1312 47.2027 47.0478 47.2027 45.8097C47.2027 44.3395 47.5122 43.1014 48.1312 42.0181C48.7503 40.9347 49.5241 40.0062 50.53 39.3097C51.536 38.6133 52.6193 37.9943 53.8574 37.6847C55.0955 37.2978 56.411 37.1431 57.7265 37.1431C59.8931 37.1431 61.8277 37.3752 63.53 37.7621C65.2324 38.149 66.78 39.0776 68.0955 40.3157L63.1431 45.2681C62.5241 44.649 61.6729 44.1847 60.6669 44.03C59.661 43.7978 58.655 43.7204 57.5717 43.7204C56.5658 43.7204 55.9467 43.8752 55.5598 44.2621C55.0955 44.4943 54.9408 44.8812 54.9408 45.1133C54.9408 45.1907 54.9408 45.2681 54.9408 45.4228C54.9408 45.5776 55.0181 45.7324 55.0955 45.8871C55.1729 46.0419 55.3277 46.1966 55.5598 46.3514C55.7919 46.5062 56.1015 46.5835 56.5658 46.5835L60.5896 46.9704C61.9824 47.1252 63.1431 47.3574 64.1491 47.8216C65.155 48.2859 66.0062 48.8276 66.6253 49.6014C67.2443 50.2978 67.7086 51.149 68.0181 52.0776C68.4824 53.0062 68.6372 54.0121 68.6372 55.0181Z" fill="#656E75"/>
<path d="M101.911 63.2978V47.512C101.911 46.7382 101.833 46.1192 101.601 45.6549C101.369 45.1906 101.059 44.8037 100.75 44.5716C100.44 44.3394 100.054 44.1073 99.6666 44.0299C99.2797 43.9525 98.9702 43.8751 98.7381 43.8751C98.5059 43.8751 98.119 43.9525 97.8095 44.0299C97.4226 44.1073 97.0357 44.3394 96.7262 44.5716C96.4166 44.8037 96.1071 45.1906 95.875 45.6549C95.6428 46.1192 95.5655 46.7382 95.5655 47.512V63.2978H87.4405V47.512C87.4405 46.7382 87.3631 46.1192 87.1309 45.6549C86.8988 45.1906 86.5893 44.8037 86.2797 44.5716C85.9702 44.3394 85.5833 44.1073 85.1964 44.0299C84.8095 43.9525 84.5 43.8751 84.2678 43.8751C84.0357 43.8751 83.6488 43.9525 83.3393 44.0299C82.9524 44.1073 82.5655 44.3394 82.2559 44.5716C81.9464 44.8037 81.6369 45.1906 81.4047 45.6549C81.1726 46.1192 81.0952 46.7382 81.0952 47.512V63.2978H72.9702V36.9882H80.7083L80.7857 39.1549C81.6369 38.3811 82.5654 37.762 83.6488 37.2978C84.7321 36.9109 85.8155 36.6787 86.8988 36.6787C88.2143 36.6787 89.375 36.9109 90.4583 37.3751C91.5416 37.8394 92.4702 38.5359 93.3214 39.4644C94.4821 38.4585 95.5655 37.762 96.7262 37.2978C97.8869 36.9109 99.2024 36.6787 100.75 36.6787C101.988 36.6787 103.149 36.9109 104.31 37.2978C105.47 37.6847 106.321 38.2263 107.095 38.9228C108.256 40.0835 109.03 41.2442 109.417 42.4823C109.804 43.7204 110.036 45.0359 110.036 46.4287V63.2204H101.911V63.2978Z" fill="#656E75"/>
<path d="M115.762 38.6132V28.2441H123.732V34.3572L115.762 38.6132Z" fill="#656E75"/>
<path d="M115.762 63.298V42.3277L123.732 38.0718V63.298H115.762Z" fill="#656E75"/>
<path d="M137.738 63.2978C136.268 63.2978 135.03 63.0656 134.024 62.6013C133.018 62.137 132.167 61.518 131.548 60.7442C130.929 59.9704 130.387 59.1966 130.078 58.268C129.768 57.3394 129.613 56.4109 129.613 55.5597V28.5537H137.584V55.018C137.584 56.1013 138.125 56.643 139.209 56.643H141.994V63.3751H137.738V63.2978Z" fill="#656E75"/>
<path d="M151.976 52.7739C151.976 53.8573 152.363 54.8632 153.137 55.637C153.911 56.4882 155.072 56.8751 156.619 56.8751C158.012 56.8751 159.095 56.7204 159.869 56.3335C160.643 55.9466 161.339 55.4049 162.036 54.7085L166.834 59.5061C166.137 60.2025 165.441 60.7442 164.744 61.2859C164.048 61.8275 163.351 62.2144 162.5 62.6013C161.726 62.9882 160.798 63.2204 159.869 63.3751C158.863 63.5299 157.78 63.6073 156.619 63.6073C155.149 63.6073 153.679 63.4525 152.208 63.0656C150.738 62.7561 149.423 62.0597 148.185 61.1311C147.024 60.2025 146.018 58.8097 145.244 57.0299C144.47 55.2501 144.083 53.0061 144.083 50.143C144.083 47.9763 144.393 46.1192 144.935 44.4168C145.554 42.7918 146.328 41.3216 147.411 40.1609C148.417 39.0001 149.655 38.1489 151.125 37.5299C152.595 36.9109 154.143 36.6787 155.845 36.6787C157.703 36.6787 159.405 36.9882 160.875 37.6847C162.345 38.3037 163.583 39.2323 164.589 40.3156C165.595 41.4763 166.369 42.7918 166.834 44.262C167.375 45.8097 167.607 47.4347 167.607 49.137V52.6966H151.976V52.7739ZM159.792 47.4347C159.792 47.1251 159.792 46.7382 159.714 46.4287C159.637 46.1192 159.56 45.7323 159.405 45.3454C159.173 44.8037 158.708 44.3394 158.167 43.8751C157.625 43.4882 156.851 43.2561 155.923 43.2561C154.994 43.2561 154.22 43.4882 153.679 43.8751C153.137 44.262 152.75 44.7263 152.441 45.3454C152.286 45.7323 152.131 46.0418 152.131 46.4287C152.054 46.7382 152.054 47.1251 152.054 47.4347H159.792Z" fill="#656E75"/>
<path d="M47.5893 2.24405L36.369 8.74405V20.7381L30.3333 24.2976L26.3095 22.0536V7.58333L13.1548 0L0 7.58333V22.8274L13.1548 30.4107L25.4583 23.2917L29.6369 25.6131V36.1369L22.3631 40.3929V49.6786L30.4107 54.244L38.381 49.6786V40.3929L31.1071 36.1369V25.6131L37.0655 22.0536L47.5893 28.1667L58.8095 21.6667V8.74405L47.5893 2.24405Z" fill="#656E75"/>
<path d="M54.7859 72.9702C54.7859 73.2798 54.7859 73.6667 54.7859 74.0536C54.7859 74.4405 54.7859 74.8274 54.7085 75.1369C54.6311 75.5238 54.5537 75.8333 54.399 76.1429C54.2442 76.4524 54.0894 76.7619 53.8573 76.9941C53.5478 77.3036 53.2382 77.5357 52.7739 77.6905C52.387 77.8452 51.9228 77.9226 51.3811 77.9226H48.0537V68.25H51.3811C51.9228 68.25 52.387 68.3274 52.7739 68.4821C53.1609 68.6369 53.5478 68.8691 53.8573 69.1786C54.0894 69.4107 54.3216 69.7202 54.399 70.0298C54.5537 70.3393 54.6311 70.6488 54.7085 70.9583C54.7859 71.2679 54.7859 71.6548 54.7859 71.9643C54.7859 72.3512 54.7859 72.6607 54.7859 72.9702ZM53.7799 72.9702C53.7799 72.6607 53.7799 72.3512 53.7799 72.0417C53.7799 71.7321 53.7799 71.5 53.7025 71.1905C53.7025 70.9583 53.6251 70.6488 53.5478 70.4167C53.4704 70.1845 53.3156 69.9524 53.1609 69.7976C52.9287 69.5655 52.6192 69.3333 52.3097 69.256C52.0001 69.1786 51.6132 69.1012 51.2263 69.1012H49.137V76.9167H51.2263C51.6132 76.9167 51.9228 76.8393 52.3097 76.7619C52.6192 76.6845 52.9287 76.4524 53.1609 76.2202C53.3156 76.0655 53.4704 75.8333 53.5478 75.6012C53.6251 75.369 53.7025 75.0595 53.7025 74.75C53.7025 74.4405 53.7799 74.131 53.7799 73.8214C53.7799 73.5893 53.7799 73.2798 53.7799 72.9702Z" fill="#656E75"/>
<path d="M59.8926 77.9226V68.25H65.9283V69.1786H60.9759V72.5833H65.2319V73.5119H60.9759V76.9941H65.9283V77.9226H59.8926Z" fill="#656E75"/>
<path d="M73.5116 77.9226H72.6604L69.4878 68.25H70.5711L73.1247 76.0655L75.6009 68.25H76.6842L73.5116 77.9226Z" fill="#656E75"/>
<path d="M80.9404 77.9226V68.25H86.8988V69.1786H81.9464V72.5833H86.2023V73.5119H81.9464V76.9941H86.8988V77.9226H80.9404Z" fill="#656E75"/>
<path d="M91.7739 77.9226V68.25H92.8573V76.9941H97.7323V77.9226H91.7739Z" fill="#656E75"/>
<path d="M108.179 73.125C108.179 73.6667 108.179 74.0536 108.179 74.4405C108.179 74.8274 108.101 75.1369 108.101 75.4464C108.024 75.756 107.947 75.9881 107.792 76.2976C107.637 76.5298 107.482 76.7619 107.25 76.9941C106.941 77.3036 106.554 77.5357 106.167 77.7679C105.78 77.9226 105.316 78 104.774 78C103.768 78 102.994 77.6905 102.298 76.9941C102.066 76.7619 101.911 76.5298 101.756 76.2976C101.601 76.0655 101.524 75.756 101.447 75.4464C101.369 75.1369 101.369 74.8274 101.369 74.4405C101.369 74.0536 101.369 73.5893 101.369 73.125C101.369 72.5833 101.369 72.1964 101.369 71.8095C101.369 71.4226 101.447 71.1131 101.447 70.8036C101.524 70.4941 101.601 70.2619 101.756 69.9524C101.911 69.7202 102.066 69.4881 102.298 69.256C102.994 68.5595 103.768 68.25 104.774 68.25C105.78 68.25 106.554 68.5595 107.25 69.256C107.482 69.4881 107.637 69.7202 107.792 69.9524C107.947 70.1845 108.024 70.4941 108.101 70.8036C108.179 71.1131 108.179 71.4226 108.179 71.8095C108.179 72.1191 108.179 72.5833 108.179 73.125ZM107.173 73.125C107.173 72.5833 107.173 72.1964 107.173 71.8095C107.173 71.4226 107.095 71.1905 107.095 70.881C107.018 70.6488 107.018 70.4167 106.863 70.2619C106.708 70.1071 106.631 69.9524 106.476 69.7976C106.244 69.5655 106.012 69.4107 105.702 69.256C105.393 69.1012 105.083 69.1012 104.774 69.1012C104.464 69.1012 104.155 69.1786 103.845 69.256C103.536 69.4107 103.304 69.5655 103.072 69.7976C102.917 69.9524 102.762 70.1071 102.685 70.2619C102.607 70.4167 102.53 70.6488 102.452 70.881C102.375 71.1131 102.375 71.4226 102.375 71.8095C102.375 72.1964 102.375 72.5833 102.375 73.125C102.375 73.6667 102.375 74.0536 102.375 74.4405C102.375 74.8274 102.452 75.0595 102.452 75.3691C102.53 75.6012 102.53 75.8333 102.685 75.9881C102.762 76.1429 102.917 76.2976 103.072 76.4524C103.304 76.6845 103.536 76.8393 103.845 76.9941C104.155 77.1488 104.464 77.1488 104.774 77.1488C105.083 77.1488 105.393 77.0714 105.702 76.9941C106.012 76.8393 106.244 76.6845 106.476 76.4524C106.631 76.2976 106.786 76.1429 106.863 75.9881C106.941 75.8333 107.018 75.6012 107.095 75.3691C107.173 75.1369 107.173 74.8274 107.173 74.4405C107.173 74.0536 107.173 73.5893 107.173 73.125Z" fill="#656E75"/>
<path d="M119.941 71.1131C119.941 71.5774 119.863 71.9643 119.709 72.2738C119.554 72.6607 119.399 72.8929 119.089 73.2024C118.857 73.4345 118.548 73.6667 118.161 73.7441C117.774 73.8988 117.387 73.9762 116.923 73.9762H114.369V77.9226H113.363V68.25H117C117.464 68.25 117.851 68.3274 118.238 68.4821C118.625 68.6369 118.935 68.7917 119.167 69.0238C119.399 69.256 119.631 69.5655 119.786 69.9524C119.863 70.2619 119.941 70.6488 119.941 71.1131ZM118.935 71.1131C118.935 70.4941 118.78 69.9524 118.393 69.6429C118.006 69.3333 117.542 69.1786 116.923 69.1786H114.447V73.0476H116.923C117.542 73.0476 118.006 72.8929 118.393 72.5833C118.703 72.2738 118.935 71.7321 118.935 71.1131Z" fill="#656E75"/>
<path d="M131.857 77.9226V70.5714L129.226 76.4524H128.375L125.667 70.5714V77.9226H124.583V68.25H125.667L128.839 75.1369L131.857 68.25H132.941V77.9226H131.857Z" fill="#656E75"/>
<path d="M138.435 77.9226V68.25H144.393V69.1786H139.441V72.5833H143.696V73.5119H139.441V76.9941H144.393V77.9226H138.435Z" fill="#656E75"/>
<path d="M155.458 77.9226L150.351 70.1845V77.9226H149.268V68.25H150.274L155.381 75.9881V68.25H156.464V77.9226H155.458Z" fill="#656E75"/>
<path d="M164.744 69.1786V77.9226H163.738V69.1786H160.952V68.25H167.607V69.1786H164.744Z" fill="#656E75"/>
</svg>
