<svg width="161" height="55" viewBox="0 0 161 55" fill="none" xmlns="http://www.w3.org/2000/svg">
<path d="M69.946 51.0631H75.5105V44.9985H69.946V51.0631ZM70.9945 45.9204H74.464V50.1473H70.9945V45.9204Z" fill="#656E75"/>
<path d="M61.21 51.0631H66.3478V50.1452H62.2605V45.9164H66.3478V44.9985H61.21V51.0631Z" fill="#656E75"/>
<path d="M124.411 51.0631H129.549V50.1452H125.462V45.9164H129.549V44.9985H124.411V51.0631Z" fill="#656E75"/>
<path d="M79.2791 51.0631H80.3276V45.9164H83.6984V51.0631H84.7489V44.9985H79.2791V51.0631Z" fill="#656E75"/>
<path d="M146.198 51.0631H151.764V44.9985H146.198V51.0631ZM147.248 45.9204H150.716V50.1473H147.248V45.9204Z" fill="#656E75"/>
<path d="M155.529 44.9985V51.0631H156.58V45.9164H159.948V51.0631H160.999V44.9985H155.529Z" fill="#656E75"/>
<path d="M119.639 50.1452H116.268V44.9985H115.219V51.0631H120.689V44.9985H119.639V50.1452Z" fill="#656E75"/>
<path d="M88.301 48.4887H92.7526V50.1452H88.301V51.0631H93.8031V47.5729H89.3495V45.9164H93.8031V44.9985H88.301V48.4887Z" fill="#656E75"/>
<path d="M97.0876 45.9164H99.2692V51.0631H100.32V45.9164H102.501V44.9985H97.0876V45.9164Z" fill="#656E75"/>
<path d="M132.7 45.9164H134.881V51.0631H135.932V45.9164H138.113V44.9985H132.7V45.9164Z" fill="#656E75"/>
<path d="M142.446 44.9985H141.395V51.051H142.446V44.9985Z" fill="#656E75"/>
<path d="M111.435 48.6819V44.9985H105.933V51.051H106.984V48.6819H109.214L110.502 51.0631H111.677L110.389 48.6819H111.435ZM106.984 45.9204H110.385V47.7701H106.984V45.9204Z" fill="#656E75"/>
<path d="M109.657 38.3996H87.8232V16.6011H109.657V38.3996ZM92.0011 34.223H105.485V20.7776H92.0011V34.223Z" fill="#656E75"/>
<path d="M83.041 38.3996H61.3043V34.223H78.8651V29.5876H61.2097V16.6011H82.9484V20.7776H65.3856V25.4111H83.041V38.3996Z" fill="#656E75"/>
<path d="M161 38.3996H139.165V25.4111H156.82V20.7816H139.265V16.6011H161V38.3996ZM143.344 34.223H156.828V29.5936H143.344V34.223Z" fill="#656E75"/>
<path d="M134.892 16.6011H113.928V20.7776H122.322V38.3996H126.498V20.7776H134.892V16.6011Z" fill="#656E75"/>
<path d="M27.8795 27.5241L26.026 8.27176L21.4234 1.50879L18.0667 3.431L27.8795 27.5241Z" fill="#656E75"/>
<path d="M27.3561 9.25738L29.8174 12.8764L31.0088 3.9577L26.6055 1.44775L27.3561 9.25738Z" fill="#656E75"/>
<path d="M33.5906 18.42L33.6067 5.43756L31.5499 4.26611L30.3042 13.5914L33.5906 18.42Z" fill="#656E75"/>
<path d="M30.1947 14.4019L28.8323 24.6067L31.3579 50.8535L33.5535 49.5975L33.5877 19.3875L30.1947 14.4019Z" fill="#656E75"/>
<path d="M25.9189 7.1454L25.299 0.704476L24.0614 0L21.8979 1.23787L25.9189 7.1454Z" fill="#656E75"/>
<path d="M29.7088 13.6872L27.4629 10.3862L28.5879 22.0745L29.7088 13.6872Z" fill="#656E75"/>
<path d="M44.4491 11.6167L43.6944 11.188L36.6487 26.2437L36.6226 47.8389L40.7843 45.4577L44.4491 11.6167Z" fill="#656E75"/>
<path d="M44.9644 11.9111L41.3682 45.1242L48.1743 41.2274L48.1482 13.7267L44.9644 11.9111Z" fill="#656E75"/>
<path d="M28.072 29.5222L17.5608 3.72021L0 13.7721L0.0261621 41.2728L24.1134 55.0001L30.1891 51.522L28.072 29.5222Z" fill="#656E75"/>
<path d="M36.6526 22.7283L42.3982 10.4503L36.6707 7.18555L36.6526 22.7283Z" fill="#656E75"/>
</svg>
