<svg width="238" height="48" viewBox="0 0 238 48" fill="none" xmlns="http://www.w3.org/2000/svg">
<path d="M66.3124 5.77604C64.8666 4.28467 62.531 3.4009 60.4179 3.4009C58.2492 3.4009 55.58 4.22944 55.58 6.77029C55.58 11.9072 68.4811 11.7968 68.4811 18.7012C68.4811 22.6782 64.2549 26.4343 58.416 26.4343C56.136 26.4343 53.8561 26.1029 51.6874 25.3296L50.5752 20.6897C52.7995 22.5678 55.858 23.783 58.8052 23.783C60.9184 23.783 64.1993 22.5125 64.1993 19.9164C64.1993 14.1167 51.2981 15.1661 51.2981 7.21218C51.2981 2.51712 56.136 0.694336 60.7515 0.694336C62.6422 0.694336 64.5329 0.970516 66.368 1.52287V5.77604" fill="#656E75"/>
<path d="M79.8601 15.0949C79.8601 16.5311 79.8601 17.5253 81.1947 18.3539V18.4091H76.0787V18.3539C77.3577 17.8567 77.1909 15.9787 77.1909 14.874V3.44015H74.9109C73.7988 3.44015 72.631 3.71633 71.8525 4.48964H71.7969L72.6866 1.45166H72.7422C73.0759 1.56213 73.4095 1.56213 73.7432 1.61737H83.9751C84.42 1.61737 84.8092 1.61737 85.1429 1.45166H85.1985L84.3644 4.48964H84.3088C83.9751 3.60586 82.9185 3.44015 82.0844 3.44015H79.7489V15.0949" fill="#656E75"/>
<path d="M75.1334 25.2136C73.7988 25.2136 73.1315 25.2136 71.8525 25.6555L71.7969 25.6002L73.4651 23.7222C73.7432 23.446 73.9656 23.1146 74.3549 22.9489C74.7441 22.7832 76.1343 22.7832 76.6348 22.7832H80.4162C81.7508 22.7832 82.4181 22.7832 83.6971 22.3413L83.7527 22.3965L82.0844 24.2746C81.8064 24.5507 81.584 24.8822 81.1947 25.0479C80.8054 25.2136 79.4152 25.2136 78.9147 25.2136H75.1334Z" fill="#656E75"/>
<path d="M108.882 5.77604C107.436 4.28467 105.101 3.4009 102.988 3.4009C100.819 3.4009 98.1498 4.22944 98.1498 6.77029C98.1498 11.9072 111.051 11.7968 111.051 18.7012C111.051 22.6782 106.825 26.4343 100.986 26.4343C98.7059 26.4343 96.4259 26.1029 94.2572 25.3296L93.145 20.6897C95.3694 22.5678 98.4278 23.783 101.375 23.783C103.544 23.783 106.769 22.5125 106.769 19.9164C106.769 14.1167 93.8679 15.1661 93.8679 7.21218C93.8679 2.51712 98.7059 0.694336 103.321 0.694336C105.212 0.694336 107.103 0.970516 108.938 1.52287V5.77604" fill="#656E75"/>
<path d="M142.965 13.3571C142.965 20.9796 136.625 26.5032 129.118 26.5032C121.667 26.5032 115.383 21.2006 115.383 13.578C115.383 6.50781 121.555 0.542328 129.452 0.763272C137.404 0.6528 142.965 6.61828 142.965 13.3571ZM119.72 13.1914C119.72 18.4388 123.446 23.7967 129.341 23.7967C135.068 23.7967 138.683 19.654 138.683 14.0751C138.683 8.60678 135.179 3.35936 129.229 3.35936C123.39 3.35936 119.72 7.55729 119.72 13.1914Z" fill="#656E75"/>
<path d="M156.652 1.32568C161.546 1.32568 165.272 3.70083 165.272 7.84352C165.272 12.1519 161.268 14.8585 156.986 14.8585C156.041 14.8585 155.095 14.748 154.261 14.3614C157.487 14.1957 160.99 12.2072 160.99 8.61682C160.99 5.35791 158.654 4.03224 155.652 4.03224C154.762 4.03224 153.872 4.08748 153.038 4.25319V21.1001C153.038 23.1991 152.982 24.6905 154.984 25.7952V25.9057H147.533V25.7952C149.423 25.1324 149.201 22.3706 149.201 20.6583V6.5731C149.201 4.91602 149.423 2.15422 147.533 1.43616V1.32568H156.652Z" fill="#656E75"/>
<path d="M175.093 13.9195V20.6583C175.093 22.3153 174.871 25.0771 176.761 25.7952V25.9057H169.644V25.7952C171.534 25.0771 171.312 22.3706 171.312 20.6583V6.5731C171.312 4.91602 171.59 2.15422 169.644 1.43616V1.32568H176.761V1.43616C174.871 2.15422 175.093 4.86078 175.093 6.5731V11.2129H188.606V6.5731C188.606 4.86078 188.884 2.15422 186.938 1.43616V1.32568H194.167V1.43616C192.276 2.15422 192.499 4.86078 192.499 6.5731V20.6583C192.499 22.3153 192.276 25.0771 194.167 25.7952V25.9057H186.993V25.7952C188.884 25.0771 188.662 22.3706 188.662 20.6583V13.9195H175.093Z" fill="#656E75"/>
<path d="M201.302 6.5731C201.302 4.86078 201.58 2.15422 199.633 1.43616V1.32568H206.751V1.43616C204.86 2.15422 205.083 4.91602 205.083 6.5731V20.6583C205.083 22.3153 204.86 25.0771 206.751 25.7952V25.9057H199.689V25.7952C201.58 25.1324 201.357 22.3706 201.357 20.6583V6.5731" fill="#656E75"/>
<path d="M219.26 16.6813L217.314 21.9287C216.535 24.0276 216.257 25.0771 218.092 25.7952V25.9057H211.197V25.7952C213.366 24.6905 214.033 22.6467 214.867 20.4925L221.151 4.91602C221.651 3.59036 222.374 1.98851 220.595 1.43616V1.32568H226.545L234.33 20.4373C235.22 22.5363 235.887 24.6352 238 25.74V25.8504H230.326V25.74C232.161 24.9114 231.883 24.5248 230.827 21.8734L228.825 16.626H219.26V16.6813ZM223.987 4.52937L220.261 13.9195H227.657L223.987 4.52937Z" fill="#656E75"/>
<path d="M53.4589 40.2743V43.3122C53.4589 44.0855 53.3477 45.3007 54.1818 45.6322V45.6874H50.9565V45.6322C51.7907 45.3007 51.6794 44.0855 51.6794 43.3122V36.9601C51.6794 36.1868 51.7907 34.9716 50.9565 34.6402V34.585H54.1818V34.6402C53.3477 34.9716 53.4589 36.1868 53.4589 36.9601V39.0591H59.5758V36.9601C59.5758 36.1868 59.6871 34.9716 58.8529 34.6402V34.585H62.0782V34.6402C61.2441 34.9716 61.2997 36.1868 61.2997 36.9601V43.3122C61.2997 44.0855 61.1885 45.3007 62.0782 45.6322V45.6874H58.8529V45.6322C59.6871 45.3007 59.5758 44.0855 59.5758 43.3122V40.2743H53.4589Z" fill="#656E75"/>
<path d="M76.1917 39.9699C76.1917 43.3945 73.3557 45.8802 69.9636 45.8802C66.627 45.8802 63.791 43.505 63.791 40.0804C63.791 36.8767 66.5714 34.2254 70.1304 34.3359C73.7449 34.2806 76.1917 36.9319 76.1917 39.9699ZM65.7929 39.9147C65.7929 42.2346 67.4612 44.665 70.1304 44.665C72.6884 44.665 74.3566 42.7869 74.3566 40.3013C74.3566 37.871 72.7996 35.4958 70.1304 35.4958C67.4612 35.4958 65.7929 37.3738 65.7929 39.9147Z" fill="#656E75"/>
<path d="M88.2077 35.6974C88.3189 35.366 88.4857 35.0346 88.4857 34.6479H91.3774V34.7032C90.9881 34.8137 90.8769 35.3108 90.8769 35.6974L91.9891 43.9276C92.1003 44.7009 92.1559 45.1428 92.8232 45.6399V45.6951H89.5423V45.6399C90.154 45.4742 90.2096 44.9771 90.2096 44.3695L89.2642 36.305L85.4829 45.9161C84.6487 45.2533 84.4263 44.8114 83.9814 43.8724L80.7562 36.305L79.8108 43.4857C79.6996 44.5352 79.5328 45.2533 80.3669 45.5847V45.6399H77.6421V45.5847C78.365 44.9771 78.4762 44.1485 78.5874 43.2648L79.5328 36.2498C79.5884 35.8079 79.8108 35.0898 79.0323 34.7032V34.6479H81.9795C81.9795 34.9241 82.0908 35.1451 82.202 35.4213L85.3717 42.8229L88.2077 35.6974Z" fill="#656E75"/>
<path d="M96.9184 44.2353L99.0315 44.401C100.144 44.5114 101.311 44.1248 102.146 43.4067H102.201L101.423 45.6162H94.416V45.5609C95.2501 45.2847 95.1945 44.0143 95.1945 43.241V36.9441C95.1945 36.1708 95.3057 34.9556 94.416 34.6242V34.569H99.81C100.088 34.569 100.366 34.6242 100.589 34.4585H100.644V36.3918H100.589C100.088 35.7842 99.3652 35.7289 98.5866 35.7289C97.975 35.7289 97.4189 35.7289 96.8628 35.8394V38.9326H98.8647C99.1427 38.9326 99.4208 38.9326 99.5876 38.8221H99.6432V40.5897H99.5876C99.3096 40.0926 98.5866 40.1478 98.0862 40.1478H96.8628V44.2353" fill="#656E75"/>
<path d="M110.628 36.5972C109.96 35.9344 108.904 35.5477 107.959 35.5477C107.013 35.5477 105.79 35.9344 105.79 37.0943C105.79 39.4142 111.573 39.359 111.573 42.4522C111.573 44.2197 109.682 45.9321 107.069 45.9321C106.068 45.9321 105.011 45.7663 104.066 45.4349L103.565 43.336C104.566 44.1645 105.957 44.7169 107.236 44.7169C108.181 44.7169 109.627 44.1645 109.627 42.9493C109.627 40.3532 103.843 40.7951 103.843 37.26C103.843 35.1611 106.012 34.3325 108.07 34.3325C108.904 34.3325 109.794 34.443 110.572 34.7192V36.5972" fill="#656E75"/>
<path d="M22.3546 19.443C22.3546 19.1116 21.9653 18.8354 21.4092 18.7802C21.3536 18.7802 21.298 18.7802 21.2424 18.7802C21.2424 18.7802 21.2424 18.7802 21.1868 18.7802C20.5751 18.7802 20.1302 19.0564 20.1302 19.443V22.2601H22.299V19.443H22.3546ZM21.3536 27.7837C22.1321 27.7837 22.7438 27.1761 22.7438 26.4028C22.7438 25.6295 22.1321 25.0219 21.3536 25.0219C20.5751 25.0219 19.9634 25.6295 19.9634 26.4028C19.9634 27.1208 20.5751 27.7837 21.3536 27.7837ZM21.4092 32.6997C20.5195 32.6997 19.8522 33.1968 19.8522 33.8044V38.4442H22.9107V33.8044C22.9107 33.1968 22.2434 32.7549 21.4092 32.6997ZM5.5054e-06 0V27.8389C5.5054e-06 27.8389 -0.0556022 37.229 11.0105 42.4764C11.0661 42.5316 11.1773 42.5316 11.2885 42.5869C11.2885 42.5869 11.3441 42.5869 11.3997 42.6421C11.4553 42.6974 11.5666 42.6974 11.6222 42.7526C11.6222 42.7526 11.6778 42.7526 11.6778 42.8078C11.9002 42.9183 12.1226 43.0288 12.4007 43.1945H12.4563C12.5675 43.2497 12.7343 43.3049 12.8455 43.4154C13.2904 43.6364 13.7909 43.9125 14.2914 44.1335C15.0143 44.5201 15.7372 44.9068 16.5157 45.2934L18.1283 46.122C18.74 46.4534 19.3517 46.7848 19.8522 47.061C20.019 47.1715 20.1859 47.2267 20.2971 47.3372C20.7975 47.6133 21.1868 47.8343 21.4648 48C21.7429 47.8343 22.1321 47.6133 22.6326 47.3372C22.7994 47.2819 22.9663 47.1715 23.1331 47.061C23.6336 46.7848 24.1897 46.4534 24.8013 46.1772L26.414 45.3487C27.1369 44.962 27.9154 44.5754 28.6383 44.1887C29.1388 43.9125 29.6393 43.6916 30.0841 43.4707C30.251 43.4154 30.3622 43.305 30.529 43.2497C30.8071 43.1392 31.0295 42.9735 31.2519 42.8631C31.2519 42.8631 31.3075 42.8631 31.3075 42.8078C31.4187 42.7526 31.4744 42.7526 31.53 42.6974C31.53 42.6974 31.5856 42.6974 31.5856 42.6421C31.6968 42.5869 31.7524 42.5316 31.8636 42.5316C42.8741 37.229 42.8185 27.8389 42.8185 27.8389V0H5.5054e-06ZM28.4715 40.8746L28.5271 42.9183C27.4706 43.4707 26.414 44.023 25.8023 44.3544L24.1897 45.183C24.1897 45.183 23.6892 45.4591 23.0775 45.7906V44.4097C23.0775 43.6916 22.3546 43.084 21.4092 43.084C20.5195 43.084 19.7966 43.6916 19.7966 44.4097V45.3487V45.7353C19.1849 45.4039 18.6288 45.1277 18.6288 45.1277L17.0162 44.2992C16.4045 43.9678 15.3479 43.4154 14.2914 42.8631L14.347 40.8746L13.6797 39.7699L14.4582 39.4937L14.7362 31.2083V30.8769L14.1245 29.6064L15.2923 29.4407L15.4035 24.8562L15.1255 23.6962L16.4601 23.0886L16.5713 19.3878L16.2933 19.1669L16.1264 17.1784L16.6269 16.9574C16.5713 16.626 16.4045 15.5213 16.8493 14.6375C17.4054 13.588 18.9069 13.3671 18.9069 13.3671C18.9069 13.3671 20.0746 12.3728 19.9078 11.71L19.741 11.4891C19.741 11.4891 19.7966 11.2129 19.9634 11.1577C19.9634 11.1577 19.9634 11.1577 20.019 11.1024V9.9977C20.019 9.9977 19.741 9.72152 19.741 9.55581C19.741 9.3901 20.019 9.16916 20.1859 9.11392C20.3527 9.05869 19.9634 8.72727 20.1302 8.39586C20.2971 8.06444 20.5751 7.78826 20.7419 7.67779C20.8532 7.56732 20.9644 7.18067 21.02 6.84925C20.9088 6.79402 20.8532 6.62831 20.8532 6.51784C20.8532 6.35213 20.9644 6.18642 21.0756 6.13119V5.46835H20.5751C20.5195 5.57883 20.4083 5.63406 20.2415 5.63406C20.019 5.63406 19.8522 5.46835 19.8522 5.24741C19.8522 5.02647 20.019 4.86076 20.2415 4.86076C20.3527 4.86076 20.4639 4.916 20.5751 5.02647H21.1868V4.63982C21.0756 4.58458 21.02 4.47411 21.02 4.3084C21.02 4.08746 21.1868 3.92175 21.4092 3.92175C21.6317 3.92175 21.7985 4.08746 21.7985 4.3084C21.7985 4.41887 21.7429 4.52934 21.6873 4.58458V5.02647H22.1321C22.1878 4.916 22.299 4.86076 22.4658 4.86076C22.6882 4.86076 22.8551 5.02647 22.8551 5.24741C22.8551 5.46835 22.6882 5.63406 22.4658 5.63406C22.3546 5.63406 22.2434 5.57883 22.1321 5.46835H21.6873V6.13119C21.7985 6.18642 21.9097 6.35213 21.9097 6.51784C21.9097 6.62831 21.8541 6.79402 21.7429 6.84925C21.7985 7.18067 21.9097 7.62255 22.0209 7.67779C22.2434 7.8435 22.4658 8.06444 22.6326 8.39586C22.7994 8.72727 22.577 9.11392 22.577 9.11392C22.7438 9.16916 22.9663 9.3901 23.0219 9.55581C23.0219 9.72152 22.7438 9.9977 22.7438 9.9977V11.1024C22.7438 11.1024 22.7438 11.1024 22.7994 11.1577C22.9107 11.2681 23.0219 11.4891 23.0219 11.4891L22.8551 11.71C22.6882 12.3728 23.856 13.3671 23.856 13.3671C23.856 13.3671 25.3018 13.6433 25.9135 14.6375C26.414 15.5213 26.2472 16.626 26.1359 16.9574L26.6364 17.1784L26.4696 19.1669L26.1916 19.3878L26.3028 23.0886L27.6374 23.6962L27.3037 24.8009L27.4149 29.3855L28.5827 29.5512L27.971 30.8216V31.1531L28.2491 39.4384L29.0276 39.7146L28.4715 40.8746Z" fill="#656E75"/>
</svg>
