<svg width="161" height="74" viewBox="0 0 161 74" fill="none" xmlns="http://www.w3.org/2000/svg">
<path d="M123.571 0C107.181 0 93.2522 10.4167 88.1858 24.9167H90.3821V39.4325C90.3821 41.0469 90.6224 42.2474 91.1045 43.0389C91.5866 43.8305 92.3711 44.2255 93.4541 44.2254C94.5222 44.2255 95.2995 43.8462 95.789 43.0858C96.286 42.3255 96.5333 41.1094 96.5333 39.4325V24.9167H100.827V39.7607C100.827 42.6354 100.206 44.8366 98.9595 46.3677C97.7133 47.8987 95.8795 48.6649 93.4541 48.6649C91.0286 48.6649 89.1911 47.8987 87.945 46.3677C87.5579 45.8892 87.2297 45.3462 86.9636 44.7376C90.563 61.456 105.585 74 123.571 74C140.333 74 154.522 63.1092 159.289 48.0951L158.22 43.7206H152.08L150.934 48.4233H146.629L152.747 25.1583H157.665L160.993 37.806C160.999 37.5389 161 37.2703 161 37.0018C161 16.5682 144.243 0 123.571 0ZM103.367 25.1583H108.471L114.512 38.484V25.1583H118.431V48.4233H114.312L107.281 32.4541V48.4233H103.367V25.1583ZM120.722 25.1583H132.594V29.6591H124.972V33.9868H132.036V38.484H124.972V48.4233H120.722V25.1583ZM134.279 25.1583H141.313C142.367 25.1584 143.254 25.2875 143.973 25.5478C144.7 25.7978 145.339 26.1807 145.896 26.6911C146.563 27.3056 147.072 28.0914 147.421 29.0497C147.777 30.0079 147.953 31.1574 147.953 32.501C147.953 33.5426 147.826 34.563 147.567 35.5628C147.307 36.5523 146.936 37.3851 146.454 38.0621C145.794 38.9787 145.055 39.6743 144.239 40.143C143.431 40.6117 142.42 40.8462 141.211 40.8462H138.555V48.4233H134.279V25.1583ZM138.555 29.5005V36.4717H139.777C140.504 36.4717 141.102 36.4091 141.569 36.2841C142.044 36.1592 142.439 35.909 142.758 35.534C143.033 35.2007 143.231 34.8022 143.349 34.3439C143.475 33.8752 143.539 33.3083 143.539 32.6416C143.539 31.9855 143.412 31.4226 143.16 30.9538C142.907 30.4747 142.614 30.1424 142.28 29.9549C141.835 29.7049 141.401 29.5682 140.978 29.5473C140.555 29.5161 139.993 29.5005 139.289 29.5005H138.555ZM155.152 31.1125L153.116 39.4542H157.187L155.152 31.1125Z" fill="#656E75"/>
<path d="M71.8386 49.2054C71.6628 49.404 71.4353 49.5896 71.2209 49.7607C69.8352 48.3452 68.2084 46.7763 66.6621 46.7763C65.7034 46.7763 65.0129 47.4977 64.2074 48.0067C63.0895 48.713 61.5561 49.1108 60.242 48.5924C59.5352 48.3271 58.8504 47.9363 58.3386 47.3016C59.3729 48.0067 60.9218 48.1014 62.0894 47.6226C63.38 47.0933 64.6936 46.3905 66.1644 46.3905C68.3325 46.3905 70.3931 47.8403 71.8386 49.2054ZM55.8141 44.7532C57.2496 46.3685 59.5909 45.8488 61.5072 46.2522C61.7739 46.3084 62.0245 46.396 62.3108 46.3525C62.0829 46.2097 61.781 46.1936 61.5178 46.0956C60.0309 45.5419 59.7991 43.9689 58.9854 42.8863C60.0247 43.5693 60.8858 44.5044 61.8577 45.3831C62.5341 45.9947 63.3768 46.2564 64.2508 46.4322C64.0408 46.5081 63.7661 46.4902 63.5399 46.5456C61.97 46.9306 60.2293 47.5383 58.5588 46.9934C57.4808 46.6417 56.3589 45.8089 55.8141 44.7532ZM53.5131 41.0148C54.4085 43.0187 56.6582 43.1757 58.154 44.405C58.4384 44.6388 58.7203 44.8539 59.0328 44.9979L59.0489 44.9818C58.7037 44.6731 58.3302 44.3052 58.0629 43.9212C57.2079 42.6933 57.4924 41.0149 56.8333 39.713C57.4321 40.4219 57.9939 41.1518 58.3387 41.9634C58.8937 43.2694 59.0822 44.7594 60.3268 45.7519C58.9797 45.3126 57.4258 45.4 56.2128 44.6146C54.9377 43.7891 53.756 42.4861 53.5131 41.0148ZM52.554 36.9605C52.6834 38.726 54.585 39.6692 55.4917 41.1205C55.6853 41.4304 55.8846 41.7504 56.1658 42.0008C56.122 41.8128 55.9655 41.6462 55.8794 41.4618C55.5886 40.8391 55.457 40.1184 55.5295 39.3774C55.6179 38.4759 55.9981 37.6387 55.8521 36.6902C56.6337 38.3577 56.3816 40.4423 56.8333 42.2453C56.9332 42.6442 57.1789 42.9932 57.3303 43.371C56.5624 42.7936 55.5561 42.281 54.7133 41.6243C53.8982 40.9892 53.1906 40.2448 52.8229 39.2762C52.5579 38.5782 52.4889 37.7457 52.554 36.9605ZM52.6071 33.7075C52.6988 33.3135 52.769 32.9056 52.9424 32.5442C52.6141 34.2096 53.7349 35.4127 54.1176 36.8536C54.2618 37.3966 54.3112 37.9736 54.5333 38.4803C54.5541 38.4913 54.572 38.47 54.5848 38.4536C54.0318 36.9201 54.8425 35.5028 55.6322 34.2941C55.8398 33.9764 55.9397 33.6064 56.0366 33.2324C56.122 33.9266 55.9725 34.7302 55.8426 35.4465C55.6753 36.3688 55.3564 37.2331 55.103 38.1229C54.9361 38.6788 54.9801 39.3062 55.0657 39.8886L54.9853 39.8251C54.3973 38.7522 53.2373 37.914 52.8869 36.7429C52.607 35.807 52.4133 34.7258 52.6071 33.7075ZM53.2272 31.9159C53.2272 30.6556 53.7237 29.6275 54.4684 28.6888C54.49 28.6782 54.5053 28.6568 54.5333 28.6618C53.7135 29.8945 54.4596 31.4505 54.3543 32.8487L54.2461 34.2836C54.2622 34.2941 54.2622 34.3371 54.3003 34.3207C54.3487 34.1607 54.3634 33.9905 54.3916 33.8253C54.589 32.6684 55.6166 31.8632 56.4882 31.0465C56.6943 30.8533 56.8452 30.6249 56.9425 30.3794C56.87 30.9556 56.7074 31.5464 56.4457 32.07C55.7748 33.4125 54.4792 34.4962 54.2461 36.0218C54.1331 34.5597 53.2272 33.4727 53.2272 31.9159ZM55.3882 27.6644C55.8004 27.2126 56.2624 26.8607 56.8125 26.7215C55.7444 27.4475 55.8024 28.745 55.4753 29.8298C55.3558 30.2265 55.18 30.5981 55.0866 31.0081L55.1136 31.0295C55.2913 30.566 55.5962 30.1205 55.9935 29.75C56.7447 29.0494 57.8742 28.6253 58.2459 27.6004C58.2289 29.0246 57.0008 30.1072 55.8791 30.9448C55.376 31.3204 54.9485 31.8248 54.6876 32.3535C54.7312 31.96 54.751 31.6326 54.7154 31.2485C54.6003 30.0044 54.5256 28.6097 55.3882 27.6644ZM59.7234 25.27C58.9307 25.9576 58.4018 26.8426 57.7928 27.6381C57.2863 28.2998 56.5914 28.7098 55.9937 29.265C56.3163 28.6034 56.3759 27.8453 56.7856 27.2052C57.4862 26.1107 58.6441 25.6858 59.7234 25.27Z" fill="#656E75"/>
<path d="M63.6455 49.2054C63.8213 49.404 64.0488 49.5896 64.2633 49.7607C65.649 48.3452 67.2757 46.7763 68.822 46.7763C69.7807 46.7763 70.4712 47.4977 71.2767 48.0067C72.3946 48.713 73.9281 49.1108 75.2422 48.5924C75.949 48.3271 76.6337 47.9363 77.1455 47.3016C76.1112 48.0067 74.5624 48.1014 73.3948 47.6226C72.1042 47.0933 70.7906 46.3905 69.3198 46.3905C67.1516 46.3905 65.091 47.8403 63.6455 49.2054ZM79.67 44.7532C78.2345 46.3685 75.8933 45.8488 73.977 46.2522C73.7103 46.3084 73.4597 46.396 73.1734 46.3525C73.4012 46.2097 73.7032 46.1936 73.9663 46.0956C75.4532 45.5419 75.685 43.9689 76.4987 42.8863C75.4594 43.5693 74.5984 44.5044 73.6265 45.3831C72.95 45.9947 72.1073 46.2564 71.2333 46.4322C71.4433 46.5081 71.7181 46.4902 71.9443 46.5456C73.5142 46.9306 75.2548 47.5383 76.9253 46.9934C78.0034 46.6417 79.1252 45.8089 79.67 44.7532ZM81.971 41.0148C81.0756 43.0187 78.826 43.1757 77.3302 44.405C77.0457 44.6388 76.7638 44.8539 76.4514 44.9979L76.4352 44.9818C76.7804 44.6731 77.1539 44.3052 77.4213 43.9212C78.2762 42.6933 77.9917 41.0149 78.6509 39.713C78.052 40.4219 77.4903 41.1518 77.1454 41.9634C76.5905 43.2694 76.402 44.7594 75.1573 45.7519C76.5044 45.3126 78.0584 45.4 79.2714 44.6146C80.5464 43.7891 81.7281 42.4861 81.971 41.0148ZM82.9302 36.9605C82.8007 38.726 80.8992 39.6692 79.9925 41.1205C79.7988 41.4304 79.5995 41.7504 79.3183 42.0008C79.3622 41.8128 79.5186 41.6462 79.6048 41.4618C79.8956 40.8391 80.0272 40.1184 79.9546 39.3774C79.8663 38.4759 79.4861 37.6387 79.632 36.6902C78.8505 38.3577 79.1026 40.4423 78.6509 42.2453C78.551 42.6442 78.3052 42.9932 78.1538 43.371C78.9217 42.7936 79.928 42.281 80.7709 41.6243C81.586 40.9892 82.2935 40.2448 82.6613 39.2762C82.9263 38.5782 82.9952 37.7457 82.9302 36.9605ZM82.8771 33.7075C82.7853 33.3135 82.7151 32.9056 82.5417 32.5442C82.8701 34.2096 81.7492 35.4127 81.3665 36.8536C81.2223 37.3966 81.173 37.9736 80.9508 38.4803C80.9301 38.4913 80.9121 38.47 80.8993 38.4536C81.4523 36.9201 80.6417 35.5028 79.852 34.2941C79.6444 33.9764 79.5445 33.6064 79.4475 33.2324C79.3622 33.9266 79.5116 34.7302 79.6415 35.4465C79.8088 36.3688 80.1277 37.2331 80.3811 38.1229C80.548 38.6788 80.504 39.3062 80.4184 39.8886L80.4989 39.8251C81.0868 38.7522 82.2469 37.914 82.5972 36.7429C82.8772 35.807 83.0709 34.7258 82.8771 33.7075ZM82.2569 31.9159C82.2569 30.6556 81.7605 29.6275 81.0158 28.6888C80.9942 28.6782 80.9788 28.6568 80.9509 28.6618C81.7707 29.8945 81.0245 31.4505 81.1299 32.8487L81.238 34.2836C81.2219 34.2941 81.2219 34.3371 81.1839 34.3207C81.1354 34.1607 81.1207 33.9905 81.0925 33.8253C80.8952 32.6684 79.8675 31.8632 78.996 31.0465C78.7898 30.8533 78.6389 30.6249 78.5417 30.3794C78.6142 30.9556 78.7768 31.5464 79.0385 32.07C79.7093 33.4125 81.0049 34.4962 81.238 36.0218C81.351 34.5597 82.2569 33.4727 82.2569 31.9159ZM80.096 27.6644C79.6838 27.2126 79.2217 26.8607 78.6717 26.7215C79.7398 27.4475 79.6818 28.745 80.0088 29.8298C80.1284 30.2265 80.3041 30.5981 80.3975 31.0081L80.3705 31.0295C80.1928 30.566 79.8879 30.1205 79.4907 29.75C78.7394 29.0494 77.61 28.6253 77.2382 27.6004C77.2552 29.0246 78.4833 30.1072 79.605 30.9448C80.1081 31.3204 80.5357 31.8248 80.7966 32.3535C80.753 31.96 80.7332 31.6326 80.7687 31.2485C80.8838 30.0044 80.9585 28.6097 80.096 27.6644ZM75.7608 25.27C76.5535 25.9576 77.0824 26.8426 77.6913 27.6381C78.1978 28.2998 78.8927 28.7098 79.4904 29.265C79.1678 28.6034 79.1082 27.8453 78.6985 27.2052C77.9979 26.1107 76.84 25.6858 75.7608 25.27Z" fill="#656E75"/>
<path d="M77.4238 39.5067L77.1896 39.3804C76.6932 40.3923 76.036 41.3132 75.2497 42.1098L73.8819 40.7577C74.552 40.0751 75.0923 39.3003 75.4903 38.4629L75.2572 38.337C74.8638 39.1673 74.3344 39.9228 73.6959 40.5737L72.4569 39.3489C72.9888 38.8023 73.4108 38.1786 73.7155 37.5046L73.4843 37.3799C73.1859 38.0442 72.7743 38.6482 72.2714 39.166L70.9021 37.8124C71.2829 37.4135 71.5769 36.9546 71.777 36.4579L71.5457 36.3332C71.3545 36.8175 71.0719 37.2572 70.7179 37.6301L69.475 36.4017C69.8291 36.0112 70.0344 35.5212 70.0635 34.9977H71.8227C71.8077 35.4675 71.7103 35.917 71.5457 36.3332L71.777 36.458C71.9622 35.9978 72.0667 35.5056 72.0817 34.9976H74.0209C74.0035 35.8439 73.8126 36.6487 73.4842 37.38L73.7154 37.5047C74.0681 36.724 74.2629 35.8757 74.2802 34.9975H76.036C76.0176 36.1894 75.7394 37.3195 75.2571 38.337L75.4902 38.4629C76 37.3905 76.2771 36.215 76.2954 34.9975H78.2345C78.2152 36.5664 77.8413 38.0518 77.1895 39.3804L77.4238 39.5066C78.1249 38.0792 78.4971 36.5029 78.4971 34.8694C78.4971 33.4803 78.2278 32.1326 77.7163 30.8824L77.476 30.9845C77.9578 32.1643 78.2189 33.433 78.235 34.7412H76.2956C76.2799 33.6976 76.0724 32.6855 75.6929 31.7421L75.4544 31.8431C75.8205 32.7552 76.0209 33.7329 76.0363 34.7412H74.2803C74.2653 33.9727 74.1137 33.2269 73.84 32.5292L73.6015 32.6304C73.8618 33.2963 74.0061 34.008 74.0213 34.7413H72.0818C72.0681 34.2726 71.9783 33.8169 71.819 33.3877L71.5806 33.4888C71.7269 33.8864 71.8091 34.3078 71.8228 34.7412H70.0636C70.0346 34.2176 69.8292 33.7277 69.4752 33.3371L70.7193 32.1076C71.1034 32.5115 71.394 32.9805 71.5807 33.4889L71.8191 33.3877C71.6194 32.85 71.3102 32.3538 70.9023 31.9264L72.2737 30.571C72.8588 31.1731 73.3055 31.8721 73.6015 32.6304L73.8401 32.5292C73.531 31.7415 73.0657 31.0152 72.457 30.3898L73.6986 29.1623C74.4676 29.9462 75.0584 30.8559 75.4544 31.8432L75.6929 31.7422C75.2838 30.7253 74.6745 29.7884 73.8819 28.9813L75.2531 27.6257C76.2228 28.6077 76.9708 29.7472 77.476 30.9846L77.7162 30.8825C77.1825 29.5768 76.3846 28.3776 75.3468 27.3519C74.3053 26.3222 73.0868 25.5317 71.7603 25.004L71.6647 25.2445C72.9192 25.744 74.0745 26.4842 75.0697 27.4446L73.6986 28.8002C72.8959 28.0312 71.9659 27.4351 70.9563 27.0313L70.8617 27.2697C71.8379 27.6612 72.7378 28.2377 73.5154 28.9833L72.2738 30.2107C71.6702 29.6368 70.9742 29.191 70.2197 28.8859L70.1249 29.1242C70.8468 29.4167 71.5126 29.8432 72.0906 30.392L70.7194 31.7473C70.3337 31.388 69.8927 31.1059 69.4162 30.9092L69.3213 31.1478C69.7654 31.3318 70.1761 31.5942 70.5362 31.9286L69.2923 33.1582C68.8969 32.8081 68.4014 32.6052 67.8716 32.5766V30.8377C68.3772 30.8531 68.8666 30.9593 69.3213 31.1478L69.4162 30.9092C68.9317 30.7091 68.4099 30.5971 67.8716 30.5814V28.6644C68.6568 28.68 69.4177 28.8378 70.125 29.1243L70.2198 28.8859C69.4827 28.5878 68.6896 28.424 67.8716 28.4084V26.6718C68.9129 26.6874 69.9225 26.8927 70.8616 27.2691L70.9562 27.0307C69.9873 26.6427 68.946 26.4314 67.8715 26.4156V24.4984C69.1924 24.5142 70.4736 24.7715 71.6648 25.2457L71.7604 25.0053C70.4999 24.5036 69.1417 24.2393 67.7421 24.2393C66.013 24.2393 64.3792 24.6471 62.9304 25.3667L63.0486 25.5903C64.4505 24.8959 66.0016 24.5176 67.6125 24.4984V26.4157C66.2988 26.435 65.0573 26.7501 63.9502 27.2935L64.068 27.5165C65.1587 26.9828 66.3628 26.6904 67.6125 26.6716V28.4075C66.6356 28.4265 65.7112 28.6588 64.8839 29.0579L65.0024 29.2819C65.8078 28.8955 66.6934 28.6819 67.6126 28.6636V30.5808C67.0031 30.5986 66.425 30.7413 65.903 30.9834L66.0221 31.2083C66.5159 30.9814 67.0546 30.8539 67.6126 30.8368V32.576C67.3397 32.5909 67.0794 32.6525 66.8395 32.7525L66.9584 32.9773C67.2037 32.878 67.4689 32.8257 67.7421 32.8257C68.2947 32.8257 68.8141 33.0383 69.2049 33.4245C69.5956 33.8108 69.8108 34.3244 69.8108 34.8707C69.8108 35.9982 68.8829 36.9158 67.7421 36.9158C67.1894 36.9158 66.6698 36.703 66.2791 36.3168C65.8884 35.9303 65.6732 35.4169 65.6732 34.8706C65.6732 34.3244 65.8884 33.8107 66.2791 33.4245C66.4768 33.2292 66.7073 33.0788 66.9583 32.9772L66.8394 32.7525C66.601 32.852 66.3828 32.9896 66.1927 33.1579L64.9481 31.9277C65.2696 31.629 65.6317 31.3875 66.022 31.2082L65.9029 30.9833C65.4831 31.1781 65.0997 31.4369 64.766 31.7479L63.3935 30.391C63.8748 29.934 64.4177 29.5626 65.0023 29.2818L64.8839 29.0578C64.2664 29.3557 63.7027 29.746 63.2124 30.2119L61.9685 28.9825C62.5964 28.3803 63.3048 27.8897 64.0679 27.5165L63.9501 27.2935C63.1514 27.6856 62.4219 28.196 61.788 28.8041L60.414 27.4458C61.2017 26.6857 62.0905 26.0649 63.0485 25.5903L62.9303 25.3667C60.8362 26.407 59.1314 28.1022 58.0933 30.1803L58.3186 30.3005C58.8027 29.3272 59.443 28.4248 60.2308 27.6269L61.6049 28.9852C60.9657 29.6362 60.4316 30.3883 60.0294 31.2145L60.2539 31.3343C60.637 30.5432 61.1507 29.8105 61.7852 29.1636L63.0292 30.3931C62.5278 30.9087 62.1129 31.5065 61.8054 32.163L62.0304 32.283C62.32 31.6589 62.7158 31.0809 63.2103 30.5721L64.5829 31.929C64.232 32.2969 63.9462 32.726 63.7434 33.1981L63.9702 33.3194C64.1566 32.8766 64.4238 32.4671 64.7646 32.1087L66.0092 33.3389C65.6676 33.7164 65.4506 34.2045 65.4205 34.7424H63.6609C63.6765 34.2465 63.7823 33.7659 63.9702 33.3193L63.7434 33.1981C63.5385 33.675 63.4183 34.196 63.4018 34.7423H61.4626C61.48 33.8796 61.6758 33.0466 62.0303 32.2829L61.8053 32.1629C61.4363 32.9505 61.2219 33.8229 61.2038 34.7424H59.4474C59.4658 33.5435 59.7441 32.387 60.2539 31.3341L60.0294 31.2143C59.5077 32.2852 59.2077 33.4806 59.1887 34.7424H57.249C57.2681 33.1766 57.6382 31.6679 58.3185 30.3005L58.0931 30.1803C57.386 31.596 56.9868 33.1877 56.9868 34.8705C56.9868 35.8998 57.1355 36.9059 57.4196 37.8669L57.6736 37.8038C57.4065 36.9032 57.2608 35.9618 57.249 34.9987H59.1884C59.2003 35.8017 59.3255 36.5864 59.5552 37.3355L59.8067 37.2728C59.5818 36.544 59.4595 35.7803 59.4474 34.9987H61.2034C61.2161 35.6353 61.3223 36.2565 61.5136 36.8477L61.7655 36.7849C61.579 36.2142 61.4753 35.6139 61.4626 34.9987H63.4019C63.4154 35.454 63.5006 35.897 63.6515 36.3155L63.9035 36.2526C63.7573 35.8546 63.6746 35.4326 63.6609 34.9987H65.4203C65.4494 35.5223 65.6545 36.0123 66.0086 36.4028L64.7646 37.6325C64.3809 37.2288 64.0903 36.7604 63.9034 36.2526L63.6514 36.3155C63.8505 36.8673 64.1642 37.3765 64.5814 37.8136L63.2102 39.1691C62.5433 38.4827 62.0551 37.6692 61.766 36.7854L61.5141 36.8482C61.8143 37.7763 62.3262 38.63 63.0276 39.3506L61.7857 40.5782C60.857 39.6316 60.1863 38.5023 59.8073 37.2732L59.5558 37.3359C59.9463 38.6091 60.6403 39.7794 61.6024 40.7593L60.2312 42.1148C59.0176 40.8856 58.1508 39.4103 57.6743 37.8042L57.4202 37.8674C57.9201 39.5583 58.8423 41.1082 60.1376 42.3884C61.0148 43.2557 62.0174 43.9538 63.1043 44.4682L63.2331 44.2425C62.2043 43.7579 61.2528 43.1049 60.4145 42.2957L61.7856 40.9404C62.4983 41.6242 63.3109 42.1694 64.1896 42.5666L64.3175 42.3423C63.4589 41.9571 62.6648 41.4261 61.969 40.7594L63.2108 39.5319C63.7928 40.0853 64.461 40.5192 65.1846 40.8231L65.3125 40.5992C64.6096 40.3076 63.9596 39.8882 63.3944 39.3515L64.7658 37.996C65.2064 38.4069 65.7194 38.7164 66.2755 38.9133L66.4051 38.6864C65.8683 38.5027 65.3733 38.2089 64.9491 37.8149L66.193 36.5852C66.5881 36.9354 67.0836 37.1382 67.6134 37.1669V38.9061C67.1962 38.8933 66.7898 38.818 66.4051 38.6865L66.2755 38.9134C66.7006 39.0641 67.1505 39.1487 67.6135 39.1621V41.079C66.811 41.0631 66.0335 40.8989 65.3131 40.6001L65.1852 40.8241C65.9449 41.1433 66.7655 41.319 67.6135 41.3352V43.0711C66.4579 43.0535 65.342 42.8025 64.3181 42.3432L64.1902 42.5676C65.253 43.0476 66.4127 43.3095 67.6135 43.3273V45.244C66.0732 45.2257 64.5867 44.8806 63.2337 44.2435L63.105 44.4691C64.5348 45.1456 66.111 45.5033 67.7431 45.5033C69.4552 45.5033 71.1047 45.1079 72.5894 44.3653L72.4667 44.1303C71.0822 44.8234 69.5236 45.224 67.8725 45.244V43.3272C69.1816 43.3081 70.4417 42.9979 71.5803 42.4318L71.4593 42.1999C70.377 42.7386 69.1606 43.0512 67.8725 43.071V41.335C68.8547 41.3163 69.8 41.0834 70.6564 40.6611L70.5361 40.4303C69.7304 40.8275 68.8279 41.0596 67.8726 41.0788V39.162C68.4981 39.1439 69.1003 38.9951 69.6483 38.7299L69.5288 38.5004C69.0255 38.7433 68.465 38.8873 67.8725 38.9058V37.1669C68.4023 37.1382 68.8978 36.9354 69.2932 36.5852L70.5358 37.8136C70.2383 38.0897 69.8991 38.3217 69.5288 38.5005L69.6483 38.73C70.0366 38.542 70.3981 38.2965 70.7203 37.996L72.0894 39.3494C71.6323 39.7835 71.1086 40.1483 70.536 40.4304L70.6563 40.6612C71.2436 40.3718 71.7894 39.9942 72.2748 39.5328L73.5138 40.7575C72.9102 41.3361 72.2174 41.823 71.4593 42.2L71.5803 42.4319C72.3502 42.0493 73.0649 41.5507 73.6997 40.9413L75.0676 42.2934C74.3045 43.0297 73.4271 43.6497 72.4668 44.1303L72.5894 44.3653C73.5957 43.862 74.5272 43.2008 75.348 42.3893C76.2109 41.5366 76.9072 40.5633 77.425 39.5092L77.4238 39.5067Z" fill="#656E75"/>
<path d="M68.3577 32.4087L68.2927 32.4113L68.2958 32.4889L68.3613 32.4858L68.3577 32.4087Z" fill="#656E75"/>
<path d="M68.1975 32.3062H68.2846V32.3728H68.1975V32.3062Z" fill="#656E75"/>
<path d="M68.0413 32.2852L68.1178 32.2967L68.1271 32.2307L68.0505 32.2197L68.0413 32.2852Z" fill="#656E75"/>
<path d="M67.9771 32.2617L67.9009 32.2508L67.9103 32.1848L67.9864 32.1956L67.9771 32.2617Z" fill="#656E75"/>
<path d="M67.3516 32.1748H67.4387V32.2415H67.3516V32.1748Z" fill="#656E75"/>
<path d="M67.1626 32.3072L67.2386 32.3182L67.2479 32.2522L67.1718 32.2412L67.1626 32.3072Z" fill="#656E75"/>
<path d="M67.1704 32.4038L67.0829 32.3818L67.0991 32.3172L67.1865 32.3392L67.1704 32.4038Z" fill="#656E75"/>
<path d="M67.0154 32.4844L67.0045 32.4186L67.0683 32.408L67.0792 32.4738L67.0154 32.4844Z" fill="#656E75"/>
<path d="M58.4663 39.1083V39.0537H58.4121V39.1629H58.499V39.305H58.5645L58.5532 39.1413L58.4663 39.1083Z" fill="#656E75"/>
<path d="M59.3237 40.0009L59.2803 40.0769L59.1612 39.9681L59.0742 39.8486L59.0308 39.7506L58.9546 39.5547L59.1172 39.6306L59.1719 39.7829L59.2476 39.8378L59.3237 40.0009Z" fill="#656E75"/>
<path d="M61.5259 42.9934L61.5151 42.8954L61.4282 42.7646L61.5586 42.7867L61.6992 42.9062L61.7539 43.0478L61.6777 43.0914L61.6343 43.0262L61.5259 42.9934Z" fill="#656E75"/>
<path d="M67.406 33.1112H67.2867L67.265 32.8718L67.3301 32.8281V32.7084H66.9504L66.9395 32.5888L66.9939 32.5561L66.907 32.5234L66.8419 32.6104L66.8203 32.7084L66.7118 32.7303V32.7846H66.6359V32.926L66.3321 33.1764L65.7246 33.1547C65.6811 33.2526 65.5725 33.1437 65.5725 33.1437C65.551 33.0784 65.3992 33.1437 65.3992 33.1437C65.3992 33.2636 65.193 33.0894 65.193 33.0894L64.8133 32.8172C64.5963 32.6213 64.2709 32.8717 64.2601 32.926C64.2709 33.0784 64.0106 32.9587 64.0106 32.9587C64.0106 32.9587 63.7936 32.8935 63.761 32.9806C63.7286 33.0676 63.5873 33.0459 63.5873 33.0459L63.5656 33.0894L63.457 33.1112L63.4355 33.1764L63.3052 33.1983L63.6306 33.1873C63.7175 33.1765 63.598 33.3724 63.5439 33.3615L63.3921 33.3724L63.3377 33.4267H63.1967L63.1317 33.514L62.9257 33.503C62.9257 33.503 62.8062 33.601 62.8172 33.6336C62.828 33.6663 62.7955 33.7642 62.7629 33.7642C62.7303 33.7642 62.6652 33.8622 62.6869 33.8948C62.7088 33.9275 62.6219 34.0363 62.6219 34.0363L62.6003 34.1452L62.5352 34.1669V34.4608L62.405 34.5479V34.6785L62.2095 34.8853L62.2314 35.0593L62.0687 35.2335L62.0903 35.4076L61.9927 35.4403L61.9711 35.5165L61.9277 35.7449L62.0362 35.756C62.0903 35.7341 62.0795 35.8974 62.0362 35.9191C61.9926 35.9409 61.8733 35.9844 61.9385 36.0279C62.0036 36.0716 61.7649 36.0606 61.7649 35.9952C61.7649 35.9301 61.6346 35.8756 61.6022 35.8974C61.5696 35.9191 61.5153 35.7995 61.5153 35.7995C61.396 35.6798 61.0271 35.8103 61.0271 35.8103L60.9727 35.9844C60.8536 36.0063 60.7776 36.2022 60.7776 36.2022C60.68 36.2348 60.6041 36.3545 60.6366 36.3871C60.6691 36.4198 60.5822 36.4306 60.5822 36.4306V36.6702L60.5281 36.7463L60.5388 37.0075C60.604 37.0075 60.5932 37.1273 60.5932 37.1273C60.4847 37.1381 60.5063 37.2797 60.5063 37.2797L60.2785 37.3558L60.2352 37.4211L59.9532 37.4101L59.8772 37.4864L59.8011 37.4101H59.2587L59.2372 37.3558L59.1286 37.3339L59.1177 37.2142L58.955 37.2251L58.9225 37.2904L58.7488 37.3012C58.7597 37.4101 58.5752 37.5734 58.5537 37.53C58.5317 37.4864 58.4125 37.3665 58.4669 37.3449C58.5212 37.323 58.6623 37.3012 58.6623 37.3012V37.2251L58.2607 37.2142L58.2175 37.2796L58.0545 37.2904V37.4646L57.9787 37.4864C57.9243 37.5189 57.9894 37.6388 57.9894 37.6388C58.0653 37.7148 57.9787 37.8345 57.9787 37.8345C57.9135 37.8998 58.0328 38.0197 58.0328 38.0197C58.1197 38.0413 57.9787 38.1067 57.9787 38.1067C58.0002 38.2154 58.0654 38.2481 58.0654 38.2481C58.0002 38.3569 58.109 38.4112 58.109 38.4112L58.1197 38.5965L58.1956 38.6401V38.7595L58.239 38.8358H58.4126L58.4017 38.5637C58.2498 38.3895 58.5318 38.346 58.5428 38.4112C58.5538 38.4765 58.6731 38.5092 58.6731 38.5092C58.6948 38.6725 58.8793 38.7703 58.9334 38.6073C58.9877 38.4438 59.031 38.5419 59.0636 38.618C59.0962 38.6943 59.302 38.8793 59.302 38.8793H59.4649L59.4867 39.0317C59.6711 39.0208 59.7252 39.0428 59.8011 39.2929C59.8772 39.5431 60.0832 39.6084 60.0832 39.6084L60.2352 39.5975C60.2352 39.4672 60.3871 39.6195 60.3871 39.6849C60.3871 39.7499 60.68 40.0003 60.68 40.0003L60.9728 40.0655L61.2443 40.2834L61.4503 40.2616H61.5372C61.5913 40.0764 61.8518 40.2724 61.8733 40.3377C61.8952 40.4031 62.0687 40.5119 62.0902 40.4574C62.1121 40.4031 62.2313 40.4358 62.2531 40.5988C62.2747 40.7623 62.3506 40.7296 62.3506 40.7296L62.9691 40.7187L63.186 40.5335L63.7394 40.5228C64.0214 40.5119 63.8478 40.1309 63.7937 40.1309C63.6961 40.0548 63.8261 39.7392 63.8261 39.7392L63.0342 39.01C62.8498 39.01 63.0124 38.7486 63.0124 38.7486C63.1535 38.6615 62.9798 38.5202 62.9798 38.5202C63.0017 38.3894 62.9039 38.2371 62.9039 38.2371C62.7088 38.1065 62.7629 37.8561 62.7629 37.8561V37.6819C62.6002 37.5297 62.828 37.5077 62.828 37.5077C62.9038 37.3774 62.7737 37.2793 62.7737 37.2793L62.7629 37.1378L62.5893 37.116L62.5677 36.6044L62.1772 36.0495C62.1011 36.0275 62.1554 35.8971 62.1554 35.8971C62.253 35.8426 62.1335 35.7122 62.1335 35.7122L62.1228 35.4727L62.3505 35.4508L62.4048 35.3638H62.5133L62.5025 35.0808C62.5566 34.9393 62.6868 35.0155 62.6868 35.0155L62.8387 35.0264L62.9256 34.8631L62.9471 34.7325L62.8279 34.7217C62.6977 34.6454 62.7628 34.3625 62.7628 34.3625C62.9689 34.0577 63.2074 34.2318 63.2074 34.2318L63.3595 34.2211C63.5872 34.3734 63.381 34.6563 63.381 34.6563C63.3377 34.7217 63.3595 34.9285 63.3595 34.9285L63.4136 35.2766L63.2726 35.3965C63.1533 35.4618 63.1533 35.6141 63.2836 35.6468C63.3703 35.6575 63.3377 35.8644 63.2075 35.7229C63.0124 35.7229 63.3162 35.897 63.2293 35.8533C63.4247 35.9514 63.3811 35.7663 63.3811 35.7663L63.6417 35.5595C63.7393 35.4834 63.913 35.7229 63.913 35.7556C63.913 35.7882 64.3468 35.7663 64.3468 35.7663C64.4661 35.8425 64.5095 36.0385 64.5095 36.0385C64.629 35.886 64.8784 36.0275 64.694 36.1146C64.8674 36.2235 64.8674 36.3214 64.8674 36.3214C65.0086 36.2779 65.0086 36.3867 65.0086 36.4194C65.0086 36.452 65.052 36.2562 65.052 36.2562C64.8892 36.1364 65.2689 36.0929 65.1605 36.3106L65.0953 36.4086L65.2039 36.4956L65.2146 36.746C65.4534 36.7242 65.3883 36.4302 65.3883 36.4302L65.4968 36.4086C65.4968 36.3106 65.5726 36.365 65.5726 36.365C65.4968 35.9949 65.7463 35.9297 65.7463 35.9297C65.8873 35.8971 65.8981 35.603 65.8981 35.603C65.8006 35.5595 65.8546 35.4073 65.9632 35.5379C66.0716 35.6683 65.8981 35.2766 65.8981 35.2766L65.8113 35.2004L65.6921 35.1896L65.6811 35.0698H65.486L65.4534 35.2223L65.3775 35.244L65.3556 35.2004L65.3232 35.3201H65.1279L65.1172 35.1896L65.2364 35.1569L65.2799 35.0916L65.3123 34.9174H65.4534L65.6378 34.8631C65.6485 34.678 65.7463 34.7217 65.7463 34.7217L65.8113 34.776L65.909 34.8522L65.9199 34.9174L65.8547 34.95L65.844 35.0372L65.8765 35.1569H65.9632C65.9958 34.9827 66.2237 34.9827 66.2888 35.0916L66.3539 34.9392C66.2021 34.8631 66.3511 34.7432 66.3945 34.7977C66.4378 34.8522 66.5383 34.6563 66.5383 34.6563C66.5383 34.6563 66.6142 34.7542 66.5383 34.6236C66.4624 34.4929 66.5924 34.4277 66.5924 34.4277C66.5708 34.2971 66.7335 34.3188 66.7335 34.3188L66.7445 34.1448L66.5924 34.1338C66.5601 34.2862 66.4298 34.1556 66.4949 34.123C66.5601 34.0903 66.625 34.025 66.625 34.025V33.9161L66.6901 33.8944L66.7009 33.7855H66.8638L67.0048 33.7203L67.0374 33.6658L67.1891 33.655L67.4061 33.459L67.3846 33.372C67.2543 33.372 67.3846 33.274 67.3846 33.274L67.406 33.1111L67.406 33.1112Z" fill="#656E75"/>
<path d="M63.034 35.2659L62.8387 35.2441L62.8496 35.3203H62.9037C62.9905 35.4727 62.9146 35.8427 62.9146 35.8427C62.9146 35.8427 62.7846 35.8535 62.7627 35.7883C62.7412 35.723 62.6868 35.9298 62.7302 35.9625C62.7735 35.995 62.9255 35.9625 62.9363 36.0823C62.947 36.2019 63.034 36.006 63.034 36.006V35.2659L63.034 35.2659Z" fill="#656E75"/>
<path d="M63.0991 36.3867L63.023 36.3543L63.0337 36.1912L63.0991 36.1799L63.1099 36.1035L62.9468 36.2128L62.8384 36.1476V36.4087L63.0122 36.637L63.0772 36.4846L63.0991 36.3867Z" fill="#656E75"/>
<path d="M63.1206 36.8773V36.7676L63.0449 36.7784L63.0337 36.8665L63.1206 36.8773Z" fill="#656E75"/>
<path d="M63.0227 37.4004V37.3232L62.9307 37.3341V37.4113L63.0227 37.4004Z" fill="#656E75"/>
<path d="M63.151 37.0653C63.1764 37.0653 63.1968 37.0445 63.1968 37.0189C63.1968 36.993 63.1764 36.9722 63.151 36.9722C63.1256 36.9722 63.105 36.9929 63.105 37.0189C63.105 37.0445 63.1256 37.0653 63.151 37.0653Z" fill="#656E75"/>
<path d="M63.2264 37.2939C63.2519 37.2939 63.2725 37.273 63.2725 37.2473C63.2725 37.2215 63.2519 37.2007 63.2264 37.2007C63.201 37.2007 63.1804 37.2215 63.1804 37.2473C63.1804 37.273 63.201 37.2939 63.2264 37.2939Z" fill="#656E75"/>
<path d="M63.2289 36.0507C63.2543 36.0507 63.2749 36.0298 63.2749 36.0041C63.2749 35.9784 63.2543 35.9575 63.2289 35.9575C63.2035 35.9575 63.1829 35.9784 63.1829 36.0041C63.1829 36.0298 63.2035 36.0507 63.2289 36.0507Z" fill="#656E75"/>
<path d="M66.7226 34.6894L66.6357 34.7115L66.4404 34.8967L66.4297 34.9834L66.3755 35.0598L66.3106 35.2229L66.0825 35.2337L66.0391 35.4296L66.0713 35.5927L66.2666 35.6692L66.2886 35.5604L66.3535 35.5276L66.3647 35.4188L66.4077 35.3424L66.4731 35.2665L66.4946 35.1793L66.603 35.1142L66.7334 35.0921L66.7876 35.027L66.8096 34.8967L66.8172 34.7987L66.8638 34.733L66.9936 34.6787V34.472H66.9287L66.9179 34.3955L66.7983 34.3848L66.7768 34.4391H66.7226L66.7114 34.5263H66.7768L66.7876 34.5915L66.7441 34.6351L66.7226 34.6894Z" fill="#656E75"/>
<path d="M67.221 35.1357V34.9833L67.1992 34.8417L67.0366 34.7656L66.9173 34.8745L66.8955 35.0269V35.1247L66.7871 35.1466L66.7652 35.4404L66.6786 35.4731L66.6894 35.582L66.5701 35.6146L66.4508 35.6473L66.4291 35.7887L66.3424 35.8431L66.2988 35.9737L66.2446 36.2893C66.2446 36.2893 66.3424 36.4744 66.3965 36.3873C66.4508 36.3003 66.5376 36.2893 66.5376 36.2893L66.5701 36.2131L66.863 36.224C66.8848 36.1042 67.0258 36.1479 67.0258 36.2022C67.0258 36.2567 67.1343 36.2131 67.1343 36.2131L67.2102 36.0934H67.3294L67.3403 35.9629L67.3946 35.9302V35.7342C67.5683 35.6798 67.5464 35.5166 67.5464 35.5166L67.59 35.4622L67.5683 35.3861C67.4813 35.3533 67.5246 35.2771 67.579 35.2989C67.6334 35.3206 67.5031 35.2009 67.5031 35.2009C67.438 35.2554 67.3839 35.1357 67.3839 35.1357H67.221H67.221Z" fill="#656E75"/>
<path d="M67.3947 36.4524C67.3839 36.5834 67.2211 36.6272 67.2211 36.6272L67.1018 36.5945L67.0368 36.5398L67.0259 36.3868L67.1234 36.376L67.1452 36.4416L67.3947 36.4524H67.3947Z" fill="#656E75"/>
<path d="M67.9808 35.7567C68.0042 35.8516 68.0023 35.6041 68.0457 35.6152C68.089 35.626 68.0566 35.4629 68.0566 35.4629L67.8613 35.6041C67.9589 35.6152 67.9697 35.7132 67.9808 35.7567H67.9808Z" fill="#656E75"/>
<path d="M68.5557 35.1899C68.599 35.2879 68.5883 35.4294 68.7508 35.5382C68.8057 35.5749 68.7182 35.6471 68.6639 35.6144C68.6098 35.5817 68.458 35.3422 68.458 35.3422V35.2007C68.4905 35.1137 68.5368 35.1477 68.5557 35.1899V35.1899Z" fill="#656E75"/>
<path d="M68.6318 38.4438L68.5562 38.4992L68.5884 38.5319L68.6206 38.5867L68.6968 38.4661L68.6318 38.4438Z" fill="#656E75"/>
<path d="M69.8531 38.1679L69.94 38.113L69.9053 38.0576L69.8188 38.112L69.8531 38.1679Z" fill="#656E75"/>
<path d="M72.9929 40.4356L73.0906 40.479L73.1014 40.664C73.2316 40.7946 73.6547 40.6858 73.6547 40.6532C73.6547 40.6204 73.6329 40.2505 73.6329 40.2505L73.5785 40.196L73.5678 39.9238C73.6112 39.7823 73.3616 39.5755 73.34 39.6192C73.3182 39.6626 73.1772 39.6299 73.1772 39.6736C73.1772 39.717 73.0906 39.9347 73.1339 40.011C73.1772 40.0872 73.1013 40.0872 73.0905 40.1633C73.0797 40.2395 72.9711 40.3703 72.9929 40.4356L72.9929 40.4356Z" fill="#656E75"/>
<path d="M72.754 40.0005C72.7334 40.0833 72.6565 40.1316 72.6132 40.0987C72.5695 40.0659 72.6671 40.1533 72.689 40.1972C72.7106 40.2407 72.7756 40.2407 72.7975 40.1972C72.819 40.1532 72.8083 40.0552 72.8301 40.0115C72.8516 39.9677 72.7649 39.9568 72.754 40.0005L72.754 40.0005Z" fill="#656E75"/>
<path d="M72.2495 38.0039H72.3254V38.2116H72.2495V38.0039Z" fill="#656E75"/>
<path d="M73.3728 35.9096C73.3255 35.8456 73.5898 35.7338 73.6331 35.8657C73.6765 35.9973 73.6331 35.9755 73.5898 35.9645C73.5463 35.9535 73.438 35.9974 73.3728 35.9096V35.9096Z" fill="#656E75"/>
<path d="M73.606 34.4502L73.5947 34.5149L73.7139 34.5367L73.7256 34.4719L73.606 34.4502Z" fill="#656E75"/>
<path d="M73.3345 34.5449L73.3023 34.563L73.2215 34.6086L73.151 34.5641L73.1167 34.6195L73.2036 34.6744L73.22 34.6847L73.2363 34.6754L73.3018 34.6386L73.31 34.6588L73.3703 34.6345L73.3483 34.5796L73.3345 34.5449Z" fill="#656E75"/>
<path d="M73.7088 31.9901H73.546C73.546 31.9901 73.6003 32.0119 73.4485 31.8703C73.2964 31.7289 73.199 31.903 73.199 31.903L73.0254 31.9248V32.0989L72.9385 32.1315L72.9495 32.2404L73.0688 32.2296C73.0688 32.2296 73.0688 32.3601 73.1013 32.3058C73.1339 32.2513 73.4052 32.3165 73.3834 32.4472C73.3746 32.5009 73.6547 32.643 73.6222 32.8172C73.7632 32.839 73.7307 32.9805 73.7307 32.9805L73.915 33.0023L73.9693 32.8934L74.0235 32.9044V32.839L73.904 32.8064L73.8825 32.458L73.8065 32.4036L73.8282 32.3165L73.7415 32.2839L73.7849 32.1424L73.7088 31.9901L73.7088 31.9901Z" fill="#656E75"/>
<path d="M74.1862 33.1006L74.0994 33.0898L73.9039 33.1225L73.7956 33.3292C73.7956 33.3292 73.8498 33.3619 73.8931 33.4381C73.9364 33.5143 73.9582 33.9604 73.8281 34.0367C73.698 34.1129 73.839 34.0692 73.839 34.0692L73.8172 34.3087C73.8498 34.4176 73.9039 34.3633 73.9365 34.3087C73.9693 34.2545 74.0018 34.2435 74.0452 34.1891C74.0886 34.1346 74.1536 34.0367 74.1645 33.9605C74.1752 33.8843 74.2295 33.7647 74.197 33.732C74.1645 33.6993 74.2296 33.547 74.2296 33.547C74.2296 33.547 74.2729 33.4598 74.2296 33.3728C74.1862 33.2857 74.2404 33.1878 74.2729 33.1442L74.1862 33.1006L74.1862 33.1006Z" fill="#656E75"/>
<path d="M74.3169 33.5444L74.3281 33.4565L74.3928 33.4648L74.3816 33.5527L74.3169 33.5444Z" fill="#656E75"/>
<path d="M74.3132 33.8452L74.2555 33.8162L74.2882 33.7506L74.346 33.7797L74.3132 33.8452Z" fill="#656E75"/>
<path d="M74.2186 32.9807L74.1751 32.8827C74.1751 32.8827 74.1751 32.7958 74.1968 32.752C74.2186 32.7086 74.1535 32.6651 74.121 32.6542C74.0884 32.6433 74.0994 32.5563 74.0884 32.5127C74.0776 32.4692 74.0018 32.4365 74.0018 32.4365C74.0018 32.4365 73.9799 32.2733 73.9799 32.2406C73.9799 32.208 73.8823 32.1645 73.9149 32.1317C73.9475 32.0991 73.9692 32.0556 74.0018 32.0338C74.0343 32.012 73.9691 31.8596 74.0233 31.8923C74.0776 31.925 74.0776 31.9794 74.0994 32.0229C74.121 32.0664 74.0884 32.2188 74.1428 32.2515C74.1969 32.2841 74.1318 32.3929 74.2187 32.3929C74.3054 32.3929 74.2513 32.5998 74.2513 32.5998C74.2513 32.5998 74.2294 32.752 74.2836 32.763C74.3379 32.7739 74.3054 33.0351 74.3054 33.0351L74.2187 32.9807L74.2186 32.9807Z" fill="#656E75"/>
<path d="M73.5137 31.2179C73.5461 31.2614 73.6112 31.294 73.6112 31.3377C73.6112 31.3813 73.5896 31.4138 73.6548 31.4247C73.7197 31.4355 73.7632 31.4138 73.7849 31.4682C73.8066 31.5226 73.8066 31.6097 73.7958 31.6532C73.7849 31.6968 73.8066 31.7621 73.8607 31.7621C73.9151 31.7621 73.9259 31.773 73.9259 31.8057C73.9259 31.8383 73.991 31.6859 73.991 31.6859C73.9366 31.6424 73.8933 31.5443 73.8933 31.5443C73.8933 31.5443 73.8391 31.392 73.8391 31.3702C73.8391 31.3485 73.7632 31.3266 73.7307 31.3158C73.6981 31.3049 73.6437 31.207 73.6437 31.207L73.5137 31.2179L73.5137 31.2179Z" fill="#656E75"/>
<path d="M73.6221 31.12C73.5895 31.0763 73.5569 31.0437 73.5135 31.022C73.4703 31.0002 73.4377 30.9784 73.3941 30.9784C73.3508 30.9784 73.3075 30.9348 73.329 30.8805C73.3508 30.826 73.2964 30.8043 73.2964 30.7607C73.2964 30.7172 73.329 30.7172 73.3833 30.7499C73.4377 30.7825 73.4267 30.7934 73.4703 30.8479C73.5135 30.9023 73.5352 30.9567 73.5785 30.9458C73.6221 30.9348 73.6546 31.0437 73.698 31.0111C73.7413 30.9784 73.7306 31.0872 73.7306 31.0872L73.6221 31.12L73.6221 31.12Z" fill="#656E75"/>
<path d="M72.3527 32.3494C72.4125 32.4095 72.0273 32.3928 72.0273 32.3494C72.0273 32.3059 72.06 32.1536 72.1574 32.186C72.2551 32.2188 72.2658 31.9902 72.2658 31.9902C72.2658 31.9902 72.1791 32.001 72.2551 31.9575C72.331 31.914 72.2551 31.8487 72.2225 31.8161C72.19 31.7833 72.1574 31.729 72.1574 31.729H72.3094C72.3746 31.6854 72.3961 31.4787 72.3961 31.4787C72.5262 31.5222 72.5913 31.4351 72.5913 31.4351C72.5913 31.4351 72.6133 31.5004 72.6566 31.5549C72.7 31.6092 72.5479 31.631 72.6022 31.6637C72.6566 31.6964 72.6782 31.7943 72.6566 31.8268C72.6348 31.8595 72.5153 31.8378 72.5153 31.7943C72.5153 31.7507 72.472 31.8487 72.5153 31.9031C72.5587 31.9575 72.4612 32.0337 72.4394 32.0337C72.4177 32.0337 72.2769 32.0555 72.396 32.1208C72.5153 32.186 72.6457 32.1535 72.6457 32.1535C72.6457 32.1535 72.7433 32.1425 72.7758 32.197C72.8084 32.2514 72.765 32.2623 72.7108 32.2623C72.6566 32.2623 72.3961 32.2405 72.3961 32.2405C72.3961 32.2405 72.3202 32.3167 72.3527 32.3494L72.3527 32.3494Z" fill="#656E75"/>
<path d="M71.6583 32.4475C71.7126 32.4366 71.8425 32.4255 71.8644 32.4585C71.8862 32.4914 71.7885 32.5353 71.7885 32.5353L71.6583 32.5573C71.6149 32.5024 71.6041 32.4585 71.6583 32.4475V32.4475Z" fill="#656E75"/>
<path d="M73.0581 31.5333C73.1448 31.4898 73.3292 31.4898 73.3184 31.4244C73.3077 31.3591 73.4269 31.3374 73.4269 31.3374L73.4594 31.4679L73.5571 31.5332L73.568 31.653C73.568 31.653 73.6005 31.6312 73.4813 31.6639C73.3618 31.6966 73.4379 31.7509 73.4379 31.7509L73.1774 31.7617L73.1448 31.6529L73.0581 31.5333L73.0581 31.5333Z" fill="#656E75"/>
<path d="M72.6347 30.9459C72.7006 30.9459 72.6131 31.1962 72.7865 31.1745C72.9601 31.1527 72.7975 31.2507 72.9276 31.2615C73.0578 31.2725 73.0252 31.1636 73.0686 31.0875C73.1121 31.0113 73.0904 30.9677 73.0144 30.9459C72.9383 30.9242 72.9383 30.9242 72.9168 30.837C72.8952 30.75 72.8083 30.7281 72.8083 30.7281L72.7757 30.5977L72.6347 30.6846L72.4937 30.8697C72.4937 31.0113 72.5695 30.9459 72.6347 30.9459Z" fill="#656E75"/>
<path d="M72.9219 31.8657L72.9546 31.8001L73.0127 31.8293L72.9799 31.8949L72.9219 31.8657Z" fill="#656E75"/>
<path d="M72.8083 31.7617H72.8738V31.8395H72.8083V31.7617Z" fill="#656E75"/>
<path d="M72.863 30.3115L72.8741 30.4103L72.8094 30.4176L72.7983 30.3188L72.863 30.3115Z" fill="#656E75"/>
<path d="M72.6785 31.3262H72.7431V31.3811H72.6785V31.3262Z" fill="#656E75"/>
<path d="M72.5076 31.3252L72.501 31.2588L72.6101 31.248L72.6166 31.3144L72.5076 31.3252Z" fill="#656E75"/>
<path d="M71.6123 32.3721L71.5522 32.3462L71.5855 32.2686L71.6455 32.2945L71.6123 32.3721Z" fill="#656E75"/>
<path d="M71.272 32.1738L71.2655 32.1076L71.3747 32.0968L71.3812 32.163L71.272 32.1738Z" fill="#656E75"/>
<path d="M69.3896 32.1533L69.1514 32.1642L69.1544 32.2299L69.3927 32.2191L69.3896 32.1533Z" fill="#656E75"/>
<path d="M68.9915 32.248L68.9697 32.1493L69.0333 32.1352L69.0551 32.2339L68.9915 32.248Z" fill="#656E75"/>
<path d="M68.9458 32.3154L68.9253 32.2538L68.9574 32.243L68.9779 32.3047L68.9458 32.3154Z" fill="#656E75"/>
<path d="M69.4883 32.1322L69.4775 32.2083L69.5967 32.2192C69.5967 32.2192 69.6509 32.2628 69.6509 32.2954C69.6509 32.328 69.727 32.3607 69.7703 32.3607C69.8137 32.3607 69.933 32.2736 69.933 32.2736C69.933 32.2736 69.9873 32.1212 69.944 32.1321C69.9004 32.1429 69.8137 32.2082 69.803 32.1429C69.792 32.0776 69.662 32.1102 69.662 32.1102L69.4883 32.1322V32.1322Z" fill="#656E75"/>
<path d="M70.0308 32.0126C70.0308 32.0451 70.0092 32.0887 70.0741 32.0996C70.1395 32.1104 70.2588 32.0562 70.2695 32.1214C70.2805 32.1866 70.2805 32.2303 70.3672 32.263C70.4539 32.2956 70.5083 32.3065 70.5734 32.3065C70.6383 32.3065 70.7796 32.2846 70.7796 32.2846C70.7796 32.2846 70.933 32.3084 70.9639 32.3391C71.0832 32.4588 71.1591 32.4914 71.1916 32.4371C71.2242 32.3826 71.1808 32.263 71.17 32.2194C71.1591 32.1758 71.0072 31.969 70.9529 32.0126C70.8988 32.0562 70.8879 32.0126 70.7902 32.0451C70.6926 32.0778 70.4864 32.0562 70.4757 32.0126C70.4649 31.969 70.313 31.9474 70.313 31.9037C70.313 31.8601 70.2046 31.8058 70.2153 31.871C70.2261 31.9363 70.1395 31.969 70.1174 31.9473C70.0959 31.9255 70.0308 32.0126 70.0308 32.0126L70.0308 32.0126Z" fill="#656E75"/>
<path d="M72.5263 30.6182L72.6024 30.3789C72.494 30.3571 72.5155 30.2374 72.5155 30.2374C72.5047 30.1394 72.3529 30.0306 72.2986 30.0633C72.2444 30.0958 72.266 29.8346 72.266 29.8346C72.266 29.8346 72.3637 29.7694 72.4071 29.8021C72.4505 29.8346 72.0383 29.2579 71.9514 29.3123C71.8647 29.3667 71.6695 29.2579 71.6803 29.1599C71.6911 29.062 71.2898 28.7354 71.2898 28.7354C71.2898 28.7354 71.1595 28.6485 71.1379 28.7138C71.1162 28.779 71.0728 28.8226 71.1379 28.8551C71.2029 28.8878 71.192 28.8008 71.2679 28.8769C71.3438 28.953 71.4851 29.0511 71.4308 29.1164C71.3765 29.1818 71.3113 29.2035 71.3113 29.2035L71.3874 29.2906H71.5067L71.5284 29.4755C71.5284 29.4755 71.6585 29.5409 71.6911 29.617C71.7237 29.6932 71.7237 29.7368 71.6911 29.7804C71.6585 29.8239 71.5937 29.9 71.6044 29.9761C71.6152 30.0523 71.7021 30.085 71.7021 30.085L71.7887 30.0959L71.8539 30.1286V30.2702C71.9406 30.2484 72.0816 30.368 72.0709 30.4443C72.0601 30.5204 72.0924 30.4769 72.2009 30.5531C72.3095 30.6293 72.277 30.6402 72.3529 30.6946C72.4289 30.7489 72.494 30.7163 72.5263 30.6182L72.5263 30.6182Z" fill="#656E75"/>
<path d="M70.7362 29.1385C70.7254 29.0949 70.7035 28.9424 70.7687 28.9533C70.8338 28.9643 70.7904 28.9533 70.8664 28.986C70.9423 29.0187 70.9531 28.9316 70.9531 28.9316H71.0725L71.2243 29.0513L71.2026 29.1493L71.0941 29.16C71.04 29.0731 70.9314 29.1057 70.9531 29.1819C70.9748 29.2581 70.899 29.3996 70.8556 29.4104C70.8122 29.4213 70.671 29.4213 70.682 29.3561C70.6928 29.2908 70.7362 29.1385 70.7362 29.1385L70.7362 29.1385Z" fill="#656E75"/>
<path d="M70.6492 28.8448V28.7578C70.6492 28.7578 70.6382 28.6707 70.5841 28.6707C70.53 28.6707 70.4323 28.6055 70.4538 28.5619C70.4757 28.5183 70.2695 28.4748 70.2695 28.4748C70.2695 28.4748 70.0852 28.3007 70.1502 28.3225C70.2153 28.3442 70.1828 28.2462 70.1828 28.2462C70.1828 28.2462 70.0525 28.268 70.02 28.2572C69.9873 28.2462 69.9981 28.1483 69.9981 28.1483C69.9981 28.1483 69.8682 28.1156 69.8682 28.1483C69.8682 28.181 69.9115 28.181 69.933 28.2462C69.9549 28.3114 69.944 28.4204 70.0418 28.4421C70.1395 28.4639 70.161 28.4856 70.172 28.5292C70.1828 28.5728 70.3021 28.5836 70.3021 28.5836L70.389 28.6271L70.6492 28.8448V28.8448Z" fill="#656E75"/>
<path d="M69.4777 27.7357L69.4455 27.6477L69.3586 27.626V27.7249L69.4777 27.7357Z" fill="#656E75"/>
<path d="M69.4454 27.278C69.332 27.1929 69.5972 27.3433 69.5972 27.3433C69.6839 27.3433 69.7382 27.4086 69.7382 27.4413C69.7382 27.4739 69.8575 27.4631 69.8575 27.4631L69.8686 27.3868L69.7816 27.278L69.7058 27.2237C69.7058 27.2237 69.5865 27.2128 69.5865 27.1801C69.5865 27.1475 69.4888 27.3107 69.4454 27.278L69.4454 27.278Z" fill="#656E75"/>
<path d="M71.4409 27.343C71.4092 27.4382 71.3975 27.5716 71.3432 27.5716C71.2891 27.5716 71.3106 27.7132 71.3106 27.7132C71.3106 27.7132 71.4519 27.7132 71.4953 27.724C71.5385 27.7348 71.5385 27.8436 71.5385 27.8436C71.7014 27.8328 71.7665 28.0505 71.7447 28.1049C71.7229 28.1593 71.8098 28.1593 71.8098 28.1593C71.8098 28.1593 71.8098 28.3335 71.788 28.3769C71.7664 28.4205 71.9291 28.4532 71.9724 28.5184C72.0158 28.5838 71.9506 28.8014 71.9182 28.8123C71.8857 28.8232 72.0049 28.8558 71.9941 28.9102C71.9831 28.9647 72.0267 28.9102 72.0375 28.9974C72.0483 29.0844 72.0701 29.2694 72.0701 29.2694L72.2218 29.2803C72.2437 29.1389 72.5233 29.1334 72.569 29.1497C72.7535 29.215 72.8947 29.498 72.8947 29.5632C72.8947 29.6285 72.7752 29.6395 72.7752 29.6395L72.797 29.955C72.9813 30.0095 73.1333 30.2708 73.1116 30.3143C73.0899 30.3578 73.2416 30.347 73.2416 30.347C73.2635 30.1509 73.4478 30.2163 73.4586 30.2816C73.4697 30.347 73.502 30.4885 73.502 30.4885L73.5563 30.5863L73.6322 30.6625L73.7515 30.6516L73.7841 30.717L73.9251 30.7388C73.9251 30.7388 74.0446 30.8693 74.0553 30.902C74.0663 30.9346 74.229 30.9238 74.2723 30.9346C74.3156 30.9455 74.3808 30.9782 74.3916 31.0326C74.4026 31.0871 74.4677 31.1741 74.4677 31.1741C74.4677 31.1741 74.5978 31.2068 74.6087 31.2503C74.6195 31.2937 74.6738 31.3917 74.6738 31.3917L74.7821 31.4788L74.793 31.5768L74.9123 31.5877L74.9449 31.7182L75.14 31.7074L75.2487 31.6312C75.3897 31.5551 75.4874 31.4571 75.4983 31.4135C75.509 31.37 75.5308 31.2068 75.6393 31.2394C75.7477 31.2721 75.6719 31 75.6719 31C75.6719 31 75.52 30.8911 75.5308 30.8366C75.5416 30.7823 75.379 30.6735 75.3897 30.6299C75.4005 30.5863 75.2487 30.4993 75.2595 30.4558C75.2703 30.4122 75.1836 30.2924 75.1836 30.2924L75.0208 30.1401L74.999 30.0421L74.869 30.0313L74.6087 29.7157L74.6194 29.6285L74.5435 29.6177V29.498L74.4677 29.4544L74.3482 29.4436L74.1096 29.1824L74.0879 29.0627H73.9686L73.9903 28.834C74.0663 28.7361 74.0228 28.5511 74.0228 28.5511C74.0228 28.5511 73.8708 28.6272 73.7951 28.5946C73.719 28.562 73.8275 28.4857 73.8275 28.4857V28.3987L73.7625 28.3334C73.7625 28.3334 73.5779 28.3553 73.5672 28.3226C73.5563 28.29 73.5238 28.1485 73.5238 28.1485L73.5129 27.9634L73.4371 27.9309L73.4261 27.8655L73.3069 27.8763V27.7457L73.2417 27.724L73.1767 27.6913L73.1658 27.5607L72.9272 27.5499L72.8512 27.4411L72.7645 27.3104L72.4933 27.2887L72.4282 27.2235L72.3197 27.2016L72.2438 27.1689L72.2112 27.2235L72.005 27.2342L71.9943 27.2995C71.8858 27.354 71.4519 27.3104 71.4409 27.343V27.343Z" fill="#656E75"/>
<path d="M72.5805 27.0599C72.5633 26.9739 72.7976 26.8966 72.8518 26.9618C72.9061 27.0271 73.0579 27.0382 73.0797 27.3647C73.0873 27.4816 72.8843 27.245 72.8843 27.245L72.7215 27.1905C72.6348 27.1687 72.5913 27.1144 72.5805 27.0598L72.5805 27.0599Z" fill="#656E75"/>
<path d="M69.3984 27.1934L69.339 27.1668L69.3829 27.0681L69.4423 27.0946L69.3984 27.1934Z" fill="#656E75"/>
<path d="M68.8375 26.1237L68.6962 25.9822V25.8625L68.6529 25.8188L68.6095 25.6665L68.4685 25.623L68.3275 25.6774L68.1756 25.7753L68.0129 25.7972L67.926 25.8951L68.2732 25.9276L68.3382 26.0366L68.588 26.0584L68.7505 26.2216C68.8918 26.2652 68.9243 26.1999 68.8375 26.1237L68.8375 26.1237Z" fill="#656E75"/>
<path d="M68.816 25.5906C68.7921 25.4949 68.6532 25.7102 68.7945 25.7537C68.9355 25.7974 69.0763 25.7537 69.0763 25.7537L69.1089 25.6884L69.6512 25.6994C69.6948 25.6558 69.7163 25.5905 69.7163 25.5905C69.7163 25.5905 69.8466 25.5469 69.9007 25.5687C69.955 25.5905 69.9117 25.4164 69.8573 25.4381C69.8032 25.4599 69.6947 25.449 69.6947 25.449H69.4994C69.4886 25.3729 69.315 25.4054 69.3042 25.449C69.2932 25.4925 69.2284 25.5034 69.2284 25.5034L68.9788 25.5252C68.957 25.5906 68.827 25.6341 68.816 25.5906L68.816 25.5906Z" fill="#656E75"/>
<path d="M67.7419 27.4272C67.9087 27.4795 67.9696 27.4407 67.9807 27.3973C67.9915 27.3537 68.0022 27.3427 68.0674 27.332C68.1324 27.321 68.0565 27.1904 67.9915 27.2013C67.9263 27.2122 67.8612 27.1796 67.8504 27.1251C67.8393 27.0708 67.7309 26.9292 67.7202 27.0381C67.7093 27.147 67.6442 27.147 67.655 27.2232C67.666 27.2992 67.6985 27.4134 67.7419 27.4272V27.4272Z" fill="#656E75"/>
<path d="M66.4948 27.5502C66.487 27.5115 66.7118 27.5065 66.7444 27.5391C66.777 27.572 66.7552 27.6266 66.8528 27.6266C66.9503 27.6266 66.907 27.6922 66.8962 27.725C66.8854 27.7577 66.777 27.7468 66.7659 27.7142C66.7552 27.6813 66.5923 27.6703 66.5923 27.6703C66.5923 27.6703 66.5056 27.6046 66.4948 27.5502L66.4948 27.5502Z" fill="#656E75"/>
<path d="M70.1845 25.2168L70.0986 25.2862L70.0433 25.2302L69.9973 25.2767L70.073 25.3536L70.094 25.3746L70.1165 25.3562L70.2254 25.2682L70.1845 25.2168Z" fill="#656E75"/>
<path d="M69.5862 25.0193L69.5167 24.9755L69.4824 25.0314L69.5693 25.0861L69.5862 25.0973L69.6036 25.0861L69.7233 25.0092L69.6885 24.9536L69.5862 25.0193Z" fill="#656E75"/>
<path d="M69.2364 27.2576L69.2205 27.256L69.1121 27.2446L69.1055 27.3104L69.1985 27.3197L69.266 27.4269L69.3207 27.3917L69.245 27.271L69.2364 27.2576Z" fill="#656E75"/>
<path d="M65.6481 30.292L65.6592 30.4129H65.8217C65.8869 30.4129 65.7676 30.336 65.7676 30.336C65.7676 30.336 65.6374 30.347 65.6481 30.292L65.6481 30.292Z" fill="#656E75"/>
<path d="M65.855 30.2959L65.8972 30.2449L65.9631 30.2997L65.9209 30.3507L65.855 30.2959Z" fill="#656E75"/>
<path d="M63.8787 28.2598L63.9254 28.213L63.9912 28.2792L63.9445 28.326L63.8787 28.2598Z" fill="#656E75"/>
<path d="M67.0296 42.2683L66.9212 42.2134L66.8921 42.2724L66.9601 42.3066L66.9376 42.3294L66.9841 42.376L67.0383 42.3211L67.07 42.289L67.0296 42.2683Z" fill="#656E75"/>
<path d="M66.1899 41.4843L66.1484 41.4336L66.083 41.4885L66.0508 41.5159L66.085 41.5408L66.1612 41.5956L66.1991 41.5423L66.1571 41.5118L66.1899 41.4843Z" fill="#656E75"/>
<path d="M74.2573 39.4197C74.243 39.364 74.1797 39.3412 74.1726 39.3389L74.1519 39.4012V39.4008C74.157 39.4027 74.1645 39.4067 74.172 39.4115L74.1853 39.4682C74.1805 39.4755 74.1752 39.4823 74.171 39.4871L74.2187 39.5315C74.2535 39.493 74.2664 39.4557 74.2573 39.4197V39.4197Z" fill="#656E75"/>
<path d="M74.357 39.2146L74.2512 39.2068L74.2594 39.1079L74.3652 39.1245L74.357 39.2146Z" fill="#656E75"/>
<path d="M76.8712 38.3653C76.9176 38.3362 76.9769 38.2832 76.9689 38.4063C76.9606 38.5292 76.9119 38.4883 76.8712 38.5292C76.8306 38.5702 76.8061 38.4063 76.8712 38.3653Z" fill="#656E75"/>
<path d="M77.4234 37.9039C77.4225 37.9017 77.422 37.8941 77.4215 37.8886C77.4201 37.8705 77.4177 37.8458 77.4048 37.8198L77.3467 37.8493C77.3539 37.864 77.3553 37.8795 77.3566 37.8944C77.3582 37.9137 77.3603 37.9357 77.3788 37.9496C77.3905 37.9585 77.4052 37.961 77.4227 37.9576L77.4103 37.8939C77.4153 37.8946 77.4219 37.8992 77.4234 37.9039V37.9039Z" fill="#656E75"/>
<path d="M77.2786 37.9566C77.2951 38.0234 77.3192 38.0892 77.3203 38.0919L77.3814 38.0687C77.3809 38.0681 77.3572 38.0037 77.3416 37.9404L77.2786 37.9566V37.9566Z" fill="#656E75"/>
<path d="M77.0419 38.2135L76.9771 38.207C76.9721 38.2588 76.9844 38.3229 77.0357 38.3333L77.0484 38.2687C77.0489 38.2687 77.0495 38.2691 77.0496 38.2691C77.0444 38.2644 77.0396 38.2379 77.0419 38.2135V38.2135Z" fill="#656E75"/>
<path d="M76.7565 36.9155C76.7531 36.8943 76.7404 36.8779 76.7209 36.8693C76.6727 36.8482 76.5915 36.8831 76.5518 36.91L76.5878 36.9649C76.629 36.937 76.6831 36.9236 76.6951 36.9298C76.6941 36.9294 76.6926 36.9275 76.6922 36.9262L76.7565 36.9155V36.9155Z" fill="#656E75"/>
<path d="M73.752 33.4377C73.7086 33.4813 73.611 33.5031 73.611 33.5031L73.5784 33.6228L73.5243 33.6663C73.5243 33.6663 73.535 33.6989 73.5243 33.7751C73.5134 33.8513 73.4157 33.8949 73.4157 33.8949L73.3724 33.9493C73.3724 33.9493 73.1109 33.9633 73.0795 33.9493C72.9818 33.9058 73.047 33.7752 73.1121 33.786C73.1771 33.797 73.1011 33.601 73.1011 33.601L73.188 33.5901C73.188 33.5901 73.1987 33.3941 73.2314 33.3941C73.2639 33.3941 73.2206 33.3289 73.177 33.2962C73.1337 33.2637 73.0795 33.1549 73.0359 33.1657C72.9925 33.1765 72.819 33.1657 72.819 33.1657L72.7864 33.231L72.667 33.2527C72.667 33.2527 72.6773 33.3369 72.6564 33.3616C72.5911 33.4377 72.3417 33.601 72.4501 33.3289L72.4825 33.2637V33.1657L72.2875 33.155C72.2875 33.155 72.1898 33.1222 72.1898 33.0787C72.1898 33.0351 72.1789 32.9808 72.1789 32.9808L71.951 32.7305L71.68 32.6979L71.6581 32.6434L71.4956 32.6216C71.3002 32.5237 71.1265 32.6107 71.1592 32.774C71.1917 32.9374 71.2458 33.0026 71.1375 33.0026C71.0289 33.0026 71.0073 32.9156 71.0073 32.9156C71.0073 32.9156 70.9206 32.8828 70.9206 32.9263C70.9206 32.9699 70.888 33.057 70.9206 33.1005C70.953 33.144 70.877 33.2093 70.8445 33.1767C70.8122 33.144 70.7253 33.0462 70.747 33.0135C70.7687 32.9809 70.595 32.774 70.7687 32.7414C70.9423 32.7087 70.7578 32.6107 70.823 32.5891L70.9097 32.5455H70.9964L71.0507 32.5019L70.9097 32.4802L70.823 32.4693L70.6602 32.4584C70.4975 32.5673 70.4651 32.6979 70.4651 32.6979C70.3781 32.8611 70.1721 32.6326 70.2481 32.5455C70.3239 32.4584 70.0094 32.5346 69.9551 32.5782C69.9007 32.6217 69.738 32.5999 69.738 32.5999C69.7055 32.6979 69.5537 32.5891 69.597 32.5238C69.6404 32.4585 69.6404 32.4149 69.6404 32.4149L69.5863 32.404L69.5212 32.5237C69.3693 32.5237 69.3258 32.6107 69.3583 32.6652C69.3908 32.7195 69.315 32.6543 69.2932 32.7305C69.2717 32.8067 69.3042 32.8067 69.3693 32.8393C69.4345 32.872 69.3367 32.872 69.3801 32.9263C69.4235 32.9809 69.5537 32.9263 69.4778 33.0026C69.4019 33.0787 69.2498 33.0462 69.2498 33.0462C69.239 33.144 69.0329 33.1223 69.0114 33.0897C68.9895 33.057 68.827 32.8611 68.827 32.8611L68.6205 32.8502C68.599 32.6979 68.7183 32.7741 68.7617 32.6543C68.8053 32.5346 68.827 32.3388 68.827 32.3388C68.827 32.3388 68.6532 32.3279 68.6424 32.3823C68.6316 32.4367 68.5231 32.4694 68.5231 32.4694C68.5231 32.4694 68.4362 32.5019 68.4688 32.5455C68.5014 32.5891 68.4037 32.6107 68.4037 32.6107C68.4037 32.6107 68.4206 32.6811 68.3929 32.7087C68.3062 32.7959 68.0891 32.7195 68.0566 32.687L67.9264 32.6325L67.7961 32.5455L67.6443 32.6107L67.601 32.6543H67.4381L67.4274 32.7847L67.7203 32.8173L67.7421 33.0867L67.6226 33.0461H67.5466L67.5142 32.9807L67.449 32.9698V33.2092L67.5142 33.2637L67.5685 33.318L67.677 33.3289L67.6987 33.4594L67.9698 33.4705L68.0024 33.5248L68.1652 33.5357L68.4798 33.8512L68.4581 33.9492L68.4038 33.9819C68.4256 34.0581 68.2629 34.0146 68.2629 34.0146V34.0798L68.3386 34.0907L68.4147 34.1342L68.5231 33.9492C68.6424 33.873 68.6966 33.9819 68.7076 34.0472C68.7183 34.1125 68.6532 34.1015 68.6532 34.1015V34.254L68.7183 34.2757C68.827 34.4063 68.675 34.4825 68.675 34.4825L68.6424 34.5913C68.6098 34.6893 68.4905 34.6675 68.4905 34.6675L68.4473 34.7328L68.3169 34.7655L68.5745 34.7981C68.599 34.711 68.6639 34.6893 68.6965 34.7328C68.7291 34.7764 68.7291 34.8526 68.7291 34.8526L68.7944 34.8635L68.7834 34.9831L68.8485 35.005V35.3532L68.9244 35.4403C69.0547 35.386 69.0547 35.473 68.9895 35.5164C68.9244 35.5599 68.9678 35.7559 68.9678 35.7559L68.9135 35.8102V35.8974L68.8485 35.9409V36.0605C68.7399 36.0062 68.6097 36.0278 68.5771 36.0605C68.4796 35.9952 68.2735 36.017 68.2735 36.0715C68.3385 36.1586 68.1977 36.1804 68.1977 36.1804L68.1215 36.2674C68.1759 36.3763 68.0674 36.3871 68.0674 36.3871V36.5939L67.9372 36.7137L67.9482 36.9967C67.9482 37.0728 68.1108 37.0836 68.1432 37.0401C68.1758 36.9967 68.3061 37.1273 68.3061 37.1273H68.4035L68.4254 36.9313L68.3602 36.8986V36.583L68.4687 36.4632C68.599 36.4197 68.5556 36.7463 68.5556 36.779C68.5664 36.8986 68.6205 36.8878 68.6749 36.866C68.7833 36.8225 68.6964 36.9858 68.6098 36.9748C68.523 36.964 68.5771 37.0836 68.5771 37.0836L68.6315 37.1055L68.5338 37.1817L68.4472 37.2797L68.3385 37.247L68.2084 37.2362L68.165 37.1598L68.089 37.149L68.0782 37.3013L68.024 37.3666L67.8938 37.4974C68.0674 37.4974 67.872 37.6168 67.8287 37.6168C67.9263 37.6495 67.8179 37.7476 67.5684 37.6715V37.7475L67.4814 37.7585L67.5576 37.8454L67.6442 37.8563L67.6117 38.0413C67.6117 38.1828 67.2537 38.0847 67.2211 38.0522L67.2103 38.2482L67.1452 38.2589L67.156 38.3896L67.1452 38.5747L67.2645 38.5529V38.6291L67.5575 38.64L67.9806 38.1937L68.2301 38.1394C68.2517 38.0304 68.3601 38.1612 68.3601 38.1612C68.4686 38.15 68.4904 38.2264 68.4904 38.2264L68.6315 38.2482C68.7507 38.2809 68.6786 38.2923 68.6856 38.3354C68.6964 38.4006 68.7507 38.3788 68.7507 38.3788L68.7725 38.2373L68.8376 38.2482L68.7725 38.1719L68.653 38.1174L68.5229 38.0631C68.4361 37.9434 68.5446 37.9652 68.6315 37.9762H68.7725C68.7725 37.9762 68.9353 38.1937 68.9353 38.2482C68.9353 38.3027 69.0113 38.3136 69.0113 38.3136L69.1087 38.3026L69.1413 38.3787H69.2389L69.2715 38.4439H69.4669L69.4777 38.346L69.2931 38.3136L69.2823 38.2046L69.1523 38.1719C69.1087 37.987 69.1847 37.9325 69.2389 38.0197L69.304 38.0304L69.2823 37.8671L69.3582 37.8453L69.3365 37.6167L69.2715 37.5951V37.5188L69.5426 37.5299C69.5211 37.3882 69.5535 37.323 69.5535 37.323H69.6294L69.6402 37.3776L69.9722 37.4085L70.2068 37.1424C70.195 37.1221 70.2304 37.1097 70.2046 37.0836C70.172 37.0509 70.1285 37.0836 70.0741 37.0509C70.02 37.0185 70.0741 36.8333 70.0633 36.7898C70.0525 36.7463 70.2479 36.6808 70.2154 36.7789C70.1828 36.8769 70.2154 36.9204 70.2154 36.9204C70.3564 36.7898 70.4757 36.9312 70.4649 36.9639C70.4538 36.9966 70.5408 37.0292 70.5949 36.9966C70.6493 36.9639 70.7143 37.0946 70.6926 37.1597C70.6708 37.225 70.4757 37.2142 70.4649 37.1489C70.4538 37.0836 70.4213 37.1054 70.3998 37.1381C70.378 37.1708 70.2805 37.1924 70.2262 37.1597C70.2152 37.1531 70.2099 37.1476 70.2068 37.1424L69.9722 37.4085L69.9874 37.41C70.1175 37.4863 70.0525 37.5842 70.0092 37.606C69.9657 37.6278 69.8897 37.6278 69.8897 37.6278L69.8682 37.6714L69.5861 37.693L69.5643 37.802C69.4232 37.78 69.3691 37.9325 69.4017 38.0086C69.4343 38.0846 69.4017 38.15 69.4017 38.15L69.521 38.2046L69.6727 38.1612C69.6946 38.0522 69.792 38.0304 69.8789 37.9652C69.9656 37.8999 70.1068 38.0847 70.0633 38.1719C70.0199 38.2588 70.0199 38.2916 70.0199 38.2916L70.0306 38.3896L69.9223 38.433L69.8355 38.4766L69.8245 38.5311H69.5317L69.4775 38.5854L69.3364 38.5965L69.2929 38.6617L69.1954 38.6727C69.1954 38.6727 69.0326 38.7489 69.0978 38.8359C69.1628 38.9231 68.8266 38.9122 68.7505 38.7923C68.7288 38.9011 68.6095 38.8032 68.6095 38.8032L68.4902 38.7705L68.4794 38.6074C68.4577 38.4985 68.2515 38.4985 68.2625 38.5747C68.2733 38.651 67.8717 38.6074 67.8717 38.6074L67.7417 38.6699L67.6222 38.738L67.6114 38.7923L67.416 38.8141L67.3294 38.8577L67.2969 38.7924H67.2101L67.1233 38.9122C66.8955 38.9231 66.6786 39.0537 66.7002 39.1081C66.7219 39.1625 66.6135 39.2171 66.6135 39.2171L66.5158 39.2494L66.4508 39.3475L66.3206 39.3911L66.2988 39.6197L66.2338 39.6631V39.7612L66.1578 39.7828V39.8373L66.0493 39.8482L66.1143 40.0115L66.2013 40.0551C66.3532 40.0767 66.288 40.2619 66.288 40.2619L66.3747 40.2727L66.4183 40.3923L66.5049 40.5665C66.5375 40.6973 66.6352 40.6645 66.6786 40.6537C66.7219 40.6429 66.7652 40.7842 66.7652 40.7842L67.1991 40.7951C67.1991 40.7951 67.1776 40.8387 67.2535 40.8605C67.3293 40.8821 67.8284 40.9041 67.8502 40.8714C67.8284 40.7733 68.1212 40.7515 68.2407 40.8387C68.3599 40.9256 68.5228 40.8714 68.5228 40.8714L68.6854 41.0671L68.7942 41.3066L68.9785 41.361L69.1085 41.3937L69.1521 41.5787L69.2496 41.5896L69.2822 41.7095C69.4016 41.7964 69.2496 41.9815 69.2496 41.9815V42.2209L69.3364 42.2645L69.3255 42.3517L69.4667 42.4929L69.6293 42.504L70.0417 42.9393L70.367 43.0371L70.4212 43.2113L70.5081 43.2004L70.5732 43.1461L70.8335 43.1352L70.9637 43.0153L71.1047 42.9937L72.309 41.9815L72.2003 41.9161V41.6768C72.3956 41.5353 72.4065 41.2849 72.222 41.2631C72.0822 41.2466 72.1462 41.0999 72.2764 41.0781L72.3523 41.0456V40.9475L72.6018 40.7191V40.5449L72.0595 40.0986C71.8207 40.0116 72.0595 39.4891 72.222 39.5C72.3849 39.5107 72.2113 38.6947 72.2113 38.6947L72.1244 38.6512L72.1462 38.3899H72.0269L71.8316 38.6403L71.7774 38.8143C71.7557 39.0431 71.0831 38.9993 71.0504 38.9667C71.0179 38.934 70.7901 38.8361 70.7901 38.8361C70.7901 38.8361 70.6165 38.6946 70.584 38.7382C70.5514 38.7818 70.3997 38.6837 70.3997 38.7164C70.3997 38.7491 70.2586 38.6404 70.2586 38.6404L70.0417 38.5641L70.2045 38.5314L70.1719 38.4008L70.4537 38.5423C70.4864 38.5857 70.6274 38.575 70.6274 38.575L70.6707 38.6295C70.6707 38.6295 70.7577 38.6184 70.8121 38.6838C70.8662 38.7492 71.1482 38.6947 71.1482 38.6947L71.2241 38.7599L71.3434 38.8035L71.6798 38.8145L71.6906 38.6078L71.7557 38.5425L71.7448 38.4117L71.8208 38.3465V38.2378L71.8859 38.216L71.8967 37.9766L71.9508 37.9657V37.4432L71.7882 37.2908C71.7774 37.3453 71.6038 37.3453 71.6038 37.3453C71.6038 37.3453 71.5605 37.4214 71.5279 37.4214C71.4954 37.4214 71.5713 37.5193 71.5495 37.5847C71.5279 37.6498 71.441 37.6498 71.441 37.6498L71.2782 37.6935L71.2348 37.748H71.0612L71.0397 37.6065L71.2348 37.552L71.3433 37.4977L71.3976 37.3887C71.4084 37.28 71.5386 37.2908 71.5386 37.2908C71.5386 37.2908 71.7882 37.084 71.7989 36.9862C71.81 36.8882 71.8967 36.6161 72.0485 36.6161H72.3306C72.439 36.5724 72.4065 36.431 72.4065 36.431L72.5476 36.4094L72.5693 36.4855C72.5693 36.4855 72.7647 36.5073 72.7862 36.4746C72.8081 36.4421 72.8514 36.3658 72.9057 36.3984C72.9599 36.4311 73.1335 36.3222 73.1335 36.3222C73.1443 36.246 73.4155 36.2787 73.4155 36.2787L73.4481 36.1808C73.4481 36.1808 73.2638 35.9305 73.2312 35.9305C73.1986 35.9305 73.0251 35.778 73.0033 35.8325C72.8299 35.789 72.8406 35.5495 72.8406 35.5495L72.7755 35.3972C72.7755 35.31 72.613 35.125 72.5802 35.1469C72.4173 35.0272 72.5368 34.8856 72.5802 34.8748C72.6235 34.8639 72.7322 34.7115 72.7322 34.7115L72.7863 34.5591L72.9708 34.5048L72.9925 34.3633L72.895 34.3524C72.895 34.3524 73.0033 34.1564 73.0577 34.1564C73.112 34.1564 73.47 34.1564 73.5023 34.1346C73.5349 34.1129 73.5999 33.9388 73.5999 33.9061C73.5999 33.8735 73.687 33.8625 73.7193 33.8516C73.7518 33.8408 73.8278 33.7537 73.8495 33.7101C73.8712 33.6663 73.7955 33.3942 73.752 33.4377L73.752 33.4377Z" fill="#656E75"/>
<path d="M67.7418 37.3614C67.758 37.3453 67.7744 37.4105 67.8069 37.4023C67.8392 37.3942 67.8557 37.4595 67.8232 37.4595C67.7906 37.4595 67.7906 37.5004 67.7906 37.5167C67.7906 37.5331 67.7906 37.5737 67.7661 37.5983C67.7417 37.6228 67.7172 37.6064 67.6846 37.5901C67.6522 37.5738 67.636 37.5738 67.5952 37.5738C67.5546 37.5738 67.587 37.6391 67.587 37.6391C67.587 37.6391 67.4161 37.631 67.4487 37.6064C67.4813 37.5821 67.5139 37.5737 67.4895 37.5574C67.465 37.5411 67.4895 37.5249 67.4895 37.4922C67.4895 37.4595 67.5709 37.4759 67.5463 37.4513C67.5221 37.4268 67.5468 37.3321 67.587 37.386L67.6115 37.3287C67.587 37.3043 67.6034 37.296 67.5546 37.28C67.5058 37.2636 67.5463 37.1656 67.5463 37.1656L67.5546 37.1003C67.5709 37.0189 67.7335 37.0105 67.7417 37.0839C67.7498 37.1574 67.7417 37.2064 67.7417 37.2064L67.7906 37.2227C67.7906 37.2227 67.7824 37.2719 67.7417 37.2719C67.7009 37.2719 67.7417 37.2961 67.7172 37.3207L67.7418 37.3614L67.7418 37.3614Z" fill="#656E75"/>
<path d="M67.2048 37.4436C67.2293 37.3946 67.2862 37.1824 67.3514 37.2477C67.4163 37.313 67.4571 37.2477 67.4571 37.2477C67.4571 37.2477 67.4896 37.2805 67.4733 37.3458C67.4571 37.411 67.4407 37.4764 67.3999 37.4845C67.3594 37.4927 67.3267 37.5172 67.2782 37.5253C67.2294 37.5336 67.2048 37.4436 67.2048 37.4436V37.4436Z" fill="#656E75"/>
<path d="M46.149 36.9999C46.149 39.1458 45.2866 41.2039 43.7516 42.7213C42.2165 44.2387 40.1346 45.0911 37.9637 45.0911C35.7928 45.0911 33.7108 44.2387 32.1758 42.7213C30.6407 41.2039 29.7783 39.1458 29.7783 36.9999C29.7783 34.854 30.6407 32.796 32.1758 31.2786C33.7108 29.7612 35.7928 28.9087 37.9637 28.9087C40.1346 28.9087 42.2165 29.7612 43.7516 31.2786C45.2866 32.796 46.149 34.854 46.149 36.9999Z" fill="#656E75"/>
<path d="M16.3707 8.26603C16.3707 10.412 15.5083 12.47 13.9733 13.9874C12.4382 15.5048 10.3563 16.3573 8.18536 16.3573C6.01447 16.3573 3.93249 15.5048 2.39744 13.9874C0.862384 12.47 0 10.412 0 8.26603C0 6.1201 0.862384 4.06207 2.39744 2.54467C3.93249 1.02727 6.01447 0.174805 8.18536 0.174805C10.3563 0.174805 12.4382 1.02727 13.9733 2.54467C15.5083 4.06207 16.3707 6.1201 16.3707 8.26603Z" fill="#656E75"/>
<path d="M16.3707 36.9999C16.3707 39.1458 15.5083 41.2039 13.9733 42.7213C12.4382 44.2387 10.3563 45.0911 8.18536 45.0911C6.01447 45.0911 3.93249 44.2387 2.39744 42.7213C0.862384 41.2039 0 39.1458 0 36.9999C0 34.854 0.862384 32.796 2.39744 31.2786C3.93249 29.7612 6.01447 28.9087 8.18536 28.9087C10.3563 28.9087 12.4382 29.7612 13.9733 31.2786C15.5083 32.796 16.3707 34.854 16.3707 36.9999Z" fill="#656E75"/>
<path d="M16.3707 65.3393C16.3707 67.4852 15.5083 69.5432 13.9733 71.0606C12.4382 72.578 10.3563 73.4305 8.18536 73.4305C6.01447 73.4305 3.93249 72.578 2.39744 71.0606C0.862384 69.5432 0 67.4852 0 65.3393C0 63.1933 0.862384 61.1353 2.39744 59.6179C3.93249 58.1005 6.01447 57.248 8.18536 57.248C10.3563 57.248 12.4382 58.1005 13.9733 59.6179C15.5083 61.1353 16.3707 63.1933 16.3707 65.3393Z" fill="#656E75"/>
<path d="M46.149 65.3393C46.149 67.4852 45.2866 69.5432 43.7516 71.0606C42.2165 72.578 40.1346 73.4305 37.9637 73.4305C35.7928 73.4305 33.7108 72.578 32.1758 71.0606C30.6407 69.5432 29.7783 67.4852 29.7783 65.3393C29.7783 63.1933 30.6407 61.1353 32.1758 59.6179C33.7108 58.1005 35.7928 57.248 37.9637 57.248C40.1346 57.248 42.2165 58.1005 43.7516 59.6179C45.2866 61.1353 46.149 63.1933 46.149 65.3393Z" fill="#656E75"/>
<path d="M75.9274 65.3393C75.9274 67.4852 75.065 69.5432 73.5299 71.0606C71.9949 72.578 69.9129 73.4305 67.742 73.4305C65.5711 73.4305 63.4891 72.578 61.9541 71.0606C60.419 69.5432 59.5566 67.4852 59.5566 65.3393C59.5566 63.1933 60.419 61.1353 61.9541 59.6179C63.4891 58.1005 65.5711 57.248 67.742 57.248C69.9129 57.248 71.9949 58.1005 73.5299 59.6179C75.065 61.1353 75.9274 63.1933 75.9274 65.3393Z" fill="#656E75"/>
<path d="M75.9274 8.26603C75.9274 10.412 75.065 12.47 73.5299 13.9874C71.9949 15.5048 69.9129 16.3573 67.742 16.3573C65.5711 16.3573 63.4891 15.5048 61.9541 13.9874C60.419 12.47 59.5566 10.412 59.5566 8.26603C59.5566 6.1201 60.419 4.06207 61.9541 2.54467C63.4891 1.02727 65.5711 0.174805 67.742 0.174805C69.9129 0.174805 71.9949 1.02727 73.5299 2.54467C75.065 4.06207 75.9274 6.1201 75.9274 8.26603Z" fill="#656E75"/>
<path d="M46.149 8.26603C46.149 10.412 45.2866 12.47 43.7516 13.9874C42.2165 15.5048 40.1346 16.3573 37.9637 16.3573C35.7928 16.3573 33.7108 15.5048 32.1758 13.9874C30.6407 12.47 29.7783 10.412 29.7783 8.26603C29.7783 6.1201 30.6407 4.06207 32.1758 2.54467C33.7108 1.02727 35.7928 0.174805 37.9637 0.174805C40.1346 0.174805 42.2165 1.02727 43.7516 2.54467C45.2866 4.06207 46.149 6.1201 46.149 8.26603Z" fill="#656E75"/>
</svg>
