<svg width="160" height="160" viewBox="0 0 160 160" fill="none" xmlns="http://www.w3.org/2000/svg">
<circle cx="80" cy="80" r="80" fill="#FF3300"/>
<path d="M64.6661 138.024C64.8996 136.855 65.5728 135.819 66.5489 135.125C67.5482 134.487 68.7596 134.262 69.9238 134.499C70.6015 134.571 71.2547 134.791 71.8367 135.143C72.4186 135.495 72.9149 135.97 73.2898 136.535C74.0353 137.797 74.2822 139.289 73.9826 140.721C73.8071 142.16 73.1169 143.489 72.0375 144.467C71.5014 144.922 70.8675 145.25 70.1841 145.426C69.5007 145.602 68.7859 145.62 68.0942 145.48C67.0321 145.335 66.0435 144.86 65.27 144.123C64.9041 143.781 64.6194 143.362 64.4366 142.897C64.2539 142.432 64.1775 141.933 64.2131 141.435L65.6164 141.646C65.6542 142.31 65.9354 142.937 66.4068 143.409C66.9254 143.897 67.5888 144.206 68.2985 144.29C68.8141 144.397 69.3487 144.373 69.852 144.218C70.3554 144.064 70.811 143.786 71.1761 143.409C71.9399 142.606 72.4226 141.58 72.5527 140.483C72.7952 139.359 72.6317 138.186 72.0908 137.169C71.835 136.741 71.4817 136.377 71.0592 136.108C70.6367 135.839 70.1567 135.671 69.6573 135.618C69.2665 135.538 68.8634 135.536 68.4715 135.611C68.0797 135.687 67.7069 135.839 67.3749 136.059C66.6981 136.589 66.2298 137.337 66.0515 138.174L64.6661 138.024Z" fill="white"/>
<path d="M56.3356 142.29L55.8472 130.833L57.3481 131.344L57.4103 134.816L61.6822 136.315L63.9025 133.618L65.3324 134.103L57.8543 142.836L56.3356 142.29ZM57.4458 136.033L57.5613 141.32L60.9273 137.196L57.4458 136.033Z" fill="white"/>
<path d="M55.4117 130.586L50.2072 139.919L48.9638 139.241L53.4045 131.309L44.3811 136.685L42.8091 135.803L48.0135 126.471L49.2569 127.149L44.8163 135.081L53.8663 129.687L55.4117 130.586ZM43.1377 139.241C43.4763 138.779 43.956 138.439 44.5054 138.271C44.7777 138.202 45.0612 138.188 45.339 138.231C45.6167 138.273 45.883 138.371 46.1218 138.518C46.6311 138.78 47.0169 139.229 47.1965 139.769C47.3722 140.312 47.347 140.9 47.1254 141.426L46.4504 141.056C46.565 140.721 46.5514 140.357 46.4122 140.032C46.2729 139.706 46.0178 139.444 45.6955 139.293C45.3935 139.12 45.0405 139.055 44.696 139.11C44.3515 139.164 44.0365 139.335 43.8038 139.593L43.1377 139.241Z" fill="white"/>
<path d="M33.9458 129.158L34.7185 128.198L37.5694 130.419L43.4843 123.025L44.5945 123.906L38.6795 131.309L41.5127 133.53L40.74 134.49L33.9458 129.158Z" fill="white"/>
<path d="M23.6787 117.517L32.1337 110.925L33.0219 112.026L25.5438 117.86L29.0519 122.267L36.53 116.433L37.4181 117.543L28.972 124.135L23.6787 117.517Z" fill="white"/>
<path d="M21.6626 114.362L19.5755 110.493C19.0947 109.699 18.8946 108.768 19.0071 107.849C19.1023 107.421 19.2985 107.021 19.5794 106.682C19.8604 106.344 20.2182 106.076 20.6235 105.901C22.5241 104.888 24.0606 105.452 25.2151 107.593L26.5917 110.14L30.464 108.113L31.139 109.356L21.6626 114.362ZM22.0712 112.546L25.5349 110.713L24.2471 108.316C23.9815 107.754 23.5553 107.282 23.0215 106.959C22.7564 106.84 22.4651 106.792 22.1757 106.818C21.8863 106.845 21.6086 106.945 21.3695 107.109C21.0527 107.265 20.7762 107.491 20.5613 107.77C20.3892 108.001 20.3015 108.284 20.3127 108.571C20.3122 108.872 20.3633 109.17 20.4636 109.453C20.577 109.758 20.7167 110.053 20.8811 110.334L22.0712 112.546Z" fill="white"/>
<path d="M15.037 100.331C14.7859 99.6736 14.6851 98.9688 14.742 98.2677C14.7988 97.5666 15.0118 96.8868 15.3656 96.2774C16.134 95.0522 17.3387 94.1587 18.7405 93.7745C20.1331 93.263 21.6642 93.263 23.0568 93.7745C23.7102 94.0554 24.29 94.481 24.7518 95.0188C25.2137 95.5565 25.5453 96.192 25.7212 96.8767C25.9878 97.6098 26.0908 98.3915 26.0232 99.168C25.9438 99.8472 25.7001 100.497 25.3127 101.063C24.9237 101.631 24.4331 102.124 23.865 102.517C23.2495 102.947 22.569 103.277 21.849 103.495C20.4747 104.014 18.95 103.976 17.6037 103.389C16.9808 103.091 16.4295 102.663 15.9868 102.136C15.5441 101.609 15.2203 100.993 15.037 100.331ZM16.2538 99.9612C16.3883 100.467 16.6443 100.934 17.0001 101.321C17.3558 101.707 17.8006 102.003 18.2965 102.182C19.3526 102.543 20.4998 102.543 21.5559 102.182C22.6672 101.86 23.6232 101.149 24.2469 100.182C24.5193 99.7476 24.6888 99.258 24.7427 98.7496C24.7965 98.2413 24.7333 97.7274 24.5578 97.2468C24.42 96.7556 24.1694 96.3027 23.8259 95.9235C23.4823 95.5443 23.0549 95.2492 22.5773 95.0612C21.4918 94.6592 20.2967 94.6592 19.2112 95.0612C18.1036 95.3655 17.1464 96.0614 16.5202 97.0177C16.2549 97.4566 16.0932 97.9494 16.047 98.4591C16.0009 98.9689 16.0716 99.4824 16.2538 99.9612Z" fill="white"/>
<path d="M18.9894 82.4852C20.1264 82.4661 21.2303 82.8647 22.089 83.6044C22.9613 84.4899 23.4806 85.6591 23.5509 86.8955C23.6211 88.1318 23.2374 89.3515 22.4709 90.3287C21.4422 91.3951 20.0477 92.0398 18.5631 92.1353C17.1156 92.3551 15.6372 92.0416 14.4066 91.254C13.8148 90.863 13.3223 90.3412 12.9679 89.7296C12.6135 89.1179 12.4067 88.4331 12.3639 87.7288C12.2206 86.6879 12.4068 85.6285 12.8968 84.6972C13.1177 84.2509 13.4379 83.8603 13.8334 83.5549C14.2288 83.2495 14.6891 83.0374 15.1793 82.9346L15.3481 84.3447C14.7319 84.5663 14.2196 85.0056 13.9093 85.5785C13.5917 86.198 13.4769 86.9004 13.5807 87.5878C13.6111 88.0432 13.7413 88.4865 13.9622 88.8869C14.1831 89.2872 14.4894 89.6348 14.8596 89.9056C15.6443 90.434 16.576 90.7052 17.524 90.6812L16.9112 85.5961L18.0302 85.5432L18.6519 90.69C19.7326 90.5644 20.7364 90.0726 21.4939 89.2975C21.8146 88.9427 22.0505 88.5208 22.1843 88.0631C22.3181 87.6054 22.3462 87.1236 22.2666 86.6537C22.2136 85.8998 21.8739 85.1942 21.3163 84.6796C20.7079 84.182 19.9465 83.9053 19.1581 83.8952L18.9894 82.4852Z" fill="white"/>
<path d="M12.4974 71.4956L16.5472 76.2193L23.2349 71.9186L23.1372 73.6812L17.462 77.2681L19.0518 79.1276L22.8174 79.3391L22.7375 80.7404L12 80.1411L12.0799 78.7398L17.4087 79.0307L12.3908 73.3375L12.4974 71.4956Z" fill="white"/>
<path d="M14.5667 61.7837L15.7746 62.0481L15.0019 65.5732L24.3007 67.5738L23.9898 68.9486L14.7 66.9216L13.9273 70.4468L12.7017 70.156L14.5667 61.7837Z" fill="white"/>
<path d="M23.6883 59.889L14.8691 60.691L15.4287 59.2545L22.6758 58.6816L17.6668 53.4732L18.2085 52.0631L24.7008 58.9901C25.2719 59.5321 25.7226 60.1864 26.0241 60.9113C26.2196 61.4283 26.2196 61.9982 26.0241 62.5152C25.8669 62.9419 25.6184 63.3298 25.2958 63.6521L24.1679 63.2203C24.4899 62.9499 24.7298 62.5959 24.8606 62.198C25.0738 61.6516 24.7985 60.9818 24.0524 60.1886L23.6883 59.889Z" fill="white"/>
<path d="M35.0297 39.1697C35.9323 39.955 36.5006 41.0513 36.6195 42.2366C36.6742 43.4145 36.2668 44.5675 35.4827 45.4534C35.0782 45.9959 34.5581 46.4431 33.9593 46.763C33.3606 47.0829 32.698 47.2677 32.0189 47.3041C30.5301 47.3171 29.0896 46.7799 27.9779 45.7971C26.8146 44.931 26.0019 43.6807 25.6866 42.2719C25.5584 41.5843 25.5902 40.8767 25.7795 40.2032C25.9688 39.5296 26.3107 38.9079 26.779 38.3854C27.4358 37.5386 28.3472 36.9213 29.3812 36.6228C29.8681 36.4795 30.3813 36.447 30.8827 36.5279C31.384 36.6088 31.8604 36.8009 32.2765 37.0899L31.3884 38.1915C30.788 37.8765 30.0891 37.8008 29.4345 37.98C28.7452 38.1755 28.1398 38.5904 27.7115 39.1609C27.3649 39.5418 27.1187 40.0018 26.9947 40.5C26.8707 40.9982 26.8729 41.5191 27.001 42.0163C27.326 43.0708 27.9789 43.9962 28.8661 44.6602C29.7283 45.4289 30.8341 45.8747 31.9923 45.9204C32.4903 45.9208 32.9817 45.8073 33.4284 45.5888C33.8751 45.3702 34.265 45.0525 34.5679 44.6602C34.8316 44.3629 35.0334 44.0167 35.1614 43.6415C35.2895 43.2664 35.3413 42.8697 35.3139 42.4746C35.2035 41.619 34.7876 40.831 34.1416 40.2537L35.0297 39.1697Z" fill="white"/>
<path d="M35.4554 29.8809L45.6956 35.1686L44.4966 36.1997L41.4325 34.5253L38.0399 37.4776L39.2833 40.7296L38.1465 41.7166L34.2476 30.9296L35.4554 29.8809ZM40.3757 33.9524L35.7219 31.4407L37.5692 36.3672L40.3757 33.9524Z" fill="white"/>
<path d="M46.1487 34.9131L40.5801 25.7917L41.7968 25.0602L46.5128 32.7892L46.2996 22.3547L47.8361 21.4293L53.4313 30.5595L52.2235 31.291L47.4897 23.5092L47.7029 33.9789L46.1487 34.9131ZM44.6744 20.0369C44.9268 20.5702 44.9924 21.172 44.8609 21.7466C44.7833 22.0144 44.6531 22.2645 44.4778 22.4823C44.3026 22.7 44.0856 22.8813 43.8395 23.0156C43.3586 23.3238 42.7746 23.4314 42.2142 23.3153C41.6509 23.2024 41.1486 22.889 40.8021 22.434L41.4593 22.0374C41.6948 22.297 42.017 22.4632 42.3664 22.5054C42.7158 22.5475 43.0687 22.4627 43.3599 22.2665C43.6593 22.0941 43.8903 21.8253 44.0146 21.5047C44.139 21.1842 44.1493 20.8311 44.0438 20.5039L44.6744 20.0369Z" fill="white"/>
<path d="M58.094 17.155L58.547 18.2919L55.1987 19.6138L58.7068 28.4268L57.3924 28.9467L53.8399 20.1338L50.4916 21.4557L50.0298 20.3189L58.094 17.155Z" fill="white"/>
<path d="M73.4055 14.1503L74.9242 24.7258L73.5121 24.9285L72.2066 15.578L66.5936 16.3711L67.9346 25.7128L66.5225 25.9155L65.0127 15.34L73.4055 14.1503Z" fill="white"/>
<path d="M77.1359 14L81.5766 14.141C82.5104 14.1195 83.4241 14.4114 84.1699 14.9694C84.4952 15.2638 84.7453 15.6307 84.8997 16.0398C85.0541 16.4489 85.1084 16.8885 85.0581 17.3225C84.9604 19.4728 83.7525 20.5039 81.2657 20.4334L78.3527 20.3365L78.2106 24.743H76.7896L77.1359 14ZM78.5125 15.2602L78.4237 19.1556L81.1592 19.2437C81.7746 19.2892 82.3904 19.1609 82.9354 18.8735C83.1716 18.6973 83.3578 18.4636 83.4761 18.1949C83.5944 17.9262 83.6406 17.6318 83.6104 17.3401C83.6351 16.9909 83.5774 16.6409 83.4417 16.3178C83.321 16.0559 83.1186 15.8396 82.8644 15.7009C82.6108 15.5652 82.3385 15.4672 82.0562 15.4101C81.7354 15.3655 81.412 15.342 81.0881 15.3396L78.5125 15.2602Z" fill="white"/>
<path d="M92.6959 15.3044C93.3964 15.4153 94.064 15.6772 94.6516 16.0715C95.2393 16.4659 95.7328 16.9831 96.0974 17.587C96.7737 18.8659 96.9448 20.3492 96.577 21.7466C96.327 23.2039 95.558 24.5237 94.41 25.4657C93.838 25.8938 93.1744 26.1856 92.4707 26.3185C91.7669 26.4515 91.0417 26.422 90.3512 26.2324C89.5931 26.0947 88.8747 25.7939 88.2463 25.3511C87.6828 24.9506 87.2281 24.4177 86.923 23.8001C86.632 23.1697 86.4604 22.4915 86.4168 21.7995C86.351 21.0564 86.3989 20.3076 86.5589 19.5787C86.7853 18.1447 87.5618 16.8531 88.7259 15.9742C89.3019 15.5895 89.9538 15.3308 90.6383 15.2153C91.3227 15.0998 92.0241 15.1302 92.6959 15.3044ZM92.4383 16.5118C91.9298 16.3721 91.3946 16.3577 90.8792 16.4698C90.3638 16.5819 89.8838 16.8171 89.4808 17.1551C88.6398 17.8907 88.076 18.8883 87.8822 19.9841C87.5755 21.0981 87.6859 22.2847 88.193 23.3242C88.4327 23.782 88.7752 24.179 89.194 24.4846C89.6129 24.7903 90.0969 24.9963 90.6088 25.0867C91.1113 25.2117 91.6363 25.2187 92.142 25.107C92.6477 24.9953 93.1202 24.7681 93.5218 24.4434C94.4091 23.7031 94.9986 22.6709 95.1826 21.5351C95.4835 20.4269 95.3634 19.2476 94.8452 18.2215C94.6007 17.7742 94.2571 17.3878 93.8401 17.0916C93.4232 16.7954 92.9438 16.5972 92.4383 16.5118Z" fill="white"/>
<path d="M106.319 27.6159C105.786 28.6175 104.877 29.3714 103.79 29.7158C102.702 30.0602 101.522 29.9676 100.502 29.4578C99.8649 29.2197 99.2887 28.8451 98.8143 28.3607C98.34 27.8763 97.9791 27.294 97.7576 26.6553C97.3335 25.2387 97.4635 23.7155 98.1217 22.3899C98.649 21.0369 99.6523 19.9192 100.946 19.2436C101.579 18.9342 102.275 18.7733 102.98 18.7733C103.685 18.7733 104.381 18.9342 105.014 19.2436C105.993 19.638 106.825 20.3248 107.394 21.2089C107.667 21.6238 107.843 22.0939 107.909 22.5849C107.975 23.0759 107.929 23.5753 107.776 24.0467L106.461 23.5091C106.576 22.8659 106.446 22.2035 106.097 21.6496C105.716 21.0682 105.16 20.6211 104.507 20.3717C104.095 20.1678 103.643 20.0566 103.182 20.0459C102.722 20.0353 102.264 20.1254 101.843 20.31C100.987 20.713 100.284 21.377 99.8358 22.2048L104.587 24.2141L104.126 25.2717L99.3207 23.2359C98.8857 24.226 98.8134 25.3359 99.1164 26.3733C99.2685 26.8254 99.5205 27.2381 99.8539 27.5812C100.187 27.9242 100.594 28.189 101.044 28.3562C101.728 28.6829 102.511 28.7427 103.237 28.5237C103.984 28.2528 104.612 27.7324 105.014 27.0519L106.319 27.6159Z" fill="white"/>
<path d="M119.154 27.5367L112.999 28.6471L113.407 36.5787L111.898 35.5917L111.64 28.9379L109.224 29.3698L107.146 32.4984L105.956 31.6964L111.853 22.7777L113.043 23.5532L110.113 27.9597L117.599 26.5056L119.154 27.5367Z" fill="white"/>
<path d="M126.596 34.1728L125.761 35.0541L123.096 32.6482L116.693 39.6192L115.645 38.6762L122.048 31.6964L119.384 29.2905L120.219 28.4092L126.596 34.1728Z" fill="white"/>
<path d="M123.718 42.9505L127.377 34.9659L128.363 36.1645L125.254 42.6773L132.279 40.9147L133.239 42.0956L123.958 44.2283C123.206 44.4349 122.42 44.4859 121.648 44.3781C121.104 44.2747 120.614 43.9846 120.263 43.5585C119.973 43.2059 119.758 42.798 119.632 42.36L120.574 41.6109C120.649 42.0195 120.84 42.3985 121.124 42.7037C121.497 43.162 122.217 43.2677 123.283 43.0121L123.718 42.9505Z" fill="white"/>
<path d="M136.152 63.0175C135.017 63.4062 133.775 63.3494 132.68 62.8588C131.622 62.322 130.818 61.3949 130.442 60.2766C130.163 59.6588 130.026 58.9871 130.041 58.3102C130.057 57.6334 130.224 56.9684 130.531 56.3637C131.258 55.0761 132.447 54.1071 133.861 53.6493C135.202 53.0734 136.707 53.0013 138.097 53.4466C138.765 53.6752 139.37 54.0533 139.866 54.5516C140.362 55.0499 140.735 55.6549 140.957 56.3196C141.363 57.3066 141.443 58.3954 141.188 59.4306C141.073 59.921 140.846 60.3789 140.526 60.7698C140.206 61.1606 139.801 61.4742 139.341 61.6867L138.817 60.3736C139.384 60.0105 139.796 59.4516 139.971 58.8049C140.14 58.1137 140.078 57.3868 139.794 56.7338C139.634 56.2393 139.352 55.7923 138.974 55.4336C138.595 55.0749 138.132 54.816 137.627 54.6804C136.543 54.4325 135.409 54.5312 134.385 54.9624C133.28 55.3077 132.334 56.0286 131.712 56.9982C131.467 57.4324 131.327 57.9169 131.302 58.4138C131.278 58.9107 131.369 59.4065 131.57 59.8624C131.693 60.2436 131.893 60.5962 132.157 60.899C132.421 61.2019 132.744 61.4488 133.106 61.625C133.905 61.9477 134.793 61.9759 135.611 61.7043L136.152 63.0175Z" fill="white"/>
<path d="M144.038 68.0232L134.313 74.1923L134.002 72.65L137.004 70.8874L136.116 66.481L132.652 65.9257L132.359 64.454L143.719 66.4986L144.038 68.0232ZM138.026 70.2176L142.546 67.4768L137.315 66.5955L138.026 70.2176Z" fill="white"/>
<path d="M134.296 74.7034L145.043 74.483V75.8931L135.939 76.0782L145.149 81.1192V82.8818L134.403 83.1021V81.692L143.533 81.5069L134.376 76.4748L134.296 74.7034ZM148 80.8724C147.428 80.8138 146.891 80.569 146.473 80.1762C146.276 79.9781 146.121 79.7424 146.019 79.4833C145.917 79.2243 145.869 78.9473 145.878 78.6692C145.848 78.1019 146.043 77.5456 146.419 77.1181C146.807 76.6923 147.337 76.42 147.911 76.3514V77.1093C147.567 77.1844 147.261 77.3795 147.049 77.6593C146.838 77.939 146.734 78.2848 146.757 78.6339C146.756 78.9811 146.877 79.3178 147.099 79.5862C147.321 79.8547 147.63 80.0383 147.974 80.1057L148 80.8724Z" fill="white"/>
<path d="M143.843 93.8539L142.618 93.6776L143.133 90.1525L133.719 88.7953L133.923 87.4028L143.337 88.7248L143.852 85.1996L145.078 85.3758L143.843 93.8539Z" fill="white"/>
<path d="M138.816 108.492L128.833 104.535L129.366 103.222L138.194 106.747L140.299 101.512L131.471 97.9872L131.995 96.6741L141.978 100.64L138.816 108.492Z" fill="white"/>
<path d="M137.04 111.823L134.704 115.551C134.248 116.345 133.539 116.965 132.688 117.314C132.268 117.447 131.821 117.478 131.386 117.406C130.95 117.334 130.538 117.161 130.184 116.9C128.348 115.766 128.076 114.168 129.367 112.105L130.903 109.655L127.164 107.338L127.91 106.148L137.04 111.823ZM135.264 112.379L131.924 110.316L130.486 112.625C130.115 113.14 129.91 113.755 129.9 114.388C129.937 114.674 130.045 114.947 130.214 115.182C130.383 115.417 130.607 115.608 130.868 115.736C131.161 115.93 131.495 116.053 131.845 116.098C132.133 116.136 132.426 116.071 132.67 115.913C132.916 115.765 133.138 115.581 133.328 115.366C133.547 115.108 133.746 114.834 133.923 114.547L135.264 112.379Z" fill="white"/>
<path d="M128.159 124.514C127.713 125.058 127.151 125.499 126.514 125.803C125.877 126.108 125.18 126.27 124.473 126.277C123.013 126.221 121.626 125.627 120.583 124.611C119.443 123.663 118.684 122.34 118.443 120.883C118.355 120.177 118.432 119.46 118.668 118.788C118.903 118.115 119.291 117.506 119.802 117.005C120.309 116.429 120.936 115.969 121.64 115.657C122.275 115.375 122.97 115.251 123.665 115.296C124.355 115.345 125.03 115.521 125.654 115.816C126.337 116.128 126.966 116.544 127.519 117.05C128.659 117.973 129.391 119.301 129.562 120.751C129.614 121.441 129.515 122.135 129.273 122.784C129.031 123.433 128.651 124.023 128.159 124.514ZM127.271 123.694C127.639 123.321 127.913 122.865 128.067 122.365C128.222 121.865 128.253 121.336 128.159 120.821C127.931 119.737 127.343 118.759 126.489 118.045C125.668 117.227 124.577 116.729 123.416 116.644C122.901 116.628 122.388 116.729 121.918 116.938C121.447 117.147 121.03 117.459 120.699 117.852C120.345 118.218 120.08 118.661 119.926 119.146C119.772 119.63 119.733 120.143 119.81 120.645C120.018 121.775 120.622 122.796 121.516 123.527C122.328 124.339 123.411 124.829 124.562 124.902C125.076 124.914 125.585 124.811 126.054 124.603C126.523 124.394 126.938 124.083 127.271 123.694Z" fill="white"/>
<path d="M110.627 130.084C110.037 129.121 109.831 127.973 110.05 126.867C110.386 125.674 111.149 124.644 112.195 123.968C113.24 123.291 114.498 123.016 115.734 123.192C117.185 123.535 118.452 124.407 119.286 125.633C120.207 126.758 120.684 128.177 120.628 129.626C120.589 130.327 120.388 131.01 120.04 131.622C119.692 132.233 119.206 132.756 118.62 133.151C117.787 133.788 116.776 134.154 115.725 134.199C115.228 134.229 114.731 134.147 114.27 133.961C113.809 133.775 113.396 133.489 113.061 133.124L114.206 132.243C114.7 132.661 115.334 132.881 115.983 132.86C116.681 132.822 117.349 132.566 117.892 132.128C118.274 131.875 118.595 131.542 118.833 131.152C119.071 130.762 119.22 130.325 119.269 129.872C119.329 128.945 119.099 128.022 118.611 127.228L114.491 130.313L113.771 129.37L117.936 126.25C117.283 125.372 116.341 124.748 115.272 124.488C114.806 124.4 114.325 124.415 113.865 124.53C113.405 124.646 112.976 124.86 112.608 125.157C111.981 125.585 111.538 126.229 111.364 126.964C111.243 127.74 111.387 128.534 111.773 129.22L110.627 130.084Z" fill="white"/>
<path d="M104.286 141.188L106.373 135.336L99.2676 131.758L100.884 130.939L106.826 134.032L107.652 131.741L105.955 128.383L107.225 127.74L112.083 137.258L110.813 137.892L108.406 133.177L105.955 140.36L104.286 141.188Z" fill="white"/>
<path d="M94.7743 144.246L94.4102 143.1L97.8472 142.016L94.9519 133.027L96.3019 132.595L99.1972 141.585L102.634 140.492L103.016 141.664L94.7743 144.246Z" fill="white"/>
<path d="M88.5574 137.381L93.673 144.555L92.1454 144.802L88.0156 138.862L85.9996 145.762L84.4897 146L87.3051 136.967C87.4988 136.215 87.8499 135.513 88.3354 134.905C88.6966 134.489 89.193 134.211 89.7386 134.12C90.191 134.047 90.6537 134.068 91.0974 134.182L91.284 135.363C90.8877 135.224 90.4605 135.197 90.0494 135.284C89.4633 135.38 89.0192 135.945 88.6995 136.984L88.5574 137.381Z" fill="white"/>
<path d="M68.0889 59.2953L71.1458 66.1801" stroke="white" stroke-width="1.3" stroke-linecap="round"/>
<path d="M80.3164 57V64.6498" stroke="white" stroke-width="1.3" stroke-linecap="round"/>
<path d="M92.5442 59.2953L89.4873 66.1801" stroke="white" stroke-width="1.3" stroke-linecap="round"/>
<path d="M80.0619 69C68.5361 69 61.5847 76.5675 59.5498 80.3513C61.9103 84.2173 69.3175 91.9494 80.0619 91.9494C90.8064 91.9494 98.3764 84.2173 100.818 80.3513C98.702 76.5675 91.5878 69 80.0619 69Z" stroke="white" stroke-width="1.3" stroke-linecap="round"/>
<circle cx="80.0582" cy="80.2275" r="3.45167" fill="white" stroke="white" stroke-width="1.3" stroke-linecap="round"/>
<circle cx="80.0583" cy="80.2275" r="8.23695" stroke="white" stroke-width="1.3" stroke-linecap="round"/>
</svg>
