<svg width="211" height="75" viewBox="0 0 211 75" fill="none" xmlns="http://www.w3.org/2000/svg">
<path d="M25.2107 74.015V60.2314H28.0322C29.975 60.2314 31.409 60.3712 32.3341 60.6506C33.2592 60.93 34.0455 61.3957 34.693 62.001C35.3406 62.6063 35.8495 63.3979 36.2195 64.2827C36.5896 65.1674 36.7746 66.2384 36.7746 67.4027C36.7746 68.6133 36.4971 69.731 35.942 70.802C35.3869 71.873 34.6468 72.6646 33.6755 73.1768C32.7504 73.7356 31.3627 73.9684 29.6049 73.9684H25.2107V74.015ZM26.5059 72.7111H28.0785C29.7437 72.7111 30.9464 72.618 31.6865 72.4783C32.4266 72.292 33.0742 71.966 33.6291 71.5004C34.1842 70.9881 34.6005 70.4294 34.9243 69.6843C35.2019 68.9859 35.3406 68.1943 35.3406 67.2629C35.3406 66.3317 35.1556 65.4934 34.8318 64.7484C34.508 64.0034 33.9992 63.3514 33.398 62.8391C32.7967 62.3269 32.0566 62.001 31.1777 61.8147C30.3451 61.6285 29.0961 61.5353 27.4309 61.5353H26.4596V72.7111H26.5059Z" fill="#656E75"/>
<path d="M25.2107 74.015V60.2314H28.0322C29.975 60.2314 31.409 60.3712 32.3341 60.6506C33.2592 60.93 34.0455 61.3957 34.693 62.001C35.3406 62.6063 35.8495 63.3979 36.2195 64.2827C36.5896 65.1674 36.7746 66.2384 36.7746 67.4027C36.7746 68.6133 36.4971 69.731 35.942 70.802C35.3869 71.873 34.6468 72.6646 33.6755 73.1768C32.7504 73.7356 31.3627 73.9684 29.6049 73.9684H25.2107V74.015ZM26.5059 72.7111H28.0785C29.7437 72.7111 30.9464 72.618 31.6865 72.4783C32.4266 72.292 33.0742 71.966 33.6291 71.5004C34.1842 70.9881 34.6005 70.4294 34.9243 69.6843C35.2019 68.9859 35.3406 68.1943 35.3406 67.2629C35.3406 66.3317 35.1556 65.4934 34.8318 64.7484C34.508 64.0034 33.9992 63.3514 33.398 62.8391C32.7967 62.3269 32.0566 62.001 31.1777 61.8147C30.3451 61.6285 29.0961 61.5353 27.4309 61.5353H26.4596V72.7111H26.5059Z" fill="#656E75" stroke="#656E75" stroke-width="0.929" stroke-miterlimit="10" stroke-linecap="round" stroke-linejoin="round"/>
<path d="M42.0908 60.2314H49.9542V61.6285H43.4784V65.9125H49.8617V67.2629H43.4784V72.6646H49.8617V74.015H42.0908V60.2314Z" fill="#656E75"/>
<path d="M42.0908 60.2314H49.9542V61.6285H43.4784V65.9125H49.8617V67.2629H43.4784V72.6646H49.8617V74.015H42.0908V60.2314Z" fill="#656E75" stroke="#656E75" stroke-width="0.929" stroke-miterlimit="10" stroke-linecap="round" stroke-linejoin="round"/>
<path d="M53.9329 60.2314H55.4129L59.9461 71.2677L64.5716 60.2314H66.0518L60.0849 74.3874H59.8073L53.9329 60.2314Z" fill="#656E75"/>
<path d="M53.9329 60.2314H55.4129L59.9461 71.2677L64.5716 60.2314H66.0518L60.0849 74.3874H59.8073L53.9329 60.2314Z" fill="#656E75" stroke="#656E75" stroke-width="0.929" stroke-miterlimit="10" stroke-linecap="round" stroke-linejoin="round"/>
<path d="M71.0486 60.2314H78.912V61.6285H72.4361V65.9125H78.8657V67.2629H72.4361V72.6646H78.8657V74.015H71.0486V60.2314Z" fill="#656E75"/>
<path d="M71.0486 60.2314H78.912V61.6285H72.4361V65.9125H78.8657V67.2629H72.4361V72.6646H78.8657V74.015H71.0486V60.2314Z" fill="#656E75" stroke="#656E75" stroke-width="0.929" stroke-miterlimit="10" stroke-linecap="round" stroke-linejoin="round"/>
<path d="M83.9546 60.2314H85.3422V72.7111H90.6154V74.015H83.9546V60.2314Z" fill="#656E75"/>
<path d="M83.9546 60.2314H85.3422V72.7111H90.6154V74.015H83.9546V60.2314Z" fill="#656E75" stroke="#656E75" stroke-width="0.929" stroke-miterlimit="10" stroke-linecap="round" stroke-linejoin="round"/>
<path d="M94.8708 67.2166C94.8708 65.8662 95.1946 64.6554 95.8422 63.5379C96.4898 62.4204 97.3687 61.5357 98.4326 60.8837C99.5428 60.2318 100.745 59.9058 102.041 59.9058C103.336 59.9058 104.538 60.2318 105.695 60.8371C106.805 61.489 107.684 62.3273 108.331 63.4448C108.979 64.5624 109.303 65.7731 109.303 67.077C109.303 68.3808 108.979 69.5914 108.331 70.709C107.684 71.8267 106.805 72.7114 105.695 73.3634C104.585 74.0152 103.382 74.3411 102.087 74.3411C100.792 74.3411 99.589 74.0152 98.4326 73.4099C97.3225 72.7579 96.4436 71.9197 95.796 70.8022C95.1946 69.6847 94.8708 68.4739 94.8708 67.2166ZM107.869 67.1235C107.869 65.4937 107.314 64.0967 106.157 62.9326C105.001 61.8151 103.659 61.2096 102.041 61.2096C100.422 61.2096 99.034 61.7684 97.9238 62.9326C96.8136 64.0967 96.2586 65.4937 96.2586 67.1235C96.2586 68.7533 96.8136 70.1502 97.9701 71.3144C99.0802 72.432 100.468 73.0373 102.087 73.0373C103.706 73.0373 105.047 72.4785 106.157 71.361C107.314 70.2434 107.869 68.8464 107.869 67.1235Z" fill="#656E75"/>
<path d="M94.8708 67.2166C94.8708 65.8662 95.1946 64.6554 95.8422 63.5379C96.4898 62.4204 97.3687 61.5357 98.4326 60.8837C99.5428 60.2318 100.745 59.9058 102.041 59.9058C103.336 59.9058 104.538 60.2318 105.695 60.8371C106.805 61.489 107.684 62.3273 108.331 63.4448C108.979 64.5624 109.303 65.7731 109.303 67.077C109.303 68.3808 108.979 69.5914 108.331 70.709C107.684 71.8267 106.805 72.7114 105.695 73.3634C104.585 74.0152 103.382 74.3411 102.087 74.3411C100.792 74.3411 99.589 74.0152 98.4326 73.4099C97.3225 72.7579 96.4436 71.9197 95.796 70.8022C95.1946 69.6847 94.8708 68.4739 94.8708 67.2166ZM107.869 67.1235C107.869 65.4937 107.314 64.0967 106.157 62.9326C105.001 61.8151 103.659 61.2096 102.041 61.2096C100.422 61.2096 99.034 61.7684 97.9238 62.9326C96.8136 64.0967 96.2586 65.4937 96.2586 67.1235C96.2586 68.7533 96.8136 70.1502 97.9701 71.3144C99.0802 72.432 100.468 73.0373 102.087 73.0373C103.706 73.0373 105.047 72.4785 106.157 71.361C107.314 70.2434 107.869 68.8464 107.869 67.1235Z" fill="#656E75" stroke="#656E75" stroke-width="0.929" stroke-miterlimit="10" stroke-linecap="round" stroke-linejoin="round"/>
<path d="M114.713 60.2314H117.443C119.061 60.2314 120.125 60.2781 120.588 60.4178C121.097 60.5575 121.559 60.7904 121.929 61.0697C122.346 61.3957 122.669 61.7681 122.901 62.2804C123.132 62.7461 123.224 63.3048 123.224 63.8636C123.224 64.795 122.947 65.5866 122.484 66.1919C121.976 66.7972 121.328 67.1698 120.588 67.3561C119.801 67.4957 118.645 67.5888 117.072 67.5888H116.101V74.015H114.713V60.2314ZM116.101 61.582V66.2851H118.414C119.801 66.3317 120.727 66.0988 121.189 65.5866C121.652 65.1209 121.883 64.5621 121.883 63.9101C121.883 62.3736 120.773 61.582 118.553 61.582H116.101Z" fill="#656E75"/>
<path d="M114.713 60.2314H117.443C119.061 60.2314 120.125 60.2781 120.588 60.4178C121.097 60.5575 121.559 60.7904 121.929 61.0697C122.346 61.3957 122.669 61.7681 122.901 62.2804C123.132 62.7461 123.224 63.3048 123.224 63.8636C123.224 64.795 122.947 65.5866 122.484 66.1919C121.976 66.7972 121.328 67.1698 120.588 67.3561C119.801 67.4957 118.645 67.5888 117.072 67.5888H116.101V74.015H114.713V60.2314ZM116.101 61.582V66.2851H118.414C119.801 66.3317 120.727 66.0988 121.189 65.5866C121.652 65.1209 121.883 64.5621 121.883 63.9101C121.883 62.3736 120.773 61.582 118.553 61.582H116.101Z" fill="#656E75" stroke="#656E75" stroke-width="0.929" stroke-miterlimit="10" stroke-linecap="round" stroke-linejoin="round"/>
<path d="M128.085 74.015L130.028 60.2314H130.213L135.81 71.547L141.314 60.2314H141.546L143.488 74.015H142.147L140.805 64.143L135.949 74.015H135.625L130.722 64.0964L129.38 74.015H128.085Z" fill="#656E75"/>
<path d="M128.085 74.015L130.028 60.2314H130.213L135.81 71.547L141.314 60.2314H141.546L143.488 74.015H142.147L140.805 64.143L135.949 74.015H135.625L130.722 64.0964L129.38 74.015H128.085Z" fill="#656E75" stroke="#656E75" stroke-width="0.929" stroke-miterlimit="10" stroke-linecap="round" stroke-linejoin="round"/>
<path d="M148.898 60.2314H156.761V61.6285H150.285V65.9125H156.715V67.2629H150.285V72.6646H156.715V74.015H148.898V60.2314Z" fill="#656E75"/>
<path d="M148.898 60.2314H156.761V61.6285H150.285V65.9125H156.715V67.2629H150.285V72.6646H156.715V74.015H148.898V60.2314Z" fill="#656E75" stroke="#656E75" stroke-width="0.929" stroke-miterlimit="10" stroke-linecap="round" stroke-linejoin="round"/>
<path d="M161.803 74.015V60.2314H162.127L171.239 70.802V60.2314H172.582V74.015H172.258L163.238 63.5842V74.015H161.803Z" fill="#656E75"/>
<path d="M161.803 74.015V60.2314H162.127L171.239 70.802V60.2314H172.582V74.015H172.258L163.238 63.5842V74.015H161.803Z" fill="#656E75" stroke="#656E75" stroke-width="0.929" stroke-miterlimit="10" stroke-linecap="round" stroke-linejoin="round"/>
<path d="M177.251 61.582V60.2314H184.745V61.582H181.691V74.015H180.304V61.582H177.251Z" fill="#656E75"/>
<path d="M177.251 61.582V60.2314H184.745V61.582H181.691V74.015H180.304V61.582H177.251Z" fill="#656E75" stroke="#656E75" stroke-width="0.929" stroke-miterlimit="10" stroke-linecap="round" stroke-linejoin="round"/>
<path d="M51.0238 43.3284C48.1561 43.3284 45.4732 42.6298 43.0217 41.2329C40.5701 39.836 38.6273 37.9267 37.1935 35.4587C35.8058 33.0374 35.0657 30.3365 35.0657 27.5426C35.0657 24.6555 35.7595 21.9081 37.1472 19.4401C38.5348 16.9721 40.4776 15.0164 42.8829 13.6194C45.2881 12.2224 47.971 11.5239 50.8389 11.5239C53.7067 11.5239 56.3896 12.2224 58.8411 13.6194C61.2927 15.0164 63.2817 16.9721 64.6693 19.3936C66.057 21.8615 66.7971 24.5623 66.7971 27.4028C66.7971 30.2899 66.1033 32.9907 64.7155 35.4122C63.328 37.8801 61.3852 39.836 58.9336 41.2329C56.5284 42.6298 53.8455 43.3284 51.0238 43.3284ZM50.8851 12.6415C48.2486 12.6415 45.7507 13.2934 43.4843 14.5972C41.2177 15.9011 39.4599 17.7172 38.1647 19.9989C36.8697 22.2807 36.2221 24.8417 36.2221 27.5426C36.2221 30.1503 36.8697 32.6648 38.211 34.9C39.5062 37.1816 41.3102 38.9511 43.623 40.255C45.8895 41.5588 48.3873 42.2108 51.0701 42.2108C53.7067 42.2108 56.2046 41.5588 58.471 40.255C60.7376 38.9511 62.5416 37.1351 63.8368 34.8534C65.1319 32.5717 65.7794 30.0571 65.7794 27.4028C65.7794 24.7486 65.1319 22.234 63.7906 19.9524C62.4954 17.6706 60.6451 15.8545 58.3785 14.5972C56.0658 13.2934 53.5217 12.6415 50.8851 12.6415ZM50.9776 40.4878V39.3703C54.2155 39.3703 56.9909 38.2526 59.2574 35.971C61.524 33.7358 62.6804 30.8487 62.6804 27.4028C62.6804 24.0501 61.524 21.2095 59.2111 18.9279C56.8984 16.6462 54.123 15.4821 50.8851 15.4821C47.601 15.4821 44.7793 16.6462 42.5591 18.9745C40.3388 21.3028 39.2286 24.1433 39.2286 27.4494H38.1185C38.1185 23.8172 39.3674 20.6973 41.7728 18.1828C44.2244 15.6682 47.2772 14.3644 50.8851 14.3644C54.4006 14.3644 57.4996 15.6217 59.9975 18.1363C62.4954 20.6508 63.7906 23.7707 63.7906 27.4028C63.7906 31.1746 62.5416 34.2945 60.0438 36.7626C57.5921 39.2305 54.5393 40.4878 50.9776 40.4878Z" fill="#656E75"/>
<path d="M51.0238 43.3284C48.1561 43.3284 45.4732 42.6298 43.0217 41.2329C40.5701 39.836 38.6273 37.9267 37.1935 35.4587C35.8058 33.0374 35.0657 30.3365 35.0657 27.5426C35.0657 24.6555 35.7595 21.9081 37.1472 19.4401C38.5348 16.9721 40.4776 15.0164 42.8829 13.6194C45.2881 12.2224 47.971 11.5239 50.8389 11.5239C53.7067 11.5239 56.3896 12.2224 58.8411 13.6194C61.2927 15.0164 63.2817 16.9721 64.6693 19.3936C66.057 21.8615 66.7971 24.5623 66.7971 27.4028C66.7971 30.2899 66.1033 32.9907 64.7155 35.4122C63.328 37.8801 61.3852 39.836 58.9336 41.2329C56.5284 42.6298 53.8455 43.3284 51.0238 43.3284ZM50.8851 12.6415C48.2486 12.6415 45.7507 13.2934 43.4843 14.5972C41.2177 15.9011 39.4599 17.7172 38.1647 19.9989C36.8697 22.2807 36.2221 24.8417 36.2221 27.5426C36.2221 30.1503 36.8697 32.6648 38.211 34.9C39.5062 37.1816 41.3102 38.9511 43.623 40.255C45.8895 41.5588 48.3873 42.2108 51.0701 42.2108C53.7067 42.2108 56.2046 41.5588 58.471 40.255C60.7376 38.9511 62.5416 37.1351 63.8368 34.8534C65.1319 32.5717 65.7794 30.0571 65.7794 27.4028C65.7794 24.7486 65.1319 22.234 63.7906 19.9524C62.4954 17.6706 60.6451 15.8545 58.3785 14.5972C56.0658 13.2934 53.5217 12.6415 50.8851 12.6415ZM50.9776 40.4878V39.3703C54.2155 39.3703 56.9909 38.2526 59.2574 35.971C61.524 33.7358 62.6804 30.8487 62.6804 27.4028C62.6804 24.0501 61.524 21.2095 59.2111 18.9279C56.8984 16.6462 54.123 15.4821 50.8851 15.4821C47.5547 15.4821 44.7793 16.6462 42.5591 18.9745C40.3388 21.3028 39.2286 24.1433 39.2286 27.4494H38.1185C38.1185 23.8172 39.3674 20.6973 41.7728 18.1828C44.2244 15.6682 47.2772 14.3644 50.8851 14.3644C54.4006 14.3644 57.4996 15.6217 59.9975 18.1363C62.4954 20.6508 63.7906 23.7707 63.7906 27.4028C63.7906 31.1746 62.5416 34.2945 60.0438 36.7626C57.5921 39.2305 54.5393 40.4878 50.9776 40.4878Z" fill="#656E75" stroke="#656E75" stroke-width="0.929" stroke-miterlimit="10" stroke-linecap="round" stroke-linejoin="round"/>
<path d="M136.733 43.3284C133.865 43.3284 131.182 42.6298 128.73 41.2329C126.279 39.836 124.336 37.9267 122.902 35.4587C121.515 33.0374 120.774 30.3365 120.774 27.5426C120.774 24.6555 121.468 21.9081 122.856 19.4401C124.244 16.9721 126.186 15.0164 128.592 13.6194C130.997 12.2224 133.68 11.5239 136.548 11.5239C139.415 11.5239 142.098 12.2224 144.55 13.6194C147.001 15.0164 148.991 16.9721 150.378 19.3936C151.766 21.8615 152.505 24.5623 152.505 27.4028C152.505 30.2899 151.812 32.9907 150.424 35.4122C149.036 37.8801 147.094 39.836 144.642 41.2329C142.284 42.6298 139.6 43.3284 136.733 43.3284ZM136.64 12.6415C134.004 12.6415 131.506 13.2934 129.239 14.5972C126.973 15.9011 125.215 17.7172 123.92 19.9989C122.625 22.2807 121.977 24.8417 121.977 27.5426C121.977 30.1503 122.625 32.6648 123.966 34.9C125.261 37.1816 127.065 38.9511 129.378 40.255C131.644 41.5588 134.142 42.2108 136.825 42.2108C139.462 42.2108 141.96 41.5588 144.226 40.255C146.492 38.9511 148.297 37.1351 149.592 34.8534C150.886 32.5717 151.535 30.0571 151.535 27.4028C151.535 24.7486 150.886 22.234 149.546 19.9524C148.25 17.6706 146.4 15.8545 144.134 14.5972C141.774 13.2934 139.277 12.6415 136.64 12.6415ZM136.733 40.4878C133.217 40.4878 130.118 39.2305 127.62 36.7161C125.122 34.2014 123.873 31.0815 123.873 27.4494C123.873 23.8172 125.122 20.6973 127.528 18.1828C129.979 15.6682 133.032 14.3644 136.64 14.3644V15.4821C133.31 15.4821 130.534 16.6462 128.314 18.9745C126.094 21.3028 124.984 24.1433 124.984 27.4494C124.984 30.7556 126.14 33.5961 128.407 35.9244C130.673 38.2061 133.495 39.3703 136.733 39.3703C139.971 39.3703 142.746 38.2526 145.012 35.971C147.28 33.7358 148.436 30.8487 148.436 27.4028H149.546C149.546 31.1746 148.297 34.2945 145.798 36.7626C143.301 39.2305 140.248 40.4878 136.733 40.4878Z" fill="#656E75"/>
<path d="M136.733 43.3284C133.865 43.3284 131.182 42.6298 128.73 41.2329C126.279 39.836 124.336 37.9267 122.902 35.4587C121.515 33.0374 120.774 30.3365 120.774 27.5426C120.774 24.6555 121.468 21.9081 122.856 19.4401C124.244 16.9721 126.186 15.0164 128.592 13.6194C130.997 12.2224 133.68 11.5239 136.548 11.5239C139.415 11.5239 142.098 12.2224 144.55 13.6194C147.001 15.0164 148.991 16.9721 150.378 19.3936C151.766 21.8615 152.505 24.5623 152.505 27.4028C152.505 30.2899 151.812 32.9907 150.424 35.4122C149.036 37.8801 147.094 39.836 144.642 41.2329C142.284 42.6298 139.6 43.3284 136.733 43.3284ZM136.64 12.6415C134.004 12.6415 131.506 13.2934 129.239 14.5972C126.973 15.9011 125.215 17.7172 123.92 19.9989C122.625 22.2807 121.977 24.8417 121.977 27.5426C121.977 30.1503 122.625 32.6648 123.966 34.9C125.261 37.1816 127.065 38.9511 129.378 40.255C131.644 41.5588 134.142 42.2108 136.825 42.2108C139.462 42.2108 141.96 41.5588 144.226 40.255C146.492 38.9511 148.297 37.1351 149.592 34.8534C150.886 32.5717 151.535 30.0571 151.535 27.4028C151.535 24.7486 150.886 22.234 149.546 19.9524C148.25 17.6706 146.4 15.8545 144.134 14.5972C141.774 13.2934 139.277 12.6415 136.64 12.6415ZM136.733 40.4878C133.217 40.4878 130.118 39.2305 127.62 36.7161C125.122 34.2014 123.873 31.0815 123.873 27.4494C123.873 23.8172 125.122 20.6973 127.528 18.1828C129.979 15.6682 133.032 14.3644 136.64 14.3644V15.4821C133.31 15.4821 130.534 16.6462 128.314 18.9745C126.094 21.3028 124.984 24.1433 124.984 27.4494C124.984 30.7556 126.14 33.5961 128.407 35.9244C130.673 38.2061 133.495 39.3703 136.733 39.3703C139.971 39.3703 142.746 38.2526 145.012 35.971C147.28 33.7358 148.436 30.8487 148.436 27.4028H149.546C149.546 31.1746 148.297 34.2945 145.798 36.7626C143.301 39.2305 140.248 40.4878 136.733 40.4878Z" fill="#656E75" stroke="#656E75" stroke-width="0.929" stroke-miterlimit="10" stroke-linecap="round" stroke-linejoin="round"/>
<path d="M96.4917 42.5833H95.0577L76.6942 21.3958V42.0245H75.5841V18.4155L95.3815 41.2794V1H96.4917V42.5833ZM73.6414 42.0245H72.5312V12.2223H73.9652L92.4675 33.6892V12.7811H93.5776V36.6693L73.6414 13.5262V42.0245Z" fill="#656E75"/>
<path d="M96.4917 42.5833H95.0577L76.6942 21.3958V42.0245H75.5841V18.4155L95.3815 41.2794V1H96.4917V42.5833ZM73.6414 42.0245H72.5312V12.2223H73.9652L92.4675 33.6892V12.7811H93.5776V36.6693L73.6414 13.5262V42.0245Z" fill="#656E75" stroke="#656E75" stroke-width="0.929" stroke-miterlimit="10" stroke-linecap="round" stroke-linejoin="round"/>
<path d="M113.467 47.4729H112.357V15.0631H119.387V16.1808H113.467V47.4729ZM110.506 42.0247H109.396V16.2273H99.1274V15.1098H110.506V42.0247ZM125.447 13.3402H103.429V12.2227H125.447V13.3402Z" fill="#656E75"/>
<path d="M113.467 47.4729H112.357V15.0631H119.387V16.1808H113.467V47.4729ZM110.506 42.0247H109.396V16.2273H99.1274V15.1098H110.506V42.0247ZM125.447 13.3402H103.429V12.2227H125.447V13.3402Z" fill="#656E75" stroke="#656E75" stroke-width="0.929" stroke-miterlimit="10" stroke-linecap="round" stroke-linejoin="round"/>
<path d="M168.694 42.9561C167.028 42.9561 165.456 42.6767 164.115 42.1179C162.727 41.559 161.571 40.7674 160.691 39.743C159.766 38.7186 159.119 37.601 158.749 36.3438C158.378 35.133 158.239 33.0376 158.239 30.0574V4.72559H159.35V30.0574C159.35 32.9445 159.535 34.9467 159.813 36.0643C160.136 37.1354 160.691 38.1597 161.477 38.998C162.265 39.8827 163.282 40.5813 164.531 41.0935C165.734 41.6057 167.167 41.8384 168.694 41.8384C170.59 41.8384 172.255 41.3263 173.643 40.3484C175.031 39.3705 176.048 38.1132 176.557 36.6697C177.112 35.1796 177.39 32.9445 177.39 30.0574V12.4089H178.5V30.0574C178.5 33.0841 178.176 35.4124 177.575 37.0422C176.928 38.7186 175.817 40.1156 174.245 41.2331C172.718 42.3973 170.821 42.9561 168.694 42.9561ZM168.37 40.2086C167.122 40.2086 165.965 39.9293 164.901 39.417C163.837 38.8583 162.959 38.1132 162.357 37.182C161.755 36.2506 161.385 35.2727 161.293 34.2483C161.201 33.317 161.154 31.92 161.154 30.0574V12.4089H162.265V30.0574C162.265 31.8734 162.31 33.2239 162.402 34.1086C162.496 34.9467 162.773 35.7383 163.282 36.53C163.79 37.275 164.484 37.927 165.409 38.3926C166.334 38.8583 167.306 39.0911 168.37 39.0911C169.435 39.0911 170.358 38.9048 171.146 38.5323C171.932 38.1597 172.579 37.601 173.134 36.9026C173.69 36.204 174.059 35.4124 174.245 34.6208C174.476 33.7826 174.568 32.246 174.568 30.104V18.1365H175.678V30.0574C175.678 32.339 175.54 33.8757 175.309 34.8536C175.078 35.8316 174.615 36.7628 173.967 37.5544C173.32 38.3926 172.533 39.0446 171.608 39.4636C170.683 39.9758 169.572 40.2086 168.37 40.2086Z" fill="#656E75"/>
<path d="M168.694 42.9561C167.028 42.9561 165.456 42.6767 164.115 42.1179C162.727 41.559 161.571 40.7674 160.691 39.743C159.766 38.7186 159.119 37.601 158.749 36.3438C158.378 35.133 158.239 33.0376 158.239 30.0574V4.72559H159.35V30.0574C159.35 32.9445 159.535 34.9467 159.813 36.0643C160.136 37.1354 160.691 38.1597 161.477 38.998C162.265 39.8827 163.282 40.5813 164.531 41.0935C165.734 41.6057 167.167 41.8384 168.694 41.8384C170.59 41.8384 172.255 41.3263 173.643 40.3484C175.031 39.3705 176.048 38.1132 176.557 36.6697C177.112 35.1796 177.39 32.9445 177.39 30.0574V12.4089H178.5V30.0574C178.5 33.0841 178.176 35.4124 177.575 37.0422C176.928 38.7186 175.817 40.1156 174.245 41.2331C172.718 42.3973 170.821 42.9561 168.694 42.9561ZM168.37 40.2086C167.122 40.2086 165.965 39.9293 164.901 39.417C163.837 38.8583 162.959 38.1132 162.357 37.182C161.755 36.2506 161.385 35.2727 161.293 34.2483C161.201 33.317 161.154 31.92 161.154 30.0574V12.4089H162.265V30.0574C162.265 31.8734 162.31 33.2239 162.402 34.1086C162.496 34.9467 162.773 35.7383 163.282 36.53C163.79 37.275 164.484 37.927 165.409 38.3926C166.334 38.8583 167.306 39.0911 168.37 39.0911C169.435 39.0911 170.358 38.9048 171.146 38.5323C171.932 38.1597 172.579 37.601 173.134 36.9026C173.69 36.204 174.059 35.4124 174.245 34.6208C174.476 33.7826 174.568 32.246 174.568 30.104V18.1365H175.678V30.0574C175.678 32.339 175.54 33.8757 175.309 34.8536C175.078 35.8316 174.615 36.7628 173.967 37.5544C173.32 38.3926 172.533 39.0446 171.608 39.4636C170.683 39.9758 169.572 40.2086 168.37 40.2086Z" fill="#656E75" stroke="#656E75" stroke-width="0.929" stroke-miterlimit="10" stroke-linecap="round" stroke-linejoin="round"/>
<path d="M209.075 47.566L193.765 27.8222L194.968 27.8687C198.02 27.9619 200.425 27.3565 202.044 26.0061C203.663 24.7022 204.451 22.8862 204.451 20.5579C204.451 19.3938 204.219 18.3228 203.757 17.3914C203.294 16.4602 202.693 15.6686 201.907 15.0631C201.119 14.4578 200.148 14.0388 199.037 13.7593C197.881 13.4799 195.707 13.3402 192.516 13.3402H183.404V12.2227H192.608C195.939 12.2227 198.112 12.3623 199.362 12.6883C200.611 12.9677 201.721 13.4799 202.646 14.1784C203.571 14.8769 204.312 15.8082 204.82 16.9259C205.329 18.0434 205.607 19.254 205.607 20.6046C205.607 23.2588 204.635 25.4008 202.785 26.9375C201.166 28.2413 198.9 28.9864 196.124 29.0329L210 46.9141L209.075 47.566ZM201.397 42.3973L191.128 28.9864H190.296V42.0247H189.186V27.8687H191.683L202.275 41.6988L201.397 42.3973ZM187.381 42.0247H186.271V19.4869H187.381V42.0247ZM195.013 26.1459C194.921 26.1459 194.829 26.1459 194.737 26.1459H189.741V25.0282H194.737C197.095 25.0749 198.853 24.7022 199.917 23.9572C200.935 23.2588 201.444 22.1878 201.444 20.6046C201.444 19.0679 200.935 17.9502 199.963 17.2983C198.9 16.5998 197.187 16.2273 194.874 16.2273H189.741V15.1098H194.874C197.418 15.1098 199.316 15.5288 200.564 16.367C201.86 17.2518 202.554 18.6953 202.554 20.6046C202.554 22.5137 201.86 23.9572 200.564 24.8886C199.316 25.7267 197.465 26.1459 195.013 26.1459Z" fill="#656E75"/>
<path d="M209.075 47.566L193.765 27.8222L194.968 27.8687C198.02 27.9619 200.425 27.3565 202.044 26.0061C203.663 24.7022 204.451 22.8862 204.451 20.5579C204.451 19.3938 204.219 18.3228 203.757 17.3914C203.294 16.4602 202.693 15.6686 201.907 15.0631C201.119 14.4578 200.148 14.0388 199.037 13.7593C197.881 13.4799 195.707 13.3402 192.516 13.3402H183.404V12.2227H192.608C195.939 12.2227 198.112 12.3623 199.362 12.6883C200.611 12.9677 201.721 13.4799 202.646 14.1784C203.571 14.8769 204.312 15.8082 204.82 16.9259C205.329 18.0434 205.607 19.254 205.607 20.6046C205.607 23.2588 204.635 25.4008 202.785 26.9375C201.166 28.2413 198.9 28.9864 196.124 29.0329L210 46.9141L209.075 47.566ZM201.397 42.3973L191.128 28.9864H190.296V42.0247H189.186V27.8687H191.683L202.275 41.6988L201.397 42.3973ZM187.381 42.0247H186.271V19.4869H187.381V42.0247ZM195.013 26.1459C194.921 26.1459 194.829 26.1459 194.737 26.1459H189.741V25.0282H194.737C197.095 25.0749 198.853 24.7022 199.917 23.9572C200.935 23.2588 201.444 22.1878 201.444 20.6046C201.444 19.0679 200.935 17.9502 199.963 17.2983C198.9 16.5998 197.187 16.2273 194.874 16.2273H189.741V15.1098H194.874C197.418 15.1098 199.316 15.5288 200.564 16.367C201.86 17.2518 202.554 18.6953 202.554 20.6046C202.554 22.5137 201.86 23.9572 200.564 24.8886C199.316 25.7267 197.465 26.1459 195.013 26.1459Z" fill="#656E75" stroke="#656E75" stroke-width="0.929" stroke-miterlimit="10" stroke-linecap="round" stroke-linejoin="round"/>
<path d="M17.0221 44.0732C12.0728 44.0732 7.95599 42.4898 4.76435 39.3234C1.5727 36.1569 0 32.1058 0 27.3095C0 24.3292 0.740094 21.5353 2.22028 18.9742C3.70046 16.4596 5.73571 14.4107 8.37229 12.9672C10.9626 11.5237 13.7842 10.8252 16.7908 10.8252C19.7512 10.8252 22.4804 11.384 24.8856 12.5481C27.2909 13.7123 29.2337 15.3421 30.76 17.4841L29.8349 18.1361C28.4473 16.1337 26.5971 14.597 24.3767 13.526C22.1103 12.5016 19.5662 11.9428 16.7445 11.9428C13.923 11.9428 11.2864 12.6413 8.88111 13.9452C6.4758 15.2956 4.53306 17.1582 3.14539 19.533C1.80397 21.9079 1.11013 24.5156 1.11013 27.3095C1.11013 31.8264 2.59032 35.5982 5.5507 38.5318C8.51106 41.4655 12.3503 42.9555 17.0221 42.9555C19.705 42.9555 22.1566 42.4433 24.3767 41.4655C26.5508 40.4876 28.4011 38.9975 29.8349 37.0883L30.7138 37.7868C29.1874 39.8356 27.1984 41.4188 24.8393 42.4898C22.4804 43.561 19.8437 44.0732 17.0221 44.0732ZM17.1608 41.186C13.1829 41.186 9.85248 39.8823 7.16964 37.3212C4.53306 34.76 3.14539 31.4538 3.14539 27.6355C3.14539 23.7705 4.53306 20.5109 7.2159 17.8566C9.89873 15.2023 13.1829 13.8519 16.9295 13.8519C21.509 13.8519 25.3019 15.7146 28.2623 19.3467L27.3834 20.0452C24.7468 16.6459 21.2314 14.9229 17.0221 14.9229C13.5529 14.9229 10.5463 16.1803 8.04851 18.6016C5.5507 21.0232 4.30178 24.0499 4.30178 27.5889C4.30178 31.1279 5.5507 34.108 7.95599 36.483C10.4075 38.8578 13.5067 40.0685 17.1608 40.0685C21.2777 40.0685 24.7468 38.4387 27.4297 35.2257L28.2623 35.9708C25.3481 39.4166 21.6015 41.186 17.1608 41.186Z" fill="#656E75"/>
<path d="M17.0221 44.0732C12.0728 44.0732 7.95599 42.4898 4.76435 39.3234C1.5727 36.1569 0 32.1058 0 27.3095C0 24.3292 0.740094 21.5353 2.22028 18.9742C3.70046 16.4596 5.73571 14.4107 8.37229 12.9672C10.9626 11.5237 13.7842 10.8252 16.7908 10.8252C19.7512 10.8252 22.4804 11.384 24.8856 12.5481C27.2909 13.7123 29.28 15.3421 30.76 17.4841L29.8349 18.1361C28.4473 16.1337 26.5971 14.597 24.3767 13.526C22.1103 12.5016 19.5662 11.9428 16.7445 11.9428C13.923 11.9428 11.2864 12.6413 8.88111 13.9452C6.4758 15.2956 4.53306 17.1582 3.14539 19.533C1.80397 21.9079 1.11013 24.5156 1.11013 27.3095C1.11013 31.8264 2.59032 35.5982 5.5507 38.5318C8.51106 41.4655 12.3503 42.9555 17.0221 42.9555C19.705 42.9555 22.1566 42.4433 24.3767 41.4655C26.5508 40.4876 28.4011 38.9975 29.8349 37.0883L30.7138 37.7868C29.1874 39.8356 27.1984 41.4188 24.8393 42.4898C22.4804 43.561 19.8437 44.0732 17.0221 44.0732ZM17.1608 41.186C13.1829 41.186 9.85248 39.8823 7.16964 37.3212C4.53306 34.76 3.14539 31.4538 3.14539 27.6355C3.14539 23.7705 4.53306 20.5109 7.2159 17.8566C9.89873 15.2023 13.1829 13.8519 16.9295 13.8519C21.509 13.8519 25.3019 15.7146 28.2623 19.3467L27.3834 20.0452C24.7468 16.6459 21.2314 14.9229 17.0221 14.9229C13.5529 14.9229 10.5463 16.1803 8.09476 18.6016C5.59694 21.0232 4.34804 24.0499 4.34804 27.5889C4.34804 31.1279 5.59694 34.108 8.00225 36.483C10.4538 38.8578 13.5529 40.0685 17.2071 40.0685C21.3239 40.0685 24.7931 38.4387 27.4759 35.2257L28.3086 35.9708C25.3481 39.4166 21.6015 41.186 17.1608 41.186Z" fill="#656E75" stroke="#656E75" stroke-width="0.929" stroke-miterlimit="10" stroke-linecap="round" stroke-linejoin="round"/>
</svg>
