<svg width="170" height="75" viewBox="0 0 170 75" fill="none" xmlns="http://www.w3.org/2000/svg">
<g clip-path="url(#clip0_3040_22253)">
<path d="M144.656 88.8213C140.159 83.1341 135.661 78.3726 131.296 74.5371C135.529 70.7015 140.026 65.9401 144.392 60.2529C144.524 60.1207 157.884 41.6041 157.884 41.6041C149.55 44.3816 136.852 42.0009 136.587 42.0009C129.444 41.2073 122.963 41.0751 117.275 41.4718C117.672 35.7846 117.407 29.3038 116.481 22.294C116.481 22.1618 113.968 9.4647 116.614 1C116.614 1 98.3598 14.7551 98.2275 14.8874C92.6719 19.3843 88.0423 23.7489 84.3386 28.1135C80.5026 23.8811 75.873 19.3843 70.1852 15.0197C70.0529 14.8874 51.6667 1.39681 51.6667 1.39681C54.4444 9.72925 52.0635 22.5585 52.0635 22.8231C51.2698 29.9651 51.1376 36.4459 51.5344 42.1332C45.9788 41.8686 39.6296 42.1332 32.619 42.9267C32.4868 42.9267 10 46.4978 10 46.4978C17.8042 50.4656 25.0794 61.1787 25.3439 61.4433C29.709 66.866 34.0741 71.6273 38.3069 75.3307C34.0741 79.1662 29.8413 83.7954 25.4762 89.4826C25.3439 89.6148 18.2011 100.46 10.5291 104.428C10.5291 104.428 33.0159 107.735 33.2804 107.735C40.1587 108.528 46.5079 108.66 52.1958 108.264C51.7989 113.951 52.0635 120.432 52.9894 127.706C52.9894 127.838 55.5026 140.535 52.8571 149C52.8571 149 71.1111 135.245 71.2434 135.113C76.7989 130.616 81.4286 126.251 85.1323 121.887C88.836 126.119 93.5979 130.483 99.2857 134.98C99.418 135.113 117.804 148.603 117.804 148.603C115.026 140.271 117.407 127.441 117.407 127.177C118.201 120.167 118.333 113.686 117.937 107.999C123.624 108.396 130.106 108.131 137.381 107.206C137.513 107.206 160 103.634 160 103.634C159.735 103.634 144.656 88.9535 144.656 88.8213ZM141.217 58.0045C136.455 64.2207 131.693 69.2466 126.931 73.0822L125.079 74.6693L126.931 76.2565C131.561 80.0921 136.455 85.118 141.349 91.202C141.746 91.731 143.862 94.9053 147.037 98.344L90.0264 74.9339L146.772 50.7301C143.466 54.5657 141.349 57.8722 141.217 58.0045ZM136.058 45.9687C136.323 45.9687 140.556 46.7623 145.714 47.0268L88.1746 71.4951L111.455 13.6971C111.72 18.8552 112.513 22.8231 112.513 22.9553C113.439 30.6265 113.571 37.6363 113.042 43.588L112.778 45.9687L115.159 45.7042C121.376 45.0429 128.386 45.1751 136.058 45.9687ZM82.7513 32.4781L84.3386 34.3298L85.7936 32.4781C89.6296 27.7167 94.5238 22.9553 100.476 18.0617C100.741 17.9294 104.048 15.5487 107.884 12.1099L84.6032 69.9079L60.5291 12.5067C64.2328 15.9455 67.672 18.1939 67.8042 18.3262C73.8889 23.0876 78.9153 27.849 82.7513 32.4781ZM33.1481 47.0268C40.6878 46.101 47.5661 45.8365 53.3862 46.3655L55.7672 46.63L55.6349 44.2493C54.9735 38.1653 55.1058 31.1555 55.8995 23.6166C55.8995 23.3521 56.6931 19.252 56.9577 14.0939L81.0317 71.3628L24.2857 48.2172C29.1799 47.8204 33.0159 47.0268 33.1481 47.0268ZM28.5185 91.8633C33.2804 85.7793 37.91 80.7534 42.5397 76.9178L44.3915 75.3307L42.5397 73.8758C37.91 70.0402 33.1481 65.1465 28.3862 59.1948C28.254 58.9303 25.873 55.3593 22.3016 51.5237L79.709 75.0661L22.5661 99.4022C26.1376 95.5666 28.3862 91.9955 28.5185 91.8633ZM33.8095 103.899C33.545 103.899 29.5767 103.105 24.5503 102.841L81.0317 78.7694L57.8836 136.303C57.619 131.145 56.8254 127.177 56.8254 127.045C55.8995 119.241 55.6349 112.364 56.2963 106.28L56.5608 103.899L54.1799 104.164C48.0952 104.825 41.2169 104.693 33.8095 103.899ZM86.455 117.522L84.8677 115.67L83.4127 117.522C79.709 122.283 74.6825 127.045 68.7302 131.806C68.4656 131.938 65.1587 134.319 61.3227 137.758L84.7354 80.2243L108.81 137.626C105.106 134.187 101.667 131.938 101.534 131.806C95.3175 127.045 90.291 122.151 86.455 117.522ZM136.587 103.37C128.783 104.296 121.772 104.56 115.82 103.899L113.439 103.634L113.704 106.015C114.365 111.967 114.233 118.977 113.439 126.516C113.439 126.78 112.645 130.88 112.381 136.038L88.3069 78.5049L146.111 102.18C140.952 102.444 136.852 103.238 136.587 103.37Z" stroke="#5F7F06" stroke-miterlimit="10"/>
</g>
<defs>
<clipPath id="clip0_3040_22253">
<rect width="170" height="75" fill="white"/>
</clipPath>
</defs>
</svg>
