<svg width="50" height="50" viewBox="0 0 50 50" fill="none" xmlns="http://www.w3.org/2000/svg">
<rect width="50" height="50" rx="25" fill="white"/>
<line x1="17" y1="20.4358" x2="33.0582" y2="20.4358" stroke="#2D2D2D" stroke-width="0.837399"/>
<line x1="17" y1="30.3323" x2="33.0582" y2="30.3323" stroke="#2D2D2D" stroke-width="0.837399"/>
<line x1="17" y1="25.3831" x2="33.0582" y2="25.3831" stroke="#2D2D2D" stroke-width="0.837399"/>
<path d="M30.7856 20.5458C30.7856 21.1687 30.2813 21.6728 29.6604 21.6728C29.0395 21.6728 28.5353 21.1687 28.5353 20.5458C28.5353 19.9228 29.0395 19.4187 29.6604 19.4187C30.2813 19.4187 30.7856 19.9228 30.7856 20.5458Z" fill="#F3EFE9" stroke="#2D2D2D" stroke-width="0.837399"/>
<path d="M30.7856 30.4403C30.7856 31.0632 30.2813 31.5673 29.6604 31.5673C29.0395 31.5673 28.5353 31.0632 28.5353 30.4403C28.5353 29.8173 29.0395 29.3132 29.6604 29.3132C30.2813 29.3132 30.7856 29.8173 30.7856 30.4403Z" fill="#F3EFE9" stroke="#2D2D2D" stroke-width="0.837399"/>
<path d="M21.5218 25.493C21.5218 26.116 21.0175 26.6201 20.3966 26.6201C19.7757 26.6201 19.2715 26.116 19.2715 25.493C19.2715 24.8701 19.7757 24.366 20.3966 24.366C21.0175 24.366 21.5218 24.8701 21.5218 25.493Z" fill="#F3EFE9" stroke="#2D2D2D" stroke-width="0.837399"/>
</svg>
