<svg width="308" height="33" viewBox="0 0 308 33" fill="none" xmlns="http://www.w3.org/2000/svg">
<rect width="308" height="33" fill="black"/>
<rect x="73" width="166" height="21" fill="#1B1E28"/>
<mask id="mask0_2910_21866" style="mask-type:alpha" maskUnits="userSpaceOnUse" x="0" y="0" width="308" height="33">
<path d="M78 0H32C14.3269 0 0 14.3269 0 32V33H308V32C308 14.3269 293.673 0 276 0H230C227.239 0 225 2.23858 225 5V6C225 14.2843 218.284 21 210 21H98C89.7157 21 83 14.2843 83 6V5C83 2.23858 80.7614 0 78 0Z" fill="#A6B720"/>
</mask>
<g mask="url(#mask0_2910_21866)">
<path d="M78 0H32C14.3269 0 0 14.3269 0 32V486C0 503.673 14.3269 518 32 518H276C293.673 518 308 503.673 308 486V32C308 14.3269 293.673 0 276 0H230C227.239 0 225 2.23858 225 5V6C225 14.2843 218.284 21 210 21H98C89.7157 21 83 14.2843 83 6V5C83 2.23858 80.7614 0 78 0Z" fill="black"/>
<path d="M268.04 15.0912C265.078 12.3519 260.472 12.3529 257.512 15.0912C257.4 15.1941 257.398 15.3685 257.506 15.4753L258.078 16.0431C258.181 16.1451 258.346 16.1473 258.453 16.0495C260.892 13.8149 264.659 13.8144 267.099 16.0495C267.206 16.1473 267.371 16.1449 267.473 16.0431L268.046 15.4753C268.153 15.3685 268.151 15.1941 268.04 15.0912ZM262.776 18.3862C262.185 18.3862 261.706 18.8651 261.706 19.456C261.706 20.0469 262.185 20.5258 262.776 20.5258C263.367 20.5258 263.846 20.0469 263.846 19.456C263.846 18.8651 263.367 18.3862 262.776 18.3862ZM266.164 16.9889C264.237 15.2851 261.313 15.2869 259.388 16.9889C259.273 17.0909 259.269 17.2679 259.378 17.3759L259.954 17.944C260.054 18.043 260.216 18.0497 260.323 17.9574C261.726 16.7443 263.829 16.747 265.229 17.9574C265.336 18.0497 265.497 18.0432 265.597 17.944L266.173 17.3759C266.283 17.2679 266.279 17.0907 266.164 16.9889Z" fill="white"/>
<rect x="238.883" y="17.0967" width="2.14377" height="3.18159" fill="white"/>
<rect x="242.456" y="15.5059" width="2.14377" height="4.77238" fill="white"/>
<rect x="246.029" y="13.915" width="2.14377" height="6.36317" fill="white"/>
<rect opacity="0.3" x="249.602" y="12.3242" width="2.14377" height="7.95397" fill="white"/>
<rect x="273.505" y="12.6627" width="16.2475" height="7.27699" rx="1.69245" stroke="white" stroke-width="0.676979"/>
<rect x="274.521" y="13.5479" width="8.12375" height="5.5066" rx="0.676979" fill="white"/>
<rect x="290.769" y="14.7715" width="1.35396" height="3.05922" rx="0.676979" fill="white"/>
<path d="M14.9346 16.3557C14.9346 18.6372 15.9774 20.164 17.896 20.164C19.8779 20.164 20.8862 18.545 20.8862 16.3557V15.8083C20.8862 13.5095 19.8491 12 17.9248 12C16.012 12 14.9346 13.521 14.9346 15.8083V16.3557ZM16.4844 15.8141C16.4844 14.1375 17.0433 13.2733 17.9075 13.2733C18.7775 13.2733 19.3306 14.1433 19.3306 15.8141V16.3441C19.3306 18.0207 18.7775 18.8965 17.9075 18.8965C17.0433 18.8965 16.4844 18.0265 16.4844 16.3441V15.8141Z" fill="white"/>
<path d="M24.8385 20.164C26.6822 20.164 27.8979 19.2133 27.8979 17.8479C27.8979 16.6092 26.9645 16.033 26.2501 15.889V15.8429C26.9011 15.6412 27.5867 15.1054 27.5867 14.0799C27.5867 12.8815 26.4978 12 24.8558 12C23.2138 12 22.1249 12.8815 22.1249 14.0799C22.1249 15.0939 22.7874 15.6355 23.4558 15.8429V15.889C22.7471 16.033 21.808 16.6034 21.808 17.8536C21.808 19.2191 23.0006 20.164 24.8385 20.164ZM24.8558 15.3877C24.1414 15.3877 23.6113 14.9211 23.6113 14.2527C23.6113 13.5844 24.1414 13.135 24.8558 13.135C25.5702 13.135 26.1003 13.5844 26.1003 14.2527C26.1003 14.9211 25.5702 15.3877 24.8558 15.3877ZM24.8558 19.0405C24.0031 19.0405 23.3578 18.522 23.3578 17.7499C23.3578 16.9779 24.0031 16.4478 24.8558 16.4478C25.7027 16.4478 26.3538 16.9779 26.3538 17.7499C26.3538 18.522 25.7027 19.0405 24.8558 19.0405Z" fill="white"/>
<path d="M28.9695 14.1951C28.9695 14.6848 29.3728 15.0881 29.8625 15.0881C30.3522 15.0881 30.7555 14.6848 30.7555 14.1951C30.7555 13.6996 30.3522 13.3021 29.8625 13.3021C29.3728 13.3021 28.9695 13.6996 28.9695 14.1951ZM28.9695 18.1763C28.9695 18.666 29.3728 19.0693 29.8625 19.0693C30.3522 19.0693 30.7555 18.666 30.7555 18.1763C30.7555 17.6866 30.3522 17.2833 29.8625 17.2833C29.3728 17.2833 28.9695 17.6866 28.9695 18.1763Z" fill="white"/>
<path d="M33.9531 16.5631H34.8001C35.7162 16.5631 36.2347 17.0586 36.2404 17.7384C36.2462 18.4298 35.7162 18.9483 34.8116 18.9483C33.9531 18.9483 33.4519 18.4586 33.3885 17.8248H31.9539C31.9827 19.0866 32.8815 20.1697 34.7713 20.1697C36.4421 20.1697 37.8133 19.2364 37.796 17.8133C37.7788 16.5516 36.8454 15.9696 36.1195 15.9178V15.8602C36.7186 15.7738 37.5598 15.1573 37.5425 14.0453C37.5195 12.8527 36.396 12 34.8347 12C33.0889 12 32.1383 13.0313 32.1037 14.2873H33.5556C33.5902 13.7745 33.9762 13.2041 34.7828 13.2041C35.5203 13.2041 36.01 13.6478 36.01 14.2527C36.0157 14.9038 35.5087 15.3647 34.7598 15.3647H33.9531V16.5631Z" fill="white"/>
<path d="M41.6965 12.1498C40.6307 13.8264 39.5648 15.5721 38.643 17.3005V18.5565H42.4455V20.0142H43.9089V18.5565H44.8711V17.3005H43.9089V12.1498H41.6965ZM40.0545 17.3005V17.2833C40.7574 15.9466 41.5871 14.5754 42.3937 13.3251H42.4455V17.3005H40.0545Z" fill="white"/>
</g>
</svg>
