<svg width="172" height="87" viewBox="0 0 172 87" fill="none" xmlns="http://www.w3.org/2000/svg">
<g clip-path="url(#clip0_3025_22495)">
<path d="M171 84.9801H93.4561L160.632 45.1592L158.644 41.6965L91.4678 81.5174L130.24 12.6965L126.831 10.6766L87.9173 79.3532V0H84.0827V79.3532L45.1688 10.6766L41.7602 12.6965L80.6742 81.5174L13.3559 41.6965L11.3676 45.1592L78.6859 84.9801H1V89.0199H78.6859L11.3676 128.697L13.3559 132.303L80.6742 92.4826L41.7602 161.303L45.1688 163.323L84.0827 94.5025V174H87.9173V94.5025L126.831 163.323L130.24 161.303L91.4678 92.4826L158.644 132.303L160.632 128.697L93.4561 89.0199H171V84.9801Z" stroke="white" stroke-miterlimit="10"/>
</g>
<defs>
<clipPath id="clip0_3025_22495">
<rect width="172" height="87" fill="white"/>
</clipPath>
</defs>
</svg>
