<svg width="170" height="71" viewBox="0 0 170 71" fill="none" xmlns="http://www.w3.org/2000/svg">
<g clip-path="url(#clip0_3041_22257)">
<path d="M140.957 95.935C140.271 93.9952 139.927 91.9414 139.584 89.7734C139.126 86.9208 138.668 83.954 137.409 81.1014C135.921 78.0206 133.975 75.2821 131.457 73C133.975 70.7179 135.921 67.9794 137.409 64.8986C138.783 62.046 139.24 59.0792 139.584 56.2266C139.927 54.0586 140.271 52.0048 140.843 50.065C142.331 45.6149 146.223 40.8225 150 38.6545L148.054 35.3455C144.277 37.5135 138.096 38.4263 133.403 37.5135C131.343 37.0571 129.397 36.3724 127.336 35.5737C124.589 34.5467 121.728 33.4057 118.637 33.1775C115.203 32.8352 111.769 33.1775 108.45 34.0903C107.649 30.7813 106.275 27.7005 104.215 24.962C102.383 22.4517 99.9796 20.5119 97.6903 18.8003C95.9734 17.4311 94.2564 16.1759 92.8829 14.5784C89.6779 11.0412 87.3886 5.33598 87.3886 1H83.6114C83.6114 5.33598 81.3221 11.0412 78.1171 14.5784C76.7436 16.1759 75.1411 17.4311 73.3097 18.8003C71.0204 20.626 68.6167 22.4517 66.7853 24.962C64.8394 27.7005 63.3514 30.7813 62.5501 34.0903C59.2307 33.1775 55.9113 32.8352 52.3629 33.1775C49.1579 33.5198 46.4108 34.5467 43.6637 35.5737C41.6034 36.3724 39.6575 37.1712 37.5972 37.5135C32.9042 38.4263 26.7232 37.5135 22.9459 35.3455L21 38.6545C24.7773 40.8225 28.669 45.6149 30.1571 50.065C30.8438 52.0048 31.1872 54.0586 31.5306 56.2266C31.9885 59.0792 32.4463 62.046 33.7054 64.8986C35.1934 67.9794 37.1393 70.7179 39.6575 73C37.1393 75.2821 35.1934 78.0206 33.7054 81.1014C32.3319 83.954 31.874 86.9208 31.5306 89.7734C31.1872 91.9414 30.8438 93.9952 30.1571 95.935C28.669 100.385 24.7773 105.177 21 107.345L22.9459 110.655C26.7232 108.487 32.9042 107.574 37.5972 108.487C39.6575 108.943 41.6034 109.628 43.6637 110.426C46.4108 111.453 49.2724 112.594 52.3629 112.823C55.7968 113.165 59.2307 112.823 62.5501 111.91C63.3514 115.219 64.7249 118.3 66.7853 121.038C68.6167 123.548 71.0204 125.488 73.3097 127.2C75.0266 128.569 76.7436 129.824 78.1171 131.422C81.3221 134.959 83.6114 140.664 83.6114 145H87.3886C87.3886 140.664 89.6779 134.959 92.8829 131.422C94.2564 129.824 95.8589 128.569 97.6903 127.2C99.9796 125.374 102.383 123.548 104.215 121.038C106.161 118.3 107.649 115.219 108.45 111.91C111.769 112.823 115.089 113.165 118.637 112.823C121.842 112.48 124.589 111.453 127.336 110.426C129.397 109.628 131.343 108.829 133.403 108.487C138.096 107.574 144.277 108.487 148.054 110.655L150 107.345C146.337 105.177 142.445 100.385 140.957 95.935ZM133.861 82.6989C135.005 85.0951 135.349 87.6054 135.807 90.3439C136.15 92.626 136.493 94.9081 137.295 97.1902C137.752 98.6735 138.554 100.043 139.355 101.526L92.3106 74.7116H127.68C130.312 76.8796 132.487 79.504 133.861 82.6989ZM137.295 48.6957C136.493 50.9778 136.15 53.2599 135.807 55.542C135.349 58.2805 135.005 60.7908 133.861 63.187C132.373 66.2678 130.312 69.0064 127.565 71.1743H92.1961L139.24 44.3598C138.554 45.8431 137.752 47.3265 137.295 48.6957ZM90.2502 16.8605C91.8527 18.6862 93.6841 20.1696 95.5155 21.5388C97.6903 23.2504 99.7507 24.8479 101.239 27.0158C103.299 29.8685 104.673 33.1775 105.245 36.7147L105.588 38.9968L107.763 38.1981C111.197 36.943 114.631 36.3724 118.294 36.7147C120.926 36.9429 123.33 37.8558 125.963 38.8827C128.138 39.6814 130.312 40.5943 132.716 41.0507C134.204 41.393 135.921 41.5071 137.524 41.5071L87.3886 70.0333V12.981C88.3043 14.3502 89.22 15.7195 90.2502 16.8605ZM38.8563 41.0507C41.26 40.5943 43.4348 39.6814 45.6096 38.8827C48.2422 37.8558 50.646 36.9429 53.2786 36.7147C56.9414 36.3724 60.4898 36.8289 63.8092 38.1981L65.984 38.9968L66.3274 36.7147C66.8997 33.1775 68.2733 29.8685 70.3336 27.0158C71.8217 24.8479 73.882 23.2504 76.0568 21.5388C77.8882 20.1696 79.7196 18.6862 81.3221 16.8605C82.3523 15.7195 83.268 14.3502 84.0692 12.8669V69.9192L33.9344 41.393C35.6513 41.5071 37.2538 41.393 38.8563 41.0507ZM37.7116 63.187C36.567 60.7908 36.2236 58.2805 35.7657 55.542C35.4224 53.2599 35.079 50.9778 34.2777 48.6957C33.8199 47.2124 33.0187 45.8431 32.2174 44.3598L79.2617 71.1743H43.8926C41.26 69.0064 39.1996 66.2678 37.7116 63.187ZM34.2777 97.0761C35.079 94.794 35.4224 92.5119 35.7657 90.2298C36.2236 87.4913 36.567 84.981 37.7116 82.5848C39.1996 79.504 41.26 76.7655 44.0071 74.5975H79.3762L32.3318 101.412C33.1331 100.043 33.8199 98.5594 34.2777 97.0761ZM81.3221 129.025C79.7196 127.2 77.8882 125.716 76.0568 124.347C73.882 122.636 71.8217 121.038 70.3336 118.87C68.2733 116.017 66.8997 112.708 66.3274 109.171L65.984 106.889L63.8092 107.688C60.3753 108.943 56.827 109.513 53.2786 109.171C50.646 108.943 48.2422 108.03 45.6096 107.003C43.4348 106.204 41.26 105.292 38.8563 104.835C37.3682 104.493 35.6513 104.379 34.0488 104.379L84.1837 75.8526V132.905C83.268 131.536 82.3523 130.166 81.3221 129.025ZM132.831 104.835C130.427 105.292 128.252 106.204 126.077 107.003C123.445 108.03 121.041 108.943 118.408 109.171C114.745 109.513 111.197 109.057 107.878 107.688L105.703 106.889L105.359 109.171C104.787 112.708 103.413 116.017 101.353 118.87C99.8651 120.924 97.8048 122.636 95.63 124.347C93.7986 125.716 91.9672 127.2 90.3647 129.025C89.3345 130.166 88.4188 131.536 87.6176 133.019V75.9667L137.752 104.493C135.921 104.379 134.319 104.493 132.831 104.835Z" stroke="#5F7F06" stroke-miterlimit="10"/>
</g>
<defs>
<clipPath id="clip0_3041_22257">
<rect width="170" height="71" fill="white"/>
</clipPath>
</defs>
</svg>
