<svg width="170" height="75" viewBox="0 0 170 75" fill="none" xmlns="http://www.w3.org/2000/svg">
<g clip-path="url(#clip0_3041_22259)">
<path d="M140.147 94.2691C150.536 94.2691 159 85.6853 159 75.3078C159 64.9304 150.536 56.3465 140.147 56.3465C131.683 56.3465 124.501 61.8555 122.064 69.9269H97.9532L115.01 52.7592C122.449 56.859 131.298 55.4497 137.326 49.4282C140.917 45.8409 142.841 41.1006 142.841 35.9759C142.841 30.8512 140.917 26.1109 137.326 22.5236C130.016 15.0929 117.96 15.0929 110.65 22.5236C104.622 28.5451 103.34 37.5133 107.444 45.0722L90.3865 62.2399V38.1539C98.4662 35.7197 103.853 28.417 103.853 19.9613C103.853 9.45572 95.3882 1 85 1C74.6118 1 66.1473 9.58383 66.1473 19.9613C66.1473 28.417 71.5338 35.7197 79.6135 38.1539V62.368L62.5563 45.2003C66.6603 37.7696 65.3778 28.6733 59.3501 22.6518C55.7591 19.0645 51.0139 17.1427 46.0121 17.1427C41.0104 17.1427 36.2652 19.0645 32.6742 22.6518C25.364 30.0825 25.364 42.1255 32.6742 49.5563C38.7019 55.5778 47.5511 56.859 54.9896 52.7592L72.0468 69.9269H47.9359C45.6274 61.7274 38.3172 56.3465 29.8527 56.3465C19.4645 56.3465 11 64.9304 11 75.3078C11 85.6853 19.4645 94.2691 29.8527 94.2691C38.3172 94.2691 45.4991 88.7601 47.9359 80.6887H72.0468L54.9896 97.8564C47.5511 93.7567 38.5737 95.0378 32.6742 101.059C25.364 108.49 25.364 120.533 32.6742 127.964C39.9844 135.395 52.0399 135.395 59.3501 127.964C65.3778 121.942 66.6603 112.974 62.5563 105.543L79.6135 88.3758V112.846C71.5338 115.28 66.1473 122.583 66.1473 131.039C66.1473 141.544 74.6118 150 85 150C95.3882 150 103.853 141.416 103.853 131.039C103.853 122.455 98.4662 115.28 90.3865 112.846V88.5039L107.444 105.672C103.468 113.102 104.75 122.071 110.65 128.092C117.96 135.523 130.016 135.523 137.326 128.092C144.636 120.661 144.636 108.618 137.326 101.187C131.298 95.1659 122.321 93.8848 115.01 97.9845L97.9532 80.8169H122.064C124.501 88.8882 131.683 94.2691 140.147 94.2691ZM110.65 106.184L111.291 105.159L87.8215 81.5856L87.3085 81.0731V115.152L88.4628 115.408C95.773 117.074 100.775 123.48 100.775 130.911C100.775 139.751 93.721 146.925 84.8717 146.925C76.1508 146.925 68.9688 139.751 68.9688 130.911C68.9688 123.48 73.9705 117.074 81.2808 115.408L82.435 115.152V81.0731L58.7088 105.031L58.5806 105.159L59.2218 106.184C63.1976 112.59 62.2998 120.661 57.0416 125.914C50.8856 132.192 40.7539 132.192 34.5979 125.914C28.442 119.636 28.442 109.515 34.5979 103.365C39.8562 98.1126 47.9359 97.2158 54.2201 101.187L55.2461 101.828L78.5875 78.2545L79.1005 77.742H45.3709L45.1144 78.8951C43.4471 86.1978 37.1629 91.3224 29.7244 91.3224C21.0035 91.3224 13.8215 84.1479 13.8215 75.3078C13.8215 66.4678 20.8752 59.2932 29.7244 59.2932C37.1629 59.2932 43.5754 64.4179 45.1144 71.7206L45.3709 72.8736H79.1005L55.3743 49.0439L55.2461 48.9157L54.2201 49.5563C47.9359 53.5279 39.8562 52.6311 34.5979 47.3783C31.6482 44.3035 29.981 40.3319 29.981 36.104C29.981 31.8762 31.6482 27.7764 34.5979 24.8298C37.5477 21.7549 41.5234 20.0894 45.7556 20.0894C49.9879 20.0894 53.9636 21.7549 56.9134 24.8298C62.1716 30.0825 63.0693 38.282 59.0936 44.5598L58.4523 45.5847L81.7938 69.1582L82.3068 69.6707V35.7197L81.1525 35.4635C73.8423 33.7979 68.8405 27.3921 68.8405 19.9613C68.8405 11.1212 75.8943 3.94669 84.7435 3.94669C93.4645 3.94669 100.646 11.1212 100.646 19.9613C100.646 27.5202 95.5165 33.7979 88.3345 35.4635L87.1803 35.7197V69.5426L110.906 45.7128L111.035 45.5847L110.393 44.5598C106.418 38.1539 107.315 30.0825 112.574 24.8298C115.523 21.8831 119.499 20.2175 123.731 20.2175C127.964 20.2175 131.939 21.8831 134.889 24.8298C137.839 27.9046 139.506 31.8762 139.506 36.104C139.506 40.3319 137.839 44.4316 134.889 47.3783C129.631 52.6311 121.551 53.5279 115.267 49.5563L114.241 48.9157L90.7712 72.4893L90.2582 73.0017H124.116L124.373 71.8487C126.04 64.546 132.324 59.4213 139.763 59.4213C148.484 59.4213 155.666 66.5959 155.666 75.4359C155.666 84.276 148.612 91.4506 139.763 91.4506C132.324 91.4506 126.04 86.3259 124.373 79.0232L124.116 77.8702H90.3865L114.497 101.7L114.626 101.828L115.652 101.187C121.936 97.2158 130.016 98.1126 135.274 103.365C141.43 109.643 141.43 119.764 135.274 125.914C129.118 132.192 118.986 132.192 112.83 125.914C107.572 120.661 106.674 112.462 110.65 106.184Z" stroke="#5F7F06" stroke-miterlimit="10"/>
</g>
<defs>
<clipPath id="clip0_3041_22259">
<rect width="170" height="75" fill="white"/>
</clipPath>
</defs>
</svg>
