<svg width="170" height="75" viewBox="0 0 170 75" fill="none" xmlns="http://www.w3.org/2000/svg">
<g clip-path="url(#clip0_3040_22255)">
<path d="M158 72.7935H91.4035L149.096 39.1517L147.388 36.2264L89.6959 69.8682L122.994 11.7264L120.067 10.0199L86.6466 68.0398V1H83.3534V68.0398L49.9332 10.0199L47.0058 11.7264L80.4261 69.8682L22.6115 36.2264L20.9039 39.1517L78.7185 72.7935H12V76.2065H78.7185L20.9039 109.726L22.6115 112.774L80.4261 79.1318L47.0058 137.274L49.9332 138.98L83.3534 80.8383V148H86.6466V80.8383L120.067 138.98L122.994 137.274L89.6959 79.1318L147.388 112.774L149.096 109.726L91.4035 76.2065H158V72.7935Z" stroke="#5F7F06" stroke-miterlimit="10"/>
</g>
<defs>
<clipPath id="clip0_3040_22255">
<rect width="170" height="75" fill="white"/>
</clipPath>
</defs>
</svg>
